<svg version="1.1" xmlns="http://www.w3.org/2000/svg" xmlns:xlink="http://www.w3.org/1999/xlink" x="0px" y="0px"
	 viewBox="0 0 200 200" style="enable-background:new 0 0 200 200;" xml:space="preserve">
<g>
	<path style="opacity:0.15;enable-background:new    ;" d="M108.2,108c-4-4.6-10.1-9.9-14.4-13.7c-3.3-2.8-5.7-4.7-5.7-4.7
		s-7.4-7.2-18.2-3.8C71.8,87,73,88,73,88s2.4,1.9,5.7,4.7c4.4,3.8,10.4,9.1,14.4,13.7c7,7.9-8.3,24.1-8.3,24.1S68.2,144.9,55.9,155
		c-0.9,0.7-1.8,1.3-2.6,1.8c4.2,3.1,10.7,5.4,17.6-0.3c12.3-10.1,28.9-24.5,28.9-24.5S115.2,115.8,108.2,108z"/>
	<path style="opacity:0.15;enable-background:new    ;" d="M166.8,34l-4.4,2.8c0.2,0.5,0.3,1.2,0.3,2c0,7-19.3,24.5-19.3,24.5
		l-42,36.9l5.9,4.6l47.3-41.6c0,0,19.3-17.5,19.3-24.5S166.8,34,166.8,34z"/>
</g>
<g>
	<path d="M157.5,143.8l-8.1,4.4c-2.1-6.5-8.7-11.1-9-11.3l-0.1-0.1c-11-6.6-15.6-0.6-20,5.1c-3.1,4-6.5,8.5-12.7,10.5
		c-3.5,1.1-6.4,1-8.4-0.6c-4-3-4.6-10.1-4.7-12.5c4-3.4,6.7-5.8,6.7-5.8l0.1-0.1c1.5-1.6,12.6-13.7,10.4-22.8
		c0.3-0.1,0.6-0.2,0.8-0.4l3-2.6c0.8-0.7,0.9-2,0.2-2.8c-0.7-0.8-2-0.9-2.8-0.2l-2.9,2.5c-0.1-0.1-0.2-0.3-0.3-0.4
		c-0.2-0.2-0.4-0.4-0.6-0.6l46.8-41.2c3.3-3,19.9-18.5,19.9-26c0-3.3-1.4-5.1-2.5-5.9c-2.8-2.1-6.6-1-7.1-0.8l-0.3,0.1l-7.7,5
		L93.7,91.7c-2.4-2-4.1-3.4-4.4-3.6c-0.8-0.8-7.8-6.6-17.6-4.7c-0.1,0-0.2,0-0.4,0.1c-2.5,0.5-5.2,1.6-8.1,3.4
		c-3.1-4.9-10.5-16-15.9-16.8c-1.4-0.2-2.6,0.2-3.6,1.1c-5.3,4.8,1.4,20.9,4.1,26.7c-7.7,5.4-13,9-13,9l-0.2,0.1
		c-4.3,3.6-10.9,12.5-5.6,20.6c1.6,2.5,3.8,5.7,6,9c-3.1,3.9-11.9,15.1-15.1,21c-4.1,7.3,1.8,12.1,4.9,14.7c0.6,0.5,1.1,0.9,1.5,1.3
		c0.9,0.9,2.1,1.3,3.7,1.3c1.6,0,3.6-0.5,5.8-1.4c3-1.3,5.7-3.1,8-5.3l9.2-8.9c2,1.3,4.4,2.5,7.2,2.8c0.6,0.1,1.3,0.1,1.9,0.1
		c3.5,0,6.9-1.3,10.1-4c5.9-4.8,12.8-10.7,18.4-15.5c0.5,3.9,2,9.5,6,12.5c1.9,1.4,4.1,2.1,6.6,2.1c1.7,0,3.5-0.3,5.4-0.9
		c7.3-2.4,11.4-7.6,14.6-11.9c4.4-5.8,6.9-8.9,14.7-4.2c0.5,0.4,6.4,4.6,7.7,9.9l-6.2,3.4c-1,0.5-1.3,1.7-0.8,2.7c0.4,0.7,1,1,1.8,1
		c0.3,0,0.6-0.1,1-0.2l17.9-9.7c1-0.5,1.3-1.7,0.8-2.7C159.7,143.6,158.5,143.2,157.5,143.8z M160.6,40.4l7.1-4.6
		c0.7-0.2,2.4-0.4,3.3,0.3c0.6,0.4,0.9,1.3,0.9,2.7c0,4.2-10.9,16-18.6,23l-46,40.5l-10.3-8.1L160.6,40.4z M46.5,74
		c0.1-0.1,0.1-0.1,0.3-0.1c3,0.4,9.2,8.6,13.2,15.1c-3.1,2.2-6,4.3-8.8,6.3C47.2,86.3,44.4,75.9,46.5,74z M41.1,165.1
		c-2,1.9-4.3,3.4-6.8,4.5c-3.5,1.5-5,1.2-5.2,0.9c-0.5-0.5-1.1-1-1.7-1.5c-3.9-3.2-6.2-5.6-3.9-9.7c2.8-5.1,10.5-15,14-19.5
		c4.6,6.7,9,12.8,9.1,13c0.1,0.2,1.3,1.8,3.4,3.7L41.1,165.1z M69.7,155c-2.9,2.4-5.9,3.4-8.9,3c-6.3-0.8-10.9-7.3-11-7.4l0,0
		c0-0.1-1.4-2-3.5-4.9l9.6-10.5c0.4-0.4,0.5-0.9,0.5-1.5c0-0.5-0.3-1-0.7-1.4c0,0-1.8-1.7-2-4.6c-0.2-2.8,1.2-5.9,4.2-9.2
		c0.7-0.8,0.7-2.1-0.1-2.8c-0.8-0.7-2.1-0.7-2.8,0.1c-3.7,4.1-5.4,8.1-5.2,12.1c0.1,2.6,1.2,4.6,2,5.8l-7.8,8.6
		c-3.8-5.4-8.6-12.4-11.7-17.1c-4.4-6.8,4-14.5,4.8-15.3c1.2-0.8,13-8.9,26.6-18.8c2.6-1.9,5.1-3.1,7.5-3.7c1.7,1.9,2.5,3.7,2.5,5.6
		c0,4.2-4.1,8.6-8,12.5c-0.8,0.8-0.8,2-0.1,2.8c0.4,0.4,0.9,0.6,1.4,0.6c0.5,0,1-0.2,1.4-0.6c4.8-4.6,9.2-9.7,9.3-15.3
		c0-2.1-0.6-4.2-1.9-6.2c6.4,0.1,10.6,3.9,10.8,4.1l0.1,0.1c0,0,1.5,1.3,3.8,3.2l-0.1,0.1l1.9,1.5c4.2,3.6,10.2,8.9,14.2,13.4
		c4.7,5.3-4.3,17.1-8.2,21.3C97.2,131.7,81.4,145.4,69.7,155z"/>
	<path d="M181.2,33.3c-0.3-1.5-0.8-2.8-1.7-4.1c-4-5.6-12.1-3.5-12.5-3.4c-1.1,0.3-1.7,1.4-1.4,2.5c0.3,1.1,1.4,1.7,2.5,1.4
		c0.1,0,5.8-1.5,8.2,1.8c0.6,0.8,0.9,1.6,1.1,2.5c0.2,1,0.2,2.1,0.2,3.2c-0.1,1.1,0.8,2.1,1.9,2.1c0,0,0.1,0,0.1,0
		c1,0,1.9-0.8,2-1.9C181.5,36,181.4,34.7,181.2,33.3z"/>
	<path d="M176.5,45.4c-0.9-0.6-2.2-0.4-2.8,0.5l-0.5,0.7c-0.8,1.2-1.7,2.4-2.6,3.6c-0.7,0.9-0.5,2.1,0.4,2.8
		c0.4,0.3,0.8,0.4,1.2,0.4c0.6,0,1.2-0.3,1.6-0.8c1-1.3,1.9-2.6,2.7-3.8l0.5-0.7C177.7,47.3,177.4,46,176.5,45.4z"/>
	<path d="M163.7,58.6l-3.7,3.9c-0.8,0.8-0.7,2.1,0.1,2.8c0.4,0.4,0.9,0.5,1.4,0.5c0.5,0,1.1-0.2,1.5-0.6l3.7-3.9
		c0.8-0.8,0.7-2.1-0.1-2.8S164.4,57.8,163.7,58.6z"/>
	<path d="M152.2,70.5c-1,1-2.1,2.1-3,2.9c-1.3,1.2-2.4,2.3-3.5,3.2c-0.8,0.7-0.9,2-0.1,2.8c0.4,0.4,0.9,0.6,1.5,0.6
		c0.5,0,1-0.2,1.4-0.5c1.1-1,2.2-2,3.5-3.2c1-0.9,2.1-2,3.1-3c0.8-0.8,0.8-2,0-2.8S153,69.7,152.2,70.5z"/>
	<path d="M138.8,82.6l-6.3,5.3c-0.8,0.7-0.9,2-0.2,2.8c0.4,0.5,1,0.7,1.5,0.7c0.5,0,0.9-0.2,1.3-0.5l6.3-5.3c0.8-0.7,0.9-2,0.2-2.8
		C140.9,82,139.7,81.9,138.8,82.6z"/>
	<path d="M125.9,93.6l-5.9,5c-0.8,0.7-0.9,2-0.2,2.8c0.4,0.5,1,0.7,1.5,0.7c0.5,0,0.9-0.2,1.3-0.5l5.9-5c0.8-0.7,1-2,0.2-2.8
		C128,93,126.7,92.9,125.9,93.6z"/>
	<path d="M88.3,111.9c0.7-0.8,0.6-2.1-0.2-2.8c-0.8-0.7-2.1-0.6-2.8,0.2c-4.7,5.5-13.4,14.6-16.8,15.9c-1,0.4-1.6,1.5-1.2,2.6
		c0.3,0.8,1.1,1.3,1.9,1.3c0.2,0,0.5,0,0.7-0.1C75.3,126.9,87,113.4,88.3,111.9z"/>
	<path d="M93,117.7c0.7-0.8,0.6-2.1-0.2-2.8c-0.8-0.7-2.1-0.6-2.8,0.2c-4.7,5.5-13.4,14.6-16.8,15.9c-1,0.4-1.6,1.5-1.2,2.6
		c0.3,0.8,1.1,1.3,1.9,1.3c0.2,0,0.5,0,0.7-0.1C80,132.6,91.7,119.2,93,117.7z"/>
	<path d="M93.4,119.7c-4.7,5.5-13.4,14.6-16.8,15.9c-1,0.4-1.6,1.5-1.2,2.6c0.3,0.8,1.1,1.3,1.9,1.3c0.2,0,0.5,0,0.7-0.1
		c5.4-2,17.1-15.5,18.4-17c0.7-0.8,0.6-2.1-0.2-2.8C95.4,118.8,94.2,118.9,93.4,119.7z"/>
	<path d="M61.4,109l-3.2,2.6c-0.9,0.7-1,2-0.3,2.8c0.4,0.5,1,0.7,1.6,0.7c0.4,0,0.9-0.1,1.3-0.4l3.2-2.6c0.9-0.7,1-2,0.3-2.8
		C63.5,108.5,62.3,108.3,61.4,109z"/>
	<path d="M99.2,84.8c0.5,0,1-0.2,1.3-0.5l3.4-3.1c0.8-0.7,0.9-2,0.2-2.8c-0.7-0.8-2-0.9-2.8-0.2l-3.4,3.1c-0.8,0.7-0.9,2-0.2,2.8
		C98.1,84.5,98.6,84.8,99.2,84.8z"/>
	<path d="M111.4,73.9c0.5,0,0.9-0.2,1.3-0.5l4.9-4.3c0.8-0.7,0.9-2,0.2-2.8c-0.7-0.8-2-0.9-2.8-0.2l-4.9,4.3c-0.8,0.7-0.9,2-0.2,2.8
		C110.3,73.7,110.8,73.9,111.4,73.9z"/>
	<path d="M122.7,64c0.5,0,0.9-0.2,1.3-0.5l4-3.5c0.8-0.7,0.9-2,0.2-2.8c-0.7-0.8-2-0.9-2.8-0.2l-4,3.5c-0.8,0.7-0.9,2-0.2,2.8
		C121.6,63.8,122.1,64,122.7,64z"/>
	<path d="M133.8,54.3c0.5,0,0.9-0.2,1.3-0.5l3.2-2.8c0.8-0.7,0.9-2,0.2-2.8c-0.7-0.8-2-0.9-2.8-0.2l-3.2,2.8c-0.8,0.7-0.9,2-0.2,2.8
		C132.7,54.1,133.3,54.3,133.8,54.3z"/>
	<path d="M143.3,45.8c0.5,0,0.9-0.2,1.3-0.5l2.9-2.5c0.8-0.7,0.9-2,0.2-2.8c-0.7-0.8-2-0.9-2.8-0.2l-2.9,2.5c-0.8,0.7-0.9,2-0.2,2.8
		C142.2,45.6,142.8,45.8,143.3,45.8z"/>
	<path d="M154,36.5c0.5,0,0.9-0.2,1.3-0.5l4.5-3.9c0.8-0.7,0.9-2,0.2-2.8c-0.7-0.8-2-0.9-2.8-0.2l-4.5,3.9c-0.8,0.7-0.9,2-0.2,2.8
		C152.9,36.2,153.5,36.5,154,36.5z"/>
</g>
</svg>
