<svg width="42" height="42" viewBox="0 0 42 42" fill="none" xmlns="http://www.w3.org/2000/svg">
<path d="M42 19.1714C42 18.6192 41.5523 18.1714 41 18.1714C40.4477 18.1714 40 18.6192 40 19.1714H42ZM41 21.0114L42 21.012V21.0114H41ZM28.733 3.64488C29.2375 3.86966 29.8287 3.64292 30.0534 3.13845C30.2782 2.63398 30.0515 2.0428 29.547 1.81802L28.733 3.64488ZM41.7075 5.7182C42.0978 5.32748 42.0975 4.69432 41.7068 4.30399C41.316 3.91366 40.6829 3.91397 40.2925 4.30469L41.7075 5.7182ZM21 25.0314L20.2929 25.7385C20.4805 25.9261 20.735 26.0315 21.0003 26.0314C21.2656 26.0314 21.52 25.9259 21.7075 25.7382L21 25.0314ZM15.7071 18.3243C15.3166 17.9338 14.6834 17.9338 14.2929 18.3243C13.9024 18.7149 13.9024 19.348 14.2929 19.7385L15.7071 18.3243ZM40 19.1714V21.0114H42V19.1714H40ZM40 21.0109C39.9977 25.1081 38.6709 29.0947 36.2177 32.3763L37.8196 33.5738C40.531 29.9468 41.9974 25.5405 42 21.012L40 21.0109ZM36.2177 32.3763C33.7645 35.6579 30.3162 38.0586 26.3872 39.2203L26.9542 41.1382C31.2969 39.8542 35.1081 37.2009 37.8196 33.5738L36.2177 32.3763ZM26.3872 39.2203C22.4581 40.382 18.2588 40.2425 14.4155 38.8226L13.7224 40.6986C17.9702 42.268 22.6116 42.4222 26.9542 41.1382L26.3872 39.2203ZM14.4155 38.8226C10.5722 37.4027 7.29084 34.7785 5.06082 31.3413L3.38302 32.4298C5.84777 36.2288 9.47453 39.1293 13.7224 40.6986L14.4155 38.8226ZM5.06082 31.3413C2.83081 27.9041 1.7716 23.8382 2.04119 19.7499L0.0455205 19.6183C-0.252439 24.1369 0.918258 28.6309 3.38302 32.4298L5.06082 31.3413ZM2.04119 19.7499C2.31077 15.6615 3.89469 11.7699 6.55673 8.65531L5.03639 7.35587C2.09413 10.7983 0.34348 15.0996 0.0455205 19.6183L2.04119 19.7499ZM6.55673 8.65531C9.21877 5.54073 12.8163 3.3701 16.8128 2.46715L16.372 0.516326C11.9548 1.51432 7.97864 3.91344 5.03639 7.35587L6.55673 8.65531ZM16.8128 2.46715C20.8092 1.5642 24.9905 1.97732 28.733 3.64488L29.547 1.81802C25.4106 -0.0250732 20.7891 -0.48167 16.372 0.516326L16.8128 2.46715ZM40.2925 4.30469L20.2925 24.3247L21.7075 25.7382L41.7075 5.7182L40.2925 4.30469ZM21.7071 24.3243L15.7071 18.3243L14.2929 19.7385L20.2929 25.7385L21.7071 24.3243Z" fill="#00B02A"/>
</svg>
