<?xml version="1.0" encoding="utf-8"?>
<!-- Generator: Adobe Illustrator 18.0.0, SVG Export Plug-In . SVG Version: 6.00 Build 0)  -->
<!DOCTYPE svg PUBLIC "-//W3C//DTD SVG 1.1//EN" "http://www.w3.org/Graphics/SVG/1.1/DTD/svg11.dtd">
<svg version="1.1" xmlns="http://www.w3.org/2000/svg" xmlns:xlink="http://www.w3.org/1999/xlink" x="0px" y="0px"
	 viewBox="935.9 421.1 53.9 53.7" enable-background="new 935.9 421.1 53.9 53.7" xml:space="preserve">
<g id="Capa_1">
	<path d="M975,440.9l-5.9-5.9h-7.4l-2.9,2.9c-7.3-0.6-13.2,3.5-13.3,3.6c-0.2,0.2-0.3,0.5-0.1,0.7c0.1,0.1,0.3,0.2,0.4,0.2
		c0.1,0,0.2,0,0.3-0.1c0.1-0.1,5.2-3.6,11.6-3.4l-9.5,9.5l0,0l-3.2,3.2l13.4,13.4l5.3-5.3c1.1,0.6,2.4,0.9,3.6,0.9
		c1.9,0,3.7-0.6,4.8-1.8c3.9-3.9,2.4-8.2,1.8-9.4l1-1L975,440.9L975,440.9z M968.6,436.1l5.3,5.3v6.6l-10.4,10.4
		c-2.2-1.6-2.8-4.5-1.9-8.3c0.1-0.3-0.1-0.6-0.4-0.6c-0.3-0.1-0.6,0.1-0.6,0.4c-1.4,5.4,0.5,8.1,2.1,9.3l-1.2,1.2l-11.9-11.9
		l9.4-9.4c2.2,0.3,4.6,1,6.9,2.5c0,0.1,0,0.2,0,0.4c0,1.2,0.9,2.1,2.1,2.1c1.2,0,2.1-0.9,2.1-2.1c0-1.2-0.9-2.1-2.1-2.1
		c-0.6,0-1.2,0.3-1.6,0.8c-2.2-1.4-4.4-2.1-6.4-2.5l2-2H968.6z M967.2,442.3c0.2,0.2,0.6,0.1,0.7-0.1c0.2-0.2,0.1-0.6-0.1-0.7
		c-0.2-0.1-0.3-0.2-0.5-0.3c0.2-0.2,0.4-0.3,0.7-0.3c0.6,0,1,0.5,1,1c0,0.6-0.5,1-1,1C967.7,442.9,967.3,442.6,967.2,442.3
		C967.2,442.3,967.2,442.3,967.2,442.3z M946.5,451.6l2.4-2.4l11.9,11.9l-2.4,2.4L946.5,451.6z M971.4,458c-1.4,1.4-4.5,2-6.9,0.9
		l8.7-8.7C973.7,451.5,974.6,454.9,971.4,458z"/>
</g>
<g id="Слой_2">
	<circle fill="none" stroke="#000000" stroke-miterlimit="10" cx="962.8" cy="447.9" r="26.3"/>
</g>
</svg>
