<?xml version="1.0" encoding="iso-8859-1"?>
<!-- Generator: Adobe Illustrator 18.1.1, SVG Export Plug-In . SVG Version: 6.00 Build 0)  -->
<svg version="1.1" id="Capa_1" xmlns="http://www.w3.org/2000/svg" xmlns:xlink="http://www.w3.org/1999/xlink" x="0px" y="0px"
	 viewBox="0 0 149.237 149.237" style="enable-background:new 0 0 149.237 149.237;" xml:space="preserve">
<g>
	<path style="fill:#010002;" d="M103.489,28.871c-0.925-0.925-2.429-0.925-3.353,0c-0.931,0.931-0.931,2.434,0,3.359l40.008,40.014
		H9.094l40.008-40.014c0.931-0.925,0.931-2.429,0-3.359c-0.925-0.925-2.429-0.925-3.353,0L1.683,72.937c0,0,0,0-0.006,0L0,74.613
		l1.677,1.677c0.006,0,0.006,0,0.006,0.006l44.065,44.065c0.465,0.465,1.074,0.698,1.677,0.698c0.615,0,1.217-0.233,1.677-0.698
		c0.931-0.925,0.931-2.429,0-3.359L9.094,76.988h131.05l-40.008,40.014c-0.931,0.931-0.931,2.434,0,3.359
		c0.459,0.465,1.074,0.698,1.677,0.698s1.211-0.233,1.677-0.698l45.748-45.748L103.489,28.871z"/>
</g>
<g>
</g>
<g>
</g>
<g>
</g>
<g>
</g>
<g>
</g>
<g>
</g>
<g>
</g>
<g>
</g>
<g>
</g>
<g>
</g>
<g>
</g>
<g>
</g>
<g>
</g>
<g>
</g>
<g>
</g>
</svg>
