<svg width="24" height="24" viewBox="0 0 24 24" fill="none" xmlns="http://www.w3.org/2000/svg">
<path d="M5.5 12C5.5 13.0653 5.75661 14.0718 6.2116 14.96L2.57726 18.5943C1.26811 16.7273 0.5 14.4539 0.5 12C0.5 9.54607 1.26811 7.27271 2.57726 5.40568L6.2116 9.04003C5.75661 9.9282 5.5 10.9347 5.5 12ZM18.5943 21.4227C16.7273 22.7319 14.4539 23.5 12 23.5C9.54605 23.5 7.27269 22.7319 5.40568 21.4227L9.04003 17.7884C9.92821 18.2434 10.9347 18.5 12 18.5C13.0653 18.5 14.0718 18.2434 14.96 17.7884L18.5943 21.4227ZM23.5 12C23.5 14.4539 22.7319 16.7273 21.4227 18.5943L17.7884 14.96C18.2434 14.0718 18.5 13.0653 18.5 12C18.5 10.9347 18.2434 9.9282 17.7884 9.04003L21.4227 5.40569C22.7319 7.27271 23.5 9.54607 23.5 12ZM5.40568 2.57726C7.27269 1.26811 9.54605 0.5 12 0.5C14.454 0.5 16.7273 1.26811 18.5943 2.57726L14.96 6.21161C14.0718 5.75661 13.0653 5.5 12 5.5C10.9347 5.5 9.92821 5.75661 9.04003 6.21161L5.40568 2.57726Z" stroke="#333333"/>
</svg>
