<svg width="18" height="22" viewBox="0 0 18 22" fill="none" xmlns="http://www.w3.org/2000/svg">
<path d="M17 9.18182H18H17ZM9 21L8.43666 21.8262C8.77649 22.0579 9.22351 22.0579 9.56334 21.8262L9 21ZM1 9.18182H0H1ZM9 1V2V1ZM16 9.18182C16 11.9701 14.2249 14.6834 12.2664 16.7977C11.3062 17.8342 10.3428 18.683 9.61852 19.2729C9.25713 19.5672 8.95722 19.7955 8.74962 19.9488C8.64586 20.0255 8.56531 20.0833 8.51183 20.1212C8.48509 20.1401 8.46513 20.1541 8.45244 20.1629C8.44609 20.1673 8.44157 20.1704 8.43892 20.1722C8.43759 20.1731 8.43674 20.1737 8.43636 20.174C8.43617 20.1741 8.4361 20.1742 8.43615 20.1741C8.43617 20.1741 8.4363 20.174 8.43632 20.174C8.43647 20.1739 8.43666 20.1738 9 21C9.56334 21.8262 9.56359 21.8261 9.56387 21.8259C9.564 21.8258 9.56431 21.8256 9.56458 21.8254C9.56512 21.825 9.56578 21.8246 9.56656 21.824C9.56812 21.823 9.57016 21.8216 9.57268 21.8198C9.57772 21.8164 9.58467 21.8116 9.59346 21.8055C9.61104 21.7932 9.636 21.7758 9.66786 21.7532C9.73157 21.7081 9.82289 21.6425 9.93788 21.5576C10.1678 21.3878 10.4929 21.1402 10.8815 20.8237C11.6572 20.192 12.6938 19.2794 13.7336 18.1568C15.7751 15.953 18 12.7572 18 9.18182H16ZM9 21C9.56334 20.1738 9.56353 20.1739 9.56368 20.174C9.5637 20.174 9.56383 20.1741 9.56385 20.1741C9.5639 20.1742 9.56383 20.1741 9.56364 20.174C9.56326 20.1737 9.56241 20.1731 9.56108 20.1722C9.55843 20.1704 9.55391 20.1673 9.54756 20.1629C9.53487 20.1541 9.51491 20.1401 9.48817 20.1212C9.43469 20.0833 9.35414 20.0255 9.25038 19.9488C9.04278 19.7955 8.74287 19.5672 8.38148 19.2729C7.65716 18.683 6.69377 17.8342 5.73362 16.7977C3.77507 14.6834 2 11.9701 2 9.18182H0C0 12.7572 2.22493 15.953 4.26638 18.1568C5.30623 19.2794 6.34284 20.192 7.11852 20.8237C7.50713 21.1402 7.83222 21.3878 8.06212 21.5576C8.17711 21.6425 8.26843 21.7081 8.33214 21.7532C8.364 21.7758 8.38896 21.7932 8.40654 21.8055C8.41533 21.8116 8.42228 21.8164 8.42732 21.8198C8.42984 21.8216 8.43188 21.823 8.43344 21.824C8.43422 21.8246 8.43488 21.825 8.43542 21.8254C8.43569 21.8256 8.436 21.8258 8.43613 21.8259C8.43641 21.8261 8.43666 21.8262 9 21ZM2 9.18182C2 7.26992 2.74283 5.44073 4.05815 4.09552L2.62814 2.69728C0.942878 4.42084 5.96046e-08 6.75381 0 9.18182H2ZM4.05815 4.09552C5.37273 2.75107 7.15083 2 9 2V0C6.60571 0 4.31415 0.972956 2.62814 2.69728L4.05815 4.09552ZM9 2C10.8492 2 12.6273 2.75107 13.9418 4.09552L15.3719 2.69728C13.6859 0.972956 11.3943 0 9 0V2ZM13.9418 4.09552C15.2572 5.44073 16 7.26992 16 9.18182H18C18 6.75381 17.0571 4.42084 15.3719 2.69728L13.9418 4.09552ZM10.6667 9.18182C10.6667 10.1571 9.89941 10.9091 9 10.9091V12.9091C11.0461 12.9091 12.6667 11.219 12.6667 9.18182H10.6667ZM9 10.9091C8.10059 10.9091 7.33333 10.1571 7.33333 9.18182H5.33333C5.33333 11.219 6.95389 12.9091 9 12.9091V10.9091ZM7.33333 9.18182C7.33333 8.20657 8.10059 7.45455 9 7.45455V5.45455C6.95389 5.45455 5.33333 7.14461 5.33333 9.18182H7.33333ZM9 7.45455C9.89941 7.45455 10.6667 8.20657 10.6667 9.18182H12.6667C12.6667 7.14461 11.0461 5.45455 9 5.45455V7.45455Z" fill="black"/>
</svg>
