<svg width="24" height="24" viewBox="0 0 24 24" fill="none" xmlns="http://www.w3.org/2000/svg">
<path d="M13.9426 22.912L13.9424 22.9122C13.7563 23.0985 13.5353 23.2464 13.292 23.3472C13.0488 23.4481 12.7881 23.5 12.5248 23.5C12.2615 23.5 12.0008 23.4481 11.7575 23.3472C11.5143 23.2464 11.2933 23.0985 11.1072 22.9122L11.1068 22.9118L0.5 12.3146V0.5H12.3114L22.9173 11.1087C22.9174 11.1088 22.9176 11.109 22.9177 11.1091C23.2907 11.4846 23.5 11.9924 23.5 12.5218C23.5 13.0512 23.2907 13.559 22.9177 13.9345C22.9176 13.9346 22.9174 13.9348 22.9173 13.9349L13.9426 22.912ZM7.5 9.5C8.60457 9.5 9.5 8.60457 9.5 7.5C9.5 6.39543 8.60457 5.5 7.5 5.5C6.39543 5.5 5.5 6.39543 5.5 7.5C5.5 8.60457 6.39543 9.5 7.5 9.5Z" stroke="#999999" stroke-linecap="round" stroke-linejoin="round"/>
</svg>
