<svg width="14" height="16" viewBox="0 0 14 16" fill="none" xmlns="http://www.w3.org/2000/svg">
<path d="M1 3.3C0.723858 3.3 0.5 3.52386 0.5 3.8C0.5 4.07614 0.723858 4.3 1 4.3V3.3ZM13 4.3C13.2761 4.3 13.5 4.07614 13.5 3.8C13.5 3.52386 13.2761 3.3 13 3.3V4.3ZM11.6667 3.8H12.1667C12.1667 3.52386 11.9428 3.3 11.6667 3.3V3.8ZM2.33333 13.6H1.83333H2.33333ZM3.83333 3.8C3.83333 4.07614 4.05719 4.3 4.33333 4.3C4.60948 4.3 4.83333 4.07614 4.83333 3.8H3.83333ZM5.66667 1V0.5V1ZM8.33333 1V0.5V1ZM9.16667 3.8C9.16667 4.07614 9.39052 4.3 9.66667 4.3C9.94281 4.3 10.1667 4.07614 10.1667 3.8H9.16667ZM6.16667 7.3C6.16667 7.02386 5.94281 6.8 5.66667 6.8C5.39052 6.8 5.16667 7.02386 5.16667 7.3H6.16667ZM5.16667 11.5C5.16667 11.7761 5.39052 12 5.66667 12C5.94281 12 6.16667 11.7761 6.16667 11.5H5.16667ZM8.83333 7.3C8.83333 7.02386 8.60948 6.8 8.33333 6.8C8.05719 6.8 7.83333 7.02386 7.83333 7.3H8.83333ZM7.83333 11.5C7.83333 11.7761 8.05719 12 8.33333 12C8.60948 12 8.83333 11.7761 8.83333 11.5H7.83333ZM1 4.3H2.33333V3.3H1V4.3ZM2.33333 4.3H13V3.3H2.33333V4.3ZM11.1667 3.8V13.6H12.1667V3.8H11.1667ZM11.1667 13.6C11.1667 13.8464 11.0732 14.078 10.9141 14.2451L11.6382 14.9348C11.9791 14.5768 12.1667 14.0963 12.1667 13.6H11.1667ZM10.9141 14.2451C10.7557 14.4114 10.5463 14.5 10.3333 14.5V15.5C10.8277 15.5 11.2965 15.2936 11.6382 14.9348L10.9141 14.2451ZM10.3333 14.5H3.66667V15.5H10.3333V14.5ZM3.66667 14.5C3.45374 14.5 3.2443 14.4114 3.08593 14.2451L2.36179 14.9348C2.70351 15.2936 3.17235 15.5 3.66667 15.5V14.5ZM3.08593 14.2451C2.92676 14.078 2.83333 13.8464 2.83333 13.6H1.83333C1.83333 14.0963 2.02085 14.5768 2.36179 14.9348L3.08593 14.2451ZM2.83333 13.6V3.8H1.83333V13.6H2.83333ZM2.33333 4.3H11.6667V3.3H2.33333V4.3ZM4.83333 3.8V2.4H3.83333V3.8H4.83333ZM4.83333 2.4C4.83333 2.15365 4.92676 1.922 5.08593 1.75488L4.36179 1.06522C4.02085 1.4232 3.83333 1.90375 3.83333 2.4H4.83333ZM5.08593 1.75488C5.2443 1.58859 5.45374 1.5 5.66667 1.5V0.5C5.17235 0.5 4.70351 0.706412 4.36179 1.06522L5.08593 1.75488ZM5.66667 1.5H8.33333V0.5H5.66667V1.5ZM8.33333 1.5C8.54626 1.5 8.7557 1.58859 8.91407 1.75488L9.63821 1.06522C9.29649 0.706412 8.82765 0.5 8.33333 0.5V1.5ZM8.91407 1.75488C9.07324 1.922 9.16667 2.15365 9.16667 2.4H10.1667C10.1667 1.90375 9.97915 1.4232 9.63821 1.06522L8.91407 1.75488ZM9.16667 2.4V3.8H10.1667V2.4H9.16667ZM5.16667 7.3V11.5H6.16667V7.3H5.16667ZM7.83333 7.3V11.5H8.83333V7.3H7.83333Z" fill="black"/>
</svg>
