<svg width="12" height="12" viewBox="0 0 12 12" fill="none" xmlns="http://www.w3.org/2000/svg">
<path d="M7.85644 10.2848H6.11181C6.04817 10.2848 5.99597 10.3049 5.95505 10.3452C5.91426 10.3853 5.89375 10.4367 5.89375 10.4992V11.7856C5.89375 11.8483 5.91416 11.8995 5.95505 11.9398C5.99599 11.9799 6.04817 12 6.11181 12H7.85644C7.92008 12 7.97235 11.9799 8.0131 11.9398C8.05411 11.8994 8.07428 11.8483 8.07428 11.7856V10.4992C8.07428 10.4367 8.05408 10.3853 8.0131 10.3452C7.97235 10.3049 7.92008 10.2848 7.85644 10.2848Z" fill="black"/>
<path d="M4.58512 9.42787H3.27661V0.214266C3.27661 0.151811 3.25623 0.100379 3.21531 0.0602506C3.1744 0.0201461 3.1222 0 3.05853 0H1.75C1.68643 0 1.63408 0.0200523 1.59324 0.0602271C1.55245 0.100449 1.53194 0.151811 1.53194 0.214243V9.42784H0.223408C0.123534 9.42784 0.05536 9.47245 0.0189813 9.56171C-0.0174212 9.64664 -0.00142797 9.72471 0.0666507 9.79615L2.24748 11.9389C2.29747 11.979 2.34967 11.999 2.40424 11.999C2.4633 11.999 2.5156 11.979 2.561 11.9389L4.73503 9.80288C4.78053 9.74943 4.8032 9.69568 4.8032 9.64237C4.8032 9.57961 4.7827 9.52841 4.74191 9.48795C4.70101 9.44794 4.64881 9.42787 4.58512 9.42787Z" fill="black"/>
<path d="M9.16492 6.85665H6.11174C6.0481 6.85665 5.9959 6.87671 5.95498 6.91686C5.91416 6.95702 5.89368 7.00841 5.89368 7.07088V8.35743C5.89368 8.4199 5.91409 8.47131 5.95498 8.51144C5.9959 8.55159 6.0481 8.57166 6.11174 8.57166H9.16492C9.22856 8.57166 9.28081 8.55159 9.32158 8.51144C9.36252 8.47129 9.383 8.4199 9.383 8.35743V7.07088C9.383 7.00841 9.36252 6.95699 9.32158 6.91686C9.28084 6.87673 9.22856 6.85665 9.16492 6.85665Z" fill="black"/>
<path d="M11.9388 0.060264C11.8978 0.0201584 11.8456 0 11.782 0H6.11181C6.04817 0 5.99597 0.0200645 5.95505 0.060264C5.91426 0.10051 5.89375 0.151904 5.89375 0.214374V1.5008C5.89375 1.56337 5.91416 1.61469 5.95505 1.65491C5.99599 1.69502 6.04817 1.71518 6.11181 1.71518H11.782C11.8456 1.71518 11.8978 1.69511 11.9387 1.65491C11.9796 1.61469 12 1.56337 12 1.5008V0.214397C12.0001 0.151904 11.9796 0.100417 11.9388 0.060264Z" fill="black"/>
<path d="M10.4735 3.42884H6.11174C6.0481 3.42884 5.9959 3.44891 5.95498 3.48915C5.91416 3.52935 5.89368 3.58068 5.89368 3.64326V4.92965C5.89368 4.99223 5.91409 5.04356 5.95498 5.08376C5.9959 5.12391 6.0481 5.14407 6.11174 5.14407H10.4735C10.5371 5.14407 10.5893 5.124 10.6303 5.08376C10.6711 5.04356 10.6915 4.99223 10.6915 4.92965V3.64326C10.6915 3.58068 10.6711 3.52926 10.6303 3.48915C10.5892 3.449 10.537 3.42884 10.4735 3.42884Z" fill="black"/>
</svg>
