<svg width="16" height="16" viewBox="0 0 16 16" fill="none" xmlns="http://www.w3.org/2000/svg">
<path d="M3.55556 12.5C3.39135 12.5 3.23761 12.5806 3.14425 12.7157L1.27782 15.416C0.953834 15.6354 0.5 15.4063 0.5 15V1.77778C0.5 1.43889 0.634623 1.11388 0.874252 0.874252C1.11388 0.634623 1.43889 0.5 1.77778 0.5H14.2222C14.5611 0.5 14.8861 0.634623 15.1257 0.874252C15.3654 1.11388 15.5 1.43889 15.5 1.77778V11.2222C15.5 11.5611 15.3654 11.8861 15.1257 12.1257C14.8861 12.3654 14.5611 12.5 14.2222 12.5H3.55556ZM12.5 4C12.5 3.72386 12.2761 3.5 12 3.5H4C3.72386 3.5 3.5 3.72386 3.5 4V5C3.5 5.27614 3.72386 5.5 4 5.5H12C12.2761 5.5 12.5 5.27614 12.5 5V4ZM8.5 8C8.5 7.72386 8.27614 7.5 8 7.5H4C3.72386 7.5 3.5 7.72386 3.5 8V9C3.5 9.27614 3.72386 9.5 4 9.5H8C8.27614 9.5 8.5 9.27614 8.5 9V8Z" stroke="black" stroke-linecap="round" stroke-linejoin="round"/>
</svg>
