<svg width="16" height="20" viewBox="0 0 16 20" fill="none" xmlns="http://www.w3.org/2000/svg">
<path fill-rule="evenodd" clip-rule="evenodd" d="M8 20C8 20 16 14.5455 16 8.18182C16 6.01186 15.1571 3.93079 13.6569 2.3964C12.1566 0.86201 10.1217 0 8 0C5.87827 0 3.84344 0.86201 2.34315 2.3964C0.842855 3.93079 3.16163e-08 6.01186 0 8.18182C0 14.5455 8 20 8 20ZM8 10.9091C9.47276 10.9091 10.6667 9.68805 10.6667 8.18182C10.6667 6.67559 9.47276 5.45455 8 5.45455C6.52724 5.45455 5.33333 6.67559 5.33333 8.18182C5.33333 9.68805 6.52724 10.9091 8 10.9091Z" fill="black"/>
</svg>
