<svg width="24" height="24" viewBox="0 0 24 24" fill="none" xmlns="http://www.w3.org/2000/svg">
<path d="M23.4994 16.4562L23.4993 16.4562V16.4686L23.4993 21.5816L23.4993 21.5836C23.5003 21.8492 23.4458 22.1122 23.3392 22.3557C23.2325 22.5991 23.076 22.8177 22.8797 22.9975C22.6834 23.1772 22.4516 23.3141 22.1991 23.3993C21.948 23.4841 21.6819 23.5159 21.4178 23.4926C17.7838 23.0978 14.2933 21.8581 11.2264 19.8732L11.2225 19.8707C8.36877 18.0609 5.94942 15.6464 4.13617 12.7985L4.13619 12.7985L4.1338 12.7948C2.13797 9.72005 0.895691 6.21957 0.507426 2.57675C0.48417 2.3142 0.515677 2.04967 0.599993 1.79983C0.684705 1.54881 0.820884 1.31807 0.999916 1.12234C1.17895 0.926599 1.39692 0.770146 1.63998 0.662997C1.88297 0.55588 2.14568 0.500399 2.41139 0.500117H7.53129V0.500141L7.53621 0.500093C8.00079 0.495529 8.45104 0.65973 8.80305 0.961858C9.15448 1.26349 9.38403 1.68202 9.44936 2.13953C9.60718 3.33236 9.89962 4.50356 10.3211 5.63081L10.3215 5.63193C10.4486 5.96934 10.4773 6.33563 10.4044 6.68844C10.4028 6.69073 10.3913 6.71939 10.3542 6.78205C10.3082 6.85947 10.2417 6.95852 10.1562 7.07603C9.98597 7.31022 9.75981 7.59172 9.52126 7.87571C9.05194 8.43443 8.55964 8.97329 8.40019 9.1358L8.37803 9.15589C8.20441 9.3133 8.16342 9.57019 8.27944 9.77383C9.1455 11.2939 9.85168 12.3431 10.7423 13.2311C11.6327 14.119 12.6846 14.8229 14.2074 15.6871C14.3951 15.7936 14.6301 15.7677 14.79 15.6227L14.8225 15.5932C14.8277 15.5884 14.8329 15.5836 14.8379 15.5786C14.9891 15.4294 15.5388 14.927 16.1087 14.4489C16.3929 14.2104 16.6745 13.9844 16.9089 13.8142C17.0265 13.7288 17.1257 13.6623 17.2032 13.6164C17.2689 13.5774 17.2973 13.5667 17.2971 13.566C17.297 13.5658 17.2926 13.5671 17.2844 13.5688C17.6423 13.4926 18.0147 13.5204 18.3572 13.649L18.3583 13.6494C19.4877 14.07 20.6611 14.3618 21.8561 14.5193C22.3203 14.5851 22.7439 14.8187 23.0468 15.1754C23.35 15.5326 23.511 15.9884 23.4994 16.4562Z" stroke="#BDBDBD" stroke-linecap="round" stroke-linejoin="round"/>
</svg>
