<svg width="16" height="12" viewBox="0 0 16 12" fill="none" xmlns="http://www.w3.org/2000/svg">
<path d="M1 0.5H4.09091C4.65005 0.5 5.25504 0.793753 5.73196 1.28557C6.20794 1.77642 6.5 2.40725 6.5 3V11.2727C6.5 11.3982 6.39825 11.5 6.27273 11.5C6.16883 11.5 5.99414 11.3967 5.915 11.1375C5.61768 10.1637 4.78376 9.25 3.63636 9.25H1C0.723858 9.25 0.5 9.02614 0.5 8.75V1C0.5 0.723858 0.723858 0.5 1 0.5ZM11.6364 0.5H15C15.2761 0.5 15.5 0.723857 15.5 1V8.75C15.5 9.02614 15.2761 9.25 15 9.25H12.3636C11.8756 9.25 11.3995 9.50388 11.0281 9.82501C10.6469 10.1546 10.3133 10.6073 10.1228 11.1134C10.0183 11.3912 9.83357 11.5 9.72727 11.5C9.60175 11.5 9.5 11.3982 9.5 11.2727V3C9.5 2.40526 9.79388 1.77003 10.245 1.27384C10.7045 0.768322 11.2395 0.5 11.6364 0.5Z" stroke="black"/>
</svg>
