<svg width="24" height="24" viewBox="0 0 24 24" fill="none" xmlns="http://www.w3.org/2000/svg">
<path d="M13.2036 7.41094L12.719 7.53398L12.719 7.53398L13.2036 7.41094ZM13.9608 3.18586L14.3512 3.49821V3.49821L13.9608 3.18586ZM13.2355 7.53718L12.7505 7.65845L12.7841 7.79281L12.882 7.89074L13.2355 7.53718ZM16.1364 10.4381L15.7829 10.7916L15.8745 10.8832L15.9991 10.9188L16.1364 10.4381ZM20.4878 10.0755L20.745 10.5042L20.4878 10.0755ZM22.8204 6.69653L22.3451 6.5415V6.54151L22.8204 6.69653ZM22.5707 5.63143L22.2172 5.98498L22.2172 5.98498L22.5707 5.63143ZM21.9382 4.99891L22.2918 4.64536L21.961 4.31459L21.609 4.62262L21.9382 4.99891ZM19.7414 6.92112L20.0707 7.29741L19.7414 6.92112ZM18.3758 6.87566L18.7294 6.5221L18.3758 6.87566ZM16.8435 5.34342L17.1971 4.98986V4.98986L16.8435 5.34342ZM16.8435 3.92919L16.49 3.57563V3.57563L16.8435 3.92919ZM18.6747 2.09803L19.0283 2.45159L19.3819 2.09803L19.0283 1.74448L18.6747 2.09803ZM18.0239 1.44721L17.6704 1.80076V1.80077L18.0239 1.44721ZM16.9921 1.1766L16.8594 0.694536L16.8594 0.694536L16.9921 1.1766ZM7.59576 13.3391L7.94932 12.9855L7.60003 12.6362L7.24652 12.9813L7.59576 13.3391ZM1.06878 19.8661L1.45856 20.1792H1.45856L1.06878 19.8661ZM10.4966 16.24L10.8565 16.587L11.1973 16.2336L10.8501 15.8864L10.4966 16.24ZM1.43144 22.4043L1.78502 22.0508H1.78502L1.43144 22.4043ZM2.6819 1.57271L2.32835 1.21916L2.6819 1.57271ZM1.63126 2.62335L1.27771 2.26979L1.27771 2.26979L1.63126 2.62335ZM3.91901 1.43182L4.18401 1.00782V1.00782L3.91901 1.43182ZM5.86818 2.65005L6.13318 2.22606L6.13318 2.22606L5.86818 2.65005ZM6.26666 3.12666L5.80242 3.31236L6.26666 3.12666ZM6.79429 4.44572L7.25852 4.26003L6.79429 4.44572ZM7.0153 4.78108L7.36885 4.42753L7.36885 4.42753L7.0153 4.78108ZM14.8479 12.6137L14.4944 12.9673L14.6408 13.1137H14.8479V12.6137ZM17.3193 12.9249L16.9568 13.2693L17.3193 12.9249ZM22.6374 18.5213L22.2748 18.8658L22.2838 18.8748L22.6374 18.5213ZM22.1766 22.2078L21.823 21.8542L22.1766 22.2078ZM18.0292 22.2078L18.3828 21.8542L18.3789 21.8504L18.0292 22.2078ZM12.9728 17.2592L12.6231 17.6165H12.6231L12.9728 17.2592ZM12.6723 14.7894H13.1723V14.5823L13.0258 14.4358L12.6723 14.7894ZM4.83999 6.9571L4.48644 7.31066L4.83999 6.9571ZM4.50428 6.73573L4.31858 7.19997L4.31858 7.19997L4.50428 6.73573ZM3.18522 6.20811L3.37091 5.74387L3.37091 5.74387L3.18522 6.20811ZM2.70861 5.80963L2.28461 6.07463L2.70861 5.80963ZM1.49037 3.86045L1.91437 3.59545L1.49037 3.86045ZM13.6883 7.28791C13.5639 6.79814 13.4266 6.24604 13.4675 5.61645C13.5075 5.00099 13.7209 4.28611 14.3512 3.49821L13.5703 2.87351C12.8117 3.82178 12.5228 4.73223 12.4696 5.55167C12.4173 6.35697 12.596 7.04933 12.719 7.53398L13.6883 7.28791ZM13.7206 7.41591C13.7101 7.37387 13.6992 7.33088 13.6883 7.2879L12.719 7.53398C12.73 7.5773 12.7405 7.61849 12.7505 7.65845L13.7206 7.41591ZM16.49 10.0845L13.5891 7.18363L12.882 7.89074L15.7829 10.7916L16.49 10.0845ZM20.2305 9.64671C19.4479 10.1163 18.4773 10.2085 17.6585 10.1654C17.2555 10.1442 16.9047 10.0911 16.6554 10.0433C16.5311 10.0195 16.4328 9.99719 16.367 9.98121C16.3341 9.97322 16.3093 9.96683 16.2935 9.96264C16.2856 9.96055 16.2799 9.959 16.2766 9.95809C16.275 9.95763 16.2739 9.95733 16.2734 9.95719C16.2732 9.95713 16.2731 9.9571 16.2731 9.95712C16.2732 9.95713 16.2732 9.95715 16.2733 9.95718C16.2734 9.95719 16.2735 9.95722 16.2735 9.95723C16.2737 9.95727 16.2738 9.9573 16.1364 10.4381C15.9991 10.9188 15.9992 10.9189 15.9994 10.9189C15.9994 10.9189 15.9996 10.919 15.9997 10.919C16 10.9191 16.0003 10.9192 16.0006 10.9193C16.0013 10.9195 16.0021 10.9197 16.0031 10.92C16.0051 10.9205 16.0077 10.9213 16.0109 10.9221C16.0173 10.9239 16.0261 10.9263 16.0372 10.9292C16.0595 10.9351 16.0911 10.9433 16.1311 10.953C16.2111 10.9724 16.3254 10.9983 16.4673 11.0255C16.7506 11.0797 17.1477 11.1399 17.6059 11.164C18.5096 11.2116 19.7147 11.1224 20.745 10.5042L20.2305 9.64671ZM22.3451 6.54151C22.0096 7.57016 21.5423 8.85966 20.2305 9.64671L20.745 10.5042C22.4026 9.50964 22.9595 7.88282 23.2958 6.85156L22.3451 6.54151ZM22.2172 5.98498C22.3576 6.12536 22.41 6.34244 22.3451 6.5415L23.2958 6.85156C23.474 6.30499 23.3385 5.69207 22.9243 5.27787L22.2172 5.98498ZM21.5847 5.35247L22.2172 5.98498L22.9243 5.27787L22.2918 4.64536L21.5847 5.35247ZM20.0707 7.29741L22.2675 5.3752L21.609 4.62262L19.4122 6.54483L20.0707 7.29741ZM18.0223 7.22921C18.5807 7.78761 19.4764 7.81743 20.0707 7.29741L19.4122 6.54483C19.2141 6.71817 18.9155 6.70823 18.7294 6.5221L18.0223 7.22921ZM16.49 5.69697L18.0223 7.22921L18.7294 6.5221L17.1971 4.98986L16.49 5.69697ZM16.49 3.57563C15.9042 4.16142 15.9042 5.11118 16.49 5.69697L17.1971 4.98986C17.0018 4.7946 17.0018 4.47801 17.1971 4.28274L16.49 3.57563ZM18.3212 1.74447L16.49 3.57563L17.1971 4.28275L19.0283 2.45159L18.3212 1.74447ZM17.6704 1.80077L18.3212 2.45158L19.0283 1.74448L18.3775 1.09366L17.6704 1.80077ZM17.1249 1.65866C17.3186 1.6053 17.5312 1.66158 17.6704 1.80076L18.3775 1.09366C17.981 0.697183 17.396 0.546794 16.8594 0.694536L17.1249 1.65866ZM14.3512 3.49821C15.3845 2.2066 16.397 1.85908 17.1249 1.65866L16.8594 0.694536C16.0146 0.927147 14.7821 1.35891 13.5703 2.87351L14.3512 3.49821ZM7.59576 13.3391C7.24652 12.9813 7.2465 12.9813 7.24645 12.9813C7.2464 12.9814 7.24633 12.9814 7.24624 12.9815C7.24606 12.9817 7.24578 12.982 7.24542 12.9823C7.24469 12.983 7.24361 12.9841 7.24217 12.9855C7.2393 12.9883 7.23502 12.9925 7.22938 12.998C7.21808 13.009 7.20133 13.0254 7.17946 13.0468C7.13573 13.0895 7.07153 13.1522 6.98962 13.2323C6.82582 13.3925 6.59119 13.6221 6.30783 13.8999C5.74114 14.4554 4.97936 15.2038 4.19924 15.975C3.41934 16.746 2.62016 17.5407 1.97903 18.1886C1.34973 18.8244 0.84513 19.3461 0.678986 19.5529L1.45856 20.1792C1.58374 20.0234 2.04067 19.5479 2.6898 18.892C3.3271 18.248 4.12325 17.4563 4.90227 16.6862C5.68107 15.9163 6.44179 15.1689 7.00788 14.614C7.2909 14.3365 7.52523 14.1072 7.68878 13.9473C7.77055 13.8673 7.83463 13.8047 7.87825 13.7621C7.90007 13.7408 7.91676 13.7245 7.928 13.7135C7.93362 13.708 7.93788 13.7039 7.94072 13.7011C7.94215 13.6997 7.94322 13.6986 7.94393 13.6979C7.94429 13.6976 7.94456 13.6973 7.94473 13.6972C7.94482 13.6971 7.94489 13.697 7.94493 13.697C7.94497 13.6969 7.94499 13.6969 7.59576 13.3391ZM10.8501 15.8864L7.94932 12.9855L7.2422 13.6926L10.143 16.5935L10.8501 15.8864ZM4.23375 23.1915C4.357 23.1148 4.55301 22.9393 4.75809 22.7483C4.98135 22.5405 5.26512 22.2662 5.58597 21.9506C6.22822 21.3187 7.02821 20.5118 7.80827 19.7179C8.58869 18.9237 9.3507 18.1411 9.9175 17.557C10.2009 17.265 10.4356 17.0226 10.5995 16.8531C10.6814 16.7684 10.7456 16.7019 10.7894 16.6566C10.8113 16.6339 10.828 16.6166 10.8393 16.6048C10.845 16.599 10.8493 16.5945 10.8521 16.5916C10.8536 16.5901 10.8547 16.5889 10.8554 16.5882C10.8558 16.5878 10.856 16.5875 10.8562 16.5873C10.8563 16.5872 10.8564 16.5872 10.8564 16.5871C10.8565 16.5871 10.8565 16.587 10.4966 16.24C10.1367 15.8929 10.1366 15.8929 10.1366 15.893C10.1366 15.893 10.1365 15.8931 10.1364 15.8932C10.1362 15.8933 10.136 15.8936 10.1356 15.894C10.1349 15.8947 10.1338 15.8958 10.1324 15.8973C10.1296 15.9003 10.1253 15.9047 10.1197 15.9105C10.1085 15.9221 10.0918 15.9394 10.07 15.962C10.0264 16.0071 9.96234 16.0734 9.88059 16.158C9.7171 16.3271 9.48284 16.5691 9.1999 16.8606C8.63394 17.4437 7.87348 18.2248 7.095 19.017C6.31616 19.8096 5.52083 20.6118 4.88464 21.2377C4.56626 21.5509 4.29003 21.8178 4.07666 22.0164C3.96979 22.1159 3.8813 22.1959 3.81265 22.255C3.73641 22.3207 3.70532 22.3425 3.70545 22.3424L4.23375 23.1915ZM1.07787 22.7579C1.69244 23.3725 2.30213 23.6296 2.88987 23.6296C3.45776 23.6296 3.91847 23.3876 4.23375 23.1915L3.70545 22.3424C3.43796 22.5089 3.17344 22.6296 2.88987 22.6296C2.62615 22.6296 2.25815 22.524 1.78502 22.0508L1.07787 22.7579ZM0.678987 19.5529C-0.117235 20.544 0.225945 21.9058 1.07787 22.7579L1.78502 22.0508C1.15786 21.4236 1.08951 20.6386 1.45856 20.1792L0.678987 19.5529ZM2.32835 1.21916L1.27771 2.26979L1.98482 2.9769L3.03545 1.92626L2.32835 1.21916ZM4.18401 1.00782C3.59169 0.637625 2.82225 0.725255 2.32835 1.21916L3.03545 1.92626C3.20009 1.76163 3.45657 1.73242 3.65401 1.85582L4.18401 1.00782ZM6.13318 2.22606L4.18401 1.00782L3.65401 1.85582L5.60318 3.07405L6.13318 2.22606ZM6.7309 2.94097C6.61261 2.64525 6.40327 2.39486 6.13318 2.22606L5.60318 3.07405C5.69321 3.13032 5.76299 3.21379 5.80242 3.31236L6.7309 2.94097ZM7.25852 4.26003L6.7309 2.94097L5.80242 3.31236L6.33005 4.63142L7.25852 4.26003ZM7.36885 4.42753C7.32115 4.37983 7.28377 4.32314 7.25852 4.26003L6.33005 4.63142C6.4054 4.81979 6.51792 4.99081 6.66174 5.13464L7.36885 4.42753ZM15.2015 12.2602L7.36885 4.42753L6.66174 5.13464L14.4944 12.9673L15.2015 12.2602ZM16.5944 12.1137H14.8479V13.1137H16.5944V12.1137ZM17.6817 12.5804C17.3985 12.2824 17.0055 12.1137 16.5944 12.1137V13.1137C16.7314 13.1137 16.8624 13.17 16.9568 13.2693L17.6817 12.5804ZM22.9998 18.1768L17.6817 12.5804L16.9568 13.2693L22.2749 18.8657L22.9998 18.1768ZM22.5301 22.5613C23.0078 22.0837 23.5454 21.4315 23.7534 20.6689C23.86 20.2779 23.8809 19.8544 23.7601 19.4176C23.6396 18.9819 23.3865 18.5632 22.9909 18.1677L22.2838 18.8748C22.5795 19.1705 22.7296 19.443 22.7963 19.6842C22.8627 19.9242 22.8548 20.1631 22.7886 20.4058C22.651 20.9104 22.267 21.4103 21.823 21.8542L22.5301 22.5613ZM17.6757 22.5613C19.3025 24.1882 21.4663 23.6251 22.5301 22.5613L21.823 21.8542C21.0435 22.6337 19.5208 22.9923 18.3828 21.8542L17.6757 22.5613ZM12.6231 17.6165L17.6795 22.5651L18.3789 21.8504L13.3226 16.9019L12.6231 17.6165ZM12.1723 16.5445C12.1723 16.9479 12.3348 17.3344 12.6231 17.6165L13.3226 16.9019C13.2264 16.8078 13.1723 16.679 13.1723 16.5445H12.1723ZM12.1723 14.7894V16.5445H13.1723V14.7894H12.1723ZM4.48644 7.31066L12.3187 15.1429L13.0258 14.4358L5.19355 6.60355L4.48644 7.31066ZM4.31858 7.19997C4.38145 7.22512 4.43856 7.26277 4.48644 7.31066L5.19355 6.60355C5.04991 6.45991 4.87858 6.34694 4.68997 6.27149L4.31858 7.19997ZM2.99952 6.67235L4.31858 7.19997L4.68997 6.27149L3.37091 5.74387L2.99952 6.67235ZM2.28461 6.07463C2.45341 6.34471 2.7038 6.55406 2.99952 6.67235L3.37091 5.74387C3.27234 5.70444 3.18887 5.63466 3.13261 5.54463L2.28461 6.07463ZM1.06637 4.12545L2.28461 6.07463L3.13261 5.54463L1.91437 3.59545L1.06637 4.12545ZM1.27771 2.26979C0.783808 2.7637 0.696177 3.53314 1.06637 4.12545L1.91437 3.59545C1.79097 3.39802 1.82018 3.14154 1.98482 2.9769L1.27771 2.26979Z" fill="#BDBDBD"/>
</svg>
