<svg version="1.1" xmlns="http://www.w3.org/2000/svg" xmlns:xlink="http://www.w3.org/1999/xlink" x="0px" y="0px"
	 viewBox="0 0 200 200" style="enable-background:new 0 0 200 200;" xml:space="preserve">
<g>
	<path style="opacity:0.15;enable-background:new    ;" d="M139.4,37.9c0,0-21.6,3.1-36.9,21.1S82,85.9,71.2,91.1
		s-10.9,5.2-10.9,5.2v-56L139.4,37.9z"/>
	<path style="opacity:0.15;enable-background:new    ;" d="M134.8,101.4c0,0-56.9,5.3-67.1,21H45c0,0-2.9-21,12.5-21
		S134.8,101.4,134.8,101.4z"/>
</g>
<g>
	<path d="M45,124.4h118.7h2h12.3V85.2c0-8.9-7-16.2-15.7-16.8c0.7-0.4,1.1-1.1,1.1-1.9l-2.3-36.2c-0.1-1.1-0.9-1.9-2-1.9h-13
		c-0.5,0-1.1,0.2-1.4,0.6c-0.4,0.4-0.6,0.9-0.6,1.5l2.8,65.9c0,1.1,0.9,1.9,2,1.9c0,0,0.1,0,0.1,0c1.1,0,2-1,1.9-2.1l-2.7-63.8h9
		l2.2,34.3c0,0.7,0.4,1.3,1,1.6h-5.1l-3.3,31.1H57.5c-0.9,0-1.8,0.1-2.7,0.3l-3.4-31.3h-6c-9.3,0-16.8,7.6-16.8,16.8v39.2H43H45z
		 M161.2,72.4c7.1,0,12.8,5.8,12.8,12.8v35.2h-8.3v-7.3c0-6.2-4.2-11.5-9.9-13.1l3-27.6H161.2z M152,103.4c5.4,0,9.7,4.3,9.7,9.7
		v7.3H47V114c0-5.8,4.7-10.5,10.5-10.5H152z M32.6,120.4V85.2c0-7.1,5.8-12.8,12.8-12.8h2.4l3.1,28.7c-4.7,2.4-7.9,7.3-7.9,12.9v6.4
		H32.6z"/>
	<path d="M44.9,67.7c1.1,0.1,2.1-0.7,2.2-1.8l2.6-33.4h9.1l-0.6,63.8c0,1.1,0.9,2,2,2c0,0,0,0,0,0c1.1,0,2-0.9,2-2l0.6-65.9
		c0-0.5-0.2-1-0.6-1.4c-0.4-0.4-0.9-0.6-1.4-0.6h-13c-1,0-1.9,0.8-2,1.8l-2.8,35.3C43,66.7,43.8,67.6,44.9,67.7z"/>
	<path d="M67.7,34.3h22.1c1.1,0,2-0.9,2-2s-0.9-2-2-2H67.7c-1.1,0-2,0.9-2,2S66.6,34.3,67.7,34.3z"/>
	<path d="M95.6,34.3h43.9c1.1,0,2-0.9,2-2s-0.9-2-2-2H95.6c-1.1,0-2,0.9-2,2S94.4,34.3,95.6,34.3z"/>
	<path d="M60.9,152.3H50.1c-1.1,0-2,0.9-2,2s0.9,2,2,2h10.8c1.1,0,2-0.9,2-2S62,152.3,60.9,152.3z"/>
	<path d="M182.1,146.6v-12.1c0-5.3-4.4-9.7-9.7-9.7H32.7c-5.3,0-9.7,4.4-9.7,9.7v12.1c0,4.3,2.8,7.9,6.7,9.2l-10.3,19.9
		c-0.4,0.9-0.4,1.9,0.1,2.8c0.5,0.9,1.5,1.4,2.5,1.4c6,0,11.7-3.3,14.9-8.5l9.6-16.1c0.6-0.9,0.3-2.2-0.7-2.7
		c-0.9-0.6-2.2-0.3-2.7,0.7l-9.6,16.1c-2.1,3.5-5.7,5.8-9.6,6.4l10.7-20.6c0.3-0.6,0.3-1.4-0.1-2c-0.4-0.6-1-1-1.7-1
		c-3.1,0-5.7-2.6-5.7-5.7v-12.1c0-3.1,2.6-5.7,5.7-5.7h139.6c3.1,0,5.7,2.6,5.7,5.7v12.1c0,3.1-2.6,5.7-5.7,5.7
		c-0.6,0-1.2,0.3-1.6,0.8c-0.4,0.5-0.5,1.2-0.3,1.8l6.7,20.7c-4.5-1-8.3-4.4-9.7-8.9l-4.1-13.1c-0.3-0.8-1-1.4-1.9-1.4H67.7
		c-1.1,0-2,0.9-2,2s0.9,2,2,2h92.2l3.6,11.7c2.2,7.1,8.9,12,16.4,12c0.6,0,1.2-0.3,1.6-0.8c0.4-0.5,0.5-1.2,0.3-1.8L175,156
		C179.1,154.8,182.1,151.1,182.1,146.6z"/>
	<path d="M160.7,150.6c1.1,0,2-0.9,2-2s-0.9-2-2-2H66.1c-1.1,0-2,0.9-2,2s0.9,2,2,2H160.7z"/>
	<path d="M168.4,146.6c-1.1,0.1-1.9,1-1.9,2.1c0,1.1,0.9,1.9,2,1.9c0,0,0.1,0,0.1,0c0.3,0,3.4-0.2,5.3-2.8c1.5-2,2-4.6,1.3-8
		c-0.2-1.1-1.3-1.8-2.4-1.6c-1.1,0.2-1.8,1.3-1.6,2.4c0.3,1.5,0.5,3.4-0.5,4.7C170,146.4,168.5,146.6,168.4,146.6z"/>
</g>
</svg>
