<svg version="1.1" xmlns="http://www.w3.org/2000/svg" xmlns:xlink="http://www.w3.org/1999/xlink" x="0px" y="0px"
	 viewBox="0 0 200 200" style="enable-background:new 0 0 200 200;" xml:space="preserve">
<g>
	<path d="M154.5,57.6c-8.4,3.7-10.3,13.4-10.4,13.8c0,0.1,0,0.2,0,0.4v71.9c0,1.1,0.9,2,2,2c1.1,0,2-0.9,2-2
		V72c0.3-1.2,2.1-8.1,8-10.7c1-0.4,1.5-1.6,1-2.6C156.7,57.6,155.5,57.2,154.5,57.6z"/>
	<path d="M146.1,154.4c-1.1,0-2,0.9-2,2v10.1c0,1.1,0.9,2,2,2c1.1,0,2-0.9,2-2v-10.1
		C148.1,155.3,147.2,154.4,146.1,154.4z"/>
	<path d="M170,35.4L170,35.4l-5.5-6.9l0,0c-2.1-2.8-5.4-4.7-9.1-4.7c-6.2,0-11.3,5.1-11.3,11.4
		c0,2.2,0.6,4.2,1.7,5.9c-1.5,2-2.3,4.5-2.3,7.1v1.7c-0.9,0.2-1.8,0.5-2.6,0.8c-11.3-10.6-25.3-17.2-40.6-19
		c-2.9-0.4-5.9-0.5-8.9-0.5c-22.7,0-42.9,10.5-56.2,26.9c-0.2,0.2-0.3,0.3-0.4,0.5c-9.8,12.4-15.8,28-15.8,45.1
		c0,8.1,1.3,16,3.9,23.5c0,0.2,0.1,0.3,0.2,0.5c0.4,1.1,0.8,2.2,1.2,3.3c4.3,10.7,11.4,20.4,20.4,28.1c13,11,29.6,17.1,46.7,17.1
		c15.4,0,30-4.7,42.5-13.7v1.7v0.2c0,6.6,5.4,12,12,12h19.1c6.6,0,12-5.4,12-12V164V62.2c0.1,0,0.2,0,0.3,0.1c0.1,0,0.3,0,0.4,0
		c0.7,0,1.9-0.3,2.7-1.7C184.2,54,172.7,38.9,170,35.4z M165,41.1c0.7-1.1,1.2-2.3,1.4-3.6c0.4,1.7,1.6,6.4,3.1,11.2
		c0.2,0.8,0.5,1.5,0.7,2.2c-0.9-0.5-1.9-0.8-2.9-1v-1.7C167.4,45.7,166.6,43.2,165,41.1z M155.4,27.8c4,0,7.3,3.3,7.3,7.4
		c0,3.6-2.5,6.6-5.8,7.3c0,0,0,0,0,0c-0.2,0-0.4,0.1-0.7,0.1c-0.3,0-0.5,0-0.8,0c-0.3,0-0.5,0-0.8,0c-0.1,0-0.2,0-0.3,0
		c-0.2,0-0.3,0-0.5-0.1c-0.1,0-0.2-0.1-0.4-0.1c-0.1,0-0.2-0.1-0.3-0.1c-0.2,0-0.3-0.1-0.4-0.2c-0.1,0-0.1-0.1-0.2-0.1
		c-0.2-0.1-0.3-0.2-0.5-0.2c0,0-0.1,0-0.1-0.1c-2.3-1.3-3.8-3.7-3.8-6.5C148.1,31.1,151.4,27.8,155.4,27.8z M91.3,35.1
		c0.1,0,0.3,0,0.4,0C84.1,38,74,43.6,64.8,54.6C60.6,59.5,57.1,65,54,71.1c-1.4-0.5-2.7-1-3.8-1.5c-7.4-3.4-10.4-7.8-11.5-9.8
		C51.3,44.7,70.2,35.1,91.3,35.1z M36.1,63.2c1.8,2.7,5.4,6.8,12.2,10c1.2,0.6,2.6,1.1,4,1.6c-2,4.4-3.7,9.1-5.1,14.1
		c-11.5-1.3-19.4-0.4-22.8,0.2C26.5,79.5,30.6,70.8,36.1,63.2z M42.4,151.5c-6.2-6.4-11.2-13.9-14.5-22.1c-0.4-1-0.8-2-1.1-3
		c0.2-8.5,5.1-12.8,5.3-12.9c0.1-0.1,4.1-3.1,11-3.4C41.6,122.6,41.3,136.4,42.4,151.5z M43.6,106.1c-8.7,0.2-13.8,4.1-14.1,4.3
		c-0.2,0.2-3.2,2.7-5.1,7.7c-1-4.7-1.5-9.6-1.5-14.5c0-3.5,0.3-7,0.8-10.4c0.8-0.2,9-1.9,22.6-0.4C45.2,97,44.3,101.5,43.6,106.1z
		 M133.8,157.4c-12.3,9.6-26.9,14.8-42.5,14.8c-16.1,0-31.8-5.7-44.1-16.2c-0.2-0.1-0.3-0.3-0.5-0.4c-1.4-16.7-1.3-31.8,0.4-45.2
		c9.1,0.9,21.8,6.6,36.9,25.3c14.6,18.2,27.2,27.4,37.2,27.4c0.2,0,0.4,0,0.7,0c6.3-0.3,9.2-4.3,9.3-4.5c0.6-0.9,0.4-2.1-0.5-2.7
		c-0.9-0.6-2.1-0.4-2.8,0.5c-0.1,0.1-1.9,2.6-6.3,2.8c-0.1,0-0.2,0-0.3,0c-6.1,0-17-4.6-34.1-25.9c-13.3-16.5-26.5-25.5-39.5-26.8
		c0.7-4.5,1.5-8.9,2.6-13c8.7,1.2,19.2,3.7,31.1,8.5c27.6,11,43.1,12.3,49,12.3c1.8,0,2.7-0.1,2.8-0.1c0.2,0,0.4-0.1,0.6-0.2V157.4z
		 M133.8,110.2c-0.3-0.2-0.7-0.2-1.1-0.2c-0.1,0-15.2,1.8-49.8-11.9c-12.1-4.8-22.7-7.4-31.6-8.7c1.4-4.8,3-9.3,4.9-13.5
		c4.4,1.1,9.8,1.8,16.3,1.8c14.3,0,34.1-3.5,61.2-13.8c0.1,0,0.1,0,0.1-0.1V110.2z M133.9,60.3c-0.5-0.3-1.1-0.3-1.7-0.1
		C94.4,74.6,71.5,75.4,57.9,72.2c2.8-5.5,6.1-10.5,9.8-15c15.3-18.3,33.7-20.9,35.6-21.1c12.8,2.2,24.4,8,34.1,16.8
		C135.5,54.9,134.2,57.4,133.9,60.3z M172.9,164c0,4.4-3.6,8-8,8h-19.1c-4.4,0-8-3.6-8-8v-5.7V61.7c0-2.9,1.5-5.5,3.9-6.9
		c1.2-0.7,2.5-1.1,3.9-1.1c0.1,0,0.1,0,0.2,0c0.1,0,0.1,0,0.2,0c0.1,0,0.2-0.1,0.2-0.1c0,0,0.1,0,0.1,0c0.1,0,0.1-0.1,0.2-0.1
		c0,0,0.1,0,0.1-0.1c0.1-0.1,0.1-0.1,0.2-0.2c0,0,0.1,0,0.1-0.1c0.1-0.1,0.1-0.1,0.2-0.2c0,0,0.1-0.1,0.1-0.1c0-0.1,0.1-0.1,0.1-0.2
		c0,0,0-0.1,0.1-0.1c0-0.1,0.1-0.2,0.1-0.2c0,0,0-0.1,0-0.1c0-0.1,0-0.3,0-0.4v-3.4c0-1.4,0.4-2.8,1.1-4c1.1,0.8,2.2,1.4,3.5,1.8
		c0.1,0,0.2,0,0.2,0.1c0.2,0.1,0.5,0.1,0.8,0.2c0.1,0,0.2,0,0.3,0.1c0.2,0,0.5,0.1,0.7,0.1c0.1,0,0.2,0,0.3,0c0.4,0,0.7,0.1,1.1,0.1
		c0.4,0,0.7,0,1.1-0.1c0.1,0,0.1,0,0.2,0c0.3,0,0.7-0.1,1-0.2c0,0,0,0,0,0c1.7-0.3,3.3-1.1,4.6-2.1c0.6,1,1.1,2.4,1.1,4v3.4
		c0,1.1,0.8,1.9,1.9,2c4.3,0.2,7.6,3.7,7.6,8V164z M173.3,47.3c2.3,4,3.9,7.7,3.8,9.9C176.1,55.4,174.7,51.7,173.3,47.3z"/>
</g>
<path style="opacity:0.15;enable-background:new    ;" d="M135.8,122.7v30.4c-11.4,8.4-25.6,13.4-40.9,13.4
	c-37.6,0-68-20.9-68-66.7c0-0.6,0-1.2,0-1.7c9.8,24.8,34.3,42.3,63,42.3C107.6,140.4,123.7,133.7,135.8,122.7z"/>
<path style="opacity:0.15;enable-background:new    ;" d="M161.5,171.1L161.5,171.1c-6.4,0-11.6-5.2-11.6-11.6V71.2
	c0-6.4,5.2-11.6,11.6-11.6l0,0c6.4,0,11.6,5.2,11.6,11.6v88.3C173,166,167.8,171.1,161.5,171.1z"/>
</svg>
