<svg width="22" height="16" viewBox="0 0 22 16" fill="none" xmlns="http://www.w3.org/2000/svg">
<path d="M8.80001 2.13333C8.80001 3.31154 7.81505 4.26667 6.60003 4.26667C5.38501 4.26667 4.40004 3.31154 4.40004 2.13333C4.40004 0.955126 5.38501 0 6.60003 0C7.81505 0 8.80001 0.955126 8.80001 2.13333Z" fill="white"/>
<path d="M17.6 2.13333C17.6 3.31154 16.615 4.26667 15.4 4.26667C14.185 4.26667 13.2 3.31154 13.2 2.13333C13.2 0.955126 14.185 0 15.4 0C16.615 0 17.6 0.955126 17.6 2.13333Z" fill="white"/>
<path fill-rule="evenodd" clip-rule="evenodd" d="M5.06003 8.74667C5.54604 9.10013 5.64454 9.76872 5.28003 10.24L4.65465 11.0486C4.90578 11.3551 5.27801 11.7524 5.78237 12.1509C6.85676 12.9998 8.54288 13.8667 11 13.8667C13.4571 13.8667 15.1432 12.9998 16.2176 12.1509C16.722 11.7524 17.0942 11.3551 17.3453 11.0486L16.72 10.24C16.3555 9.76872 16.454 9.10013 16.94 8.74667C17.426 8.3932 18.1154 8.48872 18.48 8.96L21.7799 13.2267C22.1444 13.6979 22.0459 14.3665 21.5599 14.72C21.0739 15.0735 20.3845 14.9779 20.0199 14.5067L18.6987 12.7984C18.4072 13.1122 18.0451 13.4587 17.6073 13.8047C16.2067 14.9113 14.0428 16 11 16C7.95715 16 5.79329 14.9113 4.3927 13.8047C3.95486 13.4587 3.59278 13.1122 3.30129 12.7984L1.98005 14.5067C1.61555 14.9779 0.92607 15.0735 0.440062 14.72C-0.0459455 14.3665 -0.144442 13.6979 0.220063 13.2267L3.52004 8.96C3.88455 8.48872 4.57403 8.3932 5.06003 8.74667Z" fill="white"/>
</svg>
