<svg width="18" height="17" viewBox="0 0 18 17" fill="none" xmlns="http://www.w3.org/2000/svg">
<path d="M14.7881 8.5488V15.8292H3.13947V8.5488" stroke="white" stroke-width="2" stroke-linecap="round" stroke-linejoin="round"/>
<path d="M16.2444 4.90891H1.68353V8.54912H16.2444V4.90891Z" stroke="white" stroke-width="2" stroke-linecap="round" stroke-linejoin="round"/>
<path d="M8.96381 15.8295V4.90891" stroke="white" stroke-width="2" stroke-linecap="round" stroke-linejoin="round"/>
<path d="M8.96379 4.9087H5.6876C5.20488 4.9087 4.74193 4.71694 4.40059 4.37561C4.05925 4.03427 3.86749 3.57132 3.86749 3.0886C3.86749 2.60588 4.05925 2.14293 4.40059 1.80159C4.74193 1.46025 5.20488 1.26849 5.6876 1.26849C8.23575 1.26849 8.96379 4.9087 8.96379 4.9087Z" stroke="white" stroke-width="2" stroke-linecap="round" stroke-linejoin="round"/>
<path d="M8.96381 4.9087H12.24C12.7227 4.9087 13.1857 4.71694 13.527 4.37561C13.8683 4.03427 14.0601 3.57132 14.0601 3.0886C14.0601 2.60588 13.8683 2.14293 13.527 1.80159C13.1857 1.46025 12.7227 1.26849 12.24 1.26849C9.69185 1.26849 8.96381 4.9087 8.96381 4.9087Z" stroke="white" stroke-width="2" stroke-linecap="round" stroke-linejoin="round"/>
</svg>
