<svg width="18" height="18" viewBox="0 0 18 18" fill="none" xmlns="http://www.w3.org/2000/svg">
<path d="M16.4169 9C16.4169 8.90681 16.4149 8.81406 16.4111 8.72176C16.3935 8.29657 16.6005 7.8843 16.9793 7.69039L17.3193 7.51635C17.7211 7.31067 17.941 6.85933 17.809 6.42767C17.7642 6.28115 17.7157 6.1362 17.6636 5.99288C17.5122 5.57663 17.0787 5.34602 16.6403 5.40948L16.224 5.46974C15.8111 5.52952 15.4098 5.32264 15.1748 4.97785C15.0656 4.81751 14.9499 4.6617 14.8282 4.51071C14.5591 4.17675 14.482 3.71728 14.6761 3.33477L14.8327 3.02595C15.0381 2.62107 14.9482 2.12392 14.5845 1.85213C14.4559 1.75599 14.3246 1.66313 14.1907 1.57361C13.8249 1.32895 13.3422 1.39463 13.0245 1.69923L12.7276 1.98387C12.4279 2.27127 11.9838 2.33732 11.5936 2.19518C11.3992 2.12436 11.2009 2.06134 10.9992 2.00641C10.5919 1.89552 10.2648 1.57583 10.1929 1.15991L10.1305 0.798816C10.0544 0.358199 9.69508 0.0156808 9.2481 0.00341882C9.16569 0.00115791 9.08299 0 9 0C8.91714 0 8.83454 0.00115663 8.75221 0.00341508C8.30524 0.015677 7.94589 0.358199 7.86978 0.798816L7.80746 1.15958C7.73559 1.57566 7.40819 1.89542 7.00077 2.00633C6.799 2.06126 6.60067 2.12429 6.40623 2.1951C6.01616 2.33718 5.57221 2.27102 5.27259 1.98366L4.97597 1.69917C4.65824 1.39444 4.17533 1.32877 3.80937 1.57348C3.67548 1.66301 3.54412 1.75587 3.41545 1.85202C3.05194 2.12367 2.96213 2.6206 3.16735 3.02535L3.32422 3.33475C3.51809 3.71712 3.44113 4.17638 3.17205 4.51014C3.05024 4.66122 2.9344 4.81714 2.82497 4.9776C2.58985 5.32232 2.18861 5.5292 1.77565 5.46941L1.35956 5.40916C0.921262 5.3457 0.487786 5.57622 0.336416 5.99242C0.284274 6.13578 0.23572 6.2808 0.19091 6.42741C0.0589877 6.85905 0.278872 7.31033 0.680632 7.516L1.02077 7.69012C1.39952 7.88401 1.60657 8.29623 1.58915 8.72137C1.58536 8.81368 1.58341 8.90646 1.58341 8.99969C1.58341 9.09309 1.58537 9.18604 1.58916 9.27852C1.60658 9.70372 1.39945 10.116 1.02062 10.3098L0.680858 10.4837C0.278985 10.6893 0.0590468 11.1407 0.19103 11.5724C0.235824 11.719 0.284358 11.8639 0.336476 12.0072C0.487842 12.4234 0.921283 12.654 1.3596 12.5906L1.77606 12.5304C2.18882 12.4707 2.58986 12.6774 2.82496 13.0219C2.93452 13.1824 3.05046 13.3384 3.17236 13.4895C3.44137 13.8231 3.51825 14.2821 3.32456 14.6643L3.16766 14.9739C2.96247 15.3789 3.05253 15.876 3.41615 16.1478C3.54468 16.2438 3.67589 16.3366 3.80962 16.4261C4.17542 16.6708 4.65812 16.6051 4.97574 16.3004L5.27236 16.0159C5.57209 15.7285 6.01625 15.6624 6.4065 15.8044C6.60096 15.8752 6.79931 15.9382 7.0011 15.9931C7.40838 16.1039 7.73556 16.4236 7.80741 16.8395L7.8699 17.2013C7.94596 17.6416 8.30482 17.984 8.75144 17.9965C8.83402 17.9988 8.91688 18 9 18C9.08325 18 9.16621 17.9988 9.24888 17.9965C9.6955 17.984 10.0544 17.6416 10.1304 17.2013L10.1929 16.8395C10.2648 16.4236 10.5919 16.1039 10.9992 15.993C11.2009 15.9382 11.3992 15.8752 11.5936 15.8044C11.9838 15.6624 12.4279 15.7284 12.7276 16.0158L13.0247 16.3007C13.3423 16.6052 13.8248 16.6709 14.1905 16.4264C14.3244 16.3369 14.4557 16.244 14.5843 16.1479C14.948 15.8761 15.038 15.3788 14.8326 14.9738L14.6759 14.6647C14.4819 14.2823 14.5589 13.823 14.8281 13.4893C14.9497 13.3384 15.0654 13.1827 15.1747 13.0224C15.4099 12.6774 15.8113 12.4702 16.2245 12.5299L16.6407 12.5901C17.0789 12.6534 17.5122 12.423 17.6636 12.007C17.7157 11.8638 17.7642 11.7189 17.809 11.5724C17.941 11.1407 17.721 10.6893 17.3191 10.4837L16.9794 10.3098C16.6005 10.116 16.3935 9.70373 16.4111 9.27854C16.4149 9.18617 16.4169 9.09333 16.4169 9ZM9.00064 12.9066C6.79727 12.9066 5.01112 11.1576 5.01112 9C5.01112 6.84241 6.79727 5.09369 9.00064 5.09369C11.2043 5.09369 12.9901 6.84242 12.9901 9.00031C12.9901 11.1582 11.204 12.9066 9.00064 12.9066Z" fill="black"/>
</svg>
