<svg width="12" height="12" viewBox="0 0 12 12" fill="none" xmlns="http://www.w3.org/2000/svg">
<path d="M11.9487 0.332423C11.8521 0.110897 11.6849 0.000119405 11.4464 0H0.553355C0.315101 0 0.14767 0.110897 0.0512112 0.332423C-0.0451876 0.565292 -0.00551329 0.76428 0.170413 0.928999L4.36609 5.13064V9.27265C4.36609 9.42056 4.42001 9.54823 4.52776 9.65635L6.70628 11.838C6.80849 11.9459 6.9361 12 7.08934 12C7.15736 12 7.22824 11.9857 7.30202 11.9573C7.52337 11.8607 7.63408 11.6931 7.63408 11.4545V5.13067L11.8296 0.929029C12.0056 0.76431 12.0452 0.565382 11.9487 0.332423Z" fill="black"/>
</svg>
