<svg width="24" height="24" viewBox="0 0 24 24" fill="none" xmlns="http://www.w3.org/2000/svg">
<path d="M8.52463 9.07053C8.43903 9.33307 8.58246 9.6153 8.845 9.7009C9.10753 9.78651 9.38976 9.64308 9.47537 9.38054L8.52463 9.07053ZM15 10.3358L14.5 10.3351V10.3358H15ZM11.7433 13.1962C11.4835 13.2896 11.3486 13.576 11.442 13.8359C11.5355 14.0957 11.8219 14.2306 12.0817 14.1372L11.7433 13.1962ZM12.5 16.1667C12.5 15.8905 12.2761 15.6667 12 15.6667C11.7239 15.6667 11.5 15.8905 11.5 16.1667H12.5ZM11.5 17C11.5 17.2761 11.7239 17.5 12 17.5C12.2761 17.5 12.5 17.2761 12.5 17H11.5ZM22.5 12C22.5 17.799 17.799 22.5 12 22.5V23.5C18.3513 23.5 23.5 18.3513 23.5 12H22.5ZM12 22.5C6.20101 22.5 1.5 17.799 1.5 12H0.5C0.5 18.3513 5.64873 23.5 12 23.5V22.5ZM1.5 12C1.5 6.20101 6.20101 1.5 12 1.5V0.5C5.64873 0.5 0.5 5.64873 0.5 12H1.5ZM12 1.5C17.799 1.5 22.5 6.20101 22.5 12H23.5C23.5 5.64873 18.3513 0.5 12 0.5V1.5ZM9.47537 9.38054C9.68319 8.7432 10.0905 8.21462 10.6159 7.8815L10.0804 7.03695C9.34858 7.50095 8.80073 8.22379 8.52463 9.07053L9.47537 9.38054ZM10.6159 7.8815C11.1401 7.5491 11.7514 7.43004 12.3435 7.5396L12.5255 6.5563C11.6803 6.3999 10.8134 6.57222 10.0804 7.03695L10.6159 7.8815ZM12.3435 7.5396C12.9363 7.64929 13.4823 7.98326 13.8803 8.49337L14.6687 7.8782C14.1276 7.18475 13.37 6.71257 12.5255 6.5563L12.3435 7.5396ZM13.8803 8.49337C14.2789 9.00423 14.5009 9.65653 14.5 10.3351L15.5 10.3365C15.5012 9.44189 15.2092 8.57089 14.6687 7.8782L13.8803 8.49337ZM14.5 10.3358C14.5 11.1983 13.8973 11.9008 13.1643 12.428C12.8089 12.6837 12.4502 12.8775 12.1788 13.0076C12.0437 13.0724 11.9319 13.1206 11.8551 13.1522C11.8168 13.1679 11.7873 13.1795 11.7681 13.1868C11.7586 13.1905 11.7516 13.1931 11.7474 13.1947C11.7453 13.1954 11.7439 13.196 11.7432 13.1962C11.7428 13.1963 11.7427 13.1964 11.7427 13.1964C11.7427 13.1964 11.7428 13.1964 11.7429 13.1963C11.7429 13.1963 11.743 13.1963 11.7431 13.1963C11.7432 13.1962 11.7433 13.1962 11.9125 13.6667C12.0817 14.1372 12.0819 14.1371 12.082 14.1371C12.0821 14.137 12.0823 14.137 12.0824 14.1369C12.0827 14.1368 12.0831 14.1367 12.0835 14.1365C12.0842 14.1363 12.0852 14.1359 12.0863 14.1355C12.0886 14.1347 12.0916 14.1335 12.0954 14.1322C12.1029 14.1294 12.1132 14.1255 12.1263 14.1205C12.1523 14.1105 12.1892 14.096 12.2352 14.0771C12.3273 14.0393 12.4567 13.9834 12.6111 13.9093C12.9185 13.7619 13.3318 13.5394 13.7482 13.2399C14.5589 12.6568 15.5 11.6939 15.5 10.3358H14.5ZM11.5 16.1667V17H12.5V16.1667H11.5Z" fill="black"/>
</svg>
