<svg width="22" height="22" viewBox="0 0 22 22" fill="none" xmlns="http://www.w3.org/2000/svg">
<path d="M14.3333 0C13.781 0 13.3333 0.447715 13.3333 1C13.3333 1.55228 13.781 2 14.3333 2V0ZM18.7778 1V0V1ZM14.3333 20C13.781 20 13.3333 20.4477 13.3333 21C13.3333 21.5523 13.781 22 14.3333 22V20ZM8.07067 15.8484C7.68015 16.239 7.68015 16.8721 8.07067 17.2627C8.4612 17.6532 9.09436 17.6532 9.48489 17.2627L8.07067 15.8484ZM14.3333 11L15.0404 11.7071C15.431 11.3166 15.431 10.6834 15.0404 10.2929L14.3333 11ZM9.48489 4.73734C9.09436 4.34681 8.4612 4.34681 8.07067 4.73734C7.68015 5.12786 7.68015 5.76103 8.07067 6.15155L9.48489 4.73734ZM1 10C0.447715 10 0 10.4477 0 11C0 11.5523 0.447715 12 1 12V10ZM14.3333 2H18.7778V0H14.3333V2ZM18.7778 2C19.1019 2 19.4128 2.12877 19.642 2.35798L21.0562 0.943767C20.452 0.339483 19.6324 0 18.7778 0V2ZM19.642 2.35798C19.8712 2.58719 20 2.89807 20 3.22222H22C22 2.36764 21.6605 1.54805 21.0562 0.943767L19.642 2.35798ZM20 3.22222V18.7778H22V3.22222H20ZM20 18.7778C20 19.1019 19.8712 19.4128 19.642 19.642L21.0562 21.0562C21.6605 20.452 22 19.6324 22 18.7778H20ZM19.642 19.642C19.4128 19.8712 19.1019 20 18.7778 20V22C19.6324 22 20.452 21.6605 21.0562 21.0562L19.642 19.642ZM18.7778 20H14.3333V22H18.7778V20ZM9.48489 17.2627L15.0404 11.7071L13.6262 10.2929L8.07067 15.8484L9.48489 17.2627ZM15.0404 10.2929L9.48489 4.73734L8.07067 6.15155L13.6262 11.7071L15.0404 10.2929ZM14.3333 10H1V12H14.3333V10Z" fill="black"/>
</svg>
