<svg width="18" height="16" viewBox="0 0 18 16" fill="none" xmlns="http://www.w3.org/2000/svg">
<path d="M15.7662 2.2377L15.412 2.59061L15.4122 2.59077L15.7662 2.2377ZM12.7887 1V1.5V1ZM9.81116 2.2377L10.1653 2.59069L10.1654 2.59061L9.81116 2.2377ZM8.9998 3.05166L8.64568 3.40465C8.73949 3.49876 8.86691 3.55166 8.9998 3.55166C9.13268 3.55166 9.2601 3.49876 9.35391 3.40465L8.9998 3.05166ZM8.18843 2.2377L7.83431 2.59069L8.18843 2.2377ZM2.23334 8.21187L2.58746 7.85888L2.23334 8.21187ZM8.9998 15L8.64568 15.353C8.73949 15.4471 8.86691 15.5 8.9998 15.5C9.13268 15.5 9.2601 15.4471 9.35391 15.353L8.9998 15ZM15.7662 8.21187L15.4122 7.8588L15.4121 7.85888L15.7662 8.21187ZM16.1205 1.8848C15.6831 1.44588 15.1638 1.09761 14.5921 0.859975L14.2083 1.78338C14.6584 1.97047 15.0675 2.24475 15.412 2.59061L16.1205 1.8848ZM14.5921 0.859975C14.0204 0.622335 13.4076 0.5 12.7887 0.5V1.5C13.2758 1.5 13.7582 1.59628 14.2083 1.78338L14.5921 0.859975ZM12.7887 0.5C12.1698 0.5 11.557 0.622335 10.9853 0.859975L11.3691 1.78338C11.8192 1.59628 12.3016 1.5 12.7887 1.5V0.5ZM10.9853 0.859975C10.4136 1.09761 9.89427 1.44588 9.45696 1.8848L10.1654 2.59061C10.51 2.24475 10.919 1.97047 11.3691 1.78338L10.9853 0.859975ZM9.45704 1.88471L8.64568 2.69868L9.35391 3.40465L10.1653 2.59069L9.45704 1.88471ZM9.35391 2.69868L8.54255 1.88471L7.83431 2.59069L8.64568 3.40465L9.35391 2.69868ZM8.54255 1.88471C7.65921 0.998546 6.46081 0.500411 5.21089 0.500411V1.50041C6.19456 1.50041 7.13826 1.89241 7.83431 2.59069L8.54255 1.88471ZM5.21089 0.500411C3.96096 0.500411 2.76256 0.998546 1.87922 1.88471L2.58746 2.59069C3.28351 1.89241 4.22722 1.50041 5.21089 1.50041V0.500411ZM1.87922 1.88471C0.995937 2.77083 0.5 3.97232 0.5 5.22479H1.5C1.5 4.2365 1.89135 3.28902 2.58746 2.59069L1.87922 1.88471ZM0.5 5.22479C0.5 6.47725 0.995937 7.67874 1.87922 8.56486L2.58746 7.85888C1.89135 7.16055 1.5 6.21307 1.5 5.22479H0.5ZM16.1203 8.56494C16.5578 8.12623 16.9048 7.60543 17.1415 7.03234L16.2172 6.65059C16.0305 7.10256 15.757 7.5131 15.4122 7.8588L16.1203 8.56494ZM17.1415 7.03234C17.3782 6.45924 17.5 5.84503 17.5 5.22479H16.5C16.5 5.71412 16.4039 6.19862 16.2172 6.65059L17.1415 7.03234ZM17.5 5.22479C17.5 4.60454 17.3782 3.99033 17.1415 3.41723L16.2172 3.79898C16.4039 4.25096 16.5 4.73545 16.5 5.22479H17.5ZM17.1415 3.41723C16.9048 2.84414 16.5578 2.32334 16.1203 1.88463L15.4122 2.59077C15.757 2.93647 16.0305 3.34701 16.2172 3.79898L17.1415 3.41723ZM1.87922 8.56486L8.64568 15.353L9.35391 14.647L2.58746 7.85888L1.87922 8.56486ZM9.35391 15.353L16.1204 8.56486L15.4121 7.85888L8.64568 14.647L9.35391 15.353Z" fill="black"/>
</svg>
