<svg width="29" height="28" viewBox="0 0 29 28" fill="none" xmlns="http://www.w3.org/2000/svg">
<path d="M28.0343 20.9324L22.5984 17.2828C22.1615 16.9992 21.6345 16.8886 21.1204 16.9725C20.6063 17.0564 20.1419 17.3288 19.8177 17.7366L18.2246 19.7931C18.182 19.8392 18.1232 19.8669 18.0605 19.8703H17.9639L17.655 19.6966C15.9075 18.7411 14.3315 17.5011 12.9915 16.0276C11.518 14.6877 10.2781 13.1116 9.32257 11.3641L9.15843 11.0552C9.13169 11.0138 9.12179 10.9637 9.13076 10.9152C9.13974 10.8668 9.16691 10.8236 9.20671 10.7945L11.2536 9.20138C11.6651 8.87992 11.9404 8.41518 12.0245 7.89981C12.1086 7.38444 11.9954 6.8563 11.7074 6.42069L8.05774 0.965517C7.8757 0.672926 7.62275 0.431027 7.32231 0.262245C7.02188 0.0934626 6.6837 0.00326051 6.33912 0V0C5.96156 0.00229676 5.59151 0.105646 5.2674 0.29931L2.97912 1.67034C2.15413 2.15546 1.5487 2.9408 1.28946 3.86207C0.430155 6.99035 1.04809 12.3586 8.84947 20.1503C14.0536 25.3545 18.775 28 22.8881 28C23.6482 28.0044 24.4052 27.9037 25.1377 27.7007C26.0635 27.4455 26.8533 26.8394 27.3391 26.011L28.7102 23.7324C28.9816 23.2689 29.0629 22.7183 28.9369 22.1961C28.8108 21.674 28.4873 21.221 28.0343 20.9324ZM10.1046 7.72414L8.05774 9.30759C7.66929 9.61117 7.40158 10.0431 7.30251 10.5261C7.20344 11.009 7.27949 11.5114 7.51705 11.9434L7.68119 12.2428C8.71388 14.1658 10.0618 15.9021 11.6688 17.3793C13.1323 18.9811 14.8518 20.3287 16.7571 21.3669L17.0564 21.531C17.3526 21.6942 17.6838 21.7837 18.0219 21.7917C18.338 21.7917 18.6499 21.7185 18.933 21.5778C19.2161 21.4371 19.4627 21.2327 19.6536 20.9807L21.2757 18.8855C21.2952 18.8608 21.3201 18.8409 21.3486 18.8275C21.3771 18.8141 21.4083 18.8075 21.4398 18.8083C21.4778 18.7985 21.5177 18.7985 21.5557 18.8083L27.0688 22.4869C27.0917 22.5008 27.1116 22.519 27.1274 22.5406C27.1433 22.5622 27.1546 22.5868 27.1609 22.6128C27.1672 22.6388 27.1683 22.6659 27.1641 22.6923C27.1598 22.7188 27.1504 22.7441 27.1364 22.7669L25.7267 25.1034C25.4878 25.5181 25.0963 25.823 24.6357 25.9531C24.06 26.1103 23.4655 26.1882 22.8688 26.1848C19.335 26.1848 14.9419 23.6552 10.1626 18.8855C2.99843 11.7214 2.36119 7.05793 3.09498 4.40276C3.14713 4.17079 3.24482 3.95149 3.38239 3.75757C3.51995 3.56365 3.69466 3.39898 3.89636 3.2731L6.23291 1.93103C6.26762 1.92111 6.30441 1.92111 6.33912 1.93103C6.36628 1.91815 6.39596 1.91147 6.42602 1.91147C6.45607 1.91147 6.48576 1.91815 6.51291 1.93103L8.49222 4.93379L10.1529 7.43448C10.1837 7.47969 10.1959 7.53504 10.1869 7.589C10.1779 7.64295 10.1484 7.69136 10.1046 7.72414Z" fill="black"/>
</svg>
