<svg version="1.1" id="РЎР»РѕР№_3" xmlns="http://www.w3.org/2000/svg" xmlns:xlink="http://www.w3.org/1999/xlink" x="0px" y="0px"
	 viewBox="0 0 200 200" style="enable-background:new 0 0 200 200;" xml:space="preserve">
<g>
	<path d="M148.1,18H52c-8.4,0-15.2,6.8-15.2,15.2c0,1.1,0.9,2,2,2c1.1,0,2-0.9,2-2c0-6.2,5-11.2,11.2-11.2
		h96.2c6.2,0,11.2,5,11.2,11.2V43c0,0-0.1,0-0.1,0H79.8c-1.1,0-2,0.9-2,2c0,1.1,0.9,2,2,2h79.4c0,0,0.1,0,0.1,0v119.2
		c0,6.2-5,11.2-11.2,11.2H52c-6.2,0-11.2-5-11.2-11.2V56.6c0-1.1-0.9-2-2-2c-1.1,0-2,0.9-2,2v109.6c0,8.4,6.8,15.2,15.2,15.2h96.2
		c8.4,0,15.2-6.8,15.2-15.2V33.2C163.3,24.8,156.5,18,148.1,18z"/>
	<path d="M54.4,43H38.8c-1.1,0-2,0.9-2,2c0,1.1,0.9,2,2,2h15.6c1.1,0,2-0.9,2-2C56.4,43.8,55.5,43,54.4,43z"
		/>
	<path d="M70,46.9c1.1,0,2-0.9,2-2c0-1.1-0.9-2-2-2h-6.9c-1.1,0-2,0.9-2,2c0,1.1,0.9,2,2,2H70z"/>
	<path d="M108.5,32.2c0-4.9-4-8.9-8.9-8.9c-4.9,0-8.9,4-8.9,8.9c0,4.9,4,8.9,8.9,8.9
		C104.5,41.1,108.5,37.2,108.5,32.2z M94.6,32.2c0-2.7,2.2-5,5-5c2.7,0,5,2.2,5,5c0,2.7-2.2,5-5,5C96.8,37.2,94.6,35,94.6,32.2z"/>
	<path d="M99.6,154.5c27.9,0,50.6-22.7,50.6-50.6c0-27.9-22.7-50.6-50.6-50.6S49,76,49,103.9
		C49,131.8,71.7,154.5,99.6,154.5z M99.6,57.2c25.7,0,46.7,20.9,46.7,46.7c0,25.7-20.9,46.7-46.7,46.7s-46.7-20.9-46.7-46.7
		C52.9,78.2,73.8,57.2,99.6,57.2z"/>
	<path d="M121.9,160.3v5.2c0,5.3,4.3,9.7,9.7,9.7h11.9c5.3,0,9.7-4.3,9.7-9.7v-5.2c0-5.3-4.3-9.7-9.7-9.7
		h-11.9C126.3,150.6,121.9,154.9,121.9,160.3z M149.3,160.3v5.2c0,3.2-2.6,5.8-5.8,5.8h-11.9c-3.2,0-5.8-2.6-5.8-5.8v-5.2
		c0-3.2,2.6-5.8,5.8-5.8h11.9C146.7,154.5,149.3,157.1,149.3,160.3z"/>
	<path d="M100,139.6c19.7,0,35.7-16,35.7-35.8c0-19.7-16-35.7-35.7-35.7c-9.9,0-19.5,4.2-26.3,11.6
		c-0.7,0.8-0.7,2,0.1,2.8c0.8,0.7,2,0.7,2.8-0.1c6-6.6,14.6-10.3,23.4-10.3c17.5,0,31.7,14.2,31.7,31.7c0,17.6-14.2,31.8-31.7,31.8
		s-31.7-14.2-31.7-31.7c0-4.1,0.8-8.1,2.3-11.9c0.4-1-0.1-2.2-1.1-2.6c-1-0.4-2.1,0.1-2.6,1.1c-1.7,4.3-2.6,8.8-2.6,13.3
		C64.3,123.6,80.3,139.6,100,139.6z"/>
</g>
<g>
	<path style="opacity:0.15;enable-background:new    ;" d="M159.4,65.6c0,0-1.8,15.1-11.5,34.1
		c0.2,1.8,0.3,3.5,0.3,5.4c0,27.3-22.2,49.5-49.5,49.5c-1.5,0-2.9-0.1-4.4-0.2C84,160.1,72.4,165,58.8,168.8l-22.1,3.1l4.2,6.5
		l13.5,3.6H148c0,0,13.4-0.7,13.4-13.4c0-12.7,0-109.5,0-109.5L159.4,65.6z"/>
	<path style="opacity:0.15;enable-background:new    ;" d="M112.5,80c0,0-38.9,5.3-37.2,42.2c0,0-8.7-16.8-0.1-30.7
		s21.9-14.8,21.9-14.8S108.1,75.8,112.5,80z"/>
</g>
</svg>
