<svg width="20" height="20" viewBox="0 0 20 20" fill="none" xmlns="http://www.w3.org/2000/svg">
<path d="M9.41302 19.9992V1.95959L12.0369 0V18.4327L9.41302 19.9992Z" fill="white"/>
<path d="M8.68881 5.88215V8.33312C8.68881 8.33312 3.50207 8.77452 3.16891 13.0402C3.16891 13.0402 2.44157 16.7645 8.68881 17.9413V20C8.68881 20 -0.0907928 19.0215 0.000710312 12.9419C0.000710312 12.9419 -0.0900111 6.76494 8.68881 5.88215Z" fill="white"/>
<path d="M12.6696 5.88215V8.17131C12.6696 8.17131 14.3448 8.14674 15.7463 9.41077L14.2103 10.0945L20 11.666V6.7641L18.0237 7.9756C18.0237 7.9756 16.3367 6.05498 12.6696 5.88215Z" fill="white"/>
</svg>
