<?xml version="1.0" encoding="utf-8"?>
<!-- Generator: Adobe Illustrator 18.0.0, SVG Export Plug-In . SVG Version: 6.00 Build 0)  -->
<!DOCTYPE svg PUBLIC "-//W3C//DTD SVG 1.1//EN" "http://www.w3.org/Graphics/SVG/1.1/DTD/svg11.dtd">
<svg version="1.1" xmlns="http://www.w3.org/2000/svg" xmlns:xlink="http://www.w3.org/1999/xlink" x="0px" y="0px"
	 viewBox="935.9 421.1 53.9 53.7" enable-background="new 935.9 421.1 53.9 53.7" xml:space="preserve">
<g id="Слой_2">
	<circle fill="none" stroke="#000000" stroke-miterlimit="10" cx="962.8" cy="447.9" r="26.3"/>
</g>
<g id="Слой_3">
	<g>
		<g>
			<path d="M972.7,451.6c-2.7,0-4.9,2.2-4.9,4.9s2.2,4.9,4.9,4.9c2.7,0,4.9-2.2,4.9-4.9S975.4,451.6,972.7,451.6z M972.7,459
				c-1.4,0-2.5-1.1-2.5-2.5c0-1.4,1.1-2.5,2.5-2.5c1.4,0,2.5,1.1,2.5,2.5C975.1,457.9,974,459,972.7,459z"/>
		</g>
	</g>
	<g>
		<g>
			<path d="M955.9,451.6c-2.7,0-4.9,2.2-4.9,4.9s2.2,4.9,4.9,4.9c2.7,0,4.9-2.2,4.9-4.9S958.6,451.6,955.9,451.6z M955.9,459
				c-1.4,0-2.5-1.1-2.5-2.5c0-1.4,1.1-2.5,2.5-2.5c1.4,0,2.5,1.1,2.5,2.5C958.4,457.9,957.3,459,955.9,459z"/>
		</g>
	</g>
	<g>
		<g>
			<path d="M976,437.6c-0.2-0.4-0.6-0.7-1.1-0.7h-6.5v2.5h5.7l3.3,6.6l2.2-1.1L976,437.6z"/>
		</g>
	</g>
	<g>
		<g>
			<rect x="959.7" y="455.3" width="9.3" height="2.5"/>
		</g>
	</g>
	<g>
		<g>
			<path d="M952.2,455.3H948c-0.7,0-1.2,0.5-1.2,1.2c0,0.7,0.5,1.2,1.2,1.2h4.3c0.7,0,1.2-0.5,1.2-1.2
				C953.4,455.9,952.9,455.3,952.2,455.3z"/>
		</g>
	</g>
	<g>
		<g>
			<path d="M981.9,447.8l-2.4-3.1c-0.2-0.3-0.6-0.5-1-0.5h-8.9v-8.6c0-0.7-0.5-1.2-1.2-1.2H948c-0.7,0-1.2,0.5-1.2,1.2
				s0.5,1.2,1.2,1.2h19.2v8.6c0,0.7,0.5,1.2,1.2,1.2h9.5l1.8,2.3v6.3h-3.4c-0.7,0-1.2,0.5-1.2,1.2c0,0.7,0.5,1.2,1.2,1.2h4.6
				c0.7,0,1.2-0.5,1.2-1.2v-8C982.2,448.3,982.1,448,981.9,447.8z"/>
		</g>
	</g>
	<g>
		<g>
			<path d="M952.1,449.1h-5.6c-0.7,0-1.2,0.5-1.2,1.2c0,0.7,0.5,1.2,1.2,1.2h5.6c0.7,0,1.2-0.5,1.2-1.2
				C953.4,449.7,952.8,449.1,952.1,449.1z"/>
		</g>
	</g>
	<g>
		<g>
			<path d="M955,444.3h-10.5c-0.7,0-1.2,0.5-1.2,1.2s0.5,1.2,1.2,1.2H955c0.7,0,1.2-0.5,1.2-1.2S955.6,444.3,955,444.3z"/>
		</g>
	</g>
	<g>
		<g>
			<path d="M957,439.5h-10.5c-0.7,0-1.2,0.5-1.2,1.2c0,0.7,0.5,1.2,1.2,1.2H957c0.7,0,1.2-0.5,1.2-1.2
				C958.2,440,957.6,439.5,957,439.5z"/>
		</g>
	</g>
</g>
</svg>
