<?xml version="1.0" encoding="utf-8"?>
<!-- Generator: Adobe Illustrator 18.0.0, SVG Export Plug-In . SVG Version: 6.00 Build 0)  -->
<!DOCTYPE svg PUBLIC "-//W3C//DTD SVG 1.1//EN" "http://www.w3.org/Graphics/SVG/1.1/DTD/svg11.dtd">
<svg version="1.1" xmlns="http://www.w3.org/2000/svg" xmlns:xlink="http://www.w3.org/1999/xlink" x="0px" y="0px"
	 viewBox="935.9 421.1 53.9 53.7" enable-background="new 935.9 421.1 53.9 53.7" xml:space="preserve">
<g id="Слой_2">
	<circle fill="none" stroke="#000000" stroke-miterlimit="10" cx="962.8" cy="447.9" r="26.3"/>
</g>
<g id="Слой_3">
	<g>
		<g>
			<path d="M974,461.9l-4-8.4c-0.1-0.2-0.2-0.3-0.4-0.4l-2-0.9l3.4-5.7c0,0,0,0,0,0c0.7-1.3,1-2.8,1-4.2c0-2.5-1-4.9-2.8-6.6
				c-1.8-1.8-4.2-2.7-6.7-2.7c-2.4,0-4.7,1-6.5,2.8c-1.7,1.8-2.7,4.1-2.7,6.5c0,1.5,0.3,3,1,4.3c0,0,0,0,0,0l3.4,5.7l-2,0.9
				c-0.2,0.1-0.3,0.2-0.4,0.4l-4,8.4c-0.1,0.3-0.1,0.6,0.1,0.8c0.2,0.2,0.5,0.3,0.8,0.2l5-2.2l5,2.2c0.2,0.1,0.4,0.1,0.6,0l5-2.2
				l5,2.2c0.1,0,0.2,0.1,0.3,0.1c0.2,0,0.4-0.1,0.5-0.2C974.1,462.5,974.1,462.1,974,461.9z M955.8,445.8c-0.6-1.1-0.9-2.3-0.8-3.6
				c0-4.2,3.5-7.7,7.7-7.8c2.1,0,4.1,0.8,5.6,2.3c1.5,1.5,2.3,3.5,2.3,5.6c0,1.3-0.3,2.4-0.8,3.6l-6.4,10.7
				c-0.2,0.3-0.5,0.4-0.6,0.4c-0.1,0-0.4,0-0.6-0.4L955.8,445.8z M968.4,459.2c-0.2-0.1-0.4-0.1-0.6,0l-5,2.2l-5-2.2
				c-0.2-0.1-0.4-0.1-0.6,0l-3.4,1.5l3-6.3l1.9-0.8l2.2,3.7c0.4,0.7,1.1,1.1,1.9,1.1s1.5-0.4,1.9-1.1l2.2-3.7l1.9,0.8l3,6.3
				L968.4,459.2z"/>
		</g>
	</g>
	<g>
		<g>
			<path d="M962.8,438.9c-1.9,0-3.4,1.5-3.4,3.4s1.5,3.4,3.4,3.4c1.9,0,3.4-1.5,3.4-3.4S964.7,438.9,962.8,438.9z M962.8,444.2
				c-1,0-1.9-0.9-1.9-1.9c0-1,0.9-1.9,1.9-1.9c1,0,1.9,0.9,1.9,1.9S963.9,444.2,962.8,444.2z"/>
		</g>
	</g>
</g>
</svg>
