<svg width="22" height="22" viewBox="0 0 22 22" fill="none" xmlns="http://www.w3.org/2000/svg">
<path d="M20.9994 15.9738L19.9997 15.949C19.9995 15.9573 19.9994 15.9656 19.9994 15.9738H20.9994ZM20.9994 18.9846H19.9994L19.9994 18.9887L20.9994 18.9846ZM18.8072 20.9919L18.6994 21.986C18.7054 21.9867 18.7114 21.9873 18.7174 21.9878L18.8072 20.9919ZM10.1289 17.9108L10.6723 17.0712L10.6645 17.0663L10.1289 17.9108ZM4.09534 11.8892L4.9389 11.3521L4.93412 11.3447L4.09534 11.8892ZM1.00816 3.18795L0.0122364 3.27813C0.0127085 3.28334 0.0132215 3.28855 0.0137754 3.29376L1.00816 3.18795ZM3.0093 1.0001V9.68575e-05L3.00836 9.77516e-05L3.0093 1.0001ZM6.02608 1.0001V2.00015L6.0359 2.00005L6.02608 1.0001ZM8.03727 2.72629L9.02869 2.59527L9.02739 2.58607L8.03727 2.72629ZM8.74118 5.54641L7.80451 5.89663L7.80536 5.89889L8.74118 5.54641ZM8.28867 7.66402L8.99508 8.37183L8.99902 8.36786L8.28867 7.66402ZM7.01156 8.93859L6.30516 8.23078C5.98604 8.54926 5.9195 9.0419 6.14269 9.43363L7.01156 8.93859ZM13.0451 14.9602L12.5516 15.8299C12.9425 16.0518 13.4334 15.9855 13.7515 15.668L13.0451 14.9602ZM14.3222 13.6856L13.6198 12.9739L13.6158 12.9778L14.3222 13.6856ZM16.444 13.234L16.0928 14.1703L16.095 14.1711L16.444 13.234ZM19.2698 13.9365L19.4092 12.9463L19.4003 12.9451L19.2698 13.9365ZM19.9994 15.9738V18.9846H21.9994V15.9738H19.9994ZM19.9994 18.9887C20 19.1287 19.9712 19.2673 19.915 19.3956L21.7469 20.1982C21.9151 19.8144 22.0011 19.3996 21.9994 18.9806L19.9994 18.9887ZM19.915 19.3956C19.8588 19.524 19.7762 19.6394 19.6725 19.7343L21.0231 21.2094C21.3322 20.9264 21.5788 20.582 21.7469 20.1982L19.915 19.3956ZM19.6725 19.7343C19.5688 19.8292 19.4463 19.9016 19.3127 19.9467L19.9523 21.8417C20.3493 21.7077 20.7141 21.4924 21.0231 21.2094L19.6725 19.7343ZM19.3127 19.9467C19.1791 19.9918 19.0375 20.0086 18.897 19.9959L18.7174 21.9878C19.1347 22.0254 19.5553 21.9757 19.9523 21.8417L19.3127 19.9467ZM18.915 19.9977C15.9758 19.6789 13.1526 18.6766 10.6722 17.0713L9.58556 18.7503C12.3283 20.5254 15.4498 21.6336 18.6994 21.986L18.915 19.9977ZM10.6645 17.0663C8.35865 15.604 6.40388 13.653 4.93887 11.3521L3.25181 12.4263C4.87465 14.9751 7.03978 17.1359 9.59334 18.7553L10.6645 17.0663ZM4.93412 11.3447C3.32024 8.8584 2.31597 6.02776 2.00255 3.08214L0.0137754 3.29376C0.360508 6.5524 1.47148 9.68358 3.25655 12.4336L4.93412 11.3447ZM2.00409 3.09777C1.9915 2.9588 2.00805 2.8187 2.0527 2.68638L0.157703 2.04687C0.0241144 2.44272 -0.0254383 2.86205 0.0122364 3.27813L2.00409 3.09777ZM2.0527 2.68638C2.09736 2.55406 2.16918 2.43233 2.2637 2.32898L0.787915 0.979148C0.505954 1.28742 0.291289 1.65103 0.157703 2.04687L2.0527 2.68638ZM2.2637 2.32898C2.35823 2.22563 2.4734 2.14294 2.60195 2.08627L1.7952 0.256199C1.41294 0.424713 1.06987 0.670883 0.787915 0.979148L2.2637 2.32898ZM2.60195 2.08627C2.73051 2.0296 2.86956 2.00023 3.01024 2.0001L3.00836 9.77516e-05C2.59061 0.000490367 2.17746 0.0876876 1.7952 0.256199L2.60195 2.08627ZM3.0093 2.0001H6.02608V9.72748e-05H3.0093V2.0001ZM6.0359 2.00005C6.28184 1.99763 6.51997 2.08457 6.70595 2.2442L8.00854 0.726548C7.45446 0.250985 6.74636 -0.00702596 6.01626 0.000145555L6.0359 2.00005ZM6.70595 2.2442C6.89188 2.40378 7.01295 2.62503 7.04715 2.86652L9.02739 2.58607C8.92498 1.86298 8.56267 1.20215 8.00854 0.726548L6.70595 2.2442ZM7.04589 2.85731C7.18312 3.89575 7.43762 4.91534 7.80451 5.89663L9.67785 5.1962C9.36386 4.35641 9.14608 3.48389 9.02865 2.59528L7.04589 2.85731ZM7.80536 5.89889C7.87315 6.07888 7.88781 6.27439 7.84764 6.46236L9.80348 6.88031C9.92372 6.31765 9.87981 5.73238 9.67701 5.19394L7.80536 5.89889ZM7.84764 6.46236C7.80747 6.65033 7.7141 6.82313 7.57831 6.96017L8.99902 8.36786C9.40397 7.95917 9.68325 7.44296 9.80348 6.88031L7.84764 6.46236ZM7.58226 6.95621L6.30516 8.23078L7.71797 9.6464L8.99507 8.37182L7.58226 6.95621ZM6.14269 9.43363C7.66341 12.1028 9.87764 14.3125 12.5516 15.8299L13.5387 14.0905C11.1775 12.7505 9.22275 10.7996 7.88043 8.44355L6.14269 9.43363ZM13.7515 15.668L15.0286 14.3934L13.6158 12.9778L12.3387 14.2524L13.7515 15.668ZM15.0247 14.3974C15.162 14.2618 15.3356 14.1682 15.5251 14.1279L15.1087 12.1717C14.546 12.2915 14.0293 12.5698 13.6198 12.9739L15.0247 14.3974ZM15.5251 14.1279C15.7145 14.0876 15.9116 14.1023 16.0928 14.1703L16.7953 12.2977C16.2567 12.0957 15.6714 12.0519 15.1087 12.1717L15.5251 14.1279ZM16.095 14.1711C17.078 14.5372 18.0992 14.7911 19.1393 14.928L19.4003 12.9451C18.5095 12.8278 17.6348 12.6104 16.793 12.2969L16.095 14.1711ZM19.1303 14.9268C19.3765 14.9614 19.6008 15.0851 19.7609 15.2737L21.2856 13.9793C20.8079 13.4166 20.14 13.0492 19.4092 12.9463L19.1303 14.9268ZM19.7609 15.2737C19.921 15.4622 20.0058 15.7026 19.9997 15.949L21.9991 15.9987C22.0174 15.2607 21.7633 14.542 21.2856 13.9793L19.7609 15.2737Z" fill="black"/>
</svg>
