<svg width="20" height="20" viewBox="0 0 20 20" fill="none" xmlns="http://www.w3.org/2000/svg">
<path d="M19.9994 14.9738V17.9846C20.0005 18.2642 19.9431 18.5408 19.831 18.7969C19.7188 19.053 19.5542 19.2829 19.3478 19.4719C19.1415 19.6608 18.8978 19.8047 18.6325 19.8942C18.3672 19.9838 18.0861 20.017 17.8072 19.9919C14.7128 19.6563 11.7404 18.601 9.1289 16.9108C6.69921 15.3699 4.63926 13.3141 3.09534 10.8892C1.39586 8.27099 0.338241 5.29008 0.00816212 2.18795C-0.0169672 1.91042 0.0160811 1.63071 0.105202 1.36663C0.194324 1.10254 0.337566 0.859872 0.525808 0.654066C0.71405 0.448259 0.943169 0.283825 1.19858 0.171234C1.45398 0.058642 1.73008 0.000359723 2.0093 9.73016e-05H5.02608C5.5141 -0.00469635 5.98722 0.167778 6.35725 0.485372C6.72727 0.802966 6.96896 1.24401 7.03727 1.72629C7.1646 2.68982 7.40074 3.63587 7.74118 4.54641C7.87648 4.90563 7.90576 5.29602 7.82556 5.67133C7.74536 6.04665 7.55903 6.39115 7.28867 6.66402L6.01156 7.93859C7.44308 10.4512 9.52758 12.5315 12.0451 13.9602L13.3222 12.6856C13.5956 12.4158 13.9408 12.2298 14.3169 12.1498C14.6929 12.0698 15.0841 12.099 15.444 12.234C16.3564 12.5738 17.3043 12.8095 18.2698 12.9365C18.7582 13.0053 19.2044 13.2509 19.5233 13.6265C19.8422 14.0021 20.0116 14.4817 19.9994 14.9738Z" fill="black"/>
</svg>
