<svg width="16" height="16" viewBox="0 0 16 16" fill="none" xmlns="http://www.w3.org/2000/svg">
<path d="M6.94695 6.21212C7.56415 5.54268 7.90421 4.64469 7.90421 3.68334C7.90421 1.85295 6.59681 0 4.09757 0C2.93448 0 1.95326 0.399491 1.25987 1.15526C0.64566 1.8248 0.307495 2.72259 0.307495 3.68334C0.307495 5.51393 1.60936 7.36678 4.09757 7.36678C5.26501 7.36683 6.25051 6.96764 6.94695 6.21212ZM4.09757 1.71263C5.46695 1.71263 6.09058 2.73486 6.09058 3.68464C6.09058 4.20129 5.91674 4.67957 5.60078 5.03121C5.24829 5.42397 4.73603 5.63165 4.11978 5.63165C2.71577 5.63165 2.07616 4.60952 2.07616 3.65984C2.07616 2.69075 2.7013 1.71263 4.09757 1.71263Z" fill="white"/>
<path d="M13.1871 1.42093C12.9606 1.42502 12.6514 1.56623 12.4999 1.73464L1.25688 14.2349C1.10543 14.4034 1.21272 14.6397 1.43921 14.6397H2.91073C3.13722 14.6397 3.44614 14.5015 3.59734 14.3329L14.7709 1.83514C14.922 1.66633 14.912 1.39168 14.5377 1.39178L13.1871 1.42093Z" fill="white"/>
<path d="M11.9582 8.77332C10.8175 8.77332 9.85491 9.16542 9.17464 9.90677C8.57216 10.5633 8.24023 11.4442 8.24023 12.3867C8.24023 14.1823 9.51735 16 11.9582 16C13.1037 16 14.0702 15.6083 14.7535 14.8672C15.3591 14.2105 15.6925 13.3295 15.6925 12.3867C15.6925 10.5911 14.4098 8.77332 11.9582 8.77332ZM11.9802 14.3419C10.6142 14.3419 9.99184 13.3161 9.99184 12.3635C9.99184 11.8447 10.1656 11.3646 10.4813 11.0116C10.8332 10.6177 11.3439 10.4095 11.9582 10.4095C13.3243 10.4095 13.9464 11.4351 13.9464 12.388C13.9464 12.9067 13.7726 13.3869 13.4571 13.7399C13.1051 14.1337 12.5944 14.3419 11.9802 14.3419Z" fill="white"/>
</svg>
