<svg width="16" height="12" viewBox="0 0 16 12" fill="none" xmlns="http://www.w3.org/2000/svg">
<path d="M1 4.25C0.723858 4.25 0.5 4.47386 0.5 4.75C0.5 5.02614 0.723858 5.25 1 5.25V4.25ZM15 5.25C15.2761 5.25 15.5 5.02614 15.5 4.75C15.5 4.47386 15.2761 4.25 15 4.25V5.25ZM2.27273 1.5H13.7273V0.5H2.27273V1.5ZM13.7273 1.5C14.1626 1.5 14.5 1.84424 14.5 2.25H15.5C15.5 1.27505 14.6978 0.5 13.7273 0.5V1.5ZM14.5 2.25V9.75H15.5V2.25H14.5ZM14.5 9.75C14.5 10.1558 14.1626 10.5 13.7273 10.5V11.5C14.6978 11.5 15.5 10.725 15.5 9.75H14.5ZM13.7273 10.5H2.27273V11.5H13.7273V10.5ZM2.27273 10.5C1.83743 10.5 1.5 10.1558 1.5 9.75H0.5C0.5 10.725 1.30221 11.5 2.27273 11.5V10.5ZM1.5 9.75V2.25H0.5V9.75H1.5ZM1.5 2.25C1.5 1.84424 1.83743 1.5 2.27273 1.5V0.5C1.30221 0.5 0.5 1.27505 0.5 2.25H1.5ZM1 5.25H15V4.25H1V5.25Z" fill="black"/>
</svg>
