<svg width="16" height="14" viewBox="0 0 16 14" fill="none" xmlns="http://www.w3.org/2000/svg">
<path fill-rule="evenodd" clip-rule="evenodd" d="M9.4145 1.7672C8.58589 1.51489 7.711 1.48776 6.87027 1.68802C6.02936 1.88832 5.24667 2.31045 4.59647 2.91884C3.94604 3.52743 3.44944 4.30272 3.15649 5.17422C3.01969 5.5812 2.58039 5.79971 2.17529 5.66227C1.77019 5.52484 1.55269 5.08351 1.68949 4.67654C2.06285 3.56579 2.69869 2.56882 3.54116 1.78053C4.38385 0.992032 5.40586 0.438159 6.51305 0.174429C7.62043 -0.089345 8.77355 -0.0534136 9.86364 0.278528C10.9496 0.609203 11.9347 1.2219 12.7294 2.05589L14.4516 3.75953V1.46768C14.4516 1.03813 14.7982 0.689904 15.2258 0.689904C15.6534 0.689904 16 1.03813 16 1.46768V5.61692C16 6.04647 15.6534 6.3947 15.2258 6.3947H11.2845C10.8569 6.3947 10.5103 6.04647 10.5103 5.61692C10.5103 5.18737 10.8569 4.83914 11.2845 4.83914H13.3361L11.6346 3.15601C11.6289 3.15031 11.6232 3.14451 11.6176 3.13863C11.0018 2.49006 10.2433 2.01958 9.4145 1.7672ZM0 8.38308C0 7.95352 0.346618 7.6053 0.774194 7.6053H4.71554C5.14312 7.6053 5.48974 7.95352 5.48974 8.38308C5.48974 8.81263 5.14312 9.16086 4.71554 9.16086H2.66388L4.36536 10.844C4.37113 10.8497 4.3768 10.8555 4.38239 10.8614C4.99816 11.5099 5.75668 11.9804 6.5855 12.2328C7.4141 12.4851 8.289 12.5122 9.12973 12.312C9.97064 12.1117 10.7533 11.6896 11.4035 11.0812C12.054 10.4726 12.5506 9.69728 12.8435 8.82577C12.9803 8.4188 13.4196 8.20029 13.8247 8.33772C14.2298 8.47516 14.4473 8.91649 14.3105 9.32346C13.9371 10.4342 13.3013 11.4312 12.4588 12.2195C11.6162 13.008 10.5941 13.5618 9.48695 13.8256C8.37957 14.0893 7.22645 14.0534 6.13636 13.7215C5.05042 13.3908 4.06531 12.7781 3.27059 11.9441L1.54839 10.2405V12.5323C1.54839 12.9619 1.20177 13.3101 0.774194 13.3101C0.346618 13.3101 0 12.9619 0 12.5323V8.38308Z" fill="black"/>
</svg>
