<svg width="26" height="18" viewBox="0 0 26 18" fill="none" xmlns="http://www.w3.org/2000/svg">
<path d="M1 8C0.447715 8 0 8.44772 0 9C0 9.55229 0.447715 10 1 10V8ZM25 10C25.5523 10 26 9.55229 26 9C26 8.44772 25.5523 8 25 8V10ZM1 0C0.447715 0 0 0.447715 0 1C0 1.55228 0.447715 2 1 2V0ZM15.4 2C15.9523 2 16.4 1.55228 16.4 1C16.4 0.447715 15.9523 0 15.4 0V2ZM1 16C0.447715 16 0 16.4477 0 17C0 17.5523 0.447715 18 1 18V16ZM25 18C25.5523 18 26 17.5523 26 17C26 16.4477 25.5523 16 25 16V18ZM1 10H25V8H1V10ZM1 2H15.4V0H1V2ZM1 18H25V16H1V18Z" fill="black"/>
</svg>
