<svg width="20" height="24" viewBox="0 0 20 24" fill="none" xmlns="http://www.w3.org/2000/svg">
<path d="M19 10H19.75H19ZM10 23L9.58397 23.624C9.8359 23.792 10.1641 23.792 10.416 23.624L10 23ZM1 10H0.25H1ZM10 1V1.75V1ZM18.25 10C18.25 13.1985 16.1757 16.2657 13.9555 18.6092C12.8608 19.7648 11.7635 20.7099 10.9391 21.3664C10.5274 21.6942 10.1853 21.9488 9.9476 22.1205C9.82877 22.2063 9.73613 22.2713 9.67405 22.3143C9.64301 22.3358 9.61962 22.3518 9.60442 22.3622C9.59682 22.3673 9.59127 22.3711 9.58784 22.3734C9.58613 22.3745 9.58494 22.3753 9.58429 22.3757C9.58397 22.376 9.58378 22.3761 9.58373 22.3761C9.5837 22.3761 9.58376 22.3761 9.58375 22.3761C9.58385 22.376 9.58397 22.376 10 23C10.416 23.624 10.4162 23.6239 10.4165 23.6238C10.4166 23.6237 10.4168 23.6235 10.4171 23.6233C10.4176 23.623 10.4182 23.6226 10.419 23.6221C10.4205 23.621 10.4226 23.6196 10.4252 23.6179C10.4304 23.6144 10.4378 23.6094 10.4472 23.603C10.4661 23.5902 10.4932 23.5716 10.5281 23.5475C10.5979 23.4992 10.6986 23.4284 10.8258 23.3365C11.0803 23.1528 11.4413 22.8839 11.8734 22.5398C12.7365 21.8526 13.8892 20.8602 15.0445 19.6408C17.3243 17.2343 19.75 13.8015 19.75 10H18.25ZM10 23C10.416 22.376 10.4162 22.376 10.4163 22.3761C10.4162 22.3761 10.4163 22.3761 10.4163 22.3761C10.4162 22.3761 10.416 22.376 10.4157 22.3757C10.4151 22.3753 10.4139 22.3745 10.4122 22.3734C10.4087 22.3711 10.4032 22.3673 10.3956 22.3622C10.3804 22.3518 10.357 22.3358 10.326 22.3143C10.2639 22.2713 10.1712 22.2063 10.0524 22.1205C9.81467 21.9488 9.47257 21.6942 9.06095 21.3664C8.2365 20.7099 7.13921 19.7648 6.04446 18.6092C3.8243 16.2657 1.75 13.1985 1.75 10H0.25C0.25 13.8015 2.6757 17.2343 4.95554 19.6408C6.11079 20.8602 7.2635 21.8526 8.12655 22.5398C8.55868 22.8839 8.91971 23.1528 9.17416 23.3365C9.30143 23.4284 9.40215 23.4992 9.4719 23.5475C9.50678 23.5716 9.53392 23.5902 9.55278 23.603C9.56221 23.6094 9.56958 23.6144 9.5748 23.6179C9.57741 23.6196 9.57948 23.621 9.58102 23.6221C9.58178 23.6226 9.58241 23.623 9.58291 23.6233C9.58315 23.6235 9.58342 23.6237 9.58354 23.6238C9.58378 23.6239 9.58397 23.624 10 23ZM1.75 10C1.75 7.81196 2.61919 5.71354 4.16637 4.16637L3.10571 3.10571C1.27723 4.93419 0.25 7.41414 0.25 10H1.75ZM4.16637 4.16637C5.71354 2.61919 7.81196 1.75 10 1.75V0.25C7.41414 0.25 4.93419 1.27723 3.10571 3.10571L4.16637 4.16637ZM10 1.75C12.188 1.75 14.2865 2.61919 15.8336 4.16637L16.8943 3.10571C15.0658 1.27723 12.5859 0.25 10 0.25V1.75ZM15.8336 4.16637C17.3808 5.71354 18.25 7.81196 18.25 10H19.75C19.75 7.41414 18.7228 4.93419 16.8943 3.10571L15.8336 4.16637ZM12.25 10C12.25 11.2426 11.2426 12.25 10 12.25V13.75C12.0711 13.75 13.75 12.0711 13.75 10H12.25ZM10 12.25C8.75736 12.25 7.75 11.2426 7.75 10H6.25C6.25 12.0711 7.92893 13.75 10 13.75V12.25ZM7.75 10C7.75 8.75736 8.75736 7.75 10 7.75V6.25C7.92893 6.25 6.25 7.92893 6.25 10H7.75ZM10 7.75C11.2426 7.75 12.25 8.75736 12.25 10H13.75C13.75 7.92893 12.0711 6.25 10 6.25V7.75Z" fill="#B2B2B2"/>
</svg>
