<svg width="20" height="14" viewBox="0 0 20 14" fill="none" xmlns="http://www.w3.org/2000/svg">
<path d="M0 14H9.33687V11.8504H3.18302C4.03183 8.32283 9.23077 7.55118 9.23077 3.63779C9.23077 1.54331 7.85146 0 4.93369 0C3.12997 0 1.53846 0.551181 0.47745 1.10236L1.11406 3.08661C2.06897 2.59055 3.18303 2.14961 4.56234 2.14961C5.62334 2.14961 6.6313 2.64567 6.6313 3.91339C6.6313 6.77953 0.530504 7 0 14ZM9.60212 10.5827H15.5968V14H17.9841V10.5827H20V8.48819H17.9841V0H16.2334L9.60212 8.92913V10.5827ZM12.3077 8.59842L15.7029 3.85827C15.7029 4.24409 15.5968 5.45669 15.5968 6.55906V8.54331H14.0053C13.5279 8.54331 12.626 8.59842 12.3077 8.59842Z" fill="black"/>
</svg>
