<svg width="12" height="14" viewBox="0 0 12 14" fill="none" xmlns="http://www.w3.org/2000/svg">
<path d="M1.76263 0H1.04675L0.128387 0.997469L0.607782 1.59444C0.796862 1.40074 0.909426 1.25923 0.945473 1.17032H0.958978V1.26459C0.958978 1.47403 0.957796 1.79076 0.955572 2.21494C0.953302 2.63906 0.952166 2.95846 0.952166 3.17315H0.229574V3.95075H2.49187V3.17315H1.76263V0Z" fill="black"/>
<path d="M11.936 2.01516C11.893 1.96538 11.8425 1.94054 11.7839 1.94054H3.57228C3.51376 1.94054 3.46322 1.96538 3.42036 2.01516C3.37766 2.06494 3.35631 2.12383 3.35631 2.19193V3.70033C3.35631 3.76843 3.37759 3.82732 3.42036 3.87709C3.46322 3.92682 3.51376 3.95172 3.57228 3.95172H11.784C11.8426 3.95172 11.8932 3.92682 11.936 3.87709C11.9787 3.82732 12 3.76843 12 3.70033V2.19193C12.0001 2.12385 11.9787 2.06494 11.936 2.01516Z" fill="black"/>
<path d="M1.72211 11.5734L2.36365 10.6702V9.97912H0.114857V11.1728H0.830638V10.7566C0.902684 10.7566 1.01184 10.7542 1.15823 10.749C1.30445 10.7436 1.41368 10.741 1.48573 10.741V10.749C1.40008 10.8432 1.31687 10.9439 1.23581 11.0513C1.15475 11.1587 1.0591 11.3 0.948784 11.4752C0.838538 11.6506 0.765451 11.7646 0.729404 11.8169L0.904931 12.2567C1.37763 12.2147 1.61402 12.3612 1.61402 12.6964C1.61402 12.843 1.56562 12.9542 1.46881 13.03C1.3721 13.1061 1.25837 13.144 1.12781 13.144C0.871226 13.144 0.632593 13.0263 0.412031 12.7906L0.0270111 13.4817C0.324137 13.8272 0.71131 14 1.18858 14C1.55321 14 1.85819 13.8797 2.10365 13.6388C2.349 13.3979 2.47167 13.0681 2.47167 12.6493C2.47167 12.3822 2.40404 12.1519 2.26915 11.9581C2.13405 11.7645 1.9518 11.6361 1.72211 11.5734Z" fill="black"/>
<path d="M1.77599 8.19826H0.918343C0.922908 8.06733 1.00281 7.92991 1.15813 7.78608C1.31346 7.64216 1.48329 7.50999 1.66797 7.38951C1.85249 7.269 2.02132 7.1003 2.17442 6.88306C2.3275 6.66575 2.40402 6.42622 2.40402 6.16444C2.40402 5.79269 2.2915 5.49818 2.06642 5.2809C1.84139 5.06365 1.56444 4.95497 1.23581 4.95497C0.974636 4.95497 0.737139 5.02957 0.523294 5.17882C0.309473 5.32802 0.148563 5.53616 0.0404936 5.80325L0.614546 6.26658C0.772145 5.96285 0.95446 5.81106 1.16152 5.81106C1.27415 5.81106 1.36304 5.84641 1.42834 5.91708C1.49355 5.98788 1.52629 6.08858 1.52629 6.21948C1.52629 6.33988 1.47336 6.45769 1.36756 6.57286C1.26171 6.68803 1.13455 6.80188 0.985942 6.91447C0.837403 7.02705 0.688792 7.15144 0.540277 7.28754C0.391737 7.42367 0.264462 7.60159 0.158663 7.82148C0.0529113 8.04137 0 8.28488 0 8.55186C0 8.64607 0.0135057 8.78746 0.0404699 8.97593H2.48506V7.72707L1.77599 7.72696V8.19826Z" fill="black"/>
<path d="M11.7839 9.97912H3.57228C3.50929 9.97912 3.45749 10.0027 3.41705 10.0498C3.37653 10.0969 3.35631 10.1572 3.35631 10.2304V11.7389C3.35631 11.807 3.37759 11.8659 3.42036 11.9156C3.46322 11.9654 3.51376 11.9902 3.57228 11.9902H11.784C11.8426 11.9902 11.8932 11.9656 11.936 11.9156C11.9787 11.8659 12 11.807 12 11.7389V10.2305C12 10.1625 11.9786 10.1035 11.936 10.0538C11.8931 10.0041 11.8425 9.97912 11.7839 9.97912Z" fill="black"/>
<path d="M11.7839 5.95997H3.57228C3.50929 5.95997 3.45749 5.9835 3.41705 6.03063C3.37653 6.07777 3.35631 6.13803 3.35631 6.21134V7.71976C3.35631 7.78786 3.37759 7.84669 3.42036 7.89653C3.46322 7.94633 3.51376 7.97121 3.57228 7.97121H11.784C11.8426 7.97121 11.8932 7.94633 11.936 7.89653C11.9787 7.84669 12 7.78786 12 7.71976V6.21134C12 6.14326 11.9786 6.08435 11.936 6.0346C11.8931 5.98485 11.8425 5.95997 11.7839 5.95997Z" fill="black"/>
</svg>
