<svg width="22" height="20" viewBox="0 0 22 20" fill="none" xmlns="http://www.w3.org/2000/svg">
<path d="M20.3036 1.76815C19.766 1.20759 19.1278 0.762921 18.4253 0.459537C17.7228 0.156152 16.9699 0 16.2095 0C15.4491 0 14.6961 0.156152 13.9936 0.459537C13.2912 0.762921 12.6529 1.20759 12.1153 1.76815L10.9997 2.93095L9.8841 1.76815C8.79827 0.636397 7.32556 0.000586625 5.78997 0.000586637C4.25437 0.000586649 2.78167 0.636397 1.69584 1.76815C0.610013 2.89989 1.14411e-08 4.43487 0 6.03541C-1.14411e-08 7.63594 0.610013 9.17092 1.69584 10.3027L10.9997 20L20.3036 10.3027C20.8414 9.74238 21.268 9.07714 21.5591 8.34495C21.8502 7.61276 22 6.82796 22 6.03541C22 5.24285 21.8502 4.45806 21.5591 3.72587C21.268 2.99368 20.8414 2.32844 20.3036 1.76815Z" fill="black"/>
</svg>
