<svg width="30" height="30" viewBox="0 0 30 30" fill="none" xmlns="http://www.w3.org/2000/svg">
<path fill-rule="evenodd" clip-rule="evenodd" d="M13.4375 1.875C7.05171 1.875 1.875 7.05171 1.875 13.4375C1.875 19.8233 7.05171 25 13.4375 25C16.572 25 19.4152 23.7527 21.4978 21.7274C21.5286 21.6836 21.5636 21.6419 21.6027 21.6027C21.6419 21.5636 21.6836 21.5286 21.7274 21.4978C23.7527 19.4152 25 16.572 25 13.4375C25 7.05171 19.8233 1.875 13.4375 1.875ZM23.5792 22.2533C25.632 19.8937 26.875 16.8108 26.875 13.4375C26.875 6.01617 20.8588 0 13.4375 0C6.01617 0 0 6.01617 0 13.4375C0 20.8588 6.01617 26.875 13.4375 26.875C16.8108 26.875 19.8937 25.632 22.2533 23.5792L28.3996 29.7254C28.7657 30.0915 29.3593 30.0915 29.7254 29.7254C30.0915 29.3593 30.0915 28.7657 29.7254 28.3996L23.5792 22.2533ZM13.4375 7.8125C13.9553 7.8125 14.375 8.23223 14.375 8.75V12.5H18.125C18.6428 12.5 19.0625 12.9197 19.0625 13.4375C19.0625 13.9553 18.6428 14.375 18.125 14.375H14.375V18.125C14.375 18.6428 13.9553 19.0625 13.4375 19.0625C12.9197 19.0625 12.5 18.6428 12.5 18.125V14.375H8.75C8.23223 14.375 7.8125 13.9553 7.8125 13.4375C7.8125 12.9197 8.23223 12.5 8.75 12.5H12.5V8.75C12.5 8.23223 12.9197 7.8125 13.4375 7.8125Z" fill="black"/>
</svg>
