<svg width="18" height="18" viewBox="0 0 18 18" fill="none" xmlns="http://www.w3.org/2000/svg">
<path d="M16.7307 7.73078H15.834C15.6547 6.75463 15.2737 5.84969 14.732 5.06275L15.3646 4.43105C15.8598 3.9355 15.8598 3.13158 15.3646 2.63604C15.1168 2.38779 14.7911 2.26388 14.4668 2.26388C14.1423 2.26388 13.8168 2.38779 13.569 2.63604L12.9365 3.26846C12.1511 2.72576 11.245 2.3453 10.2681 2.16476V1.26878C10.2681 0.567994 9.70067 0 9.00004 0C8.29941 0 7.73193 0.567994 7.73193 1.26878V2.16476C6.75508 2.34537 5.85015 2.72576 5.06315 3.26795L4.43103 2.63684C4.18323 2.38903 3.85853 2.26454 3.53435 2.26454C3.20848 2.26454 2.8832 2.38903 2.63657 2.63684C2.13986 3.13165 2.13986 3.93558 2.63657 4.43112L3.26759 5.06282C2.72621 5.84983 2.34525 6.7547 2.16596 7.73085H1.26927C0.568638 7.73085 0 8.29892 0 8.99971C0 9.70108 0.568638 10.2691 1.26927 10.2691H2.16596C2.34525 11.2453 2.72629 12.1497 3.26876 12.937L2.63657 13.5695C2.13986 14.0649 2.13986 14.8683 2.63657 15.3637C2.88437 15.6116 3.20856 15.736 3.53435 15.736C3.85846 15.736 4.18316 15.6116 4.43103 15.3637L5.06315 14.7321C5.85015 15.2735 6.75508 15.654 7.73193 15.8345V16.7306C7.73193 17.4319 8.29941 18 9.00004 18C9.70067 18 10.2681 17.4319 10.2681 16.7306V15.8351C11.245 15.6541 12.1496 15.2735 12.9365 14.7315L13.569 15.3643C13.8168 15.6121 14.1423 15.736 14.4668 15.736C14.7911 15.736 15.1168 15.6122 15.3646 15.3643C15.8598 14.8689 15.8598 14.0649 15.3646 13.5695L14.732 12.937C15.2738 12.1496 15.6547 11.2453 15.834 10.2691H16.7307C17.4314 10.2691 18 9.70108 18 8.99971C18 8.29885 17.4314 7.73078 16.7307 7.73078ZM8.99989 11.6199C7.55242 11.6199 6.37965 10.4467 6.37965 8.99971C6.37965 7.55265 7.55242 6.37942 8.99989 6.37942C10.4474 6.37942 11.6198 7.55272 11.6198 8.99971C11.6198 10.4467 10.4474 11.6199 8.99989 11.6199Z" fill="black"/>
</svg>
