<svg version="1.1" xmlns="http://www.w3.org/2000/svg" xmlns:xlink="http://www.w3.org/1999/xlink" x="0px" y="0px"
	 viewBox="0 0 200 200" style="enable-background:new 0 0 200 200;" xml:space="preserve">
<g>
	<path style="opacity:0.15;enable-background:new    ;" d="M160.4,161.5l-14.4-35c-1.5-3.6-3.5-6.7-3.5-6.7l1.1-21.8
		c14.9-1.8,16.8-10,16.8-10l3.8-7.2c0,0-0.5,13.3-0.5,21.2s0.5,17.6,0.5,17.6s14.1,34.9,15.1,37.4
		C180.3,159.5,160.4,161.5,160.4,161.5z"/>
	<path style="opacity:0.15;enable-background:new    ;" d="M107.6,61.3c0,0,0.9-9.3-3.9-14.1c0,0,11.9-0.9,15.3,14l0,0l-9.4,2.6
		L107.6,61.3z"/>
	<polyline style="opacity:0.15;enable-background:new    ;" points="75.6,56.5 54.2,38.1 91.7,38.1 75.6,56.5 	"/>
	<polygon style="opacity:0.15;enable-background:new    ;" points="99.2,102.6 85.1,119.8 95.8,119.5 85.1,133.5 95.8,131.2
		85.1,142.3 100.6,142.3 104.4,142.3 115.3,117.2 115.3,102 	"/>
</g>
<g>
	<path d="M97.8,144.5c0-1.1-0.9-2-2-2H74.4H62.7c-1.1,0-2,0.9-2,2s0.9,2,2,2h11.6h21.5C97,146.5,97.8,145.6,97.8,144.5z"/>
	<path d="M39.4,66.7c-1.1,0-2,0.9-2,2v19.2c0,1.1,0.9,2,2,2s2-0.9,2-2V68.7C41.4,67.6,40.5,66.7,39.4,66.7z"/>
	<path d="M177.2,104.2c2.5,0,4.6-2.1,4.6-4.6V78.8c0-10.7-8.9-19.5-19.9-19.5H161c-0.2-0.1-0.4-0.1-0.6-0.1h-17.9c-1.1,0-2,0.9-2,2
		s0.9,2,2,2h16c-0.9,8.8-8.6,15.7-17.8,15.7c-9.4,0-17-7-17.8-15.9c0.3,0.1,0.6,0.2,0.9,0.2h10.9c1.1,0,2-0.9,2-2s-0.9-2-2-2h-10.9
		c-0.4,0-6.7,0.1-7.1,0.2c-10,1.2-17.5,9.4-17.5,19.3v20.6c0,2.6,2,4.6,4.6,4.6h9.6v15.1L97,153.2c-0.5,1.1-0.6,2.5-0.1,3.7
		c0.5,1.2,1.4,2.1,2.5,2.5c6.2,2.3,20.9,3.8,31.7,4.1l2,0.1c5,0.2,11.6,0.4,18.5,0.4c10.4,0,21.3-0.5,27.1-2.3
		c1.1-0.3,1.9-1.1,2.4-2.1c0.5-1,0.5-2.2,0.1-3.2l-15.2-37.7v-14.4H177.2z M103.7,100c-0.4,0-0.6-0.2-0.6-0.6V78.7
		c0-7.9,6.1-14.5,14.1-15.3l0.3-0.1c0,0,0.1,0,0.2,0h1.1c1,10.9,10.4,19.6,21.8,19.6c11.5,0,20.9-8.6,21.8-19.6
		c8.5,0.3,15.3,7.1,15.3,15.5v20.7c0,0.3-0.3,0.6-0.6,0.6h-15.3v17.5h-44.6v-6.9V100H103.7z M161.8,159.7l-2.9-6.4
		c-0.5-1-1.6-1.5-2.6-1c-1,0.5-1.5,1.6-1,2.6l2.2,4.9c-8.7,0.2-17.9-0.1-24.3-0.3l-2-0.1c-12.1-0.3-25.4-1.9-30.3-3.8
		c-0.1,0-0.2-0.1-0.2-0.3c-0.1-0.2-0.1-0.4,0-0.5l15.8-33.1h46.4l14.6,35.9C173.9,158.9,168.2,159.4,161.8,159.7z"/>
	<path d="M151.8,137.1c-0.5-1-1.6-1.5-2.6-1c-1,0.5-1.5,1.6-1,2.6l3.9,8.7c0.3,0.7,1.1,1.2,1.8,1.2c0.3,0,0.6-0.1,0.8-0.2
		c1-0.5,1.5-1.6,1-2.6L151.8,137.1z"/>
	<path d="M92.4,151.9H42c-0.6,0-1.1-0.5-1.1-1.1v-4.3h15.9c1.1,0,2-0.9,2-2s-0.9-2-2-2H41V93.2c0-1.1-0.9-2-2-2H23.7
		c-0.8,0-1.5-0.7-1.5-1.5v-28c0-11,8.3-20.2,19.2-21.4c0.1,0,0.3,0,0.4-0.1c0.1,0,0.2-0.1,0.2-0.1h11.4L74.3,58
		c0.4,0.3,0.8,0.5,1.3,0.5c0.6,0,1.1-0.2,1.5-0.7l7.9-9.2c0.7-0.8,0.6-2.1-0.2-2.8c-0.8-0.7-2.1-0.6-2.8,0.2l-6.6,7.7L59.6,40.1
		h27.8l-0.2,0.2c-0.7,0.8-0.6,2.1,0.2,2.8c0.4,0.3,0.8,0.5,1.3,0.5c0.6,0,1.1-0.2,1.5-0.7l2.5-2.8h7.5c10.1,0,18.9,7.1,21.1,16.9
		c0.2,1.1,1.3,1.8,2.4,1.5c1.1-0.2,1.8-1.3,1.5-2.4c-2.6-11.8-12.9-20-25-20H42c-0.5,0-1,0.1-1.3,0.2c-12.9,1.5-22.5,12.4-22.5,25.4
		v28c0,3,2.5,5.5,5.5,5.5H37v55.7c0,2.7,2.3,5.1,5.1,5.1h50.4c1.1,0,2-0.9,2-2S93.5,151.9,92.4,151.9z"/>
</g>
</svg>
