<svg width="120" height="110" viewBox="0 0 120 110" fill="none" xmlns="http://www.w3.org/2000/svg">
<path fill-rule="evenodd" clip-rule="evenodd" d="M88.5858 61.5858C89.3668 60.8047 90.6332 60.8047 91.4142 61.5858L107.414 77.5858C108.195 78.3668 108.195 79.6332 107.414 80.4142C106.633 81.1953 105.367 81.1953 104.586 80.4142L88.5858 64.4142C87.8047 63.6332 87.8047 62.3668 88.5858 61.5858Z" fill="#FB0040"/>
<path fill-rule="evenodd" clip-rule="evenodd" d="M107.414 61.5858C108.195 62.3668 108.195 63.6332 107.414 64.4142L91.4142 80.4142C90.6332 81.1953 89.3668 81.1953 88.5858 80.4142C87.8047 79.6332 87.8047 78.3668 88.5858 77.5858L104.586 61.5858C105.367 60.8047 106.633 60.8047 107.414 61.5858Z" fill="#FB0040"/>
<path fill-rule="evenodd" clip-rule="evenodd" d="M0 15.8517V2.11356C0 0.946273 0.950253 0 2.12245 0H101.878C103.05 0 104 0.946273 104 2.11356V15.8517L65.7959 54.6722V97.4909C65.7959 99.24 64.7142 100.808 63.0748 101.436L41.0884 109.857C39.6982 110.39 38.2041 109.368 38.2041 107.884V54.6722L0 15.8517ZM42.2041 56.6722V105.147L61.6442 97.7009C61.7436 97.6628 61.7959 97.5747 61.7959 97.4909V56.6722H42.2041ZM4 4V13.8517H74C75.1046 13.8517 76 14.7471 76 15.8517C76 16.9563 75.1046 17.8517 74 17.8517H7.58037L41.848 52.6722H62.152L96.4196 17.8517H86.2098C85.1052 17.8517 84.2098 16.9563 84.2098 15.8517C84.2098 14.7471 85.1052 13.8517 86.2098 13.8517H100V4H4Z" fill="#FB0040"/>
<path fill-rule="evenodd" clip-rule="evenodd" d="M80.7372 76.0984C81.9513 80.2094 84.5927 83.7522 88.1861 86.0893C91.7795 88.4264 96.089 89.4045 100.339 88.8474C104.589 88.2903 108.501 86.2348 111.371 83.0506C114.241 79.8664 115.88 75.7625 115.994 71.4775C116.107 67.1924 114.688 63.0074 111.991 59.6755C109.294 56.3436 105.497 54.0835 101.282 53.3018C97.0677 52.5202 92.7124 53.2683 89.0001 55.4116C88.0435 55.9639 86.8203 55.6361 86.268 54.6795C85.7158 53.7229 86.0435 52.4998 87.0001 51.9475C91.5373 49.3279 96.8605 48.4135 102.012 49.3689C107.163 50.3242 111.804 53.0866 115.101 57.1589C118.397 61.2313 120.131 66.3463 119.992 71.5836C119.853 76.8209 117.85 81.8366 114.342 85.7285C110.835 89.6203 106.054 92.1326 100.859 92.8135C95.6643 93.4943 90.3972 92.299 86.0052 89.4425C81.6133 86.586 78.3849 82.2559 76.901 77.2313C75.4171 72.2067 75.775 66.8175 77.9104 62.0332C78.3606 61.0246 79.5432 60.5719 80.5519 61.0221C81.5605 61.4723 82.0133 62.6549 81.5631 63.6636C79.8159 67.5779 79.5231 71.9873 80.7372 76.0984Z" fill="#FB0040"/>
</svg>
