<svg width="72" height="80" viewBox="0 0 72 80" fill="none" xmlns="http://www.w3.org/2000/svg">
<path fill-rule="evenodd" clip-rule="evenodd" d="M11.7946 0.611017C12.0817 0.226516 12.5338 0 13.0141 0H58.9859C59.4662 0 59.9183 0.226516 60.2054 0.611017L71.6983 16.0034C71.8942 16.2657 72 16.5842 72 16.9114V70.7848C72 73.226 71.0346 75.5689 69.3135 77.2978C67.592 79.0269 65.2553 80 62.8169 80H9.1831C6.7447 80 4.40799 79.0269 2.68652 77.2978C0.965348 75.5689 0 73.226 0 70.7848V16.9114C0 16.5842 0.105803 16.2657 0.301663 16.0034L11.7946 0.611017ZM13.7773 3.03797L4.55271 15.3924H67.4473L58.2227 3.03797H13.7773ZM68.9577 18.4304H3.04225V70.7848C3.04225 72.426 3.69139 73.9981 4.84401 75.1559C5.99634 76.3134 7.55733 76.962 9.1831 76.962H62.8169C64.4427 76.962 66.0037 76.3134 67.156 75.1559C68.3086 73.9981 68.9577 72.426 68.9577 70.7848V18.4304ZM20.6761 30.7848C21.5161 30.7848 22.1972 31.4649 22.1972 32.3038C22.1972 35.9861 23.6536 39.5158 26.2431 42.1169C28.8323 44.7177 32.3422 46.1772 36 46.1772C39.6578 46.1772 43.1677 44.7177 45.7569 42.1169C48.3464 39.5158 49.8028 35.9861 49.8028 32.3038C49.8028 31.4649 50.4838 30.7848 51.3239 30.7848C52.164 30.7848 52.8451 31.4649 52.8451 32.3038C52.8451 36.7861 51.0725 41.0866 47.9144 44.2588C44.756 47.4313 40.4705 49.2152 36 49.2152C31.5295 49.2152 27.244 47.4313 24.0856 44.2588C20.9275 41.0866 19.1549 36.7861 19.1549 32.3038C19.1549 31.4649 19.836 30.7848 20.6761 30.7848Z" fill="#FB0040"/>
</svg>
