<svg width="16" height="16" viewBox="0 0 16 16" fill="none" xmlns="http://www.w3.org/2000/svg">
<path d="M14.1 8C14.1 7.72386 13.8761 7.5 13.6 7.5C13.3239 7.5 13.1 7.72386 13.1 8H14.1ZM13.6 15V15.5C13.8761 15.5 14.1 15.2761 14.1 15H13.6ZM2.4 15H1.9C1.9 15.2761 2.12386 15.5 2.4 15.5V15ZM2.9 8C2.9 7.72386 2.67614 7.5 2.4 7.5C2.12386 7.5 1.9 7.72386 1.9 8H2.9ZM1 4.5V4C0.723858 4 0.5 4.22386 0.5 4.5H1ZM15 4.5H15.5C15.5 4.22386 15.2761 4 15 4V4.5ZM15 8V8.5C15.2761 8.5 15.5 8.27614 15.5 8H15ZM1 8H0.5C0.5 8.27614 0.723858 8.5 1 8.5V8ZM7.5 15C7.5 15.2761 7.72386 15.5 8 15.5C8.27614 15.5 8.5 15.2761 8.5 15H7.5ZM4.85 4.5V4V4.5ZM3.1 2.75H2.6H3.1ZM4.85 1V0.5V1ZM11.15 4.5V4V4.5ZM11.15 1V1.5V1ZM13.1 8V15H14.1V8H13.1ZM13.6 14.5H2.4V15.5H13.6V14.5ZM2.9 15V8H1.9V15H2.9ZM1 5H15V4H1V5ZM14.5 4.5V8H15.5V4.5H14.5ZM15 7.5H1V8.5H15V7.5ZM1.5 8V4.5H0.5V8H1.5ZM8.5 15V4.5H7.5V15H8.5ZM8 4H4.85V5H8V4ZM4.85 4C4.51848 4 4.20054 3.8683 3.96612 3.63388L3.25901 4.34099C3.68097 4.76295 4.25326 5 4.85 5V4ZM3.96612 3.63388C3.7317 3.39946 3.6 3.08152 3.6 2.75H2.6C2.6 3.34674 2.83705 3.91903 3.25901 4.34099L3.96612 3.63388ZM3.6 2.75C3.6 2.41848 3.7317 2.10054 3.96612 1.86612L3.25901 1.15901C2.83705 1.58097 2.6 2.15326 2.6 2.75H3.6ZM3.96612 1.86612C4.20054 1.6317 4.51848 1.5 4.85 1.5V0.5C4.25326 0.5 3.68097 0.737053 3.25901 1.15901L3.96612 1.86612ZM4.85 1.5C5.79695 1.5 6.45366 2.16917 6.90564 2.99096C7.12584 3.39133 7.27822 3.79634 7.37567 4.10407C7.42411 4.25704 7.45828 4.38374 7.48007 4.47088C7.49094 4.51439 7.4987 4.54788 7.50356 4.56968C7.50599 4.58057 7.5077 4.58852 7.50872 4.59332C7.50922 4.59572 7.50956 4.59734 7.50972 4.59814C7.50981 4.59854 7.50984 4.59873 7.50984 4.59872C7.50984 4.59871 7.50983 4.59865 7.50981 4.59855C7.5098 4.59849 7.50977 4.59837 7.50977 4.59834C7.50974 4.59821 7.50971 4.59806 8 4.5C8.49029 4.40194 8.49026 4.40177 8.49022 4.40158C8.4902 4.4015 8.49016 4.4013 8.49013 4.40114C8.49006 4.40081 8.48999 4.40044 8.4899 4.40001C8.48973 4.39915 8.48951 4.39807 8.48924 4.39679C8.48872 4.39422 8.48801 4.39082 8.48712 4.3866C8.48533 4.37816 8.48281 4.36646 8.47952 4.35171C8.47294 4.32223 8.46325 4.28053 8.45021 4.22834C8.42414 4.12407 8.38448 3.97734 8.32901 3.80218C8.21865 3.45366 8.04291 2.98367 7.78186 2.50904C7.27134 1.58083 6.35305 0.5 4.85 0.5V1.5ZM8 5H11.15V4H8V5ZM11.15 5C11.7467 5 12.319 4.76295 12.741 4.34099L12.0339 3.63388C11.7995 3.8683 11.4815 4 11.15 4V5ZM12.741 4.34099C13.1629 3.91903 13.4 3.34674 13.4 2.75H12.4C12.4 3.08152 12.2683 3.39946 12.0339 3.63388L12.741 4.34099ZM13.4 2.75C13.4 2.15326 13.1629 1.58097 12.741 1.15901L12.0339 1.86612C12.2683 2.10054 12.4 2.41848 12.4 2.75H13.4ZM12.741 1.15901C12.319 0.737053 11.7467 0.5 11.15 0.5V1.5C11.4815 1.5 11.7995 1.6317 12.0339 1.86612L12.741 1.15901ZM11.15 0.5C9.64695 0.5 8.72866 1.58083 8.21814 2.50904C7.95709 2.98367 7.78135 3.45366 7.67099 3.80218C7.61552 3.97734 7.57586 4.12407 7.54979 4.22834C7.53675 4.28053 7.52706 4.32223 7.52048 4.35171C7.51719 4.36646 7.51467 4.37816 7.51288 4.3866C7.51199 4.39082 7.51128 4.39422 7.51076 4.39679C7.51049 4.39807 7.51027 4.39915 7.5101 4.40001C7.51001 4.40044 7.50994 4.40081 7.50987 4.40114C7.50984 4.4013 7.5098 4.4015 7.50978 4.40158C7.50974 4.40177 7.50971 4.40194 8 4.5C8.49029 4.59806 8.49026 4.59821 8.49023 4.59834C8.49023 4.59837 8.4902 4.59849 8.49019 4.59855C8.49017 4.59865 8.49016 4.59871 8.49016 4.59872C8.49016 4.59873 8.49019 4.59854 8.49028 4.59814C8.49044 4.59734 8.49077 4.59572 8.49128 4.59332C8.4923 4.58852 8.49401 4.58057 8.49644 4.56968C8.5013 4.54788 8.50906 4.51439 8.51993 4.47088C8.54172 4.38374 8.57589 4.25704 8.62433 4.10407C8.72177 3.79634 8.87416 3.39133 9.09436 2.99096C9.54634 2.16917 10.203 1.5 11.15 1.5V0.5Z" fill="black"/>
</svg>
