<svg width="16" height="16" viewBox="0 0 16 16" fill="none" xmlns="http://www.w3.org/2000/svg">
<path d="M13.0084 14.2387C11.6374 15.3407 9.89581 16 8 16C4.95341 16 2.30463 14.2971 0.953406 11.7912L3.54594 9.669C4.22153 11.4721 5.96088 12.7556 8 12.7556C8.87647 12.7556 9.69766 12.5187 10.4023 12.1051L13.0084 14.2387Z" fill="black"/>
<path d="M13.1064 1.84175L10.5147 3.9635C9.7855 3.50769 8.9235 3.24437 8 3.24437C5.91472 3.24437 4.14281 4.58678 3.50106 6.4545L0.8945 4.32088C2.22594 1.75384 4.90812 0 8 0C9.94109 0 11.7209 0.691437 13.1064 1.84175Z" fill="black"/>
<path d="M0 8C0 9.37187 0.345063 10.6628 0.953406 11.7912L3.54594 9.669C3.35078 9.14991 3.24441 8.58725 3.24434 8C3.24434 7.45891 3.33491 6.93891 3.50106 6.4545L0.8945 4.32088C0.322625 5.42241 0 6.67341 0 8Z" fill="black"/>
<path d="M16 8C16 7.48922 15.9521 6.98944 15.8602 6.5055H8.17587V9.67034H12.4537C12.0686 10.698 11.3376 11.5565 10.4023 12.1051L13.0084 14.2387C14.418 13.1055 15.4356 11.5042 15.8251 9.67034C15.9398 9.13144 16 8.57275 16 8Z" fill="black"/>
</svg>
