<svg width="24" height="18" viewBox="0 0 24 18" fill="none" xmlns="http://www.w3.org/2000/svg">
<path d="M1 0.5H6.13636C7.05914 0.5 8.02777 0.981253 8.77741 1.75432C9.52612 2.52642 10 3.53225 10 4.5V17C10 17.2761 9.77614 17.5 9.5 17.5H9.31818C9.06307 17.5 8.77267 17.2731 8.66224 16.8779C8.26089 15.4417 7.06597 14.125 5.45455 14.125H1C0.723858 14.125 0.5 13.9011 0.5 13.625V1C0.5 0.723858 0.723858 0.5 1 0.5ZM17.4545 0.5H23C23.2761 0.5 23.5 0.723858 23.5 1V13.625C23.5 13.9011 23.2761 14.125 23 14.125H18.5455C17.8826 14.125 17.2096 14.4806 16.6689 14.9587C16.1182 15.4458 15.64 16.115 15.3829 16.8558C15.2399 17.2677 14.9384 17.5 14.6818 17.5H14.5C14.2239 17.5 14 17.2761 14 17V4.5C14 3.53026 14.4757 2.52003 15.1825 1.74259C15.8977 0.955822 16.7623 0.5 17.4545 0.5Z" stroke="#BDBDBD"/>
</svg>
