<svg width="60" height="60" viewBox="0 0 60 60" fill="none" xmlns="http://www.w3.org/2000/svg">
<path d="M15 31.4516L14.4697 30.9213L13.9393 31.4516L14.4697 31.9819L15 31.4516ZM28.5484 45L28.0181 45.5303L28.5484 46.0607L29.0787 45.5303L28.5484 45ZM45 28.5484L45.5303 29.0787L45.75 28.859V28.5484H45ZM45 20.8065H45.75V20.4958L45.5303 20.2761L45 20.8065ZM39.1935 15L39.7239 14.4697L39.5042 14.25H39.1935V15ZM31.4516 15V14.25H31.141L30.9213 14.4697L31.4516 15ZM58.25 30C58.25 45.602 45.602 58.25 30 58.25V59.75C46.4305 59.75 59.75 46.4305 59.75 30H58.25ZM30 58.25C14.398 58.25 1.75 45.602 1.75 30H0.25C0.25 46.4305 13.5695 59.75 30 59.75V58.25ZM1.75 30C1.75 14.398 14.398 1.75 30 1.75V0.25C13.5695 0.25 0.25 13.5695 0.25 30H1.75ZM30 1.75C45.602 1.75 58.25 14.398 58.25 30H59.75C59.75 13.5695 46.4305 0.25 30 0.25V1.75ZM14.4697 31.9819L28.0181 45.5303L29.0787 44.4697L15.5303 30.9213L14.4697 31.9819ZM29.0787 45.5303L45.5303 29.0787L44.4697 28.0181L28.0181 44.4697L29.0787 45.5303ZM45.75 28.5484V20.8065H44.25V28.5484H45.75ZM45.5303 20.2761L39.7239 14.4697L38.6632 15.5303L44.4697 21.3368L45.5303 20.2761ZM39.1935 14.25H31.4516V15.75H39.1935V14.25ZM30.9213 14.4697L14.4697 30.9213L15.5303 31.9819L31.9819 15.5303L30.9213 14.4697ZM42.3477 30.7044C43.2616 33.6746 42.7729 35.7689 41.7566 37.1068C40.7246 38.4653 39.0562 39.1694 37.379 39.1694C35.7008 39.1694 34.1124 38.4666 33.2051 37.1376C32.3099 35.8264 31.9696 33.7425 33.1194 30.7531L31.7193 30.2146C30.4498 33.5155 30.7143 36.1494 31.9663 37.9834C33.2061 39.7995 35.3073 40.6694 37.379 40.6694C39.4518 40.6694 41.5939 39.8008 42.9511 38.0142C44.3238 36.207 44.803 33.5835 43.7814 30.2633L42.3477 30.7044ZM17.8568 28.5948L31.4052 42.1432L32.4658 41.0826L18.9174 27.5342L17.8568 28.5948ZM39.4113 21.7742C39.4113 22.4289 38.8805 22.9597 38.2258 22.9597V24.4597C39.709 24.4597 40.9113 23.2573 40.9113 21.7742H39.4113ZM38.2258 22.9597C37.5711 22.9597 37.0403 22.4289 37.0403 21.7742H35.5403C35.5403 23.2573 36.7427 24.4597 38.2258 24.4597V22.9597ZM37.0403 21.7742C37.0403 21.1195 37.5711 20.5887 38.2258 20.5887V19.0887C36.7427 19.0887 35.5403 20.291 35.5403 21.7742H37.0403ZM38.2258 20.5887C38.8805 20.5887 39.4113 21.1195 39.4113 21.7742H40.9113C40.9113 20.291 39.709 19.0887 38.2258 19.0887V20.5887ZM15.416 22.8821C17.2754 21.6425 20.5656 20.0659 24.3213 19.4165C28.0707 18.7681 32.2168 19.0532 35.8816 21.4353L36.6991 20.1776C32.6219 17.5275 28.0583 17.248 24.0658 17.9384C20.0796 18.6277 16.5956 20.293 14.584 21.634L15.416 22.8821Z" fill="black"/>
</svg>