<svg width="16" height="16" viewBox="0 0 16 16" fill="none" xmlns="http://www.w3.org/2000/svg">
<path d="M0.5 1C0.5 0.723858 0.723858 0.5 1 0.5H6C6.27614 0.5 6.5 0.723858 6.5 1V6C6.5 6.27614 6.27614 6.5 6 6.5H1C0.723858 6.5 0.5 6.27614 0.5 6V1ZM9.5 1C9.5 0.723858 9.72386 0.5 10 0.5H15C15.2761 0.5 15.5 0.723858 15.5 1V6C15.5 6.27614 15.2761 6.5 15 6.5H10C9.72386 6.5 9.5 6.27614 9.5 6V1ZM0.5 10C0.5 9.72386 0.723858 9.5 1 9.5H6C6.27614 9.5 6.5 9.72386 6.5 10V15C6.5 15.2761 6.27614 15.5 6 15.5H1C0.723858 15.5 0.5 15.2761 0.5 15V10ZM9.5 10C9.5 9.72386 9.72386 9.5 10 9.5H15C15.2761 9.5 15.5 9.72386 15.5 10V15C15.5 15.2761 15.2761 15.5 15 15.5H10C9.72386 15.5 9.5 15.2761 9.5 15V10Z" stroke="black"/>
</svg>
