<svg width="22" height="24" viewBox="0 0 22 24" fill="none" xmlns="http://www.w3.org/2000/svg">
<path fill-rule="evenodd" clip-rule="evenodd" d="M18 15.8644C16.9316 15.8644 15.9272 16.2875 15.1716 17.0559C15.1277 17.1005 15.0851 17.1461 15.0437 17.1925L7.91163 12.8254C7.96923 12.5534 8 12.2714 8 11.9821C8 11.7924 7.98677 11.6058 7.96143 11.4231L15.2726 7.03644C15.9869 7.71742 16.9455 8.13559 18 8.13559C20.2056 8.13559 22 6.31078 22 4.0678C22 1.82481 20.2056 0 18 0C15.7944 0 14 1.82481 14 4.0678C14 4.5141 14.0742 4.94241 14.206 5.34403L7.2001 9.54756C6.47015 8.55714 5.30809 7.9143 4 7.9143C1.7944 7.9143 0 9.73912 0 11.9821C0 14.2251 1.7944 16.0499 4 16.0499C5.21116 16.0499 6.29683 15.4988 7.03045 14.631L14.1151 18.969C14.0398 19.2806 14 19.6031 14 19.9322C14 21.0187 14.416 22.0405 15.1716 22.8085C15.9272 23.5769 16.9316 24 18 24C19.0684 24 20.0728 23.5769 20.8284 22.8085C21.584 22.0405 22 21.0187 22 19.9322C22 18.8457 21.584 17.8239 20.8284 17.0559C20.0728 16.2875 19.0684 15.8644 18 15.8644Z" fill="black"/>
</svg>
