<svg width="24" height="24" viewBox="0 0 24 24" fill="none" xmlns="http://www.w3.org/2000/svg">
<path fill-rule="evenodd" clip-rule="evenodd" d="M11.5121 0.11517C11.8193 -0.0383901 12.1807 -0.0383901 12.4879 0.11517L23.3967 5.56972C23.7663 5.75451 23.9998 6.13225 23.9998 6.54545C23.9998 6.95866 23.7663 7.3364 23.3967 7.52119L12.4879 12.9757C12.1807 13.1293 11.8193 13.1293 11.5121 12.9757L0.603267 7.52119C0.233691 7.3364 0.000238958 6.95866 0.000238958 6.54545C0.000238958 6.13225 0.233691 5.75451 0.603267 5.56972L11.5121 0.11517ZM0.115407 11.5121C0.384844 10.9732 1.04011 10.7548 1.57899 11.0243L12 16.2349L22.421 11.0243C22.9599 10.7548 23.6152 10.9732 23.8846 11.5121C24.154 12.051 23.9356 12.7063 23.3967 12.9757L12.4879 18.4303C12.1807 18.5838 11.8193 18.5838 11.5121 18.4303L0.603267 12.9757C0.0643918 12.7063 -0.15403 12.051 0.115407 11.5121ZM0.115407 16.9667C0.384844 16.4278 1.04011 16.2094 1.57899 16.4788L12 21.6894L22.421 16.4788C22.9599 16.2094 23.6152 16.4278 23.8846 16.9667C24.154 17.5056 23.9356 18.1608 23.3967 18.4303L12.4879 23.8848C12.1807 24.0384 11.8193 24.0384 11.5121 23.8848L0.603267 18.4303C0.0643918 18.1608 -0.15403 17.5056 0.115407 16.9667Z" fill="white"/>
</svg>
