<svg width="12" height="11" viewBox="0 0 12 11" fill="none" xmlns="http://www.w3.org/2000/svg">
<path fill-rule="evenodd" clip-rule="evenodd" d="M6.00004 0C2.71926 0 0 2.17191 0 4.87999C0 6.17968 0.650193 7.43005 1.77233 8.34018L1.15246 10.0103C1.03105 10.2863 1.09994 10.6167 1.33585 10.8122C1.47395 10.9298 1.64987 11 1.83106 11C1.96012 11 2.08484 10.9638 2.20349 10.8976L2.20448 10.897L4.50778 9.58926C4.97854 9.70778 5.49744 9.75998 6.00004 9.75998C9.28082 9.75998 12.0001 7.58807 12.0001 4.87999C12.0001 2.17191 9.28082 0 6.00004 0ZM0.863777 4.87999C0.863777 2.68635 3.13826 0.842939 6.00004 0.842939C8.86181 0.842939 11.1363 2.68635 11.1363 4.87999C11.1363 7.07362 8.86181 8.91704 6.00004 8.91704C5.52586 8.91704 5.05096 8.86239 4.60362 8.7669L4.5128 8.75213C4.40421 8.73159 4.30334 8.75466 4.21813 8.78792L4.20819 8.7918L2.07176 10.0039L2.68195 8.35762L2.6823 8.35672C2.74613 8.18935 2.68693 7.98795 2.54089 7.87864L2.49861 7.83738L2.4907 7.83152C1.45058 7.06009 0.863777 5.98519 0.863777 4.87999Z" fill="black"/>
</svg>
