<svg width="93" height="93" viewBox="0 0 93 93" fill="none" xmlns="http://www.w3.org/2000/svg">
<path fill-rule="evenodd" clip-rule="evenodd" d="M46.5 91.5C71.3528 91.5 91.5 71.3528 91.5 46.5C91.5 21.6472 71.3528 1.5 46.5 1.5C21.6472 1.5 1.5 21.6472 1.5 46.5C1.5 71.3528 21.6472 91.5 46.5 91.5ZM46.5 93C72.1812 93 93 72.1812 93 46.5C93 20.8188 72.1812 0 46.5 0C20.8188 0 0 20.8188 0 46.5C0 72.1812 20.8188 93 46.5 93Z" fill="#BDBDBD"/>
<path fill-rule="evenodd" clip-rule="evenodd" d="M42.6286 29.2913C43.02 29.6809 43.0214 30.3141 42.6318 30.7055L35.868 37.5H58.132L51.3682 30.7055C50.9786 30.3141 50.98 29.6809 51.3714 29.2913C51.7628 28.9017 52.396 28.9031 52.7856 29.2945L60.954 37.5H69C69.5523 37.5 70 37.9477 70 38.5V45.3C70 45.8523 69.5523 46.3 69 46.3H66.4506L63.2148 64.1781C63.1287 64.654 62.7144 65 62.2308 65H31.7692C31.2856 65 30.8713 64.654 30.7852 64.1781L27.5494 46.3H25C24.4477 46.3 24 45.8523 24 45.3V38.5C24 37.9477 24.4477 37.5 25 37.5H33.046L41.2144 29.2945C41.604 28.9031 42.2372 28.9017 42.6286 29.2913ZM29.5819 46.3L32.6045 63H61.3955L64.4181 46.3H29.5819ZM26 39.5V44.3H68V39.5H26ZM38.5385 49.4C39.0907 49.4 39.5385 49.8477 39.5385 50.4V58.9C39.5385 59.4523 39.0907 59.9 38.5385 59.9C37.9862 59.9 37.5385 59.4523 37.5385 58.9V50.4C37.5385 49.8477 37.9862 49.4 38.5385 49.4ZM47 49.4C47.5523 49.4 48 49.8477 48 50.4V58.9C48 59.4523 47.5523 59.9 47 59.9C46.4477 59.9 46 59.4523 46 58.9V50.4C46 49.8477 46.4477 49.4 47 49.4ZM55.4615 49.4C56.0138 49.4 56.4615 49.8477 56.4615 50.4V58.9C56.4615 59.4523 56.0138 59.9 55.4615 59.9C54.9093 59.9 54.4615 59.4523 54.4615 58.9V50.4C54.4615 49.8477 54.9093 49.4 55.4615 49.4Z" fill="#BDBDBD"/>
</svg>
