<svg width="10" height="8" viewBox="0 0 10 8" fill="none" xmlns="http://www.w3.org/2000/svg">
<path d="M9.36858 1.33786C9.55517 1.1343 9.54142 0.818019 9.33786 0.631423C9.1343 0.444827 8.81802 0.458578 8.63142 0.662138L9.36858 1.33786ZM3.5 7L3.13142 7.33786C3.22613 7.44118 3.35985 7.5 3.5 7.5C3.64015 7.5 3.77387 7.44118 3.86858 7.33786L3.5 7ZM1.36858 3.93486C1.18198 3.73131 0.865697 3.71755 0.662138 3.90415C0.458578 4.09075 0.444827 4.40703 0.631423 4.61059L1.36858 3.93486ZM8.63142 0.662138L3.13142 6.66214L3.86858 7.33786L9.36858 1.33786L8.63142 0.662138ZM3.86858 6.66214L1.36858 3.93486L0.631423 4.61059L3.13142 7.33786L3.86858 6.66214Z" fill="black"/>
</svg>
