<svg width="28" height="28" viewBox="0 0 28 28" fill="none" xmlns="http://www.w3.org/2000/svg">
<path d="M26.0256 12.0257H24.6307C24.3517 10.5072 23.7591 9.09951 22.9164 7.87538L23.9005 6.89275C24.6709 6.1219 24.6709 4.87135 23.9005 4.1005C23.515 3.71434 23.0083 3.5216 22.5039 3.5216C21.9991 3.5216 21.4929 3.71434 21.1074 4.1005L20.1234 5.08427C18.9017 4.24007 17.4922 3.64824 15.9727 3.36741V1.97366C15.9727 0.883546 15.0899 0 14.0001 0C12.9102 0 12.0275 0.883546 12.0275 1.97366V3.36741C10.5079 3.64835 9.10024 4.24007 7.87602 5.08348L6.89272 4.10175C6.50725 3.71627 6.00216 3.52262 5.49787 3.52262C4.99097 3.52262 4.48498 3.71627 4.10132 4.10175C3.32868 4.87146 3.32868 6.12201 4.10132 6.89286L5.08292 7.8755C4.24077 9.09974 3.64817 10.5073 3.36927 12.0258H1.97442C0.884547 12.0258 0 12.9094 0 13.9995C0 15.0906 0.884547 15.9742 1.97442 15.9742H3.36927C3.64817 17.4927 4.24089 18.8995 5.08474 20.1243L4.10132 21.108C3.32868 21.8787 3.32868 23.1285 4.10132 23.8992C4.4868 24.2846 4.99109 24.4782 5.49787 24.4782C6.00205 24.4782 6.50713 24.2846 6.89272 23.8992L7.87602 22.9166C9.10024 23.7588 10.5079 24.3507 12.0275 24.6315V26.0253C12.0275 27.1162 12.9102 28 14.0001 28C15.0899 28 15.9727 27.1162 15.9727 26.0253V24.6324C17.4922 24.3509 18.8994 23.7588 20.1234 22.9156L21.1074 23.9001C21.4929 24.2855 21.9991 24.4783 22.5039 24.4783C23.0083 24.4783 23.515 24.2857 23.9005 23.9001C24.6709 23.1294 24.6709 21.8787 23.9005 21.108L22.9164 20.1243C23.7592 18.8994 24.3517 17.4927 24.6307 15.9742H26.0256C27.1155 15.9742 28 15.0906 28 13.9995C28 12.9093 27.1155 12.0257 26.0256 12.0257ZM13.9998 18.0753C11.7482 18.0753 9.9239 16.2504 9.9239 13.9995C9.9239 11.7486 11.7482 9.92353 13.9998 9.92353C16.2514 9.92353 18.0752 11.7487 18.0752 13.9995C18.0753 16.2504 16.2516 18.0753 13.9998 18.0753Z" fill="black"/>
</svg>
