<svg width="15" height="18" viewBox="0 0 15 18" fill="none" xmlns="http://www.w3.org/2000/svg">
<path d="M5.94617 14.7282C6.21824 14.7282 6.48419 14.8088 6.71041 14.96C6.93662 15.1111 7.11293 15.326 7.21705 15.5773C7.32116 15.8287 7.3484 16.1053 7.29533 16.3721C7.24225 16.639 7.11124 16.8841 6.91886 17.0764C6.72648 17.2688 6.48137 17.3998 6.21453 17.4529C5.9477 17.506 5.67111 17.4787 5.41975 17.3746C5.1684 17.2705 4.95356 17.0942 4.80241 16.868C4.65126 16.6418 4.57058 16.3758 4.57058 16.1038C4.57058 15.7389 4.71551 15.389 4.97348 15.1311C5.23145 14.8731 5.58134 14.7282 5.94617 14.7282ZM9.15588 16.1038C9.15588 16.3758 9.23655 16.6418 9.3877 16.868C9.53886 17.0942 9.75369 17.2705 10.005 17.3746C10.2564 17.4787 10.533 17.506 10.7998 17.4529C11.0667 17.3998 11.3118 17.2688 11.5042 17.0764C11.6965 16.8841 11.8275 16.639 11.8806 16.3721C11.9337 16.1053 11.9065 15.8287 11.8023 15.5773C11.6982 15.326 11.5219 15.1111 11.2957 14.96C11.0695 14.8088 10.8035 14.7282 10.5315 14.7282C10.1666 14.7282 9.81675 14.8731 9.55878 15.1311C9.3008 15.389 9.15588 15.7389 9.15588 16.1038ZM1.8194 4.64051H2.60807L4.62255 9.021C4.10866 9.26909 3.69417 9.68423 3.44688 10.1985C3.19959 10.7128 3.13414 11.2958 3.26124 11.8521C3.38833 12.4084 3.70045 12.9051 4.14653 13.261C4.59262 13.6168 5.14626 13.8108 5.7169 13.8111H12.3656C12.6088 13.8111 12.8421 13.7145 13.014 13.5425C13.186 13.3705 13.2826 13.1373 13.2826 12.894C13.2826 12.6508 13.186 12.4176 13.014 12.2456C12.8421 12.0736 12.6088 11.977 12.3656 11.977H5.7169C5.53449 11.977 5.35955 11.9045 5.23056 11.7755C5.10157 11.6466 5.02911 11.4716 5.02911 11.2892C5.02911 11.1068 5.10157 10.9318 5.23056 10.8028C5.35955 10.6739 5.53449 10.6014 5.7169 10.6014H11.4485C11.612 10.6012 11.7724 10.5573 11.9133 10.4743C12.0541 10.3912 12.1701 10.2721 12.2494 10.1291L14.5421 6.00235C14.6006 5.89707 14.6378 5.7813 14.6516 5.66165C14.6653 5.54199 14.6554 5.4208 14.6223 5.30498C14.5893 5.18916 14.5337 5.081 14.4588 4.98666C14.384 4.89231 14.2912 4.81365 14.1859 4.75515C14.05 4.67938 13.8968 4.6399 13.7412 4.64051H4.6256L4.02799 3.33982C3.95465 3.18059 3.83721 3.04571 3.68957 2.95117C3.54194 2.85663 3.3703 2.80639 3.19499 2.8064H1.8194C1.69897 2.8064 1.57972 2.83012 1.46846 2.8762C1.3572 2.92229 1.2561 2.98984 1.17094 3.075C1.08579 3.16015 1.01824 3.26125 0.972151 3.37251C0.926064 3.48378 0.902344 3.60303 0.902344 3.72346C0.902344 3.84389 0.926064 3.96314 0.972151 4.0744C1.01824 4.18566 1.08579 4.28676 1.17094 4.37191C1.2561 4.45707 1.3572 4.52462 1.46846 4.57071C1.57972 4.61679 1.69897 4.64051 1.8194 4.64051Z" fill="#666666"/>
<path d="M6.9719 2.5252C7.38836 2.05195 8.14487 2.1207 8.46921 2.66125C8.84154 3.28181 8.39454 4.07131 7.67085 4.07131C6.8697 4.07131 6.44264 3.12663 6.9719 2.5252Z" fill="#666666"/>
<path d="M10.1436 2.55975C10.5509 1.76881 11.6998 1.82451 12.0287 2.65116C12.2995 3.33192 11.798 4.07121 11.0653 4.07121C10.2892 4.07121 9.78826 3.24976 10.1436 2.55975Z" fill="#666666"/>
</svg>
