<svg width="14" height="17" viewBox="0 0 14 17" fill="none" xmlns="http://www.w3.org/2000/svg">
<path d="M1.18882 16.8882H12.3721C12.4664 16.8882 12.5598 16.8697 12.647 16.8336C12.7341 16.7975 12.8132 16.7446 12.8799 16.6779C12.9466 16.6112 12.9995 16.5321 13.0356 16.4449C13.0717 16.3578 13.0903 16.2644 13.0903 16.1701V8.81924C13.0903 8.72493 13.0717 8.63155 13.0356 8.54443C12.9995 8.4573 12.9466 8.37814 12.8799 8.31146C12.8132 8.24477 12.7341 8.19188 12.647 8.15579C12.5598 8.1197 12.4664 8.10113 12.3721 8.10113H11.1491V5.41702C11.1491 2.70685 9.27098 0.663086 6.78052 0.663086C4.28989 0.663086 2.41174 2.70685 2.41174 5.41702V8.10113H1.18882C1.09451 8.10113 1.00113 8.11971 0.914007 8.15579C0.826881 8.19188 0.747716 8.24478 0.681033 8.31146C0.61435 8.37814 0.561454 8.45731 0.525366 8.54443C0.489277 8.63156 0.470703 8.72494 0.470703 8.81924V16.1701C0.470704 16.2644 0.489279 16.3578 0.525367 16.4449C0.561456 16.5321 0.614352 16.6112 0.681035 16.6779C0.747718 16.7446 0.826883 16.7975 0.914008 16.8336C1.00113 16.8697 1.09451 16.8882 1.18882 16.8882ZM4.21454 5.41702C4.21454 3.67941 5.26963 2.46588 6.78052 2.46588C8.29124 2.46588 9.34634 3.67942 9.34634 5.41703V8.10113H4.21454V5.41702Z" fill="#666666"/>
</svg>
