<svg width="18" height="17" viewBox="0 0 18 17" fill="none" xmlns="http://www.w3.org/2000/svg">
<path d="M17.2889 12.7794V15.3054C17.2899 15.5399 17.2419 15.772 17.1479 15.9869C17.054 16.2018 16.9162 16.3946 16.7434 16.5532C16.5706 16.7117 16.3666 16.8324 16.1444 16.9075C15.9223 16.9827 15.6869 17.0106 15.4534 16.9895C12.8624 16.7079 10.3735 15.8225 8.18682 14.4045C6.15238 13.1117 4.42754 11.3869 3.13477 9.35243C1.71176 7.1558 0.826187 4.65486 0.549803 2.05221C0.528762 1.81937 0.556434 1.5847 0.631057 1.36313C0.705681 1.14157 0.825621 0.937974 0.983241 0.765305C1.14086 0.592636 1.33271 0.454678 1.54657 0.360215C1.76042 0.265753 1.99161 0.216855 2.2254 0.216634H4.75143C5.16006 0.212613 5.55621 0.357316 5.86605 0.623773C6.17588 0.89023 6.37825 1.26026 6.43544 1.66489C6.54206 2.47327 6.73979 3.267 7.02485 4.03093C7.13814 4.33231 7.16266 4.65984 7.0955 4.97473C7.02835 5.28961 6.87233 5.57864 6.64595 5.80757L5.5766 6.87692C6.77524 8.98493 8.52064 10.7303 10.6286 11.929L11.698 10.8596C11.9269 10.6332 12.216 10.4772 12.5308 10.4101C12.8457 10.3429 13.1733 10.3674 13.4746 10.4807C14.2386 10.7658 15.0323 10.9635 15.8407 11.0701C16.2497 11.1278 16.6232 11.3339 16.8903 11.649C17.1573 11.9642 17.2992 12.3665 17.2889 12.7794Z" fill="#666666"/>
</svg>
