<svg width="31" height="31" viewBox="0 0 31 31" fill="none" xmlns="http://www.w3.org/2000/svg">
<path fill-rule="evenodd" clip-rule="evenodd" d="M1.40013 3.68587C0.724609 4.9863 0.724609 6.69478 0.724609 10.1117V20.6037C0.724609 24.0206 0.724609 25.7291 1.40013 27.0295C1.96938 28.1254 2.8629 29.0189 3.95876 29.5881C5.25919 30.2637 6.96766 30.2637 10.3846 30.2637H20.8765C24.2935 30.2637 26.002 30.2637 27.3024 29.5881C28.3982 29.0189 29.2918 28.1254 29.861 27.0295C30.5365 25.7291 30.5365 24.0206 30.5365 20.6037V10.1117C30.5365 6.69478 30.5365 4.9863 29.861 3.68587C29.2918 2.59002 28.3982 1.69649 27.3024 1.12724C26.002 0.451721 24.2935 0.451721 20.8765 0.451721H10.3846C6.96767 0.451721 5.25919 0.451721 3.95876 1.12724C2.8629 1.69649 1.96938 2.59002 1.40013 3.68587ZM12.7382 19.1719V30.2635H17.082V19.1719H21.346L21.54 15.1784H17.082V12.2625C17.082 11.1614 17.3192 10.498 18.8001 10.498C20.1684 10.498 21.4223 10.5099 21.4223 10.5099L21.5192 6.78064C21.5192 6.78064 20.2897 6.62569 18.627 6.62569C14.5204 6.62569 12.7382 9.08714 12.7382 11.7675V15.1784H9.72113V19.1719H12.7382Z" fill="#0066FF"/>
</svg>
