<svg width="38" height="31" viewBox="0 0 38 31" fill="none" xmlns="http://www.w3.org/2000/svg">
<path d="M37.4098 3.98303C36.383 5.50318 35.1232 6.79903 33.6306 7.87059C33.6453 8.15798 33.6527 8.4828 33.6527 8.84505C33.6527 10.8578 33.3579 12.873 32.7682 14.8906C32.1786 16.9083 31.2779 18.8395 30.0661 20.6844C28.8543 22.5292 27.4109 24.1636 25.7358 25.5875C24.0607 27.0114 22.0471 28.1467 19.6951 28.9935C17.3431 29.8403 14.8224 30.2637 12.133 30.2637C7.9357 30.2637 4.0704 29.1358 0.537109 26.8802C1.16423 26.9497 1.76569 26.9844 2.34149 26.9844C5.84798 26.9844 8.97985 25.9094 11.7371 23.7594C10.1022 23.7296 8.63796 23.2287 7.34448 22.2567C6.05101 21.2846 5.16087 20.0426 4.67407 18.5305C5.15524 18.6217 5.63014 18.6674 6.09877 18.6674C6.77334 18.6674 7.4371 18.5798 8.09005 18.4047C6.34528 18.0569 4.89784 17.1919 3.74774 15.8098C2.59768 14.4278 2.02265 12.8326 2.02265 11.0243V10.9311C3.0936 11.5213 4.23593 11.8353 5.44965 11.873C4.41606 11.1871 3.59658 10.2928 2.99121 9.18992C2.3858 8.08706 2.08309 6.89357 2.08309 5.60945C2.08309 4.25513 2.42405 2.99401 3.10599 1.82608C5.00339 4.1436 7.3025 5.99583 10.0033 7.38278C12.7042 8.76975 15.6016 9.54003 18.6958 9.69362C18.5638 9.14621 18.4977 8.57497 18.4975 7.97988C18.4975 5.90207 19.2362 4.12793 20.7137 2.65744C22.1913 1.18696 23.9738 0.451721 26.0614 0.451721C28.2471 0.451721 30.088 1.24383 31.5844 2.82806C33.294 2.491 34.8948 1.88136 36.3867 0.999127C35.8119 2.79957 34.7043 4.18848 33.064 5.16588C34.5716 4.98756 36.0202 4.59328 37.4097 3.98303H37.4098Z" fill="#12ABDB"/>
</svg>
