<svg width="35" height="20" viewBox="0 0 35 20" fill="none" xmlns="http://www.w3.org/2000/svg">
<path fill-rule="evenodd" clip-rule="evenodd" d="M17.1416 19.75H19.2351C19.2351 19.75 19.8632 19.6453 20.1772 19.3312C20.4913 19.0172 20.4913 18.3891 20.4913 18.3891C20.4913 18.3891 20.4913 15.6675 21.7474 15.2488C23.0036 14.8301 24.6784 17.9704 26.3533 19.1219C27.6094 20.064 28.5515 19.8546 28.5515 19.8546L33.1574 19.75C33.1574 19.75 35.565 19.6453 34.4135 17.6564C34.3088 17.5517 33.7854 16.2956 30.9591 13.6786C28.0281 10.957 28.4468 11.4804 31.9012 6.76985C33.9948 3.94353 34.8322 2.26868 34.6228 1.43125C34.4135 0.698504 32.8433 0.90786 32.8433 0.90786H27.6094C27.6094 0.90786 27.1907 0.803182 26.9813 1.01254C26.6673 1.2219 26.5626 1.53593 26.5626 1.53593C26.5626 1.53593 25.7252 3.73417 24.6784 5.61838C22.3755 9.49148 21.4334 9.70084 21.1193 9.49148C20.2819 8.96809 20.4913 7.18856 20.4913 6.0371C20.4913 2.26868 21.1193 0.698503 19.3398 0.27979C18.8164 0.175112 18.3977 0.0704346 16.9322 0.0704346C15.048 0.0704346 13.4778 0.0704342 12.6404 0.489147C12.0123 0.803182 11.5936 1.43125 11.9077 1.43125C12.2217 1.43125 13.0591 1.64061 13.4778 2.164C13.8965 3.10611 13.8965 4.67628 13.8965 4.67628C13.8965 4.67628 14.2106 9.17745 13.1638 9.70084C12.431 10.1196 11.4889 9.28213 9.39538 5.72306C8.34859 3.94353 7.51116 1.84996 7.51116 1.84996C7.51116 1.84996 7.40649 1.43125 7.09245 1.2219C6.77842 1.01254 6.25502 0.90786 6.25502 0.90786H1.33514C1.33514 0.90786 0.602395 0.907861 0.28836 1.2219C0.0790033 1.53593 0.28836 2.05932 0.28836 2.05932C0.28836 2.05932 4.16146 11.0617 8.55795 15.6675C12.6404 20.064 17.1416 19.75 17.1416 19.75Z" fill="#50A1DB"/>
</svg>
