<svg width="31" height="31" viewBox="0 0 31 31" fill="none" xmlns="http://www.w3.org/2000/svg">
<path d="M30.2221 11.0803C30.2221 9.65454 30.0919 8.35836 29.8315 6.93258C29.3108 3.95138 27.4882 2.00713 24.6242 0.97019C23.1922 0.451721 21.63 0.451721 20.0678 0.451721C17.0736 0.451721 14.2096 0.451721 11.2154 0.451721C9.78334 0.451721 8.48151 0.581338 7.04949 0.840573C4.05528 1.35904 2.10254 3.17368 1.06107 6.02526C0.540339 7.58066 0.540339 9.13607 0.410156 10.6915C0.410156 13.6727 0.410156 16.5242 0.410156 19.5054C0.410156 20.9312 0.540339 22.2274 0.800706 23.6532C1.19125 25.8567 2.3629 27.6713 4.31565 28.8379C5.87785 29.7452 7.44004 30.0044 9.26261 30.134C11.2154 30.134 13.2983 30.2637 15.251 30.2637C16.683 30.2637 17.9849 30.2637 19.4169 30.2637C20.8489 30.2637 22.1507 30.134 23.5827 29.8748C26.577 29.3563 28.5297 27.5417 29.5712 24.6901C30.0919 23.1347 30.0919 21.5793 30.2221 20.0239C30.2221 16.9131 30.2221 13.9319 30.2221 11.0803ZM15.3812 21.3201C11.9965 21.3201 9.26261 18.5981 9.26261 15.0985C9.26261 11.7284 11.9965 9.00645 15.5114 9.00645C18.8962 9.00645 21.63 11.7284 21.63 15.0985C21.4998 18.5981 18.766 21.3201 15.3812 21.3201ZM23.3224 9.3953C22.1507 9.3953 21.1093 8.35836 21.1093 7.19181C21.1093 6.02526 22.0206 4.98832 23.3224 4.98832C24.6242 4.98832 25.5355 5.89564 25.5355 7.19181C25.5355 8.48798 24.494 9.3953 23.3224 9.3953Z" fill="url(#paint0_linear)"/>
<defs>
<linearGradient id="paint0_linear" x1="15.3161" y1="0.451721" x2="15.3161" y2="30.2637" gradientUnits="userSpaceOnUse">
<stop stop-color="#EB00FF"/>
<stop offset="1" stop-color="#DF0036"/>
</linearGradient>
</defs>
</svg>
