<svg width="24" height="24" viewBox="0 0 24 24" fill="none" xmlns="http://www.w3.org/2000/svg">
<path d="M5.33333 19C5.16913 19 5.01539 19.0806 4.92202 19.2157L2.09758 23.302C1.44761 23.7905 0.5 23.3303 0.5 22.5V2.66667C0.5 2.09203 0.728273 1.54093 1.1346 1.1346C1.54093 0.728273 2.09203 0.5 2.66667 0.5H21.3333C21.908 0.5 22.4591 0.728273 22.8654 1.1346C23.2717 1.54093 23.5 2.09203 23.5 2.66667V16.8333C23.5 17.408 23.2717 17.9591 22.8654 18.3654C22.4591 18.7717 21.908 19 21.3333 19H5.33333ZM18.5 6C18.5 5.72386 18.2761 5.5 18 5.5H6C5.72386 5.5 5.5 5.72386 5.5 6V7.5C5.5 7.77614 5.72386 8 6 8H18C18.2761 8 18.5 7.77614 18.5 7.5V6ZM12.5 12C12.5 11.7239 12.2761 11.5 12 11.5H6C5.72386 11.5 5.5 11.7239 5.5 12V13.5C5.5 13.7761 5.72386 14 6 14H12C12.2761 14 12.5 13.7761 12.5 13.5V12Z" stroke="#BDBDBD" stroke-linecap="round" stroke-linejoin="round"/>
</svg>
