<svg width="16" height="16" viewBox="0 0 16 16" fill="none" xmlns="http://www.w3.org/2000/svg">
<path d="M0.518031 10.0067L0.0362958 10.1406L0.518031 10.0067C0.506589 9.96551 0.5 9.91602 0.5 9.85364V1.33333C0.5 0.873096 0.873096 0.5 1.33333 0.5H14.6667C15.1269 0.5 15.5 0.873096 15.5 1.33333V9.85364C15.5 9.91602 15.4934 9.96551 15.482 10.0067C15.3666 10.4216 14.9172 11.8049 13.786 13.077C12.6687 14.3335 10.8721 15.5 8 15.5C5.12789 15.5 3.33133 14.3335 2.21397 13.077C1.08278 11.8049 0.633376 10.4216 0.518031 10.0067ZM4.27735 4.91731L3.5 4.39908V5.33333V7.33333V7.60093L3.72265 7.74936L7.72265 10.416L8 10.6009L8.27735 10.416L12.2774 7.74936L12.5 7.60093V7.33333V5.33333V4.39908L11.7226 4.91731L8 7.39907L4.27735 4.91731Z" stroke="black"/>
</svg>
