<svg width="15" height="20" viewBox="0 0 15 20" fill="none" xmlns="http://www.w3.org/2000/svg">
<path fill-rule="evenodd" clip-rule="evenodd" d="M12.9545 0H2.04545C0.886364 0 0 0.866667 0 2V18C0 19.1333 0.886364 20 2.04545 20H12.9545C14.1136 20 15 19.1333 15 18V2C15 0.866667 14.1136 0 12.9545 0ZM13.6364 18C13.6364 18.4 13.3636 18.6667 12.9545 18.6667H2.04545C1.63636 18.6667 1.36364 18.4 1.36364 18V2C1.36364 1.6 1.63636 1.33333 2.04545 1.33333H12.9545C13.3636 1.33333 13.6364 1.6 13.6364 2V18ZM11.5907 2.66699H3.40887C2.99978 2.66699 2.72705 2.93366 2.72705 3.33366V7.33366C2.72705 7.73366 2.99978 8.00033 3.40887 8.00033H11.5907C11.9998 8.00033 12.2725 7.73366 12.2725 7.33366V3.33366C12.2725 2.93366 11.9998 2.66699 11.5907 2.66699ZM10.9089 6.66699H4.09069V4.00033H10.9089V6.66699ZM2.72705 9.33366C2.72705 8.93366 2.99978 8.66699 3.40887 8.66699H4.77251C5.1816 8.66699 5.45432 8.93366 5.45432 9.33366V10.667C5.45432 11.067 5.1816 11.3337 4.77251 11.3337H3.40887C2.99978 11.3337 2.72705 11.067 2.72705 10.667V9.33366ZM8.18169 8.66699H6.81805C6.40896 8.66699 6.13623 8.93366 6.13623 9.33366V10.667C6.13623 11.067 6.40896 11.3337 6.81805 11.3337H8.18169C8.59078 11.3337 8.8635 11.067 8.8635 10.667V9.33366C8.8635 8.93366 8.59078 8.66699 8.18169 8.66699ZM10.2272 8.66699H11.5909C12 8.66699 12.2727 8.93366 12.2727 9.33366V10.667C12.2727 11.067 12 11.3337 11.5909 11.3337H10.2272C9.81814 11.3337 9.54541 11.067 9.54541 10.667V9.33366C9.54541 8.93366 9.81814 8.66699 10.2272 8.66699ZM3.40887 12C2.99978 12 2.72705 12.2667 2.72705 12.6667V14C2.72705 14.4 2.99978 14.6667 3.40887 14.6667H4.77251C5.1816 14.6667 5.45432 14.4 5.45432 14V12.6667C5.45432 12.2667 5.1816 12 4.77251 12H3.40887ZM6.81805 12H8.18169C8.59078 12 8.8635 12.2667 8.8635 12.6667V14C8.8635 14.4 8.59078 14.6667 8.18169 14.6667H6.81805C6.40896 14.6667 6.13623 14.4 6.13623 14V12.6667C6.13623 12.2667 6.40896 12 6.81805 12ZM11.5909 12H10.2272C9.81814 12 9.54541 12.2667 9.54541 12.6667V14C9.54541 14.4 9.81814 14.6667 10.2272 14.6667H11.5909C12 14.6667 12.2727 14.4 12.2727 14V12.6667C12.2727 12.2667 12 12 11.5909 12ZM2.72705 15.9997C2.72705 15.5997 2.99978 15.333 3.40887 15.333H4.77251C5.1816 15.333 5.45432 15.5997 5.45432 15.9997V17.333C5.45432 17.733 5.1816 17.9997 4.77251 17.9997H3.40887C2.99978 17.9997 2.72705 17.733 2.72705 17.333V15.9997ZM8.18169 15.333H6.81805C6.40896 15.333 6.13623 15.5997 6.13623 15.9997V17.333C6.13623 17.733 6.40896 17.9997 6.81805 17.9997H8.18169C8.59078 17.9997 8.8635 17.733 8.8635 17.333V15.9997C8.8635 15.5997 8.59078 15.333 8.18169 15.333ZM10.2272 15.333H11.5909C12 15.333 12.2727 15.5997 12.2727 15.9997V17.333C12.2727 17.733 12 17.9997 11.5909 17.9997H10.2272C9.81814 17.9997 9.54541 17.733 9.54541 17.333V15.9997C9.54541 15.5997 9.81814 15.333 10.2272 15.333Z" fill="black"/>
</svg>
