<svg width="16" height="9" viewBox="0 0 16 9" fill="none" xmlns="http://www.w3.org/2000/svg">
<path fill-rule="evenodd" clip-rule="evenodd" d="M3.81419 6.55876C2.75157 5.88232 1.87675 5.09154 1.31659 4.48474C1.82592 3.88651 2.6421 3.10749 3.67609 2.43937C4.9083 1.64317 6.41697 1.02532 8.05967 1.02532C9.70158 1.02532 11.1908 1.64262 12.3983 2.43707C13.4155 3.10639 14.2105 3.88706 14.7016 4.4845C14.1597 5.09074 13.306 5.8833 12.2602 6.56099C11.0243 7.36192 9.56304 7.97468 8.05967 7.97468C6.55534 7.97468 5.07481 7.36124 3.81419 6.55876ZM8.05967 0C6.16354 0 4.46513 0.711259 3.12615 1.57645C1.7884 2.44085 0.776605 3.47973 0.243709 4.19135L0 4.5168L0.259961 4.82923C0.8447 5.532 1.91802 6.56474 3.27006 7.42541C4.61933 8.28433 6.29058 9 8.05967 9C9.82973 9 11.4834 8.28365 12.8113 7.42319C14.1413 6.56132 15.1876 5.52707 15.7542 4.82265L16 4.51703L15.7705 4.19879C15.2559 3.48517 14.2711 2.44451 12.9553 1.57875C11.6376 0.711808 9.95661 0 8.05967 0ZM6.42721 4.11584C6.42721 3.16797 7.19032 2.39958 8.13167 2.39958C8.29643 2.39958 8.45165 2.29367 8.47992 2.13135L8.52303 1.88383C8.5681 1.62503 8.39436 1.37426 8.13167 1.37426C6.62795 1.37426 5.40894 2.60171 5.40894 4.11584C5.40894 5.62997 6.62795 6.85741 8.13167 6.85741C9.63539 6.85741 10.8544 5.62997 10.8544 4.11584C10.8544 4.04533 10.8517 3.97537 10.8465 3.90607C10.8294 3.67883 10.625 3.52034 10.3971 3.52034C10.0903 3.52034 9.83613 3.809 9.83613 4.11584C9.83613 5.0637 9.07301 5.83209 8.13167 5.83209C7.19032 5.83209 6.42721 5.0637 6.42721 4.11584Z" fill="black"/>
</svg>
