<svg width="22" height="22" viewBox="0 0 22 22" fill="none" xmlns="http://www.w3.org/2000/svg">
<path d="M20.2929 21.7071C20.6834 22.0976 21.3166 22.0976 21.7071 21.7071C22.0976 21.3166 22.0976 20.6834 21.7071 20.2929L20.2929 21.7071ZM15.8074 14.3932C15.4168 14.0026 14.7837 14.0026 14.3932 14.3932C14.0026 14.7837 14.0026 15.4168 14.3932 15.8074L15.8074 14.3932ZM16.5278 9.26389C16.5278 13.2756 13.2756 16.5278 9.26389 16.5278V18.5278C14.3802 18.5278 18.5278 14.3802 18.5278 9.26389H16.5278ZM9.26389 16.5278C5.25215 16.5278 2 13.2756 2 9.26389H0C0 14.3802 4.14758 18.5278 9.26389 18.5278V16.5278ZM2 9.26389C2 5.25215 5.25215 2 9.26389 2V0C4.14758 0 0 4.14758 0 9.26389H2ZM9.26389 2C13.2756 2 16.5278 5.25215 16.5278 9.26389H18.5278C18.5278 4.14758 14.3802 0 9.26389 0V2ZM21.7071 20.2929L15.8074 14.3932L14.3932 15.8074L20.2929 21.7071L21.7071 20.2929Z" fill="black"/>
</svg>
