<svg width="22" height="22" viewBox="0 0 22 22" fill="none" xmlns="http://www.w3.org/2000/svg">
<path d="M4.63711 3.22289C4.24658 2.83237 3.61342 2.83237 3.22289 3.22289C2.83237 3.61342 2.83237 4.24658 3.22289 4.63711L4.63711 3.22289ZM17.3629 18.7771C17.7534 19.1676 18.3866 19.1676 18.7771 18.7771C19.1676 18.3866 19.1676 17.7534 18.7771 17.3629L17.3629 18.7771ZM20 11C20 15.9706 15.9706 20 11 20V22C17.0751 22 22 17.0751 22 11H20ZM11 20C6.02944 20 2 15.9706 2 11H0C0 17.0751 4.92487 22 11 22V20ZM2 11C2 6.02944 6.02944 2 11 2V0C4.92487 0 0 4.92487 0 11H2ZM11 2C15.9706 2 20 6.02944 20 11H22C22 4.92487 17.0751 0 11 0V2ZM3.22289 4.63711L17.3629 18.7771L18.7771 17.3629L4.63711 3.22289L3.22289 4.63711Z" fill="black"/>
</svg>
