<svg width="24" height="24" viewBox="0 0 24 24" fill="none" xmlns="http://www.w3.org/2000/svg">
<mask id="path-1-inside-1" fill="white">
<path fill-rule="evenodd" clip-rule="evenodd" d="M1.5 0H22.5C23.3284 0 24 0.671573 24 1.5V13.5C24 18 18 24 12 24C6 24 0 18 0 13.5V1.5C0 0.671573 0.671573 0 1.5 0ZM6 10.5L11.4 14.55C11.7556 14.8167 12.2444 14.8167 12.6 14.55L18 10.5V7.5L12 12L6 7.5V10.5Z"/>
</mask>
<path d="M12 12L11.4 12.8L12 13.25L12.6 12.8L12 12ZM6 7.5L6.6 6.7C6.29698 6.47274 5.89157 6.43618 5.55279 6.60557C5.214 6.77496 5 7.12123 5 7.5H6ZM6 10.5H5C5 10.8148 5.14819 11.1111 5.4 11.3L6 10.5ZM18 10.5L18.6 11.3C18.8518 11.1111 19 10.8148 19 10.5H18ZM18 7.5H19C19 7.12123 18.786 6.77496 18.4472 6.60557C18.1084 6.43618 17.703 6.47274 17.4 6.7L18 7.5ZM11.4 14.55L10.8 15.35L11.4 14.55ZM12.6 14.55L13.2 15.35L12.6 14.55ZM1.5 1H22.5V-1H1.5V1ZM1 13.5V1.5H-1V13.5H1ZM12 23C9.31943 23 6.54963 21.6473 4.42572 19.7003C2.27897 17.7325 1 15.3549 1 13.5H-1C-1 16.1451 0.721032 19.0175 3.07428 21.1747C5.45037 23.3527 8.68057 25 12 25V23ZM23 1.5V13.5H25V1.5H23ZM12 25C15.3194 25 18.5496 23.3527 20.9257 21.1747C23.279 19.0175 25 16.1451 25 13.5H23C23 15.3549 21.721 17.7325 19.5743 19.7003C17.4504 21.6473 14.6806 23 12 23V25ZM22.5 1C22.7761 1 23 1.22386 23 1.5H25C25 0.119288 23.8807 -1 22.5 -1V1ZM1.5 -1C0.119288 -1 -1 0.119288 -1 1.5H1C1 1.22386 1.22386 1 1.5 1V-1ZM12 13.75L6.6 9.7L5.4 11.3L10.8 15.35L12 13.75ZM17.4 9.7L12 13.75L13.2 15.35L18.6 11.3L17.4 9.7ZM5.4 8.3L11.4 12.8L12.6 11.2L6.6 6.7L5.4 8.3ZM7 10.5V7.5H5V10.5H7ZM17 7.5V10.5H19V7.5H17ZM12.6 12.8L18.6 8.3L17.4 6.7L11.4 11.2L12.6 12.8ZM10.8 15.35C11.5111 15.8833 12.4889 15.8833 13.2 15.35L12 13.75L10.8 15.35Z" fill="#BDBDBD" mask="url(#path-1-inside-1)"/>
</svg>
