<svg width="20" height="20" viewBox="0 0 20 20" fill="none" xmlns="http://www.w3.org/2000/svg">
<path d="M10.75 4.6C10.75 4.18579 10.4142 3.85 10 3.85C9.58579 3.85 9.25 4.18579 9.25 4.6H10.75ZM10 10H9.25C9.25 10.2841 9.4105 10.5438 9.66459 10.6708L10 10ZM13.2646 12.4708C13.6351 12.6561 14.0856 12.5059 14.2708 12.1354C14.4561 11.7649 14.3059 11.3144 13.9354 11.1292L13.2646 12.4708ZM18.25 10C18.25 14.5563 14.5563 18.25 10 18.25V19.75C15.3848 19.75 19.75 15.3848 19.75 10H18.25ZM10 18.25C5.44365 18.25 1.75 14.5563 1.75 10H0.25C0.25 15.3848 4.61522 19.75 10 19.75V18.25ZM1.75 10C1.75 5.44365 5.44365 1.75 10 1.75V0.25C4.61522 0.25 0.25 4.61522 0.25 10H1.75ZM10 1.75C14.5563 1.75 18.25 5.44365 18.25 10H19.75C19.75 4.61522 15.3848 0.25 10 0.25V1.75ZM9.25 4.6V10H10.75V4.6H9.25ZM9.66459 10.6708L13.2646 12.4708L13.9354 11.1292L10.3354 9.32918L9.66459 10.6708Z" fill="#B2B2B2"/>
</svg>
