<svg width="10" height="20" viewBox="0 0 10 20" fill="none" xmlns="http://www.w3.org/2000/svg">
<path d="M9.69346 0H6.51793C3.39813 0 0.752029 2.26662 0.752029 6.66694C0.752029 9.3068 2.03349 11.2534 4.31728 12.2135L0.0557916 19.5736C-0.0835319 19.8138 0.0557917 20 0.278282 20H2.25598C2.4232 20 2.53467 19.9468 2.59042 19.8138L6.46219 12.5867H7.85513V19.8138C7.85513 19.8936 7.93871 20 8.04973 20H9.77705C9.94426 20 10 19.9202 10 19.7872V0.266789C10 0.0797607 9.88852 0 9.69346 0ZM7.85513 10.8802H6.68514C4.84676 10.8802 3.06417 9.60014 3.06417 6.40014C3.06417 3.06618 4.73528 1.70636 6.4343 1.70636H7.85513V10.8802Z" fill="black"/>
</svg>
