<svg width="16" height="18" viewBox="0 0 16 18" fill="none" xmlns="http://www.w3.org/2000/svg">
<path d="M15 8.50079L8.38112 15.635C7.57026 16.509 6.47049 17 5.32376 17C4.17703 17 3.07726 16.509 2.2664 15.635C1.45554 14.761 1 13.5756 1 12.3396C1 11.1036 1.45554 9.9182 2.2664 9.04421L8.88528 1.91C9.42585 1.32734 10.159 1 10.9235 1C11.688 1 12.4212 1.32734 12.9618 1.91C13.5023 2.49266 13.806 3.28292 13.806 4.10693C13.806 4.93094 13.5023 5.7212 12.9618 6.30386L6.33568 13.4381C6.06539 13.7294 5.6988 13.8931 5.31656 13.8931C4.93431 13.8931 4.56773 13.7294 4.29744 13.4381C4.02715 13.1467 3.8753 12.7516 3.8753 12.3396C3.8753 11.9276 4.02715 11.5325 4.29744 11.2411L10.4122 4.6581" stroke="black" stroke-linecap="round" stroke-linejoin="round"/>
</svg>
