<?xml version="1.0" encoding="iso-8859-1"?>
<!-- Generator: Adobe Illustrator 19.0.0, SVG Export Plug-In . SVG Version: 6.00 Build 0)  -->
<svg version="1.1" id="Layer_1" xmlns="http://www.w3.org/2000/svg" xmlns:xlink="http://www.w3.org/1999/xlink" x="0px" y="0px"
	 viewBox="0 0 512 512" style="enable-background:new 0 0 512 512;" xml:space="preserve">
<g>
	<g>
		<path d="M431.279,0H80.721c-5.633,0-10.199,4.566-10.199,10.199v491.602c0,5.633,4.566,10.199,10.199,10.199h266.562
			c2.705,0,5.299-1.075,7.212-2.987l83.997-83.998c1.912-1.912,2.987-4.506,2.987-7.212V10.199C441.479,4.566,436.912,0,431.279,0z
			 M357.463,477.197l-0.044-49.258l49.257,0.045L357.463,477.197z M421.081,407.599l-73.862-0.067c-0.003,0-0.006,0-0.009,0
			c-2.705,0-5.299,1.075-7.212,2.987c-1.915,1.915-2.99,4.513-2.987,7.222l0.066,73.861H90.92V20.398h330.161V407.599z"/>
	</g>
</g>
<g>
	<g>
		<path d="M194.237,85.796c-3.983-3.983-10.441-3.983-14.424,0.001l-30.015,30.015l-7.453-7.454c-3.983-3.983-10.441-3.983-14.424,0
			c-3.983,3.983-3.984,10.441,0,14.424l14.664,14.665c1.912,1.912,4.507,2.987,7.212,2.987s5.299-1.075,7.212-2.987l37.227-37.227
			C198.219,96.238,198.219,89.779,194.237,85.796z"/>
	</g>
</g>
<g>
	<g>
		<path d="M376.867,106.124h-3.576c-5.633,0-10.199,4.566-10.199,10.199s4.566,10.199,10.199,10.199h3.576
			c5.633,0,10.199-4.566,10.199-10.199S382.5,106.124,376.867,106.124z"/>
	</g>
</g>
<g>
	<g>
		<path d="M340.653,106.124H226.455c-5.633,0-10.199,4.566-10.199,10.199s4.566,10.199,10.199,10.199h114.198
			c5.633,0,10.199-4.566,10.199-10.199S346.286,106.124,340.653,106.124z"/>
	</g>
</g>
<g>
	<g>
		<path d="M194.237,184.532c-3.983-3.983-10.441-3.983-14.424,0.001l-30.015,30.015l-7.453-7.454
			c-3.983-3.983-10.441-3.983-14.424,0c-3.983,3.983-3.984,10.441,0,14.424l14.664,14.665c1.912,1.912,4.507,2.987,7.212,2.987
			s5.299-1.075,7.212-2.987l37.227-37.227C198.219,194.974,198.219,188.516,194.237,184.532z"/>
	</g>
</g>
<g>
	<g>
		<path d="M376.868,204.859H226.455c-5.633,0-10.199,4.566-10.199,10.199c0,5.633,4.566,10.199,10.199,10.199h150.413
			c5.633,0,10.199-4.566,10.199-10.199C387.067,209.425,382.501,204.859,376.868,204.859z"/>
	</g>
</g>
<g>
	<g>
		<path d="M194.237,282.954c-3.983-3.983-10.441-3.983-14.424,0.001l-30.015,30.015l-7.453-7.454
			c-3.983-3.984-10.441-3.983-14.424,0c-3.983,3.983-3.984,10.441,0,14.424l14.664,14.665c1.912,1.912,4.507,2.987,7.212,2.987
			s5.299-1.075,7.212-2.987l37.227-37.227C198.219,293.396,198.219,286.938,194.237,282.954z"/>
	</g>
</g>
<g>
	<g>
		<path d="M376.867,303.281H226.455c-5.633,0-10.199,4.566-10.199,10.199c0,5.633,4.566,10.199,10.199,10.199h150.413
			c5.632,0,10.198-4.566,10.198-10.199C387.066,307.848,382.5,303.281,376.867,303.281z"/>
	</g>
</g>
<g>
</g>
<g>
</g>
<g>
</g>
<g>
</g>
<g>
</g>
<g>
</g>
<g>
</g>
<g>
</g>
<g>
</g>
<g>
</g>
<g>
</g>
<g>
</g>
<g>
</g>
<g>
</g>
<g>
</g>
</svg>
