<svg width="20" height="26" viewBox="0 0 20 26" fill="none" xmlns="http://www.w3.org/2000/svg">
<path fill-rule="evenodd" clip-rule="evenodd" d="M10 25.3333C10 25.3333 20 18.4242 20 10.3636C20 7.61503 18.9464 4.979 17.0711 3.03544C15.1957 1.09188 12.6522 0 10 0C7.34784 0 4.8043 1.09188 2.92893 3.03544C1.05357 4.979 3.95203e-08 7.61503 0 10.3636C0 18.4242 10 25.3333 10 25.3333ZM10 13.8182C11.8409 13.8182 13.3333 12.2715 13.3333 10.3636C13.3333 8.45574 11.8409 6.90909 10 6.90909C8.15905 6.90909 6.66667 8.45574 6.66667 10.3636C6.66667 12.2715 8.15905 13.8182 10 13.8182Z" fill="white"/>
</svg>
