<svg version="1.1" xmlns="http://www.w3.org/2000/svg" xmlns:xlink="http://www.w3.org/1999/xlink" x="0px" y="0px"
	 viewBox="0 0 200 200" style="enable-background:new 0 0 200 200;" xml:space="preserve">
<g>
	<path d="M181.6,87c0-0.1,0-0.1,0-0.2c0,0,0,0,0,0L174,52.6c-0.2-0.9-1-1.6-2-1.6h-62V24.7c0-1.1-0.9-2-2-2h-13c-1.1,0-2,0.9-2,2V51
		H28.9c-0.9,0-1.7,0.6-1.9,1.5l-8.6,34.2c0,0,0,0,0,0c0,0.1,0,0.1,0,0.2c0,0.1,0,0.1,0,0.2c0,0,0,0,0,0v11.9c0,5.4,4.4,9.8,9.8,9.8
		h18.3c-0.1,0.3-0.1,0.7-0.1,1c0,2.7,2.3,5,5,5h27l3.7,53.3c0,0.1,0,0.2,0,0.3c0.1,0.4,2,8.8,17.4,8.8c14.6,0,20.1-5.6,20.3-5.8
		c0.3-0.3,0.5-0.8,0.5-1.2L124,115h27.2c1.4,0,2.7-0.6,3.6-1.6c0.9-1,1.4-2.2,1.3-3.5c0-0.3,0-0.7-0.1-1h15.8c5.4,0,9.8-4.4,9.8-9.8
		V87.2c0,0,0,0,0,0C181.6,87.1,181.6,87,181.6,87z M97.1,26.7h9v33.5h-9V26.7z M116.4,169.1c-1.5,1.1-6.5,4.2-16.9,4.2
		c-11.2,0-13.2-4.8-13.4-5.5L82.4,115H120L116.4,169.1z M152.2,110c0,0,0,0.1,0,0.1c0,0.3-0.1,0.5-0.2,0.6c-0.2,0.2-0.4,0.3-0.7,0.3
		h-29.1H80.3H51.4c-0.5,0-1-0.5-1-1s0.5-1,1-1h99.8C151.7,108.9,152.2,109.4,152.2,110z M177.6,99.1c0,3.2-2.5,5.8-5.8,5.8h-20.7
		H51.4H28.2c-3.2,0-5.8-2.5-5.8-5.8v-4.1C24,96.3,26,97,28.2,97h8.9c1.1,0,2-0.9,2-2s-0.9-2-2-2h-8.9c-3.2,0-5.7-2.4-5.8-5.6
		L30.5,55h62.6v7.2c0,1.1,0.9,2,2,2h13c1.1,0,2-0.9,2-2V55h60.4l7.1,32.4c-0.1,3.2-2.6,5.6-5.8,5.6H60.4c-1.1,0-2,0.9-2,2s0.9,2,2,2
		h111.4c2.2,0,4.2-0.7,5.8-1.9V99.1z"/>
	<path d="M51.8,92.8h-7.2c-1.1,0-2,0.9-2,2s0.9,2,2,2h7.2c1.1,0,2-0.9,2-2S52.9,92.8,51.8,92.8z"/>
	<path d="M44.6,68.9h109.7c1.1,0,2-0.9,2-2s-0.9-2-2-2H44.6c-1.1,0-2,0.9-2,2S43.5,68.9,44.6,68.9z"/>
	<path d="M101.3,72.3c-3.3,0-6.1,2.7-6.1,6.1s2.7,6.1,6.1,6.1s6.1-2.7,6.1-6.1S104.6,72.3,101.3,72.3z M101.3,80.4
		c-1.1,0-2.1-0.9-2.1-2.1c0-1.1,0.9-2.1,2.1-2.1s2.1,0.9,2.1,2.1C103.4,79.5,102.4,80.4,101.3,80.4z"/>
</g>
<g>
	<path style="opacity:0.15;enable-background:new    ;" d="M108,62.2h-6.5V41.3c0-3.5,2.9-6.5,6.5-6.5l0,0v19.6V62.2z"/>
	<path style="opacity:0.15;enable-background:new    ;" d="M54.1,90.5h-9.5c0,0-6.1,1.7-3.9-9.3s2.2-11,2.2-11l62.5-0.1L54.1,90.5z"
		/>
	<path style="opacity:0.15;enable-background:new    ;" d="M122.2,113l-22.8,14.7c0,0-17.5,8.4-18,1.4c-0.5-7-1.1-16.1-1.1-16.1
		H122.2z"/>
</g>
</svg>
