<svg width="12" height="20" viewBox="0 0 12 20" fill="none" xmlns="http://www.w3.org/2000/svg">
<path d="M5.01629 14.0872C3.46706 13.9255 2.07019 13.5437 0.874252 12.6076C0.725858 12.4911 0.572651 12.3788 0.437234 12.2488C-0.0862248 11.7456 -0.138968 11.1694 0.275236 10.5756C0.62958 10.0674 1.22441 9.93148 1.84268 10.2233C1.9624 10.2798 2.07647 10.3504 2.18572 10.4262C4.41456 11.9589 7.4764 12.0012 9.71361 10.4951C9.93526 10.3251 10.1722 10.1864 10.4468 10.1156C10.9807 9.97839 11.4786 10.1747 11.7652 10.6422C12.0925 11.1761 12.0883 11.6972 11.685 12.1118C11.0663 12.7473 10.3223 13.207 9.49552 13.5279C8.71379 13.8312 7.85754 13.9839 7.01009 14.0853C7.13797 14.2246 7.19825 14.2931 7.2782 14.3735C8.42893 15.5306 9.58468 16.6829 10.7316 17.8435C11.1224 18.239 11.204 18.7293 10.9889 19.1893C10.7536 19.692 10.227 20.0227 9.71068 19.9874C9.38354 19.9647 9.12841 19.8018 8.90174 19.5732C8.03335 18.6987 7.14864 17.8404 6.29784 16.9493C6.05024 16.6902 5.93114 16.7392 5.71264 16.9642C4.83902 17.8642 3.95117 18.7505 3.05809 19.6317C2.65707 20.0274 2.17986 20.0986 1.7148 19.8726C1.22043 19.6327 0.905856 19.1277 0.930135 18.6202C0.946879 18.2769 1.11557 18.0146 1.35104 17.7794C2.48984 16.6414 3.6255 15.5005 4.76158 14.3606C4.83672 14.2847 4.90683 14.2043 5.01629 14.0872Z" fill="black"/>
<path d="M5.96003 10.1231C3.19622 10.1137 0.929925 7.82072 0.946042 5.05037C0.961948 2.24944 3.22971 -0.00773021 6.02072 1.98982e-05C8.81739 0.00756055 11.0621 2.2972 11.0481 5.12724C11.0339 7.89194 8.75188 10.1328 5.96003 10.1231ZM8.47183 5.05707C8.46702 3.68153 7.37238 2.58646 6.00063 2.58521C4.61737 2.58374 3.51289 3.69871 3.52357 5.08682C3.53382 6.45712 4.63788 7.54444 6.0134 7.53941C7.38473 7.5346 8.47644 6.4324 8.47183 5.05707Z" fill="black"/>
</svg>
