<svg width="24" height="22" viewBox="0 0 24 22" fill="none" xmlns="http://www.w3.org/2000/svg">
<path d="M23.5013 16.8342L15.0233 1.67412C13.6612 -0.556558 10.3407 -0.559521 8.9767 1.67412L0.499073 16.8342C-0.893397 19.1136 0.792464 22 3.52167 22H20.4781C23.205 22 24.8938 19.1159 23.5013 16.8342ZM12 20C11.2248 20 10.5937 19.3862 10.5937 18.6321C10.5937 17.878 11.2248 17.2641 12 17.2641C12.7752 17.2641 13.4063 17.878 13.4063 18.6321C13.4063 19.3862 12.7752 20 12 20ZM13.4063 13.6321C13.4063 14.3862 12.7752 15 12 15C11.2248 15 10.5937 14.3862 10.5937 13.6321V6.36793C10.5937 5.61383 11.2248 5 12 5C12.7752 5 13.4063 5.61383 13.4063 6.36793V13.6321Z" fill="black"/>
</svg>
