<svg width="16" height="16" viewBox="0 0 16 16" fill="none" xmlns="http://www.w3.org/2000/svg">
<path d="M3.5 8C3.5 8.69397 3.6574 9.35223 3.93863 9.94005L1.74256 12.1361C0.957194 10.9505 0.5 9.52919 0.5 8C0.5 6.47081 0.957195 5.04947 1.74256 3.86388L3.93863 6.05995C3.6574 6.64777 3.5 7.30603 3.5 8ZM12.1361 14.2574C10.9505 15.0428 9.52921 15.5 8 15.5C6.4708 15.5 5.04946 15.0428 3.86388 14.2574L6.05995 12.0614C6.64778 12.3426 7.30603 12.5 8 12.5C8.69397 12.5 9.35222 12.3426 9.94005 12.0614L12.1361 14.2574ZM15.5 8C15.5 9.52919 15.0428 10.9505 14.2574 12.1361L12.0614 9.94005C12.3426 9.35223 12.5 8.69397 12.5 8C12.5 7.30603 12.3426 6.64777 12.0614 6.05995L14.2574 3.86389C15.0428 5.04947 15.5 6.47081 15.5 8ZM3.86388 1.74256C5.04946 0.957196 6.4708 0.5 8 0.5C9.52921 0.5 10.9505 0.957196 12.1361 1.74256L9.94005 3.93863C9.35222 3.6574 8.69397 3.5 8 3.5C7.30603 3.5 6.64778 3.6574 6.05995 3.93863L3.86388 1.74256Z" stroke="black"/>
</svg>
