<svg width="24" height="24" viewBox="0 0 24 24" fill="none" xmlns="http://www.w3.org/2000/svg">
<path d="M0 1C0 0.447715 0.447715 0 1 0H9.5C10.0523 0 10.5 0.447715 10.5 1V9.5C10.5 10.0523 10.0523 10.5 9.5 10.5H1C0.447715 10.5 0 10.0523 0 9.5V1Z" fill="#FB0040"/>
<path d="M13.5 1C13.5 0.447715 13.9477 0 14.5 0H23C23.5523 0 24 0.447715 24 1V9.5C24 10.0523 23.5523 10.5 23 10.5H14.5C13.9477 10.5 13.5 10.0523 13.5 9.5V1Z" fill="#FB0040"/>
<path d="M0 14.5C0 13.9477 0.447715 13.5 1 13.5H9.5C10.0523 13.5 10.5 13.9477 10.5 14.5V23C10.5 23.5523 10.0523 24 9.5 24H1C0.447715 24 0 23.5523 0 23V14.5Z" fill="#FB0040"/>
<path d="M13.5 14.5C13.5 13.9477 13.9477 13.5 14.5 13.5H23C23.5523 13.5 24 13.9477 24 14.5V23C24 23.5523 23.5523 24 23 24H14.5C13.9477 24 13.5 23.5523 13.5 23V14.5Z" fill="#FB0040"/>
</svg>
