<svg width="20" height="20" viewBox="0 0 20 20" fill="none" xmlns="http://www.w3.org/2000/svg">
<path fill-rule="evenodd" clip-rule="evenodd" d="M5.51917 0H14.4806C17.5241 0 20.0001 2.47601 20 5.51929V14.4807C20 17.524 17.5241 20 14.4806 20H5.51917C2.47589 20 0 17.5241 0 14.4807V5.51929C0 2.47601 2.47589 0 5.51917 0ZM14 10C14 12.2092 12.2091 14 10 14C7.79086 14 6 12.2092 6 10C6 7.79083 7.79086 6 10 6C12.2091 6 14 7.79083 14 10ZM15.5 6C16.3284 6 17 5.32843 17 4.5C17 3.67157 16.3284 3 15.5 3C14.6716 3 14 3.67157 14 4.5C14 5.32843 14.6716 6 15.5 6Z" fill="black"/>
</svg>
