<svg width="14" height="10" viewBox="0 0 14 10" fill="none" xmlns="http://www.w3.org/2000/svg">
<path d="M13.6961 1.7179C14.0926 1.33343 14.1024 0.70034 13.7179 0.303854C13.3334 -0.0926312 12.7003 -0.102371 12.3039 0.2821L13.6961 1.7179ZM4.75 9L4.05385 9.7179C4.44174 10.094 5.05826 10.094 5.44615 9.7179L4.75 9ZM1.69615 4.64574C1.29966 4.26127 0.66657 4.27101 0.2821 4.66749C-0.102371 5.06398 -0.0926312 5.69707 0.303854 6.08154L1.69615 4.64574ZM12.3039 0.2821L4.05385 8.2821L5.44615 9.7179L13.6961 1.7179L12.3039 0.2821ZM5.44615 8.2821L1.69615 4.64574L0.303854 6.08154L4.05385 9.7179L5.44615 8.2821Z" fill="black"/>
</svg>
