<svg width="18" height="16" viewBox="0 0 18 16" fill="none" xmlns="http://www.w3.org/2000/svg">
<path d="M10.5 12.2C10.5 12.4761 10.7239 12.7 11 12.7C11.2761 12.7 11.5 12.4761 11.5 12.2H10.5ZM11.5 7.3C11.5 7.02386 11.2761 6.8 11 6.8C10.7239 6.8 10.5 7.02386 10.5 7.3H11.5ZM7.16667 12.2C7.16667 12.4761 7.39052 12.7 7.66667 12.7C7.94281 12.7 8.16667 12.4761 8.16667 12.2H7.16667ZM8.16667 4.5C8.16667 4.22386 7.94281 4 7.66667 4C7.39052 4 7.16667 4.22386 7.16667 4.5H8.16667ZM3.83333 12.2C3.83333 12.4761 4.05719 12.7 4.33333 12.7C4.60948 12.7 4.83333 12.4761 4.83333 12.2H3.83333ZM4.83333 4.5C4.83333 4.22386 4.60948 4 4.33333 4C4.05719 4 3.83333 4.22386 3.83333 4.5H4.83333ZM13.8333 12.2C13.8333 12.4761 14.0572 12.7 14.3333 12.7C14.6095 12.7 14.8333 12.4761 14.8333 12.2H13.8333ZM14.8333 4.5C14.8333 4.22386 14.6095 4 14.3333 4C14.0572 4 13.8333 4.22386 13.8333 4.5H14.8333ZM1 15H0.5C0.5 15.2761 0.723858 15.5 1 15.5V15ZM1.5 1C1.5 0.723858 1.27614 0.5 1 0.5C0.723858 0.5 0.5 0.723858 0.5 1H1.5ZM17 15.5C17.2761 15.5 17.5 15.2761 17.5 15C17.5 14.7239 17.2761 14.5 17 14.5V15.5ZM11.5 12.2V7.3H10.5V12.2H11.5ZM8.16667 12.2V4.5H7.16667V12.2H8.16667ZM4.83333 12.2V4.5H3.83333V12.2H4.83333ZM14.8333 12.2V4.5H13.8333V12.2H14.8333ZM1.5 15V1H0.5V15H1.5ZM1 15.5H17V14.5H1V15.5Z" fill="black"/>
</svg>
