<svg width="80" height="70" viewBox="0 0 80 70" fill="none" xmlns="http://www.w3.org/2000/svg">
<path fill-rule="evenodd" clip-rule="evenodd" d="M49.9159 1.65296C52.5555 0.561678 55.3847 0 58.2419 0C61.0991 0 63.9283 0.561678 66.5679 1.65296C69.2073 2.74416 71.6055 4.34351 73.6253 6.35968C75.6462 8.37514 77.2494 10.7682 78.3432 13.4021C79.437 16.036 80 18.8591 80 21.7102C80 24.5613 79.437 27.3845 78.3432 30.0184C77.2495 32.6522 75.6464 35.0452 73.6256 37.0606L41.0463 69.5671C40.4678 70.1443 39.5302 70.1443 38.9517 69.5671L6.37247 37.0606C2.29233 32.9895 0 27.4679 0 21.7102C0 15.9526 2.29233 10.431 6.37247 6.35993C10.4526 2.28891 15.9863 0.00196652 21.7561 0.00196652C27.526 0.0019664 33.0597 2.28891 37.1398 6.35993L39.999 9.21279L42.858 6.36017C44.8779 4.34388 47.2764 2.7442 49.9159 1.65296ZM58.2419 2.95775C55.7737 2.95775 53.3298 3.44295 51.0496 4.38562C48.7695 5.32829 46.6979 6.70995 44.9531 8.45162L41.0463 12.3497C40.4678 12.9269 39.5302 12.9269 38.9517 12.3497L35.0451 8.45186C31.5208 4.93538 26.7406 2.95971 21.7561 2.95971C16.7716 2.95971 11.9915 4.93538 8.4671 8.45186C4.94278 11.9683 2.96296 16.7375 2.96296 21.7102C2.96296 26.683 4.94278 31.4522 8.4671 34.9686L39.999 66.4302L71.5309 34.9686C73.2765 33.2278 74.6614 31.1606 75.6061 28.8857C76.5508 26.6109 77.037 24.1726 77.037 21.7102C77.037 19.2479 76.5508 16.8096 75.6061 14.5347C74.6614 12.2599 73.2767 10.193 71.5312 8.45211C69.7864 6.71044 67.7143 5.32829 65.4342 4.38562C63.154 3.44295 60.7101 2.95775 58.2419 2.95775Z" fill="#FB0040"/>
</svg>
