<svg width="25" height="20" viewBox="0 0 25 20" fill="none" xmlns="http://www.w3.org/2000/svg">
<path d="M12.5 11.125L11.935 11.9501C12.2756 12.1833 12.7244 12.1833 13.065 11.9501L12.5 11.125ZM3.3 2H21.7V0H3.3V2ZM21.7 2C22.4335 2 23 2.58539 23 3.25H25C25 1.43961 23.4965 0 21.7 0V2ZM23 3.25V16.75H25V3.25H23ZM23 16.75C23 17.4146 22.4335 18 21.7 18V20C23.4965 20 25 18.5604 25 16.75H23ZM21.7 18H3.3V20H21.7V18ZM3.3 18C2.56645 18 2 17.4146 2 16.75H0C0 18.5604 1.50355 20 3.3 20V18ZM2 16.75V3.25H0V16.75H2ZM2 3.25C2 2.58539 2.56645 2 3.3 2V0C1.50355 0 0 1.43961 0 3.25H2ZM23.435 2.42491L11.935 10.2999L13.065 11.9501L24.565 4.07509L23.435 2.42491ZM13.065 10.2999L1.56501 2.42491L0.434995 4.07509L11.935 11.9501L13.065 10.2999Z" fill="black"/>
</svg>
