<svg width="20" height="14" viewBox="0 0 20 14" fill="none" xmlns="http://www.w3.org/2000/svg">
<path d="M19.6544 2.25207C19.4095 1.18386 18.5396 0.395772 17.4922 0.278211C15.0121 0.000171237 12.5019 -0.00128005 10.0032 0.000171312C7.5041 -0.00128005 4.99344 0.000171237 2.51334 0.278211C1.46663 0.395772 0.597265 1.18386 0.352413 2.25207C0.00392259 3.7733 0 5.43387 0 7.0001C0 8.56633 0 10.2267 0.34849 11.7477C0.592929 12.8157 1.4625 13.6038 2.50983 13.7216C4.98973 13.9998 7.50018 14.0013 9.99928 13.9998C12.4988 14.0013 15.0086 13.9998 17.4883 13.7216C18.535 13.604 19.4052 12.8159 19.6501 11.7477C19.9988 10.2265 20 8.56613 20 7.0001C20 5.43387 20.0029 3.7733 19.6544 2.25207ZM7.41905 10.1176C7.41905 7.8958 7.41905 5.69719 7.41905 3.47515C9.53868 4.58586 11.6443 5.68911 13.7773 6.80666C11.6509 7.91426 9.54426 9.01087 7.41905 10.1176Z" fill="black"/>
</svg>
