<svg width="18" height="15" viewBox="0 0 18 15" fill="none" xmlns="http://www.w3.org/2000/svg">
<path d="M11.3269 12.05C11.3269 12.4642 11.6627 12.8 12.0769 12.8C12.4911 12.8 12.8269 12.4642 12.8269 12.05H11.3269ZM12.8269 8.8C12.8269 8.38579 12.4911 8.05 12.0769 8.05C11.6627 8.05 11.3269 8.38579 11.3269 8.8H12.8269ZM8.25 12.05C8.25 12.4642 8.58579 12.8 9 12.8C9.41421 12.8 9.75 12.4642 9.75 12.05H8.25ZM9.75 8.8C9.75 8.38579 9.41421 8.05 9 8.05C8.58579 8.05 8.25 8.38579 8.25 8.8H9.75ZM5.17308 12.05C5.17308 12.4642 5.50886 12.8 5.92308 12.8C6.33729 12.8 6.67308 12.4642 6.67308 12.05H5.17308ZM6.67308 8.8C6.67308 8.38579 6.33729 8.05 5.92308 8.05C5.50886 8.05 5.17308 8.38579 5.17308 8.8H6.67308ZM3.46154 14L2.72241 14.1272C2.78435 14.4871 3.09642 14.75 3.46154 14.75V14ZM14.5385 14V14.75C14.9036 14.75 15.2157 14.4871 15.2776 14.1272L14.5385 14ZM1 6.85H0.25C0.25 7.26421 0.585786 7.6 1 7.6L1 6.85ZM1 4.25V3.5C0.585786 3.5 0.25 3.83579 0.25 4.25H1ZM17 4.25H17.75C17.75 3.83579 17.4142 3.5 17 3.5V4.25ZM17 6.85V7.6C17.4142 7.6 17.75 7.26421 17.75 6.85H17ZM7.69848 1.51563C7.98325 1.21484 7.97027 0.740141 7.66948 0.455366C7.36868 0.170592 6.89399 0.183577 6.60921 0.48437L7.69848 1.51563ZM11.3908 0.48437C11.106 0.183577 10.6313 0.170592 10.3305 0.455366C10.0297 0.740141 10.0167 1.21484 10.3015 1.51563L11.3908 0.48437ZM12.8269 12.05V8.8H11.3269V12.05H12.8269ZM9.75 12.05V8.8H8.25V12.05H9.75ZM6.67308 12.05V8.8H5.17308V12.05H6.67308ZM4.20067 13.8728L2.9699 6.72277L1.49164 6.97723L2.72241 14.1272L4.20067 13.8728ZM3.46154 14.75H14.5385V13.25H3.46154V14.75ZM15.2776 14.1272L16.5084 6.97723L15.0301 6.72277L13.7993 13.8728L15.2776 14.1272ZM2.23077 6.1H1V7.6H2.23077V6.1ZM1.75 6.85V4.25H0.25V6.85H1.75ZM16.25 4.25V6.85H17.75V4.25H16.25ZM17 6.1H15.7692V7.6H17V6.1ZM15.7692 6.1H2.23077V7.6H15.7692V6.1ZM1 5H4.07692V3.5H1V5ZM4.62156 4.76563L7.69848 1.51563L6.60921 0.48437L3.53229 3.73437L4.62156 4.76563ZM4.07692 5H13.9231V3.5H4.07692V5ZM13.9231 5H17V3.5H13.9231V5ZM14.4677 3.73437L11.3908 0.48437L10.3015 1.51563L13.3784 4.76563L14.4677 3.73437Z" fill="white"/>
</svg>
