<svg width="68" height="56" viewBox="0 0 68 56" fill="none" xmlns="http://www.w3.org/2000/svg">
<path d="M66 48.2222C66 49.7546 65.387 51.2242 64.2959 52.3077C63.2048 53.3913 61.7249 54 60.1818 54H7.81818C6.2751 54 4.79523 53.3913 3.70411 52.3077C2.61299 51.2242 2 49.7546 2 48.2222V16.4444C2 14.9121 2.61299 13.4425 3.70411 12.3589C4.79523 11.2754 6.2751 10.6667 7.81818 10.6667H19.4545L25.2727 2H42.7273L48.5455 10.6667H60.1818C61.7249 10.6667 63.2048 11.2754 64.2959 12.3589C65.387 13.4425 66 14.9121 66 16.4444V48.2222Z" stroke="#CBCBCB" stroke-width="4" stroke-linecap="round" stroke-linejoin="round"/>
<path d="M34 42.4444C40.4266 42.4444 45.6364 37.2708 45.6364 30.8889C45.6364 24.5069 40.4266 19.3333 34 19.3333C27.5734 19.3333 22.3636 24.5069 22.3636 30.8889C22.3636 37.2708 27.5734 42.4444 34 42.4444Z" stroke="#CBCBCB" stroke-width="4" stroke-linecap="round" stroke-linejoin="round"/>
</svg>
