<svg width="24" height="22" viewBox="0 0 24 22" fill="none" xmlns="http://www.w3.org/2000/svg">
<path d="M21.3036 2.76815L20.5818 3.46029L20.5822 3.46063L21.3036 2.76815ZM17.2095 1V2V1ZM13.1153 2.76815L13.8369 3.46046L13.8371 3.46029L13.1153 2.76815ZM11.9997 3.93095L11.2781 4.62326C11.4667 4.81982 11.7273 4.93095 11.9997 4.93095C12.2721 4.93095 12.5327 4.81982 12.7213 4.62326L11.9997 3.93095ZM10.8841 2.76815L10.1625 3.46046L10.8841 2.76815ZM2.69584 11.3027L3.41744 10.6104L2.69584 11.3027ZM11.9997 21L11.2781 21.6923C11.4667 21.8889 11.7273 22 11.9997 22C12.2721 22 12.5327 21.8889 12.7213 21.6923L11.9997 21ZM21.3036 11.3027L20.5822 10.6102L20.582 10.6104L21.3036 11.3027ZM22.0253 2.076C21.3969 1.42069 20.6485 0.898545 19.8218 0.541493L19.0288 2.37758C19.607 2.6273 20.1351 2.99449 20.5818 3.46029L22.0253 2.076ZM19.8218 0.541493C18.9949 0.184394 18.1071 0 17.2095 0V2C17.8326 2 18.4507 2.12791 19.0288 2.37758L19.8218 0.541493ZM17.2095 0C16.3118 0 15.424 0.184394 14.5972 0.541493L15.3901 2.37758C15.9682 2.12791 16.5863 2 17.2095 2V0ZM14.5972 0.541493C13.7704 0.898545 13.022 1.42069 12.3936 2.076L13.8371 3.46029C14.2838 2.99449 14.8119 2.6273 15.3901 2.37758L14.5972 0.541493ZM12.3937 2.07583L11.2781 3.23863L12.7213 4.62326L13.8369 3.46046L12.3937 2.07583ZM12.7213 3.23863L11.6057 2.07583L10.1625 3.46046L11.2781 4.62326L12.7213 3.23863ZM11.6057 2.07583C10.3358 0.752258 8.60446 0.000586629 6.78997 0.000586629V2.00059C8.04667 2.00059 9.26071 2.52054 10.1625 3.46046L11.6057 2.07583ZM6.78997 0.000586629C4.97548 0.000586629 3.24412 0.752258 1.97425 2.07583L3.41744 3.46046C4.31923 2.52054 5.53327 2.00059 6.78997 2.00059V0.000586629ZM1.97425 2.07583C0.70573 3.39799 0 5.18271 0 7.03541H2C2 5.68703 2.5143 4.4018 3.41744 3.46046L1.97425 2.07583ZM0 7.03541C0 8.8881 0.70573 10.6728 1.97425 11.995L3.41744 10.6104C2.5143 9.66902 2 8.38378 2 7.03541H0ZM22.025 11.9952C22.6537 11.3402 23.1503 10.5649 23.4884 9.71437L21.6298 8.97553C21.3858 9.5894 21.0291 10.1445 20.5822 10.6102L22.025 11.9952ZM23.4884 9.71437C23.8265 8.86391 24 7.95371 24 7.03541H22C22 7.70222 21.8739 8.3616 21.6298 8.97553L23.4884 9.71437ZM24 7.03541C24 6.11711 23.8265 5.20691 23.4884 4.35645L21.6298 5.09529C21.8739 5.70922 22 6.36859 22 7.03541H24ZM23.4884 4.35645C23.1503 3.50594 22.6537 2.73057 22.025 2.07566L20.5822 3.46063C21.0291 3.9263 21.3858 4.48142 21.6298 5.09529L23.4884 4.35645ZM1.97425 11.995L11.2781 21.6923L12.7213 20.3077L3.41744 10.6104L1.97425 11.995ZM12.7213 21.6923L22.0252 11.995L20.582 10.6104L11.2781 20.3077L12.7213 21.6923Z" fill="black"/>
</svg>
