<svg width="120" height="120" viewBox="0 0 120 120" fill="none" xmlns="http://www.w3.org/2000/svg">
<path d="M69.9896 0C97.5968 0.0308618 119.969 22.3985 120 50C120 90.8099 73.5703 114.25 40.7595 90.5319L13.6398 117.642C12.1486 119.161 10.1056 120.012 7.97661 120C4.7486 119.984 1.84507 118.034 0.610062 115.052C-0.624945 112.07 0.0495912 108.639 2.32143 106.346L29.4491 79.2239C5.72214 46.414 29.181 0 69.9896 0ZM115.999 50C115.999 24.5949 95.4 4 69.9896 4C44.5792 4 23.9799 24.5949 23.9799 50C23.9799 75.405 44.5792 95.9999 69.9896 95.9999C95.3881 95.9712 115.971 75.3931 115.999 50ZM19.325 94.9999L24.9802 100.652L30.6313 94.9999L24.9802 89.3479L19.325 94.9999ZM5.15202 114.834C6.73008 116.347 9.22113 116.347 10.7992 114.834L22.1496 103.48L16.4964 97.8279L5.14601 109.174C3.59413 110.743 3.59681 113.269 5.15202 114.834ZM27.8067 86.5199L33.4619 92.1719L37.5828 88.0439C35.5554 86.3141 33.6678 84.4269 31.9376 82.3999L27.8067 86.5199Z" fill="#FB0040"/>
<path d="M109.234 58.064C108.165 57.7881 107.074 58.431 106.798 59.5C101.793 78.9299 82.5489 91.1246 62.8419 87.3551C43.1349 83.5855 29.7502 65.1496 32.2688 45.244C34.7873 25.3384 52.342 10.8172 72.3668 12.0748C92.3916 13.3323 107.992 29.9357 108 50C108 51.1046 108.895 52 110 52C111.105 52 112 51.1046 112 50C111.991 27.8423 94.7651 9.50572 72.6511 8.11503C50.5371 6.72435 31.1493 22.7584 28.3649 44.7404C25.5805 66.7225 40.3582 87.0842 62.1205 91.2512C83.8829 95.4182 105.137 81.9558 110.67 60.5C110.946 59.4308 110.303 58.3404 109.234 58.064Z" fill="#FB0040"/>
<path d="M76.6667 57.086C86.4537 54.0081 92.3245 44.0238 90.256 33.9749C88.1874 23.926 78.8506 17.072 68.6437 18.1098C58.4367 19.1476 50.6704 27.7404 50.6667 38C50.6667 41.3137 53.353 44 56.6667 44C59.9804 44 62.6667 41.3137 62.6667 38C62.6632 35.8566 63.5212 33.8018 65.0478 32.2974C66.5744 30.7929 68.6416 29.9651 70.7847 30C75.0788 30.141 78.5267 33.5899 78.6667 37.884C78.7338 41.9675 75.7084 45.4433 71.6547 45.94C67.66 46.4405 64.6637 49.8381 64.6667 53.864V60C64.6667 63.3137 67.353 66 70.6667 66C73.9804 66 76.6667 63.3137 76.6667 60V57.086ZM74.2267 53.6C73.3149 53.8056 72.6671 54.6153 72.6667 55.55V60C72.6667 61.1046 71.7712 62 70.6667 62C69.5621 62 68.6667 61.1046 68.6667 60V53.864C68.6618 51.8589 70.1515 50.1643 72.1407 49.912C78.2231 49.1682 82.7642 43.955 82.6667 37.828C82.4619 31.3931 77.3011 26.2201 70.8667 26C67.6496 25.9464 64.5457 27.1869 62.2518 29.4432C59.9579 31.6995 58.6662 34.7824 58.6667 38C58.6667 39.1046 57.7712 40 56.6667 40C55.5621 40 54.6667 39.1046 54.6667 38C54.6037 29.1634 61.7161 21.949 70.5527 21.886C79.3892 21.823 86.6037 28.9354 86.6667 37.772C86.7532 45.3153 81.5768 51.9015 74.2267 53.6Z" fill="#FB0040"/>
<path d="M70.6667 70C67.353 70 64.6667 72.6863 64.6667 76C64.6667 79.3137 67.353 82 70.6667 82C73.9804 82 76.6667 79.3137 76.6667 76C76.6667 72.6863 73.9804 70 70.6667 70ZM70.6667 78C69.5621 78 68.6667 77.1046 68.6667 76C68.6667 74.8954 69.5621 74 70.6667 74C71.7712 74 72.6667 74.8954 72.6667 76C72.6667 77.1046 71.7712 78 70.6667 78Z" fill="#FB0040"/>
</svg>
