<svg width="20" height="16" viewBox="0 0 20 16" fill="none" xmlns="http://www.w3.org/2000/svg">
<path fill-rule="evenodd" clip-rule="evenodd" d="M19.3527 0C19.5402 0 19.6923 0.151767 19.6923 0.339522V4.07428V7.80902V11.5438L19.7348 15.6604C19.7348 15.7191 19.7199 15.7743 19.6938 15.8224L19.6923 15.825C19.6343 15.9295 19.523 16 19.3952 16H16H3.77717H0.381943C0.194527 16 0.0424206 15.8482 0.0424206 15.6604L0 11.5438V7.80902V4.07428V0.339522C0 0.151767 0.152106 0 0.339522 0H3.73474H15.9575H19.3527ZM14.7692 8L14.7241 4.07428V1.23077H4.92308V3.73474V7.38462V11.0769V14.7692H14.7692V11.6923V8ZM16 14.7692H18.4615V12.3077H16V14.7692ZM1.23077 12.3077V14.7692H3.69231V12.3077H1.23077ZM1.23077 8.61539V11.0769H3.69231V8.61539H1.23077ZM3.69231 1.23077H1.23077V3.69231H3.69231V1.23077ZM18.4615 3.69231V1.23077H16V3.69231H18.4615ZM1.23077 7.38462V4.92308H3.69231V7.38462H1.23077ZM16 7.38462V4.92308H18.4615V7.38462H16ZM18.4615 8.61539V11.0769H16V8.61539H18.4615ZM12.4053 7.5224L8.67062 5.14574C8.56601 5.07953 8.43358 5.07513 8.32462 5.13454C8.21631 5.1943 8.14874 5.30837 8.14874 5.43231V10.1856C8.14874 10.3096 8.21631 10.4236 8.32495 10.4833L8.33596 10.4894C8.37637 10.5117 8.38118 10.5144 8.43308 10.5144C8.49659 10.5144 8.5601 10.4964 8.61548 10.4614L12.4053 8.09552C12.5031 8.03305 12.5626 7.92507 12.5626 7.80896C12.5626 7.69284 12.5031 7.58487 12.4053 7.5224ZM9.13545 6.61113L11.0175 7.80896L9.13545 9.00677V6.61113Z" fill="black"/>
</svg>
