<svg width="16" height="16" viewBox="0 0 16 16" fill="none" xmlns="http://www.w3.org/2000/svg">
<path d="M15.4995 10.9666L15.4997 10.9666C15.5064 10.6958 15.4132 10.4318 15.2374 10.2248C15.0622 10.0183 14.8169 9.88297 14.5481 9.84462C14.5474 9.84453 14.5468 9.84443 14.5461 9.84434L14.6158 9.34922M15.4995 10.9666L12.3552 8.78721C13.0851 9.05902 13.8435 9.24756 14.6158 9.34922M15.4995 10.9666V10.9791L15.4995 14.3877L15.4995 14.3898C15.5001 14.5436 15.4686 14.6959 15.4068 14.8369C15.345 14.9779 15.2544 15.1046 15.1406 15.2087C15.0269 15.3129 14.8925 15.3922 14.7461 15.4416C14.6011 15.4906 14.4474 15.5091 14.2948 15.4959L15.4995 10.9666ZM14.6158 9.34922C15.0066 9.40425 15.3635 9.60069 15.6186 9.9012C15.8737 10.2017 16.0093 10.5853 15.9995 10.9791V14.3877M14.6158 9.34922L15.9995 14.3877M15.9995 14.3877C16.0004 14.6113 15.9545 14.8327 15.8648 15.0375M15.9995 14.3877L15.8648 15.0375M15.8648 15.0375C15.775 15.2424 15.6434 15.4263 15.4783 15.5775M15.8648 15.0375L15.4783 15.5775M15.4783 15.5775C15.3132 15.7286 15.1183 15.8437 14.906 15.9154M15.4783 15.5775L14.906 15.9154M14.906 15.9154C14.6938 15.987 14.4689 16.0136 14.2457 15.9935L14.906 15.9154Z" stroke="black" stroke-linecap="round" stroke-linejoin="round"/>
</svg>
