<svg width="150" height="36" viewBox="0 0 150 36" fill="none" xmlns="http://www.w3.org/2000/svg">
<path d="M56.5532 17.7486C56.5532 20.5175 55.8322 22.6697 54.3904 24.2054C52.9566 25.741 50.9227 26.5089 48.2887 26.5089C45.6224 26.5089 43.5724 25.7488 42.1386 24.2286C40.7129 22.7007 40 20.533 40 17.7253C40 14.9177 40.7169 12.7616 42.1507 11.257C43.5926 9.75232 45.6466 9 48.3128 9C50.9388 9 52.9687 9.76395 54.4025 11.2919C55.8363 12.8198 56.5532 14.972 56.5532 17.7486ZM43.069 17.7486C43.069 19.8427 43.508 21.4326 44.386 22.5185C45.264 23.5965 46.5649 24.1356 48.2887 24.1356C50.0044 24.1356 51.2972 23.6004 52.1672 22.5301C53.0452 21.4598 53.4842 19.866 53.4842 17.7486C53.4842 15.6623 53.0492 14.0801 52.1793 13.002C51.3174 11.924 50.0286 11.3849 48.3128 11.3849C46.581 11.3849 45.272 11.924 44.386 13.002C43.508 14.0801 43.069 15.6623 43.069 17.7486Z" fill="#BDBDBD"/>
<path d="M66.8234 26.5089C65.1318 26.5089 63.8188 25.9233 62.8844 24.7521H62.7153C62.8281 25.838 62.8844 26.4972 62.8844 26.7299V32H60.045V13.4092H62.3407C62.4052 13.6496 62.5381 14.2236 62.7395 15.131H62.8844C63.7705 13.828 65.0996 13.1765 66.8717 13.1765C68.5391 13.1765 69.836 13.7582 70.7623 14.9216C71.6967 16.085 72.1639 17.7176 72.1639 19.8194C72.1639 21.9213 71.6886 23.5616 70.7381 24.7405C69.7957 25.9194 68.4908 26.5089 66.8234 26.5089ZM66.1347 15.4102C65.007 15.4102 64.1813 15.7282 63.6577 16.3642C63.1422 17.0002 62.8844 18.0162 62.8844 19.4122V19.8194C62.8844 21.3861 63.1422 22.5223 63.6577 23.2281C64.1733 23.9262 65.015 24.2752 66.183 24.2752C67.1657 24.2752 67.9229 23.8874 68.4545 23.1118C68.9862 22.3362 69.252 21.231 69.252 19.7962C69.252 18.3536 68.9862 17.2639 68.4545 16.5271C67.9309 15.7825 67.1577 15.4102 66.1347 15.4102Z" fill="#BDBDBD"/>
<path d="M78.181 13.4092V20.0056C78.181 20.7734 78.1166 21.9019 77.9877 23.391L84.6935 13.4092H88.1613V26.2762H85.4306V19.7962C85.4306 19.4394 85.4507 18.8616 85.491 18.0627C85.5393 17.2639 85.5796 16.6822 85.6118 16.3177L78.9301 26.2762H75.4624V13.4092H78.181Z" fill="#BDBDBD"/>
<path d="M100.848 13.4092V15.5498H95.0483V26.2762H92.2089V13.4092H100.848Z" fill="#BDBDBD"/>
<path d="M111.783 26.2762L111.215 24.4846H111.118C110.474 25.2679 109.825 25.8031 109.173 26.09C108.52 26.3692 107.683 26.5089 106.66 26.5089C105.347 26.5089 104.32 26.1676 103.579 25.4851C102.846 24.8026 102.479 23.837 102.479 22.5883C102.479 21.262 102.991 20.2615 104.014 19.5867C105.037 18.912 106.595 18.5436 108.69 18.4815L110.997 18.4117V17.7253C110.997 16.9032 110.796 16.2905 110.393 15.8872C109.999 15.4761 109.382 15.2706 108.545 15.2706C107.86 15.2706 107.203 15.3676 106.575 15.5615C105.947 15.7554 105.343 15.9842 104.763 16.2478L103.844 14.2934C104.569 13.9288 105.363 13.6535 106.225 13.4674C107.087 13.2735 107.9 13.1765 108.665 13.1765C110.365 13.1765 111.646 13.5333 112.508 14.2468C113.378 14.9604 113.813 16.0811 113.813 17.609V26.2762H111.783ZM107.554 24.4148C108.585 24.4148 109.411 24.1394 110.031 23.5888C110.659 23.0303 110.973 22.2509 110.973 21.2504V20.1335L109.257 20.2033C107.92 20.2499 106.946 20.467 106.333 20.8548C105.729 21.2349 105.427 21.8204 105.427 22.6115C105.427 23.1855 105.604 23.6314 105.959 23.9494C106.313 24.2597 106.845 24.4148 107.554 24.4148Z" fill="#BDBDBD"/>
<path d="M125.448 23.6586L125.605 23.1002C125.935 21.9445 126.221 21.0565 126.463 20.436L129.46 13.4092H133.241V26.2762H130.62V15.8872L130.402 16.5852C130.04 17.8339 129.733 18.753 129.484 19.3424L126.56 26.2762H124.409L121.485 19.2959C121.082 18.2876 120.712 17.1514 120.373 15.8872V26.2762H117.776V13.4092H121.533L124.433 20.2266C124.691 20.8548 125.029 21.9988 125.448 23.6586Z" fill="#BDBDBD"/>
<path d="M140.02 13.4092V20.0056C140.02 20.7734 139.955 21.9019 139.826 23.391L146.532 13.4092H150V26.2762H147.269V19.7962C147.269 19.4394 147.289 18.8616 147.33 18.0627C147.378 17.2639 147.418 16.6822 147.451 16.3177L140.769 26.2762H137.301V13.4092H140.02Z" fill="#BDBDBD"/>
<path d="M14.1521 22.9777L6.49298 31.9891L18.5752 26.1994L14.1521 22.9777Z" fill="#D20041"/>
<path d="M8.49115 0L17.3289 15.8924L14.4204 24.1506L8.49115 0Z" fill="url(#paint0_linear)"/>
<path d="M17.3289 15.8924L20.1666 7.83599L8.49121 0L17.3289 15.8924Z" fill="url(#paint1_linear)"/>
<path d="M20.1665 7.83609L14.4203 24.1507L18.5751 26.1997L20.1665 7.83609Z" fill="url(#paint2_linear)"/>
<path d="M20.1668 7.83609L18.5754 26.1997L24.3327 23.4406L20.1668 7.83609Z" fill="#FD647F"/>
<path d="M22.0501 14.8871L22.9459 18.2432L28.1998 14.7196L22.0501 14.8871Z" fill="url(#paint3_linear)"/>
<path d="M22.946 18.2432L24.4981 24.0507L28.2 14.7196L22.946 18.2432Z" fill="url(#paint4_linear)"/>
<path d="M28.1997 14.7196L29.9998 17.4047L27.6865 16.0128L28.1997 14.7196Z" fill="url(#paint5_linear)"/>
<path d="M27.6867 16.0128L27.3934 16.7534L30 17.4046L27.6867 16.0128Z" fill="url(#paint6_linear)"/>
<path d="M0 3.44931L11.9674 14.1066L10.0767 6.45862L0 3.44931Z" fill="#8C0F41"/>
<path d="M0 3.44931L13.8863 23.2901L14.1521 22.9777L11.9674 14.1067L0 3.44931Z" fill="#AA0041"/>
<path d="M24.3325 23.4403L24.4979 24.0505L6.49298 31.9891L24.3325 23.4403Z" fill="#780F32"/>
<path d="M6.49298 31.9893L12.1669 36L10.7409 30.1164L6.49298 31.9893Z" fill="#D20041"/>
<defs>
<linearGradient id="paint0_linear" x1="5.11932" y1="9.87506" x2="17.8943" y2="14.2368" gradientUnits="userSpaceOnUse">
<stop stop-color="#960F41"/>
<stop offset="1" stop-color="#D20041"/>
</linearGradient>
<linearGradient id="paint1_linear" x1="19" y1="11.5" x2="8.5" y2="-6.8908e-07" gradientUnits="userSpaceOnUse">
<stop stop-color="#FA3C64"/>
<stop offset="1" stop-color="#FF96A0"/>
</linearGradient>
<linearGradient id="paint2_linear" x1="23.5121" y1="9.7845" x2="14.9632" y2="24.4667" gradientUnits="userSpaceOnUse">
<stop stop-color="#D40040"/>
<stop offset="1" stop-color="#AD0040"/>
</linearGradient>
<linearGradient id="paint3_linear" x1="22.4668" y1="16.5734" x2="28.3014" y2="15.1306" gradientUnits="userSpaceOnUse">
<stop stop-color="#AA0041"/>
<stop offset="1" stop-color="#D20041"/>
</linearGradient>
<linearGradient id="paint4_linear" x1="22.9585" y1="18.2081" x2="26.5862" y2="19.4467" gradientUnits="userSpaceOnUse">
<stop stop-color="#FF96A0"/>
<stop offset="1" stop-color="#FA3C64"/>
</linearGradient>
<linearGradient id="paint5_linear" x1="27.6865" y1="16.0625" x2="29.9998" y2="16.0625" gradientUnits="userSpaceOnUse">
<stop stop-color="#FF96A0"/>
<stop offset="0.21" stop-color="#FF929D"/>
<stop offset="0.42" stop-color="#FE8595"/>
<stop offset="0.64" stop-color="#FD7187"/>
<stop offset="0.85" stop-color="#FB5474"/>
<stop offset="1" stop-color="#FA3C64"/>
</linearGradient>
<linearGradient id="paint6_linear" x1="1115.45" y1="367.393" x2="1218.99" y2="367.393" gradientUnits="userSpaceOnUse">
<stop stop-color="#960F41"/>
<stop offset="1" stop-color="#D20041"/>
</linearGradient>
</defs>
</svg>
