<?xml version="1.0" encoding="iso-8859-1"?>
<!-- Generator: Adobe Illustrator 18.1.1, SVG Export Plug-In . SVG Version: 6.00 Build 0)  -->
<svg xmlns="http://www.w3.org/2000/svg" xmlns:xlink="http://www.w3.org/1999/xlink" version="1.1" id="Capa_1" x="0px" y="0px" viewBox="0 0 179.006 179.006" style="enable-background:new 0 0 179.006 179.006;" xml:space="preserve" width="512px" height="512px">
<g>
	<g>
		<path d="M0,35.124v108.758h179.006V35.124H0z M89.503,129.711c-22.209,0-40.199-18.008-40.199-40.211    S67.3,49.295,89.503,49.295s40.193,18.002,40.193,40.205S111.718,129.711,89.503,129.711z" fill="#fb0040"/>
		<path d="M102.218,88.82c-1.933-1.331-5.603-2.751-11.021-4.266V67.524c3.216,0.119,5.561,1.349,7.035,3.711    c0.794,1.283,1.271,2.81,1.426,4.583h6.122c-0.125-3.956-1.414-7.136-3.896-9.541c-2.482-2.411-6.056-3.771-10.687-4.105v-4.583    h-3.324v4.648c-4.684,0.048-8.33,1.492-10.931,4.344c-2.602,2.846-3.896,6.038-3.896,9.577c0,3.968,1.205,7.071,3.616,9.302    c2.411,2.238,6.152,3.837,11.212,4.791v19.064c-3.944-0.328-6.641-1.808-8.097-4.439c-0.829-1.468-1.337-3.801-1.516-6.993h-6.188    c0,4.01,0.656,7.184,1.987,9.547c2.429,4.35,7.035,6.76,13.813,7.202v6.79h3.324v-6.79c4.219-0.465,7.447-1.414,9.684-2.858    c4.04-2.613,6.05-7.023,6.05-13.223C106.932,94.25,105.363,91.01,102.218,88.82z M87.88,83.897    c-2.613-0.513-4.684-1.426-6.223-2.727c-1.539-1.307-2.309-3.115-2.309-5.424c0-1.909,0.65-3.741,1.951-5.49    c1.313-1.748,3.503-2.679,6.581-2.798C87.88,67.458,87.88,83.897,87.88,83.897z M99.45,105.121    c-1.516,2.727-4.266,4.183-8.252,4.368V91.093c2.906,0.794,4.988,1.623,6.223,2.518c2.136,1.522,3.222,3.729,3.222,6.647    C100.643,102.096,100.243,103.725,99.45,105.121z" fill="#fb0040"/>
	</g>
</g>
<g>
</g>
<g>
</g>
<g>
</g>
<g>
</g>
<g>
</g>
<g>
</g>
<g>
</g>
<g>
</g>
<g>
</g>
<g>
</g>
<g>
</g>
<g>
</g>
<g>
</g>
<g>
</g>
<g>
</g>
</svg>
