<?xml version="1.0" encoding="iso-8859-1"?>
<!-- Generator: Adobe Illustrator 19.0.0, SVG Export Plug-In . SVG Version: 6.00 Build 0)  -->
<svg version="1.1" id="Capa_1" xmlns="http://www.w3.org/2000/svg" xmlns:xlink="http://www.w3.org/1999/xlink" x="0px" y="0px"
	 viewBox="0 0 349.246 349.246" style="enable-background:new 0 0 349.246 349.246;" xml:space="preserve">
<g>
	<g>
		<path d="M174.783,302.806c-65.871-0.088-120.969-50.052-127.48-115.6l13.72,16.92c1.447,1.789,4.071,2.067,5.86,0.62
			c1.789-1.447,2.067-4.071,0.62-5.86l-21.72-26.84l-0.32-0.32h-0.36l-0.48-0.32h-0.4h-0.6l-0.84-0.6h-0.44h-0.56h-0.6h-0.4
			l-0.48,0.32h-0.36l-0.32,0.32l-21.72,26.84c-1.447,1.789-1.169,4.413,0.62,5.86c1.789,1.447,4.413,1.169,5.86-0.62l14.4-17.56
			c5.884,70.759,64.997,125.212,136,125.28c2.331,0,4.22-1.889,4.22-4.22S177.113,302.806,174.783,302.806z"/>
	</g>
</g>
<g>
	<g>
		<path d="M118.783,68.766h-7.52c14.959-17.496,12.901-43.806-4.595-58.765C89.171-4.958,62.861-2.901,47.903,14.596
			c-13.333,15.595-13.333,38.575,0,54.17h-7.56C23.187,68.788,9.285,82.69,9.263,99.846v47.36c0,2.209,1.791,4,4,4h132.44
			c2.207,0.088,4.068-1.629,4.157-3.837c0.002-0.054,0.003-0.109,0.003-0.163v-47.36C149.841,82.69,135.939,68.788,118.783,68.766z
			 M141.543,143.206h-124v-43.36c0-12.57,10.19-22.76,22.76-22.76h18.48c2.15,0.509,4.305-0.821,4.814-2.971
			c0.465-1.963-0.604-3.964-2.494-4.669c-15.346-10.195-19.522-30.901-9.327-46.247C61.971,7.852,82.676,3.677,98.023,13.872
			c15.346,10.195,19.522,30.901,9.327,46.247c-2.457,3.699-5.628,6.87-9.327,9.327c-2.07,0.772-3.122,3.076-2.349,5.146
			c0.705,1.89,2.707,2.959,4.669,2.494h18.44c12.57,0,22.76,10.19,22.76,22.76V143.206z"/>
	</g>
</g>
<g>
	<g>
		<path d="M309.223,266.806h-7.56c14.959-17.496,12.901-43.806-4.595-58.765s-43.806-12.901-58.765,4.595
			c-13.333,15.595-13.333,38.575,0,54.17h-7.52c-17.156,0.022-31.058,13.924-31.08,31.08v47.36c0,2.209,1.791,4,4,4h132.28
			c2.209,0,4-1.791,4-4v-47.2C340.05,280.952,326.316,267.003,309.223,266.806z M331.983,341.086h-124v-43.04
			c0-12.57,10.19-22.76,22.76-22.76c0.013,0,0.027,0,0.04,0h18.44c2.15,0.509,4.305-0.821,4.814-2.97
			c0.465-1.963-0.604-3.965-2.494-4.67c-15.346-10.195-19.522-30.901-9.327-46.247c10.195-15.346,30.901-19.522,46.247-9.327
			c15.346,10.195,19.522,30.901,9.327,46.247c-2.457,3.699-5.628,6.87-9.327,9.327c-2.07,0.772-3.122,3.076-2.35,5.146
			c0.705,1.89,2.707,2.959,4.67,2.494h18.44c12.57,0,22.76,10.19,22.76,22.76V341.086z"/>
	</g>
</g>
<g>
	<g>
		<path d="M330.323,144.746c-1.789-1.447-4.413-1.169-5.86,0.62l-13.68,18.32c-6.117-75.083-71.942-130.991-147.025-124.875
			c-4.174,0.34-8.33,0.872-12.455,1.595c-2.264,0.398-3.778,2.556-3.38,4.82c0.398,2.264,2.556,3.778,4.82,3.38
			c69.629-12.217,135.978,34.324,148.195,103.953c0.566,3.224,1.008,6.469,1.325,9.727l-13.72-16.92
			c-1.447-1.789-4.071-2.067-5.86-0.62c-1.789,1.447-2.067,4.071-0.62,5.86l21.72,26.84l0.32,0.32c0.191,0.123,0.391,0.231,0.6,0.32
			l0.32,0.24c0.468,0.2,0.971,0.309,1.48,0.32c0.509-0.011,1.012-0.12,1.48-0.32l0.32-0.24c0.209-0.089,0.409-0.197,0.6-0.32
			l0.32-0.32l21.72-26.84C332.39,148.816,332.112,146.193,330.323,144.746z"/>
	</g>
</g>
<g>
</g>
<g>
</g>
<g>
</g>
<g>
</g>
<g>
</g>
<g>
</g>
<g>
</g>
<g>
</g>
<g>
</g>
<g>
</g>
<g>
</g>
<g>
</g>
<g>
</g>
<g>
</g>
<g>
</g>
</svg>
