<svg width="600" height="540" viewBox="0 0 600 540" fill="none" xmlns="http://www.w3.org/2000/svg">
    <rect width="600" height="540" fill="white"/>
    <path d="M300.5 223.108C268.187 223.108 241.9 249.395 241.9 281.708C241.9 314.021 268.187 340.308 300.5 340.308C332.813 340.308 359.1 314.021 359.1 281.708C359.1 249.395 332.813 223.108 300.5 223.108Z" fill="#EDEDED"/>
    <path d="M423.565 198.692H381.939L362.406 149.858H238.594L219.061 198.692H212.6V174.275H183.3V198.692H177.435C164.509 198.692 154 209.201 154 222.127V365.541C154 378.555 164.587 389.142 177.601 389.142H423.399C436.413 389.142 447 378.555 447 365.541V222.127C447 209.201 436.491 198.692 423.565 198.692ZM202.833 198.692H193.067V184.042H202.833V198.692ZM300.5 369.608C252.033 369.608 212.6 330.175 212.6 281.708C212.6 233.241 252.033 193.808 300.5 193.808C348.967 193.808 388.4 233.241 388.4 281.708C388.4 330.175 348.967 369.608 300.5 369.608ZM407.933 257.292C397.161 257.292 388.4 248.531 388.4 237.758C388.4 226.986 397.161 218.225 407.933 218.225C418.706 218.225 427.467 226.986 427.467 237.758C427.467 248.531 418.706 257.292 407.933 257.292Z" fill="#EDEDED"/>
</svg>
