<svg width="13" height="13" viewBox="0 0 13 13" fill="none" xmlns="http://www.w3.org/2000/svg">
<path d="M5.11198 9.10677L6.97396 7.21094H0V5.78906H6.97396L5.11198 3.89323L6.1276 2.8776L9.75 6.5L6.1276 10.1224L5.11198 9.10677ZM11.5443 0C11.9505 0 12.2947 0.141059 12.5768 0.423177C12.8589 0.705295 13 1.04948 13 1.45573V11.5443C13 11.9505 12.8589 12.2947 12.5768 12.5768C12.2947 12.8589 11.9505 13 11.5443 13H1.45573C1.04948 13 0.705295 12.8589 0.423177 12.5768C0.141059 12.2947 0 11.9505 0 11.5443V8.66667H1.45573V11.5443H11.5443V1.45573H1.45573V4.33333H0V1.45573C0 1.04948 0.141059 0.705295 0.423177 0.423177C0.705295 0.141059 1.04948 0 1.45573 0H11.5443Z" />
</svg>
