<svg version="1.1" xmlns="http://www.w3.org/2000/svg" xmlns:xlink="http://www.w3.org/1999/xlink" x="0px" y="0px"
	 viewBox="0 0 200 200" style="enable-background:new 0 0 200 200;" xml:space="preserve">
<g>
	<path style="opacity:0.15;enable-background:new    ;" d="M161.1,40.9l-4.8,4.3c7.2,18,8.8,35,7.4,49.9
		c3.1,0.4,5.6,3.1,5.6,6.5c0,3.6-2.9,6.6-6.6,6.6c-0.3,0-0.7,0-1.1-0.1c-5.3,25.8-18,42.6-18,42.6l17.4,10.2
		C202.4,105.5,161.1,40.9,161.1,40.9z"/>
	<path style="opacity:0.15;enable-background:new    ;" d="M140.7,148.9l6.6-39.1V87.7v-0.2
		c-10.4,24.7-34.8,41.9-63.2,41.9c-22.3,0-42.2-10.6-54.7-27.2c-0.1,1.1-0.1,2.1-0.1,3.1c0,37.9,30.7,68.6,68.6,68.6
		c19.5,0,37.1-8.2,49.6-21.2L140.7,148.9z"/>
</g>
<g>
	<path d="M96.3,124.5c12.7,0,23-10.3,23-23c0-12.7-10.3-23-23-23s-23,10.3-23,23
		C73.3,114.2,83.6,124.5,96.3,124.5z M96.3,82.5c10.5,0,19,8.5,19,19c0,10.5-8.5,19-19,19c-10.5,0-19-8.5-19-19
		C77.3,91,85.8,82.5,96.3,82.5z"/>
	<path d="M130.8,110.1c4.7,0,8.5-3.8,8.5-8.5c0-4.7-3.8-8.5-8.5-8.5c-4.7,0-8.5,3.8-8.5,8.5
		C122.2,106.2,126.1,110.1,130.8,110.1z M130.8,97c2.5,0,4.6,2,4.6,4.6s-2,4.6-4.6,4.6c-2.5,0-4.6-2-4.6-4.6S128.3,97,130.8,97z"/>
	<path d="M108.1,75.9c4.7,0,8.5-3.8,8.5-8.5c0-4.7-3.8-8.5-8.5-8.5s-8.5,3.8-8.5,8.5
		C99.6,72,103.4,75.9,108.1,75.9z M108.1,62.8c2.5,0,4.6,2,4.6,4.6s-2,4.6-4.6,4.6s-4.6-2-4.6-4.6S105.6,62.8,108.1,62.8z"/>
	<path d="M68.8,89c4.7,0,8.5-3.8,8.5-8.5c0-4.7-3.8-8.5-8.5-8.5c-4.7,0-8.5,3.8-8.5,8.5
		C60.3,85.1,64.1,89,68.8,89z M68.8,75.9c2.5,0,4.6,2,4.6,4.6c0,2.5-2,4.6-4.6,4.6c-2.5,0-4.6-2-4.6-4.6
		C64.3,77.9,66.3,75.9,68.8,75.9z"/>
	<path d="M68.8,127.2c4.7,0,8.5-3.8,8.5-8.5c0-4.7-3.8-8.5-8.5-8.5c-4.7,0-8.5,3.8-8.5,8.5
		C60.3,123.3,64.1,127.2,68.8,127.2z M68.8,114.1c2.5,0,4.6,2,4.6,4.6c0,2.5-2,4.6-4.6,4.6c-2.5,0-4.6-2-4.6-4.6
		C64.3,116.1,66.3,114.1,68.8,114.1z"/>
	<path d="M108.1,123.2c-4.7,0-8.5,3.8-8.5,8.5c0,4.7,3.8,8.5,8.5,8.5s8.5-3.8,8.5-8.5
		C116.7,127,112.8,123.2,108.1,123.2z M108.1,136.3c-2.5,0-4.6-2-4.6-4.6c0-2.5,2-4.6,4.6-4.6s4.6,2,4.6,4.6
		C112.7,134.2,110.7,136.3,108.1,136.3z"/>
	<path d="M181,101.1c-2.6-40.1-17.6-60.6-18.3-61.5l-1-1.3l-14.1,7.1C133.3,31.6,114.6,24,94.8,24
		c-41.9,0-76,34.1-76,76c0,41.9,34.1,76,76,76c19.7,0,38.3-7.5,52.4-21l14.2,8.3l1.1-1C163.4,161.4,183.6,141.6,181,101.1z
		 M94.8,172c-39.7,0-72-32.3-72-72s32.3-72,72-72c18.3,0,35.6,6.8,49,19.3l-4,2l-1.3,0.6l0,0l0,0l6.8,37.9v5.8
		c-3.1-25.1-24.6-44.6-50.5-44.6c-9.5,0-18.8,2.7-27,7.8c-0.9,0.6-1.2,1.8-0.6,2.7c0.6,0.9,1.8,1.2,2.7,0.6
		c7.5-4.7,16.1-7.2,24.9-7.2c25.9,0,46.9,21.1,46.9,46.9s-21,46.9-46.9,46.9s-46.9-21-46.9-46.9c0-3.9,0.5-8,1.6-12
		c0.3-1.1-0.4-2.1-1.4-2.4c-1.1-0.3-2.1,0.4-2.4,1.4c-1.1,4.4-1.7,8.7-1.7,13c0,28.1,22.8,50.9,50.9,50.9
		c25.9,0,47.4-19.5,50.5-44.6v3.3l-6.8,40.3l1.1,0.6l4,2.3C130.4,165.3,113.1,172,94.8,172z M160.8,158.3l-10.6-6.2l0,0l-7.3-4.2
		l6.3-37.8l0-22.6l-6.3-35.3l7.7-3.8l0,0l9.9-4.9c3.3,5.1,14.4,24.7,16.5,58C179.1,134.8,164.7,153.7,160.8,158.3z"/>
	<path d="M49.8,79.2c0.2,0,0.4,0.1,0.5,0.1c0.9,0,1.7-0.6,1.9-1.5c0-0.1,1.7-6,5.9-9.7c0.8-0.7,0.9-2,0.2-2.8
		c-0.7-0.8-2-0.9-2.8-0.2c-5.2,4.5-7.1,11.4-7.2,11.7C48.1,77.8,48.7,78.9,49.8,79.2z"/>
</g>
</svg>
