<svg width="18" height="18" viewBox="0 0 18 18" fill="none" xmlns="http://www.w3.org/2000/svg">
<path d="M8.35243 10.1817L3.7391 7.06871C3.58938 6.96767 3.39462 6.97837 3.25585 7.09524L0.154251 9.70696C-0.0654204 9.89192 -0.0475907 10.2477 0.189387 10.4076L4.80272 13.5206C4.95244 13.6216 5.1472 13.6109 5.28597 13.494L8.38757 10.8824C8.60724 10.6974 8.58941 10.3416 8.35243 10.1817Z" fill="white"/>
<path d="M9.61241 10.8823L12.714 13.494C12.8528 13.6109 13.0475 13.6216 13.1973 13.5205L17.8106 10.4075C18.0476 10.2476 18.0654 9.89188 17.8457 9.70691L14.7441 7.09524C14.6053 6.97837 14.4106 6.96767 14.2609 7.06871L9.64754 10.1817C9.4106 10.3416 9.39273 10.6974 9.61241 10.8823Z" fill="white"/>
<path d="M8.38757 2.70726L5.28597 0.0955744C5.14716 -0.0212931 4.95244 -0.0319901 4.80272 0.0690423L0.189387 3.18205C-0.0475907 3.34196 -0.0654204 3.6977 0.154251 3.88267L3.25585 6.49435C3.39466 6.61122 3.58938 6.62191 3.7391 6.52088L8.35243 3.40787C8.58941 3.24796 8.60724 2.89222 8.38757 2.70726Z" fill="white"/>
<path d="M17.8106 3.18205L13.1973 0.0690423C13.0475 -0.0319901 12.8528 -0.0212931 12.714 0.0955744L9.6124 2.70726C9.39273 2.89222 9.41056 3.24796 9.64754 3.40787L14.2609 6.52088C14.4106 6.62191 14.6054 6.61122 14.7442 6.49435L17.8458 3.88267C18.0654 3.69766 18.0476 3.34192 17.8106 3.18205Z" fill="white"/>
<path d="M8.77392 11.3409L5.30055 14.2401C5.17466 14.3451 4.99874 14.3544 4.86343 14.2631L4.00732 13.6854C3.75775 13.517 3.42904 13.7045 3.42904 14.0152V14.3275C3.42904 14.4647 3.49755 14.592 3.60967 14.6631L8.78072 17.9431C8.90021 18.019 9.05005 18.019 9.16955 17.9431L14.3406 14.6631C14.4527 14.592 14.5212 14.4647 14.5212 14.3275V14.0487C14.5212 13.738 14.1925 13.5505 13.9429 13.7189L13.137 14.2628C13.0015 14.3542 12.8252 14.3448 12.6993 14.2392L9.24232 11.3414C9.10548 11.2267 8.91096 11.2265 8.77392 11.3409Z" fill="white"/>
</svg>
