<svg width="22" height="22" viewBox="0 0 22 22" fill="none" xmlns="http://www.w3.org/2000/svg">
<path d="M9.76945 2.23492L8.11827 3.70263L4.95352 0.500356C4.12794 -0.166785 2.75196 -0.166785 1.92637 0.500356C1.65117 0.900641 1.37598 1.43435 1.37598 1.96807C1.37598 2.50178 1.65117 3.03549 1.92637 3.43578L5.22872 6.63806L0 11.5749L8.80626 20.1143L18.4381 10.6409L9.76945 2.23492V2.23492ZM2.88956 2.50178C2.88956 2.36835 2.75196 2.1015 2.75196 1.96807C2.75196 1.83464 2.88956 1.56778 2.88956 1.43435C3.16475 1.30093 3.71514 1.30093 3.99034 1.43435L7.29269 4.63663L6.1919 5.57063L2.88956 2.50178V2.50178ZM2.88956 10.6409L8.11827 5.57063L9.76945 7.17177C9.90705 7.3052 10.0446 7.3052 10.3198 7.3052C10.595 7.3052 10.7326 7.3052 10.8702 7.17177C11.0078 6.90491 11.0078 6.50463 10.7326 6.23777L9.08146 4.63663L9.63185 4.10292L16.5117 10.6409H2.88956V10.6409Z" fill="white"/>
<path d="M18.9619 11.7333C18.9619 11.7333 16.7619 18.6267 16.7619 19.8C16.7619 20.9733 17.7886 22 18.9619 22C20.1353 22 21.1619 20.9733 21.1619 19.8C21.1619 18.6267 18.9619 11.7333 18.9619 11.7333Z" fill="white"/>
</svg>
