<svg width="28" height="28" viewBox="0 0 28 28" fill="none" xmlns="http://www.w3.org/2000/svg">
<path d="M25.5374 14C25.5374 13.7218 25.5261 13.4461 25.5049 13.1731C25.472 12.7488 25.682 12.3367 26.0608 12.1427L27.3193 11.4985C27.7211 11.2928 27.939 10.8424 27.8207 10.4068C27.6842 9.9044 27.5195 9.41324 27.329 8.93454C27.1653 8.52299 26.7339 8.29184 26.2955 8.3553L24.8559 8.56371C24.4429 8.62349 24.0399 8.41817 23.8169 8.06551C23.5156 7.58905 23.1789 7.13642 22.8106 6.71068C22.53 6.38631 22.4551 5.92548 22.6491 5.54297L23.2667 4.32539C23.472 3.92051 23.3811 3.42511 23.0259 3.14242C22.6123 2.81328 22.1792 2.50682 21.7291 2.22391C21.3565 1.98969 20.8751 2.05377 20.5574 2.35837L19.5219 3.35125C19.2222 3.63865 18.7775 3.70696 18.3923 3.55188C17.8576 3.33662 17.3026 3.16008 16.731 3.02467C16.3203 2.92737 15.994 2.60542 15.9222 2.1895L15.6872 0.828895C15.611 0.388278 15.2518 0.0480904 14.8054 0.0229262C14.5389 0.00790375 14.2704 0 14 0C13.7299 0 13.4615 0.00790262 13.1951 0.022923C12.7487 0.0480911 12.3895 0.388278 12.3133 0.828894L12.0784 2.18917C12.0065 2.60525 11.68 2.92727 11.2691 3.02455C10.6975 3.15987 10.1423 3.3365 9.60754 3.55167C9.2224 3.70664 8.7779 3.63822 8.47829 3.35086L7.44322 2.35814C7.12549 2.05341 6.64389 1.98935 6.27116 2.22363C5.82108 2.50654 5.38786 2.81298 4.97424 3.14211C4.61915 3.42468 4.52835 3.91987 4.73357 4.32462L5.35119 5.54277C5.54506 5.92515 5.47024 6.38577 5.18973 6.70998C4.82131 7.13579 4.48422 7.58851 4.18272 8.06506C3.95962 8.41768 3.55658 8.623 3.14362 8.56321L1.70433 8.35482C1.26604 8.29136 0.834683 8.52241 0.670921 8.93389C0.480423 9.41254 0.315681 9.90377 0.179208 10.4063C0.0609282 10.8419 0.278872 11.2923 0.680632 11.498L1.93928 12.1423C2.31803 12.3362 2.52803 12.7483 2.49531 13.1725C2.47426 13.4455 2.46309 13.7212 2.46309 13.9995C2.46309 14.2781 2.47426 14.5541 2.49533 14.8274C2.52803 15.2517 2.31796 15.6638 1.93913 15.8577L0.680858 16.5015C0.278985 16.7072 0.0609823 17.1577 0.179329 17.5934C0.315797 18.0957 0.480526 18.5869 0.671002 19.0656C0.834739 19.4771 1.26606 19.7082 1.70437 19.6448L3.14403 19.4366C3.55679 19.3769 3.95962 19.5821 4.18273 19.9344C4.48448 20.411 4.82168 20.8635 5.1901 21.2893C5.47048 21.6133 5.54522 22.0737 5.35153 22.4559L4.73406 23.6745C4.52886 24.0795 4.61993 24.5748 4.97517 24.8574C5.38868 25.1864 5.82154 25.4929 6.27138 25.7757C6.64397 26.0099 7.12537 25.9457 7.443 25.6411L8.47806 24.6484C8.77779 24.3609 9.22249 24.2926 9.60777 24.4476C10.1426 24.6628 10.6978 24.8391 11.2694 24.9744C11.6802 25.0717 12.0065 25.3936 12.0783 25.8095L12.3135 27.1709C12.3895 27.6111 12.7483 27.9512 13.1943 27.9767C13.461 27.992 13.7296 28 14 28C14.2707 28 14.5394 27.992 14.8062 27.9767C15.2522 27.9512 15.611 27.6111 15.687 27.1709L15.9222 25.8095C15.994 25.3936 16.3203 25.0717 16.7311 24.9744C17.3026 24.8391 17.8576 24.6627 18.3923 24.4476C18.7776 24.2926 19.2222 24.3609 19.5219 24.6483L20.5576 25.6414C20.8752 25.9459 21.3564 26.01 21.729 25.7759C22.179 25.4931 22.612 25.1866 23.0256 24.8576C23.381 24.5749 23.472 24.0794 23.2666 23.6744L22.6489 22.4563C22.455 22.0739 22.5298 21.6132 22.8104 21.2891C23.1787 20.8635 23.5156 20.4112 23.8169 19.9346C24.04 19.5817 24.4432 19.376 24.8564 19.4358L26.296 19.6439C26.7341 19.7073 27.1653 19.4763 27.3291 19.065C27.5195 18.5866 27.6842 18.0956 27.8207 17.5934C27.939 17.1577 27.721 16.7072 27.3191 16.5015L26.0609 15.8577C25.682 15.6638 25.472 15.2517 25.5049 14.8274C25.5261 14.5543 25.5374 14.2785 25.5374 14ZM14.001 20.077C10.5735 20.077 7.79508 17.3562 7.79508 14C7.79508 10.6438 10.5735 7.92352 14.001 7.92352C17.4289 7.92352 20.2069 10.6438 20.2069 14.0005C20.2069 17.3572 17.4284 20.077 14.001 20.077Z" fill="black"/>
</svg>