<svg width="20" height="12" viewBox="0 0 20 12" fill="none" xmlns="http://www.w3.org/2000/svg">
<path fill-rule="evenodd" clip-rule="evenodd" d="M17.2129 7.63015C17.8763 8.31689 18.5765 8.96301 19.1715 9.719C19.4344 10.0549 19.6832 10.4016 19.8736 10.7915C20.1433 11.3457 19.899 11.9556 19.4303 11.9887L16.5166 11.9873C15.7652 12.0534 15.1657 11.7327 14.6616 11.1879C14.2582 10.7523 13.8846 10.2886 13.4967 9.83828C13.3377 9.65421 13.1713 9.48101 12.9724 9.3441C12.5747 9.07037 12.2294 9.15418 12.0021 9.59401C11.7706 10.0414 11.7181 10.5367 11.6954 11.0353C11.6642 11.7627 11.4568 11.954 10.7676 11.9873C9.29473 12.0609 7.89691 11.8246 6.59838 11.0369C5.45355 10.3424 4.56579 9.36201 3.79308 8.25209C2.28861 6.09085 1.13649 3.716 0.101007 1.27462C-0.132073 0.724571 0.0383836 0.429308 0.610798 0.418858C1.56132 0.39928 2.51171 0.400674 3.46334 0.417464C3.84966 0.423456 4.10541 0.658384 4.25458 1.04533C4.76884 2.386 5.39809 3.66152 6.18794 4.84382C6.39829 5.15859 6.61277 5.47336 6.9182 5.69492C7.25609 5.94022 7.51335 5.85892 7.67231 5.45985C7.77317 5.20681 7.81733 4.93426 7.84007 4.66324C7.91537 3.73084 7.9253 2.80005 7.79321 1.87093C7.71213 1.29106 7.40407 0.915676 6.85834 0.805946C6.57985 0.75 6.62131 0.640131 6.75615 0.471598C6.99035 0.180934 7.21062 0 7.6497 0H10.9426C11.461 0.108477 11.5761 0.355388 11.6471 0.908431L11.6499 4.78649C11.6442 5.00058 11.7508 5.6359 12.1145 5.77761C12.4056 5.8785 12.5975 5.63159 12.7721 5.43588C13.5605 4.5487 14.1232 3.50023 14.6259 2.41456C14.849 1.93718 15.0408 1.44141 15.2267 0.946053C15.3644 0.578472 15.5806 0.397608 15.9711 0.40562L19.1403 0.408616C19.2343 0.408616 19.3294 0.410079 19.4204 0.426591C19.9544 0.523084 20.1007 0.766652 19.9358 1.31955C19.6759 2.18702 19.1703 2.90992 18.6759 3.63616C18.1473 4.41152 17.5821 5.16034 17.058 5.94029C16.5764 6.65253 16.6147 7.01154 17.2129 7.63015Z" fill="black"/>
</svg>
