<svg width="22" height="22" viewBox="0 0 22 22" fill="none" xmlns="http://www.w3.org/2000/svg">
<path d="M1 10.4737L0.571914 9.56995C0.190198 9.75076 -0.0367531 10.1519 0.00486666 10.5722C0.0464864 10.9925 0.347701 11.3414 0.757464 11.4438L1 10.4737ZM21 1L21.9037 1.42809C22.0847 1.04615 22.0059 0.591726 21.7071 0.292893C21.4083 -0.00593972 20.9538 -0.084653 20.5719 0.0962622L21 1ZM11.5263 21L10.5562 21.2425C10.6586 21.6523 11.0075 21.9535 11.4278 21.9951C11.8481 22.0368 12.2492 21.8098 12.4301 21.4281L11.5263 21ZM9.42105 12.5789L10.3912 12.3364C10.3016 11.9781 10.0219 11.6984 9.66359 11.6088L9.42105 12.5789ZM1.42809 11.3774L21.4281 1.90374L20.5719 0.0962622L0.571914 9.56995L1.42809 11.3774ZM20.0963 0.571914L10.6226 20.5719L12.4301 21.4281L21.9037 1.42809L20.0963 0.571914ZM12.4965 20.7575L10.3912 12.3364L8.45091 12.8215L10.5562 21.2425L12.4965 20.7575ZM9.66359 11.6088L1.24254 9.50354L0.757464 11.4438L9.17852 13.5491L9.66359 11.6088Z" fill="black"/>
</svg>
