<svg width="60" height="60" viewBox="0 0 60 60" fill="none" xmlns="http://www.w3.org/2000/svg">
<path d="M19 45L18.2885 44.7628C18.1858 45.071 18.2931 45.4103 18.5544 45.6033C18.8157 45.7963 19.1716 45.7991 19.4359 45.6103L19 45ZM30 45L29.4143 45.4685C29.5567 45.6464 29.7722 45.75 30 45.75C30.2278 45.75 30.4433 45.6464 30.5857 45.4685L30 45ZM41 45L40.5641 45.6103C40.8284 45.7991 41.1843 45.7963 41.4456 45.6033C41.7069 45.4103 41.8142 45.071 41.7115 44.7628L41 45ZM30.7835 37.9229L31.3935 38.3592L30.7835 37.9229ZM29.2165 37.9229L29.8264 37.4865L29.2165 37.9229ZM58.25 30C58.25 45.602 45.602 58.25 30 58.25V59.75C46.4305 59.75 59.75 46.4305 59.75 30H58.25ZM30 58.25C14.398 58.25 1.75 45.602 1.75 30H0.25C0.25 46.4305 13.5695 59.75 30 59.75V58.25ZM1.75 30C1.75 14.398 14.398 1.75 30 1.75V0.25C13.5695 0.25 0.25 13.5695 0.25 30H1.75ZM30 1.75C45.602 1.75 58.25 14.398 58.25 30H59.75C59.75 13.5695 46.4305 0.25 30 0.25V1.75ZM25.55 32.4C23.3885 34.0212 21.5731 37.1769 20.3229 39.8025C19.6876 41.1366 19.1802 42.3736 18.8316 43.2768C18.6571 43.7288 18.522 44.0982 18.4303 44.3555C18.3844 44.4842 18.3493 44.5849 18.3255 44.654C18.3136 44.6886 18.3046 44.7152 18.2984 44.7335C18.2953 44.7426 18.2929 44.7497 18.2912 44.7546C18.2904 44.7571 18.2898 44.759 18.2893 44.7603C18.2891 44.761 18.2889 44.7616 18.2888 44.762C18.2887 44.7622 18.2886 44.7624 18.2886 44.7625C18.2885 44.7627 18.2885 44.7628 19 45C19.7115 45.2372 19.7115 45.2372 19.7115 45.2373C19.7115 45.2372 19.7115 45.2372 19.7115 45.2372C19.7116 45.237 19.7116 45.2368 19.7118 45.2364C19.7121 45.2356 19.7125 45.2342 19.7131 45.2323C19.7144 45.2286 19.7164 45.2227 19.7191 45.2147C19.7245 45.1987 19.7328 45.1745 19.7438 45.1424C19.7659 45.0782 19.7992 44.9826 19.8431 44.8593C19.9311 44.6127 20.0616 44.2556 20.2309 43.8169C20.5698 42.9389 21.0624 41.7384 21.6771 40.4475C22.9269 37.8231 24.6115 34.9788 26.45 33.6L25.55 32.4ZM19.4359 45.6103C22.7607 43.2355 25.2629 43.2949 26.8878 43.8365C27.7216 44.1145 28.3628 44.5323 28.7948 44.8807C29.0102 45.0544 29.1713 45.209 29.2759 45.3169C29.3281 45.3708 29.366 45.4127 29.3892 45.4392C29.4008 45.4525 29.4087 45.4618 29.4129 45.4669C29.415 45.4694 29.4162 45.4708 29.4164 45.4711C29.4166 45.4713 29.4164 45.4711 29.4161 45.4707C29.4159 45.4705 29.4157 45.4702 29.4154 45.4698C29.4153 45.4697 29.415 45.4693 29.4149 45.4692C29.4146 45.4689 29.4143 45.4685 30 45C30.5857 44.5315 30.5853 44.5311 30.585 44.5307C30.5849 44.5305 30.5845 44.53 30.5842 44.5297C30.5837 44.529 30.5831 44.5283 30.5824 44.5275C30.5811 44.5258 30.5795 44.5239 30.5777 44.5217C30.574 44.5172 30.5694 44.5115 30.5637 44.5047C30.5524 44.4912 30.537 44.4731 30.5176 44.4509C30.4788 44.4066 30.4238 44.346 30.353 44.2729C30.2115 44.1269 30.0054 43.93 29.7364 43.7131C29.1997 43.2802 28.4034 42.7605 27.3622 42.4135C25.2371 41.7051 22.2393 41.7645 18.5641 44.3897L19.4359 45.6103ZM33.55 33.6C35.3885 34.9788 37.0731 37.8231 38.3229 40.4475C38.9376 41.7384 39.4302 42.9389 39.7691 43.8169C39.9384 44.2556 40.0689 44.6127 40.1569 44.8593C40.2008 44.9826 40.2341 45.0782 40.2562 45.1424C40.2672 45.1745 40.2755 45.1987 40.2809 45.2147C40.2836 45.2227 40.2856 45.2286 40.2869 45.2323C40.2875 45.2342 40.2879 45.2356 40.2882 45.2364C40.2884 45.2368 40.2884 45.237 40.2885 45.2372C40.2885 45.2372 40.2885 45.2372 40.2885 45.2373C40.2885 45.2372 40.2885 45.2372 41 45C41.7115 44.7628 41.7115 44.7627 41.7114 44.7625C41.7114 44.7624 41.7113 44.7622 41.7112 44.762C41.7111 44.7616 41.7109 44.761 41.7107 44.7603C41.7102 44.759 41.7096 44.7571 41.7088 44.7546C41.7071 44.7497 41.7047 44.7426 41.7016 44.7335C41.6954 44.7152 41.6864 44.6886 41.6745 44.654C41.6507 44.5849 41.6156 44.4842 41.5697 44.3555C41.478 44.0982 41.3429 43.7288 41.1684 43.2768C40.8198 42.3736 40.3124 41.1366 39.6771 39.8025C38.4269 37.1769 36.6115 34.0212 34.45 32.4L33.55 33.6ZM41.4359 44.3897C37.7607 41.7645 34.7629 41.7051 32.6378 42.4135C31.5966 42.7605 30.8003 43.2802 30.2636 43.7131C29.9946 43.93 29.7885 44.1269 29.647 44.2729C29.5762 44.346 29.5212 44.4066 29.4824 44.4509C29.463 44.4731 29.4476 44.4912 29.4363 44.5047C29.4306 44.5115 29.426 44.5172 29.4223 44.5217C29.4205 44.5239 29.4189 44.5258 29.4176 44.5275C29.4169 44.5283 29.4163 44.529 29.4158 44.5297C29.4155 44.53 29.4151 44.5305 29.415 44.5307C29.4147 44.5311 29.4143 44.5315 30 45C30.5857 45.4685 30.5854 45.4689 30.5851 45.4692C30.585 45.4693 30.5847 45.4697 30.5846 45.4698C30.5843 45.4702 30.5841 45.4705 30.5839 45.4707C30.5836 45.4711 30.5834 45.4713 30.5836 45.4711C30.5838 45.4708 30.585 45.4694 30.5871 45.4669C30.5913 45.4618 30.5992 45.4525 30.6108 45.4392C30.634 45.4127 30.6719 45.3708 30.7241 45.3169C30.8287 45.209 30.9898 45.0544 31.2052 44.8807C31.6372 44.5323 32.2784 44.1145 33.1122 43.8365C34.7371 43.2949 37.2393 43.2355 40.5641 45.6103L41.4359 44.3897ZM32.25 22C32.25 23.2426 31.2426 24.25 30 24.25V25.75C32.0711 25.75 33.75 24.0711 33.75 22H32.25ZM30 24.25C28.7574 24.25 27.75 23.2426 27.75 22H26.25C26.25 24.0711 27.9289 25.75 30 25.75V24.25ZM27.75 22C27.75 20.7574 28.7574 19.75 30 19.75V18.25C27.9289 18.25 26.25 19.9289 26.25 22H27.75ZM30 19.75C31.2426 19.75 32.25 20.7574 32.25 22H33.75C33.75 19.9289 32.0711 18.25 30 18.25V19.75ZM38.25 22C38.25 22.864 37.9215 24.0637 37.3314 25.4859C36.7493 26.8889 35.9448 28.4342 35.0632 29.9641C33.3008 33.0227 31.2629 35.9637 30.1736 37.4865L31.3935 38.3592C32.4944 36.8204 34.5647 33.8337 36.3629 30.713C37.2617 29.1533 38.1006 27.5462 38.7169 26.0607C39.3253 24.5944 39.75 23.1697 39.75 22H38.25ZM29.8264 37.4865C28.7371 35.9637 26.6992 33.0227 24.9368 29.9641C24.0552 28.4342 23.2507 26.8889 22.6686 25.4859C22.0785 24.0637 21.75 22.864 21.75 22H20.25C20.25 23.1697 20.6747 24.5944 21.2831 26.0607C21.8994 27.5462 22.7383 29.1533 23.6371 30.713C25.4353 33.8337 27.5056 36.8204 28.6065 38.3592L29.8264 37.4865ZM21.75 22C21.75 17.4437 25.4437 13.75 30 13.75V12.25C24.6152 12.25 20.25 16.6152 20.25 22H21.75ZM30 13.75C34.5563 13.75 38.25 17.4437 38.25 22H39.75C39.75 16.6152 35.3848 12.25 30 12.25V13.75ZM30.1736 37.4865C30.0843 37.6113 29.9157 37.6113 29.8264 37.4865L28.6065 38.3592C29.2941 39.3204 30.7059 39.3204 31.3935 38.3592L30.1736 37.4865Z" fill="black"/>
</svg>
