<svg width="60" height="60" viewBox="0 0 60 60" fill="none" xmlns="http://www.w3.org/2000/svg">
<path d="M34 17H34.75V16.25H34V17ZM34 28H33.25V28.75H34V28ZM41 19L41.6708 18.6646L41.4635 18.25H41V19ZM49 32H49.75V31.7182L49.5644 31.5061L49 32ZM49 40V40.75H49.75V40H49ZM58.25 30C58.25 45.602 45.602 58.25 30 58.25V59.75C46.4305 59.75 59.75 46.4305 59.75 30H58.25ZM30 58.25C14.398 58.25 1.75 45.602 1.75 30H0.25C0.25 46.4305 13.5695 59.75 30 59.75V58.25ZM1.75 30C1.75 14.398 14.398 1.75 30 1.75V0.25C13.5695 0.25 0.25 13.5695 0.25 30H1.75ZM30 1.75C45.602 1.75 58.25 14.398 58.25 30H59.75C59.75 13.5695 46.4305 0.25 30 0.25V1.75ZM13 23.75H25V22.25H13V23.75ZM11 28.75H23V27.25H11V28.75ZM13 33.75H20V32.25H13V33.75ZM21 39.25H18V40.75H21V39.25ZM16 17.75H34V16.25H16V17.75ZM34 28.75H45.5V27.25H34V28.75ZM46.1708 27.6646L41.6708 18.6646L40.3292 19.3354L44.8292 28.3354L46.1708 27.6646ZM33.25 17V19H34.75V17H33.25ZM33.25 19V28H34.75V19H33.25ZM41 18.25H34V19.75H41V18.25ZM44.9356 28.4939L48.4356 32.4939L49.5644 31.5061L46.0644 27.5061L44.9356 28.4939ZM48.25 32V40H49.75V32H48.25ZM49 39.25H44V40.75H49V39.25ZM37 39.25H28V40.75H37V39.25ZM27.25 39.5C27.25 41.0188 26.0188 42.25 24.5 42.25V43.75C26.8472 43.75 28.75 41.8472 28.75 39.5H27.25ZM24.5 42.25C22.9812 42.25 21.75 41.0188 21.75 39.5H20.25C20.25 41.8472 22.1528 43.75 24.5 43.75V42.25ZM21.75 39.5C21.75 37.9812 22.9812 36.75 24.5 36.75V35.25C22.1528 35.25 20.25 37.1528 20.25 39.5H21.75ZM24.5 36.75C26.0188 36.75 27.25 37.9812 27.25 39.5H28.75C28.75 37.1528 26.8472 35.25 24.5 35.25V36.75ZM43.25 39.5C43.25 41.0188 42.0188 42.25 40.5 42.25V43.75C42.8472 43.75 44.75 41.8472 44.75 39.5H43.25ZM40.5 42.25C38.9812 42.25 37.75 41.0188 37.75 39.5H36.25C36.25 41.8472 38.1528 43.75 40.5 43.75V42.25ZM37.75 39.5C37.75 37.9812 38.9812 36.75 40.5 36.75V35.25C38.1528 35.25 36.25 37.1528 36.25 39.5H37.75ZM40.5 36.75C42.0188 36.75 43.25 37.9812 43.25 39.5H44.75C44.75 37.1528 42.8472 35.25 40.5 35.25V36.75Z" fill="black"/>
</svg>
