<svg width="10" height="20" viewBox="0 0 10 20" fill="none" xmlns="http://www.w3.org/2000/svg">
<path d="M2.16145 3.87336C2.16145 4.37737 2.16145 6.62697 2.16145 6.62697H0V9.99409H2.16145V20H6.60152V9.99437H9.58101C9.58101 9.99437 9.86005 8.37986 9.99532 6.61456C9.60752 6.61456 6.61831 6.61456 6.61831 6.61456C6.61831 6.61456 6.61831 4.65567 6.61831 4.31232C6.61831 3.96822 7.10241 3.50537 7.58088 3.50537C8.05846 3.50537 9.06642 3.50537 10 3.50537C10 3.04693 10 1.46292 10 1.20278e-08C8.7537 1.20278e-08 7.33582 1.20278e-08 6.71082 1.20278e-08C2.05169 -0.000232486 2.16145 3.37024 2.16145 3.87336Z" fill="black"/>
</svg>
