<svg width="10" height="8" viewBox="0 0 10 8" fill="none" xmlns="http://www.w3.org/2000/svg">
<path d="M1.35355 0.646447C1.15829 0.451184 0.841709 0.451184 0.646447 0.646447C0.451184 0.841709 0.451184 1.15829 0.646447 1.35355L1.35355 0.646447ZM4 4L4.35355 4.35355C4.54882 4.15829 4.54882 3.84171 4.35355 3.64645L4 4ZM0.646447 6.64645C0.451184 6.84171 0.451184 7.15829 0.646447 7.35355C0.841709 7.54882 1.15829 7.54882 1.35355 7.35355L0.646447 6.64645ZM6.35355 0.646447C6.15829 0.451184 5.84171 0.451184 5.64645 0.646447C5.45118 0.841709 5.45118 1.15829 5.64645 1.35355L6.35355 0.646447ZM9 4L9.35355 4.35355C9.54882 4.15829 9.54882 3.84171 9.35355 3.64645L9 4ZM5.64645 6.64645C5.45118 6.84171 5.45118 7.15829 5.64645 7.35355C5.84171 7.54882 6.15829 7.54882 6.35355 7.35355L5.64645 6.64645ZM0.646447 1.35355L3.64645 4.35355L4.35355 3.64645L1.35355 0.646447L0.646447 1.35355ZM3.64645 3.64645L0.646447 6.64645L1.35355 7.35355L4.35355 4.35355L3.64645 3.64645ZM5.64645 1.35355L8.64645 4.35355L9.35355 3.64645L6.35355 0.646447L5.64645 1.35355ZM8.64645 3.64645L5.64645 6.64645L6.35355 7.35355L9.35355 4.35355L8.64645 3.64645Z" fill="black"/>
</svg>
