<svg width="28" height="22" viewBox="0 0 28 22" fill="none" xmlns="http://www.w3.org/2000/svg">
<path d="M18 18C18 18.5523 18.4477 19 19 19C19.5523 19 20 18.5523 20 18H18ZM20 13C20 12.4477 19.5523 12 19 12C18.4477 12 18 12.4477 18 13H20ZM13 18C13 18.5523 13.4477 19 14 19C14.5523 19 15 18.5523 15 18H13ZM15 13C15 12.4477 14.5523 12 14 12C13.4477 12 13 12.4477 13 13H15ZM8 18C8 18.5523 8.44772 19 9 19C9.55229 19 10 18.5523 10 18H8ZM10 13C10 12.4477 9.55229 12 9 12C8.44772 12 8 12.4477 8 13H10ZM5 21L4.01613 21.1789C4.10258 21.6544 4.51671 22 5 22V21ZM23 21V22C23.4833 22 23.8974 21.6544 23.9839 21.1789L23 21ZM1 10H0C0 10.5523 0.447715 11 1 11L1 10ZM1 6V5C0.447715 5 0 5.44772 0 6H1ZM27 6H28C28 5.44772 27.5523 5 27 5V6ZM27 10V11C27.5523 11 28 10.5523 28 10H27ZM11.7071 1.70711C12.0976 1.31658 12.0976 0.683417 11.7071 0.292893C11.3166 -0.0976311 10.6834 -0.0976311 10.2929 0.292893L11.7071 1.70711ZM17.7071 0.292893C17.3166 -0.0976311 16.6834 -0.0976311 16.2929 0.292893C15.9024 0.683417 15.9024 1.31658 16.2929 1.70711L17.7071 0.292893ZM20 18V13H18V18H20ZM15 18V13H13V18H15ZM10 18V13H8V18H10ZM5.98387 20.8211L3.98387 9.82111L2.01613 10.1789L4.01613 21.1789L5.98387 20.8211ZM5 22H23V20H5V22ZM23.9839 21.1789L25.9839 10.1789L24.0161 9.82111L22.0161 20.8211L23.9839 21.1789ZM3 9H1V11H3V9ZM2 10V6H0V10H2ZM26 6V10H28V6H26ZM27 9H25V11H27V9ZM25 9H3V11H25V9ZM1 7H6V5H1V7ZM6.70711 6.70711L11.7071 1.70711L10.2929 0.292893L5.29289 5.29289L6.70711 6.70711ZM6 7H22V5H6V7ZM22 7H27V5H22V7ZM22.7071 5.29289L17.7071 0.292893L16.2929 1.70711L21.2929 6.70711L22.7071 5.29289Z" fill="black"/>
</svg>
