<svg width="18" height="13" viewBox="0 0 18 13" fill="none" xmlns="http://www.w3.org/2000/svg">
<path d="M17.7071 1.70711C18.0976 1.31658 18.0976 0.683417 17.7071 0.292893C17.3166 -0.0976311 16.6834 -0.0976311 16.2929 0.292893L17.7071 1.70711ZM6 12L5.29289 12.7071C5.68342 13.0976 6.31658 13.0976 6.70711 12.7071L6 12ZM1.70711 6.29289C1.31658 5.90237 0.683417 5.90237 0.292893 6.29289C-0.0976311 6.68342 -0.0976311 7.31658 0.292893 7.70711L1.70711 6.29289ZM16.2929 0.292893L5.29289 11.2929L6.70711 12.7071L17.7071 1.70711L16.2929 0.292893ZM6.70711 11.2929L1.70711 6.29289L0.292893 7.70711L5.29289 12.7071L6.70711 11.2929Z" fill="black"/>
</svg>
