<svg width="18" height="16" viewBox="0 0 18 16" fill="none" xmlns="http://www.w3.org/2000/svg">
<path d="M15.7662 2.2377L15.2349 2.76706L15.2352 2.76731L15.7662 2.2377ZM12.7887 1V1.75V1ZM9.81116 2.2377L10.3423 2.76718L10.3425 2.76706L9.81116 2.2377ZM8.9998 3.05166L8.46862 3.58114C8.60934 3.72232 8.80047 3.80166 8.9998 3.80166C9.19912 3.80166 9.39025 3.72232 9.53097 3.58114L8.9998 3.05166ZM8.18843 2.2377L7.65726 2.76718V2.76718L8.18843 2.2377ZM2.23334 8.21187L2.76452 7.68239V7.68239L2.23334 8.21187ZM8.9998 15L8.46862 15.5295C8.60934 15.6707 8.80047 15.75 8.9998 15.75C9.19912 15.75 9.39025 15.6707 9.53097 15.5295L8.9998 15ZM15.7662 8.21187L15.2352 7.68226L15.2351 7.68239L15.7662 8.21187ZM16.2976 1.70834C15.8371 1.24616 15.2902 0.8794 14.6881 0.629125L14.1123 2.01423C14.532 2.18869 14.9135 2.44446 15.2349 2.76706L16.2976 1.70834ZM14.6881 0.629125C14.086 0.378849 13.4406 0.25 12.7887 0.25V1.75C13.2429 1.75 13.6926 1.83976 14.1123 2.01423L14.6881 0.629125ZM12.7887 0.25C12.1368 0.25 11.4914 0.378849 10.8893 0.629125L11.4651 2.01423C11.8848 1.83976 12.3345 1.75 12.7887 1.75V0.25ZM10.8893 0.629125C10.2872 0.8794 9.74035 1.24616 9.27986 1.70834L10.3425 2.76706C10.6639 2.44447 11.0454 2.18869 11.4651 2.01423L10.8893 0.629125ZM9.27998 1.70822L8.46862 2.52218L9.53097 3.58114L10.3423 2.76718L9.27998 1.70822ZM9.53097 2.52218L8.71961 1.70822L7.65726 2.76718L8.46862 3.58114L9.53097 2.52218ZM8.71961 1.70822C7.78945 0.77508 6.52737 0.250411 5.21089 0.250411V1.75041C6.128 1.75041 7.00803 2.11588 7.65726 2.76718L8.71961 1.70822ZM5.21089 0.250411C3.8944 0.250411 2.63232 0.77508 1.70216 1.70822L2.76452 2.76718C3.41375 2.11588 4.29378 1.75041 5.21089 1.75041V0.250411ZM1.70216 1.70822C0.772083 2.64128 0.25 3.90627 0.25 5.22479H1.75C1.75 4.30255 2.11521 3.41857 2.76452 2.76718L1.70216 1.70822ZM0.25 5.22479C0.25 6.5433 0.772082 7.80829 1.70216 8.74135L2.76452 7.68239C2.11521 7.031 1.75 6.14702 1.75 5.22479H0.25ZM16.2973 8.74148C16.758 8.27952 17.1233 7.73115 17.3726 7.12777L15.9862 6.55515C15.812 6.97684 15.5568 7.35982 15.2352 7.68226L16.2973 8.74148ZM17.3726 7.12777C17.6218 6.5244 17.75 5.87776 17.75 5.22479H16.25C16.25 5.68139 16.1603 6.13346 15.9862 6.55515L17.3726 7.12777ZM17.75 5.22479C17.75 4.57181 17.6218 3.92517 17.3726 3.3218L15.9862 3.89442C16.1603 4.31611 16.25 4.76818 16.25 5.22479H17.75ZM17.3726 3.3218C17.1233 2.71842 16.758 2.17006 16.2973 1.7081L15.2352 2.76731C15.5568 3.08975 15.812 3.47273 15.9862 3.89442L17.3726 3.3218ZM1.70216 8.74135L8.46862 15.5295L9.53097 14.4705L2.76452 7.68239L1.70216 8.74135ZM9.53097 15.5295L16.2974 8.74135L15.2351 7.68239L8.46862 14.4705L9.53097 15.5295Z" fill="white"/>
</svg>
