<svg width="22" height="32" viewBox="0 0 22 32" fill="none" xmlns="http://www.w3.org/2000/svg">
<path fill-rule="evenodd" clip-rule="evenodd" d="M18.4506 16.8508C19.4382 14.6062 20 12.5927 20 11C20 6.02944 15.9706 2 11 2C6.02944 2 2 6.02944 2 11C2 12.5927 2.56179 14.6062 3.54938 16.8508C4.52256 19.0626 5.83722 21.3396 7.17914 23.4135C8.51725 25.4815 9.85907 27.3116 10.8679 28.6261C10.9126 28.6844 10.9566 28.7416 11 28.7978C11.0434 28.7416 11.0874 28.6844 11.1321 28.6261C12.1409 27.3116 13.4827 25.4815 14.8209 23.4135C16.1628 21.3396 17.4774 19.0626 18.4506 16.8508ZM12.28 30.4104C15.1797 26.6988 22 17.2993 22 11C22 4.92487 17.0751 0 11 0C4.92487 0 0 4.92487 0 11C0 17.2993 6.82026 26.6988 9.72002 30.4104C10.5029 31.4125 11 32 11 32C11 32 11.4971 31.4125 12.28 30.4104Z" fill="black"/>
<path fill-rule="evenodd" clip-rule="evenodd" d="M11 13C12.1046 13 13 12.1046 13 11C13 9.89543 12.1046 9 11 9C9.89543 9 9 9.89543 9 11C9 12.1046 9.89543 13 11 13ZM11 15C13.2091 15 15 13.2091 15 11C15 8.79086 13.2091 7 11 7C8.79086 7 7 8.79086 7 11C7 13.2091 8.79086 15 11 15Z" fill="black"/>
</svg>
