<svg width="10" height="12" viewBox="0 0 10 12" fill="none" xmlns="http://www.w3.org/2000/svg">
<path fill-rule="evenodd" clip-rule="evenodd" d="M5 12C5 12 10 8.72727 10 4.90909C10 3.60712 9.47322 2.35847 8.53553 1.43784C7.59785 0.517206 6.32608 0 5 0C3.67392 0 2.40215 0.517206 1.46447 1.43784C0.526784 2.35847 1.97602e-08 3.60712 0 4.90909C0 8.72727 5 12 5 12ZM5 6.54545C5.92047 6.54545 6.66667 5.81283 6.66667 4.90909C6.66667 4.00535 5.92047 3.27273 5 3.27273C4.07953 3.27273 3.33333 4.00535 3.33333 4.90909C3.33333 5.81283 4.07953 6.54545 5 6.54545Z" fill="black"/>
</svg>
