<svg width="60" height="60" viewBox="0 0 60 60" fill="none" xmlns="http://www.w3.org/2000/svg">
<path d="M58.25 30C58.25 45.602 45.602 58.25 30 58.25V59.75C46.4305 59.75 59.75 46.4305 59.75 30H58.25ZM30 58.25C14.398 58.25 1.75 45.602 1.75 30H0.25C0.25 46.4305 13.5695 59.75 30 59.75V58.25ZM1.75 30C1.75 14.398 14.398 1.75 30 1.75V0.25C13.5695 0.25 0.25 13.5695 0.25 30H1.75ZM30 1.75C45.602 1.75 58.25 14.398 58.25 30H59.75C59.75 13.5695 46.4305 0.25 30 0.25V1.75ZM15 18.75H45V17.25H15V18.75ZM47.25 21V39H48.75V21H47.25ZM45 41.25H15V42.75H45V41.25ZM12.75 39V21H11.25V39H12.75ZM15 41.25C13.7574 41.25 12.75 40.2426 12.75 39H11.25C11.25 41.0711 12.9289 42.75 15 42.75V41.25ZM47.25 39C47.25 40.2426 46.2426 41.25 45 41.25V42.75C47.0711 42.75 48.75 41.0711 48.75 39H47.25ZM45 18.75C46.2426 18.75 47.25 19.7574 47.25 21H48.75C48.75 18.9289 47.0711 17.25 45 17.25V18.75ZM15 17.25C12.9289 17.25 11.25 18.9289 11.25 21H12.75C12.75 19.7574 13.7574 18.75 15 18.75V17.25ZM12 32.75H48V31.25H12V32.75ZM16 28.75H28V27.25H16V28.75ZM12 36.75H48V35.25H12V36.75ZM39.25 25.5C39.25 26.4665 38.4665 27.25 37.5 27.25V28.75C39.2949 28.75 40.75 27.2949 40.75 25.5H39.25ZM37.5 27.25C36.5335 27.25 35.75 26.4665 35.75 25.5H34.25C34.25 27.2949 35.7051 28.75 37.5 28.75V27.25ZM35.75 25.5C35.75 24.5335 36.5335 23.75 37.5 23.75V22.25C35.7051 22.25 34.25 23.7051 34.25 25.5H35.75ZM37.5 23.75C38.4665 23.75 39.25 24.5335 39.25 25.5H40.75C40.75 23.7051 39.2949 22.25 37.5 22.25V23.75ZM42.25 25.5C42.25 26.4665 41.4665 27.25 40.5 27.25V28.75C42.2949 28.75 43.75 27.2949 43.75 25.5H42.25ZM40.5 27.25C39.5335 27.25 38.75 26.4665 38.75 25.5H37.25C37.25 27.2949 38.7051 28.75 40.5 28.75V27.25ZM38.75 25.5C38.75 24.5335 39.5335 23.75 40.5 23.75V22.25C38.7051 22.25 37.25 23.7051 37.25 25.5H38.75ZM40.5 23.75C41.4665 23.75 42.25 24.5335 42.25 25.5H43.75C43.75 23.7051 42.2949 22.25 40.5 22.25V23.75Z" fill="black"/>
</svg>
