<svg width="20" height="20" viewBox="0 0 20 20" fill="none" xmlns="http://www.w3.org/2000/svg">
<path d="M13.0081 10C13.0073 10.7976 12.6901 11.5622 12.1262 12.1262C11.5622 12.6901 10.7976 13.0073 10 13.0081C9.20245 13.0073 8.4378 12.6901 7.87385 12.1262C7.30989 11.5622 6.9927 10.7976 6.99188 10C6.9927 9.20245 7.30989 8.4378 7.87385 7.87385C8.4378 7.30989 9.20245 6.9927 10 6.99188C10.7976 6.9927 11.5622 7.30989 12.1262 7.87385C12.6901 8.4378 13.0073 9.20245 13.0081 10ZM10 0C4.48625 0 0 4.48625 0 10C0 15.5137 4.48625 20 10 20C12.02 20 13.9681 19.3987 15.6331 18.2606L15.6619 18.2406L14.3144 16.6744L14.2919 16.6894C13.0121 17.5133 11.522 17.9509 10 17.95C5.61625 17.95 2.05 14.3837 2.05 10C2.05 5.61625 5.61625 2.05 10 2.05C14.3837 2.05 17.95 5.61625 17.95 10C17.95 10.5681 17.8869 11.1431 17.7625 11.7087C17.5112 12.7406 16.7887 13.0569 16.2463 13.015C15.7006 12.9706 15.0625 12.5819 15.0581 11.6306V10C15.0581 7.21063 12.7894 4.94187 10 4.94187C7.21063 4.94187 4.94187 7.21063 4.94187 10C4.94187 12.7894 7.21063 15.0581 10 15.0581C10.6666 15.0597 11.3268 14.9285 11.9421 14.6721C12.5574 14.4158 13.1155 14.0394 13.5837 13.565C13.8554 13.991 14.2226 14.3477 14.6563 14.6069C15.0899 14.8661 15.5781 15.0206 16.0819 15.0581C16.9047 15.1222 17.7226 14.8825 18.3806 14.3844C18.98 13.9294 19.4275 13.2712 19.675 12.4806C19.7144 12.3531 19.7869 12.0606 19.7875 12.0588L19.7894 12.0481C19.935 11.4138 20 10.7812 20 10C20 4.48625 15.5137 0 10 0Z" fill="black"/>
</svg>
