<svg width="26" height="14" viewBox="0 0 26 14" fill="none" xmlns="http://www.w3.org/2000/svg">
<path d="M25.7708 12.4329C26.0953 12.8861 26.0304 13.4689 25.6409 13.7927C25.1865 14.1165 24.5374 14.0517 24.2128 13.6632L21.9409 10.7492L19.7338 13.5984C19.4092 14.0517 18.7601 14.0517 18.3057 13.7279C17.8513 13.4042 17.7864 12.8214 18.1109 12.3681L20.7075 9.00087L18.1109 5.63364C17.7864 5.18036 17.9162 4.53281 18.3057 4.20904C18.7601 3.88527 19.4092 4.01478 19.7338 4.4033L21.9409 7.31725L24.2128 4.53281C24.5374 4.07953 25.1216 4.01478 25.6409 4.33855C26.0953 4.66232 26.0953 5.30986 25.7708 5.76315L23.2391 9.06562L25.7708 12.4329ZM13.9565 12.0443C12.2687 12.0443 10.9055 10.7492 10.9055 9.06562C10.9055 7.44676 12.2687 6.08692 13.9565 6.08692C15.6442 6.08692 17.0074 7.44676 17.0074 9.06562C16.9425 10.7492 15.5793 12.0443 13.9565 12.0443ZM4.99836 12.0443C3.3106 12.0443 1.94741 10.7492 1.94741 9.06562C1.94741 7.44676 3.3106 6.08692 4.99836 6.08692C6.68612 6.08692 8.04931 7.44676 8.04931 9.06562C8.04931 10.7492 6.68612 12.0443 4.99836 12.0443ZM13.9565 4.14428C12.074 4.14428 10.3862 5.18036 9.54232 6.73446C8.69844 5.18036 7.01069 4.14428 5.06327 4.14428C3.89483 4.14428 2.85621 4.53281 2.01233 5.1156V0.971317C2.01233 0.453281 1.55793 0 1.03862 0C0.454396 0 0 0.453281 0 0.971317V9.13038C0.0649138 11.8501 2.27198 13.987 4.99836 13.987C6.94577 13.987 8.63353 12.8861 9.47741 11.332C10.3213 12.8861 12.009 13.987 13.8915 13.987C16.6828 13.987 18.9548 11.7853 18.9548 9.00087C19.0197 6.34594 16.7478 4.14428 13.9565 4.14428Z" fill="black"/>
</svg>
