<svg width="16" height="18" viewBox="0 0 16 18" fill="none" xmlns="http://www.w3.org/2000/svg">
<path d="M5.34778 10.208L10.66 13.392M10.6522 4.608L5.34778 7.792M15 3.4C15 4.72548 13.9553 5.8 12.6667 5.8C11.378 5.8 10.3333 4.72548 10.3333 3.4C10.3333 2.07452 11.378 1 12.6667 1C13.9553 1 15 2.07452 15 3.4ZM5.66667 9C5.66667 10.3255 4.622 11.4 3.33333 11.4C2.04467 11.4 1 10.3255 1 9C1 7.67452 2.04467 6.6 3.33333 6.6C4.622 6.6 5.66667 7.67452 5.66667 9ZM15 14.6C15 15.9255 13.9553 17 12.6667 17C11.378 17 10.3333 15.9255 10.3333 14.6C10.3333 13.2745 11.378 12.2 12.6667 12.2C13.9553 12.2 15 13.2745 15 14.6Z" stroke="black" stroke-linecap="round" stroke-linejoin="round"/>
</svg>
