<svg width="21" height="16" viewBox="0 0 21 16" fill="none" xmlns="http://www.w3.org/2000/svg">
<path d="M15.203 0.309846L5.46477 4.26665H2.82192C1.84542 4.26665 1.05005 5.07465 1.05005 6.06665V8.26665C1.05005 9.20905 1.77849 9.86665 2.82192 9.86665H3.4913L4.20635 14.9514C4.24809 15.2474 4.49694 15.4666 4.79067 15.4666H7.15318C7.3217 15.4666 7.48156 15.3938 7.59418 15.2666C7.706 15.1394 7.75955 14.9698 7.74065 14.7994L7.27603 10.6026L15.2022 13.8234C15.2739 13.8522 15.3479 13.8666 15.4219 13.8666C15.5377 13.8666 15.6542 13.8314 15.7535 13.7634C15.9157 13.6514 16.0126 13.4658 16.0126 13.2666V0.866646C16.0126 0.667446 15.9157 0.481846 15.7535 0.369846C15.5905 0.257846 15.3841 0.235446 15.203 0.309846ZM2.2313 8.26665V6.06665C2.2313 5.73625 2.49669 5.46665 2.82192 5.46665H4.98755V8.66665H2.82192C2.5526 8.66665 2.2313 8.59705 2.2313 8.26665ZM6.49246 14.2666H5.30255L4.68436 9.86665H5.46477L6.03256 10.097L6.49246 14.2666ZM14.8313 12.381L6.8177 9.12425C6.78384 9.10825 6.75155 9.09145 6.71454 9.08185L6.1688 8.86025V5.27305L14.8313 1.75305V12.381Z" fill="white" stroke="white" stroke-width="0.4"/>
<path d="M17.7599 5.33549L19.7287 3.73549C19.9831 3.52829 20.0248 3.15069 19.8208 2.89149C19.6161 2.63388 19.2452 2.59228 18.99 2.79788L17.0213 4.39788C16.7669 4.60509 16.7252 4.98269 16.9291 5.24189C17.0457 5.38909 17.2174 5.46669 17.3906 5.46669C17.5206 5.46669 17.6505 5.42349 17.7599 5.33549Z" fill="white" stroke="white" stroke-width="0.4"/>
<path d="M17.7599 9.59787C17.5064 9.39227 17.1347 9.43387 16.9291 9.69147C16.7252 9.94987 16.7669 10.3283 17.0213 10.5355L18.99 12.1355C19.0995 12.2235 19.2294 12.2667 19.3594 12.2667C19.5326 12.2667 19.7043 12.1891 19.8208 12.0419C20.0248 11.7835 19.9831 11.4051 19.7287 11.1979L17.7599 9.59787Z" fill="white" stroke="white" stroke-width="0.4"/>
<path d="M19.3594 6.8667H17.3907C17.0646 6.8667 16.8 7.1355 16.8 7.4667C16.8 7.7979 17.0646 8.0667 17.3907 8.0667H19.3594C19.6855 8.0667 19.9501 7.7979 19.9501 7.4667C19.9501 7.1355 19.6855 6.8667 19.3594 6.8667Z" fill="white" stroke="white" stroke-width="0.4"/>
</svg>
