<svg width="20" height="20" viewBox="0 0 20 20" fill="none" xmlns="http://www.w3.org/2000/svg">
<path d="M14.5151 9.66617L15.1954 12.5146L15.8932 15.7264L12.6481 15.036L9.7679 14.3656L1.99514 6.6746C1.42166 7.8812 1.09908 9.22743 1.09908 10.6491C1.09908 15.8132 5.33023 20 10.5499 20C15.7689 20 20 15.8132 20 10.6491C20 5.48487 15.7689 1.29812 10.5499 1.29812C9.22751 1.29812 7.96877 1.56796 6.82558 2.05332L14.5144 9.66071C14.5144 9.66071 14.5179 9.66468 14.5151 9.66617Z" fill="white"/>
<path d="M14.6663 12.3264L14.1595 10.1248C12.4152 10.9174 11.0332 12.285 10.2328 14.0112L12.4576 14.5124C12.93 13.5776 13.7223 12.7939 14.6663 12.3264Z" fill="white"/>
<path d="M6.82558 2.05332L4.75073 0C2.82001 1.1813 1.19357 2.79043 0 4.70089L1.99514 6.67485C2.97717 4.60863 4.7001 2.9561 6.82558 2.05332Z" fill="white"/>
</svg>
