<svg width="18" height="18" viewBox="0 0 18 18" fill="none" xmlns="http://www.w3.org/2000/svg">
<path d="M17.9907 11.2313C17.9848 9.8928 17.9806 8.92561 17.3145 8.07474C16.5599 7.11148 15.396 6.94825 14.4525 6.92048C14.6114 6.24747 14.6574 5.5013 14.5839 4.69471C14.5638 2.00851 12.5415 0.077676 9.73474 0.00112574L9.69431 0L5.40136 0.00337722L5.35523 0.00318959C3.68562 0.00318959 2.36589 0.495888 1.43246 1.4674C0.854793 2.06836 0.0874764 3.11811 0.00622671 4.81554L0.00280966 11.66C-0.00554311 11.7893 0.00755555 11.9199 0.00584703 12.054C0.00584703 14.0014 0.321164 15.4031 1.30584 16.439C2.28976 17.4748 3.74466 18 5.62954 18C5.67036 18 5.71155 17.9998 5.75275 17.9992H12.3266C14.0081 17.9854 15.4291 17.4368 16.4358 16.4129C17.4406 15.3909 17.9816 13.9348 18 12.2024C18 12.2024 17.9918 11.5051 17.9907 11.2313ZM5.74952 3.65058L9.41752 3.64627C10.282 3.65978 10.9719 4.42509 10.9579 5.27953C10.9442 6.12552 10.2462 6.7428 9.39323 6.7428C9.38487 6.7428 5.69997 6.7443 5.69997 6.7443C4.83546 6.7306 4.14598 6.02702 4.15983 5.17296C4.1735 4.31852 4.88387 3.64233 5.74952 3.65058ZM12.644 13.8338H5.30815C4.44383 13.8338 3.74276 13.1413 3.74276 12.2867C3.74276 11.4323 4.44383 10.7395 5.30815 10.7395H12.6442C13.5089 10.7395 14.2096 11.4323 14.2096 12.2867C14.2096 13.1413 13.5087 13.8338 12.644 13.8338Z" fill="white"/>
</svg>
