<svg width="8" height="16" viewBox="0 0 8 16" fill="none" xmlns="http://www.w3.org/2000/svg">
<path d="M0.00365365 8.09273C0.024748 8.29483 0.10766 8.48555 0.241119 8.63896L6.18758 15.5645C6.26575 15.68 6.36747 15.7777 6.48608 15.8512C6.6047 15.9247 6.73755 15.9724 6.8759 15.9911C7.01426 16.0098 7.15499 15.9991 7.28891 15.9597C7.42284 15.9203 7.54692 15.8531 7.65302 15.7625C7.75913 15.6719 7.84487 15.56 7.90462 15.434C7.96438 15.3081 7.9968 15.1709 7.99977 15.0316C8.00275 14.8922 7.9762 14.7539 7.92186 14.6255C7.86753 14.4971 7.78665 14.3816 7.6845 14.2866L2.28521 8L7.6845 1.71341C7.78665 1.6184 7.86753 1.50292 7.92186 1.37453C7.9762 1.24615 8.00275 1.10775 7.99978 0.96841C7.9968 0.829068 7.96438 0.691924 7.90462 0.565962C7.84487 0.44 7.75913 0.328062 7.65302 0.237479C7.54692 0.146896 7.42284 0.0797117 7.28891 0.0403274C7.15499 0.000943041 7.01426 -0.00975301 6.8759 0.00893981C6.73755 0.0276326 6.6047 0.075293 6.48608 0.148798C6.36747 0.222304 6.26575 0.319996 6.18758 0.435476L0.241119 7.36103C0.154615 7.461 0.0890385 7.57724 0.0482556 7.70291C0.00747217 7.82858 -0.0076965 7.96112 0.00365365 8.09273Z" fill="#222222"/>
</svg>
