<svg width="8" height="16" viewBox="0 0 8 16" fill="none" xmlns="http://www.w3.org/2000/svg">
<path d="M7.99635 7.90727C7.97525 7.70517 7.89234 7.51445 7.75888 7.36104L1.81241 0.435474C1.73425 0.319994 1.63253 0.222302 1.51391 0.148797C1.3953 0.0752916 1.26245 0.0276327 1.12409 0.00893969C0.985742 -0.00975232 0.84501 0.000944101 0.711086 0.040328C0.577163 0.0797128 0.45308 0.146895 0.346975 0.237479C0.240869 0.328062 0.155132 0.44 0.0953751 0.565961C0.0356188 0.691923 0.00319469 0.829067 0.000223808 0.96841C-0.00274707 1.10775 0.023802 1.24615 0.0781354 1.37453C0.132469 1.50292 0.213351 1.6184 0.3155 1.7134L5.71479 8L0.3155 14.2866C0.213352 14.3816 0.132469 14.4971 0.078136 14.6255C0.0238025 14.7539 -0.00274647 14.8922 0.000224422 15.0316C0.00319532 15.1709 0.0356194 15.3081 0.0953758 15.434C0.155132 15.56 0.24087 15.6719 0.346975 15.7625C0.453081 15.8531 0.577163 15.9203 0.711087 15.9597C0.845011 15.9991 0.985743 16.0098 1.1241 15.9911C1.26245 15.9724 1.3953 15.9247 1.51392 15.8512C1.63253 15.7777 1.73425 15.68 1.81242 15.5645L7.75888 8.63897C7.84538 8.539 7.91096 8.42276 7.95174 8.29709C7.99253 8.17142 8.0077 8.03888 7.99635 7.90727Z" fill="#222222"/>
</svg>
