<svg xmlns="http://www.w3.org/2000/svg" xmlns:xlink="http://www.w3.org/1999/xlink" viewBox="0 0 14 12.5" version="1.1" x="0px" y="0px"><title>Basket 9</title><desc>Created with Sketch.</desc><g stroke="none" stroke-width="1" fill="none" fill-rule="evenodd"><g transform="translate(-1.000000, -1.000000)" fill="#000000" fill-rule="nonzero"><path d="M9.0625,9.1296875 C9.1328125,9.1296875 9.196875,9.1015625 9.24375,9.0578125 C9.2953125,9.009375 9.3265625,8.940625 9.3265625,8.865625 L9.3203125,5.703125 C9.3203125,5.55625 9.2015625,5.4390625 9.0546875,5.4390625 C8.9078125,5.4390625 8.790625,5.5578125 8.790625,5.7046875 L8.796875,8.865625 C8.7984375,9.0125 8.9171875,9.1296875 9.0625,9.1296875 Z M7.2109375,9.1296875 C7.28125,9.1296875 7.3453125,9.1015625 7.3921875,9.0578125 C7.44375,9.009375 7.475,8.940625 7.475,8.865625 L7.46875,5.703125 C7.46875,5.55625 7.35,5.4390625 7.203125,5.4390625 C7.05625,5.4390625 6.9390625,5.5578125 6.9390625,5.7046875 L6.9453125,8.865625 C6.946875,9.0125 7.065625,9.1296875 7.2109375,9.1296875 Z M10.915625,9.1296875 C10.9859375,9.1296875 11.05,9.1015625 11.096875,9.0578125 C11.1484375,9.009375 11.1796875,8.940625 11.1796875,8.865625 L11.1734375,5.703125 C11.1734375,5.55625 11.0546875,5.4390625 10.9078125,5.4390625 C10.7609375,5.4390625 10.64375,5.5578125 10.64375,5.7046875 L10.65,8.865625 C10.6515625,9.0125 10.76875,9.1296875 10.915625,9.1296875 Z M5.359375,9.1296875 C5.4296875,9.1296875 5.49375,9.1015625 5.540625,9.0578125 C5.5921875,9.009375 5.6234375,8.940625 5.6234375,8.865625 L5.615625,5.703125 C5.615625,5.55625 5.496875,5.4390625 5.35,5.4390625 C5.203125,5.4390625 5.0859375,5.5578125 5.0859375,5.7046875 L5.0921875,8.865625 C5.09375,9.0125 5.2125,9.1296875 5.359375,9.1296875 Z M14.740625,3.828125 L11.740625,3.828125 L9.10625,1.0328125 C9.00625,0.9265625 8.8390625,0.921875 8.7328125,1.021875 C8.6265625,1.121875 8.621875,1.2890625 8.721875,1.3953125 L11.0140625,3.828125 L5.1421875,3.828125 L7.434375,1.3953125 C7.534375,1.2890625 7.5296875,1.121875 7.4234375,1.021875 C7.3171875,0.921875 7.15,0.9265625 7.05,1.0328125 L4.4140625,3.828125 L1.2546875,3.828125 C1.1078125,3.828125 0.990625,3.946875 0.990625,4.0921875 C0.990625,4.2390625 1.109375,4.35625 1.2546875,4.35625 L2.0453125,4.35625 L3.478125,10.759375 C3.50625,10.878125 3.6125,10.9625 3.7359375,10.9625 L12.29375,10.9625 C12.41875,10.9625 12.525,10.8765625 12.5515625,10.7546875 L13.88125,4.35625 L14.7390625,4.35625 C14.8859375,4.35625 15.003125,4.2375 15.003125,4.0921875 C15.00625,3.946875 14.8875,3.828125 14.740625,3.828125 Z M12.08125,10.4359375 L3.9453125,10.4359375 L2.5875,4.359375 L13.3421875,4.359375 L12.08125,10.4359375 Z"/></g></g><text x="0" y="25" fill="#000000" font-size="5px" font-weight="bold" font-family="'Helvetica Neue', Helvetica, Arial-Unicode, Arial, Sans-serif">Created by iconfun</text><text x="0" y="30" fill="#000000" font-size="5px" font-weight="bold" font-family="'Helvetica Neue', Helvetica, Arial-Unicode, Arial, Sans-serif">from the Noun Project</text></svg>