<svg width="18" height="18" viewBox="0 0 18 18" fill="none" xmlns="http://www.w3.org/2000/svg">
    <path fill-rule="evenodd" clip-rule="evenodd" d="M2.04533 1.25452C1.87054 0.99193 1.51631 0.920974 1.25412 1.09603C0.991942 1.27109 0.921096 1.62587 1.09588 1.88846L2.1847 3.5242L3.83402 9.7187C4.2595 11.3167 5.7045 12.4286 7.35581 12.4286H14.6931C15.0083 12.4286 15.2637 12.1728 15.2637 11.8572C15.2637 11.5416 15.0083 11.2857 14.6931 11.2857H7.35581C6.4576 11.2857 5.64825 10.8068 5.20511 10.0625L14.8497 9.08172C15.5926 9.00617 16.2009 8.45695 16.3527 7.72466L16.9636 4.77708C17.1842 3.71287 16.373 2.71434 15.2877 2.71434H3.01704L2.04533 1.25452ZM4.81132 8.95377L3.45433 3.85719H15.2877C15.6495 3.85719 15.9199 4.19004 15.8464 4.54477L15.2354 7.49236C15.1848 7.73646 14.982 7.91953 14.7344 7.94471L4.81132 8.95377Z" fill="white"/>
    <path fill-rule="evenodd" clip-rule="evenodd" d="M4.42334 15.2857C4.42334 14.3389 5.18967 13.5714 6.13498 13.5714C7.08029 13.5714 7.84661 14.3389 7.84661 15.2857C7.84661 16.2325 7.08029 17 6.13498 17C5.18967 17 4.42334 16.2325 4.42334 15.2857ZM6.13498 14.7143C5.81987 14.7143 5.56443 14.9701 5.56443 15.2857C5.56443 15.6013 5.81987 15.8571 6.13498 15.8571C6.45008 15.8571 6.70552 15.6013 6.70552 15.2857C6.70552 14.9701 6.45008 14.7143 6.13498 14.7143Z" fill="white"/>
    <path fill-rule="evenodd" clip-rule="evenodd" d="M11.8404 15.2857C11.8404 14.3389 12.6068 13.5714 13.5521 13.5714C14.4974 13.5714 15.2637 14.3389 15.2637 15.2857C15.2637 16.2325 14.4974 17 13.5521 17C12.6068 17 11.8404 16.2325 11.8404 15.2857ZM13.5521 14.7143C13.237 14.7143 12.9815 14.9701 12.9815 15.2857C12.9815 15.6013 13.237 15.8571 13.5521 15.8571C13.8672 15.8571 14.1226 15.6013 14.1226 15.2857C14.1226 14.9701 13.8672 14.7143 13.5521 14.7143Z" fill="white"/>
    <path fill-rule="evenodd" clip-rule="evenodd" d="M2.04533 1.25452C1.87054 0.99193 1.51631 0.920974 1.25412 1.09603C0.991942 1.27109 0.921096 1.62587 1.09588 1.88846L2.1847 3.5242L3.83402 9.7187C4.2595 11.3167 5.7045 12.4286 7.35581 12.4286H14.6931C15.0083 12.4286 15.2637 12.1728 15.2637 11.8572C15.2637 11.5416 15.0083 11.2857 14.6931 11.2857H7.35581C6.4576 11.2857 5.64825 10.8068 5.20511 10.0625L14.8497 9.08172C15.5926 9.00617 16.2009 8.45695 16.3527 7.72466L16.9636 4.77708C17.1842 3.71287 16.373 2.71434 15.2877 2.71434H3.01704L2.04533 1.25452ZM4.81132 8.95377L3.45433 3.85719H15.2877C15.6495 3.85719 15.9199 4.19004 15.8464 4.54477L15.2354 7.49236C15.1848 7.73646 14.982 7.91953 14.7344 7.94471L4.81132 8.95377Z" stroke="white" stroke-width="0.2" stroke-linecap="round"/>
    <path fill-rule="evenodd" clip-rule="evenodd" d="M4.42334 15.2857C4.42334 14.3389 5.18967 13.5714 6.13498 13.5714C7.08029 13.5714 7.84661 14.3389 7.84661 15.2857C7.84661 16.2325 7.08029 17 6.13498 17C5.18967 17 4.42334 16.2325 4.42334 15.2857ZM6.13498 14.7143C5.81987 14.7143 5.56443 14.9701 5.56443 15.2857C5.56443 15.6013 5.81987 15.8571 6.13498 15.8571C6.45008 15.8571 6.70552 15.6013 6.70552 15.2857C6.70552 14.9701 6.45008 14.7143 6.13498 14.7143Z" stroke="white" stroke-width="0.2" stroke-linecap="round"/>
    <path fill-rule="evenodd" clip-rule="evenodd" d="M11.8404 15.2857C11.8404 14.3389 12.6068 13.5714 13.5521 13.5714C14.4974 13.5714 15.2637 14.3389 15.2637 15.2857C15.2637 16.2325 14.4974 17 13.5521 17C12.6068 17 11.8404 16.2325 11.8404 15.2857ZM13.5521 14.7143C13.237 14.7143 12.9815 14.9701 12.9815 15.2857C12.9815 15.6013 13.237 15.8571 13.5521 15.8571C13.8672 15.8571 14.1226 15.6013 14.1226 15.2857C14.1226 14.9701 13.8672 14.7143 13.5521 14.7143Z" stroke="white" stroke-width="0.2" stroke-linecap="round"/>
</svg>