<svg width="15" height="21" viewBox="0 0 15 21" fill="none" xmlns="http://www.w3.org/2000/svg">
<path d="M3.36328 2.1095C3.09806 2.1095 2.84371 2.21485 2.65617 2.40239C2.46864 2.58993 2.36328 2.84428 2.36328 3.1095V18.1095L5.34128 15.3925C5.89397 14.8882 6.61513 14.6087 7.36328 14.6087C8.11144 14.6087 8.8326 14.8882 9.38528 15.3925L12.3633 18.1095V3.1095C12.3633 2.84428 12.2579 2.58993 12.0704 2.40239C11.8829 2.21485 11.6285 2.1095 11.3633 2.1095H3.36328ZM3.36328 0.109497H11.3633C12.1589 0.109497 12.922 0.425568 13.4846 0.988177C14.0472 1.55079 14.3633 2.31385 14.3633 3.1095V18.1095C14.3632 18.4972 14.2504 18.8766 14.0386 19.2014C13.8269 19.5261 13.5253 19.7824 13.1705 19.9389C12.8158 20.0954 12.4232 20.1454 12.0406 20.0828C11.6579 20.0203 11.3017 19.8478 11.0153 19.5865L8.03728 16.8695C7.85305 16.7014 7.61267 16.6082 7.36328 16.6082C7.1139 16.6082 6.87351 16.7014 6.68928 16.8695L3.71128 19.5865C3.42485 19.8478 3.06864 20.0203 2.686 20.0828C2.30335 20.1454 1.91077 20.0954 1.55603 19.9389C1.20129 19.7824 0.899683 19.5261 0.687922 19.2014C0.47616 18.8766 0.363371 18.4972 0.363281 18.1095V3.1095C0.363281 2.31385 0.679352 1.55079 1.24196 0.988177C1.80457 0.425568 2.56763 0.109497 3.36328 0.109497Z" />
</svg>