<svg width="21" height="24" viewBox="0 0 21 24" fill="none" xmlns="http://www.w3.org/2000/svg">
    <path d="M4.5 0C3.675 0 3 0.675 3 1.5V22.5C3 23.325 3.675 24 4.5 24H19.5C20.325 24 21 23.325 21 22.5V6L15 0H4.5Z" fill="#E2E5E7"/>
    <path d="M16.5 6H21L15 0V4.5C15 5.325 15.675 6 16.5 6Z" fill="#B0B7BD"/>
    <path d="M21 10.5L16.5 6H21V10.5Z" fill="#CAD1D8"/>
    <path d="M18 19.5C18 19.9125 17.6625 20.25 17.25 20.25H0.75C0.3375 20.25 0 19.9125 0 19.5V12C0 11.5875 0.3375 11.25 0.75 11.25H17.25C17.6625 11.25 18 11.5875 18 12V19.5Z" fill="#F15642"/>
    <path d="M17.25 20.25H3V21H17.25C17.6625 21 18 20.6625 18 20.25V19.5C18 19.9125 17.6625 20.25 17.25 20.25Z" fill="#CAD1D8"/>
</svg>