<svg width="16" height="21" viewBox="0 0 16 21" fill="none" xmlns="http://www.w3.org/2000/svg">
<path d="M8.4401 10.1673L13.7584 14.629L13.0143 14.7748L12.4909 14.8773C12.367 14.9015 12.2503 14.9537 12.1495 15.0297C12.0488 15.1058 11.9667 15.2038 11.9094 15.3163C11.8521 15.4288 11.8212 15.5529 11.8191 15.6791C11.8169 15.8053 11.8434 15.9304 11.8968 16.0448L12.1218 16.5281L13.2601 18.9756L12.0751 19.529L10.9518 17.0873L10.7268 16.5981C10.674 16.4835 10.5958 16.3823 10.4981 16.3024C10.4004 16.2225 10.2858 16.166 10.1629 16.1371C10.0401 16.1081 9.91224 16.1076 9.78915 16.1355C9.66607 16.1634 9.55096 16.219 9.4526 16.2981L9.0326 16.6356L8.44094 17.1123V10.1673H8.4401ZM7.82594 8.22647C7.65744 8.22691 7.49597 8.29404 7.37682 8.41319C7.25767 8.53233 7.19054 8.6938 7.1901 8.8623V18.3981C7.1901 18.7481 7.47594 19.034 7.82594 19.034C7.96974 19.0354 8.10939 18.9858 8.2201 18.894L9.81594 17.6098L11.2018 20.6231C11.2372 20.6986 11.2873 20.7663 11.3491 20.8223C11.4109 20.8782 11.4832 20.9213 11.5619 20.9491C11.6405 20.9768 11.7238 20.9887 11.8071 20.984C11.8903 20.9792 11.9718 20.958 12.0468 20.9215L14.3476 19.8473C14.6651 19.7015 14.8176 19.3256 14.6526 19.0081L13.2543 16.0015L15.2634 15.6073C15.3808 15.5832 15.489 15.5265 15.5756 15.4437C15.6622 15.3608 15.7237 15.2552 15.7529 15.139C15.7822 15.0228 15.778 14.9007 15.741 14.7867C15.7039 14.6728 15.6354 14.5716 15.5434 14.4948L8.23927 8.36647L8.2326 8.37314C8.11782 8.27916 7.97428 8.22739 7.82594 8.22647ZM11.3568 9.31814V7.65147H15.5234V9.31814H11.3568ZM10.3818 4.95147L12.7401 2.59314L13.9151 3.76814L11.5568 6.12647L10.3818 4.95147ZM7.1901 0.984802H8.85677V5.15147H7.1901V0.984802ZM2.13177 13.2015L4.4901 10.8431L5.6651 12.0181L3.30677 14.3765L2.13177 13.2015ZM2.13177 3.76814L3.30677 2.59314L5.6651 4.95147L4.4901 6.12647L2.13177 3.76814ZM4.6901 9.31814H0.523438V7.65147H4.6901V9.31814Z" fill="#666666"/>
</svg>
