<svg height="647pt" viewBox="-81 0 647 647.5012" width="647pt" xmlns="http://www.w3.org/2000/svg"><path d="m427.9375 0h-370.296875c-31.679687.0390625-57.355469 25.710938-57.390625 57.390625v532.71875c.035156 31.683594 25.710938 57.351563 57.390625 57.390625h370.296875c31.683594-.039062 57.359375-25.707031 57.394531-57.390625v-532.71875c-.035156-31.679687-25.710937-57.3515625-57.394531-57.390625zm41.78125 590.050781c0 23.066407-18.703125 41.769531-41.78125 41.769531h-370.296875c-23.058594-.027343-41.746094-18.714843-41.777344-41.769531v-532.660156c.03125-23.066406 18.71875-41.738281 41.777344-41.777344h370.296875c23.078125 0 41.78125 18.703125 41.78125 41.777344zm0 0"/><path d="m408.023438 53.390625h-330.460938c-11.621094 0-21.042969 9.421875-21.042969 21.046875v98.90625c0 11.625 9.421875 21.046875 21.042969 21.046875h330.460938c11.621093 0 21.046874-9.421875 21.046874-21.046875v-98.90625c0-11.625-9.425781-21.046875-21.046874-21.046875zm5.4375 119.953125c0 3.007812-2.4375 5.4375-5.4375 5.4375h-330.460938c-3 0-5.429688-2.429688-5.429688-5.4375v-98.90625c0-3.003906 2.429688-5.433594 5.429688-5.433594h330.460938c3 0 5.4375 2.429688 5.4375 5.433594zm0 0"/><path d="m132.324219 238.855469h-44.402344c-14.484375 0-26.222656 11.746093-26.222656 26.226562v44.394531c0 14.488282 11.738281 26.226563 26.222656 26.226563h44.402344c14.484375 0 26.230469-11.738281 26.230469-26.226563v-44.394531c0-14.480469-11.746094-26.226562-26.230469-26.226562zm10.554687 70.621093c0 5.867188-4.753906 10.613282-10.613281 10.613282h-44.34375c-5.859375 0-10.609375-4.746094-10.609375-10.613282v-44.394531c0-5.863281 4.75-10.617187 10.609375-10.617187h44.402344c5.863281 0 10.621093 4.753906 10.621093 10.617187zm0 0"/><path d="m264.960938 238.855469h-44.339844c-14.484375 0-26.222656 11.746093-26.222656 26.226562v44.394531c0 14.488282 11.738281 26.226563 26.222656 26.226563h44.398437c14.484375 0 26.230469-11.738281 26.230469-26.226563v-44.394531c0-6.96875-2.773438-13.644531-7.703125-18.570312-4.929687-4.921875-11.625-7.675781-18.585937-7.65625zm10.617187 70.621093c0 5.867188-4.757813 10.613282-10.617187 10.613282h-44.339844c-5.859375 0-10.613282-4.746094-10.613282-10.613282v-44.394531c0-5.863281 4.753907-10.617187 10.613282-10.617187h44.398437c5.863281 0 10.621094 4.753906 10.621094 10.617187zm0 0"/><path d="m397.65625 238.855469h-44.398438c-14.484374 0-26.230468 11.746093-26.230468 26.226562v44.394531c0 14.488282 11.746094 26.226563 26.230468 26.226563h44.398438c14.484375 0 26.226562-11.738281 26.226562-26.226563v-44.394531c0-14.480469-11.742187-26.226562-26.226562-26.226562zm10.617188 70.621093c0 5.867188-4.757813 10.613282-10.617188 10.613282h-44.398438c-5.863281 0-10.621093-4.746094-10.621093-10.613282v-44.394531c0-5.863281 4.757812-10.617187 10.621093-10.617187h44.398438c5.859375 0 10.617188 4.753906 10.617188 10.617187zm0 0"/><path d="m132.324219 358.25h-44.402344c-14.484375 0-26.222656 11.738281-26.222656 26.230469v44.394531c.136719 14.390625 11.835937 25.976562 26.222656 25.976562h44.402344c14.484375 0 26.230469-11.738281 26.230469-26.226562v-44.144531c0-14.492188-11.746094-26.230469-26.230469-26.230469zm10.554687 70.625c0 5.863281-4.753906 10.613281-10.613281 10.613281h-44.34375c-5.859375 0-10.609375-4.75-10.609375-10.613281v-44.394531c-.054688-2.851563 1.042969-5.601563 3.039062-7.632813 2-2.027344 4.722657-3.175781 7.570313-3.175781h44.402344c5.863281 0 10.621093 4.757813 10.621093 10.617187zm0 0"/><path d="m264.960938 358.25h-44.339844c-14.484375 0-26.222656 11.738281-26.222656 26.230469v44.394531c0 14.488281 11.738281 26.226562 26.222656 26.226562h44.398437c14.484375 0 26.230469-11.738281 26.230469-26.226562v-44.394531c0-6.972657-2.773438-13.652344-7.703125-18.570313-4.929687-4.921875-11.625-7.679687-18.585937-7.660156zm10.617187 70.625c0 5.863281-4.757813 10.613281-10.617187 10.613281h-44.339844c-5.859375 0-10.613282-4.75-10.613282-10.613281v-44.394531c0-5.867188 4.753907-10.617188 10.613282-10.617188h44.398437c5.863281 0 10.621094 4.75 10.621094 10.617188zm0 0"/><path d="m397.65625 358.25h-44.398438c-14.484374 0-26.230468 11.738281-26.230468 26.230469v44.394531c0 14.488281 11.746094 26.226562 26.230468 26.226562h44.398438c14.484375 0 26.226562-11.738281 26.226562-26.226562v-44.394531c0-14.492188-11.742187-26.230469-26.226562-26.230469zm10.617188 70.625c0 5.863281-4.757813 10.613281-10.617188 10.613281h-44.398438c-5.863281 0-10.621093-4.75-10.621093-10.613281v-44.394531c0-5.867188 4.757812-10.617188 10.621093-10.617188h44.398438c5.859375 0 10.617188 4.75 10.617188 10.617188zm0 0"/></svg>