<?xml version="1.0" encoding="utf-8"?>
<!-- Generator: Adobe Illustrator 18.0.0, SVG Export Plug-In . SVG Version: 6.00 Build 0)  -->
<!DOCTYPE svg PUBLIC "-//W3C//DTD SVG 1.1//EN" "http://www.w3.org/Graphics/SVG/1.1/DTD/svg11.dtd">
<svg version="1.1" xmlns="http://www.w3.org/2000/svg" xmlns:xlink="http://www.w3.org/1999/xlink" x="0px" y="0px"
	 viewBox="935.9 421.1 53.9 53.7" enable-background="new 935.9 421.1 53.9 53.7" xml:space="preserve">
<g id="Слой_2">
	<circle fill="none" stroke="#000000" stroke-miterlimit="10" cx="962.8" cy="447.9" r="26.3"/>
</g>
<g id="Слой_3">
	<g>
		<g>
			<g>
				<path d="M978.1,435.8h-30.6c-1.8,0-3.2,1.4-3.2,3.2v9.6v5.1v3.2c0,1.8,1.4,3.2,3.2,3.2h30.6c1.8,0,3.2-1.4,3.2-3.2v-3.2v-5.1
					V439C981.3,437.2,979.9,435.8,978.1,435.8z M980,456.9c0,1.1-0.9,1.9-1.9,1.9h-30.6c-1.1,0-1.9-0.9-1.9-1.9v-2.6H980V456.9z
					 M980,453h-34.4v-3.8H980V453z M980,447.9h-34.4V439c0-1.1,0.9-1.9,1.9-1.9h30.6c1.1,0,1.9,0.9,1.9,1.9V447.9z"/>
				<rect x="947.5" y="444.7" width="13.4" height="1.3"/>
				<path d="M973,439.6c-0.5,0-0.9,0.1-1.3,0.3c-0.4-0.2-0.8-0.3-1.3-0.3c-1.8,0-3.2,1.4-3.2,3.2s1.4,3.2,3.2,3.2
					c0.5,0,0.9-0.1,1.3-0.3c0.4,0.2,0.8,0.3,1.3,0.3c1.8,0,3.2-1.4,3.2-3.2C976.2,441.1,974.8,439.6,973,439.6z M970.5,444.7
					C970.5,444.7,970.5,444.7,970.5,444.7c-1.1,0-1.9-0.9-1.9-1.9s0.9-1.9,1.9-1.9c0,0,0,0,0,0c-0.4,0.5-0.7,1.2-0.7,1.9
					C969.8,443.5,970.1,444.2,970.5,444.7z M971.8,444.2c-0.4-0.4-0.6-0.9-0.6-1.4c0-0.6,0.2-1.1,0.6-1.4c0.4,0.4,0.6,0.9,0.6,1.4
					C972.4,443.4,972.1,443.9,971.8,444.2z M973,444.7C973,444.7,973,444.7,973,444.7c0.4-0.5,0.6-1.2,0.6-1.9
					c0-0.7-0.2-1.4-0.7-1.9c0,0,0,0,0,0c1.1,0,1.9,0.9,1.9,1.9S974.1,444.7,973,444.7z"/>
			</g>
		</g>
	</g>
</g>
</svg>
