<svg height="511pt" viewBox="1 -15 511.99939 511" width="511pt" xmlns="http://www.w3.org/2000/svg"><path d="m498.839844 141.484375-127.878906-127.875c-17.511719-17.480469-45.875-17.480469-63.386719 0l-114.910157 114.871094h-149.496093c-23.832031.023437-43.1445315 19.335937-43.167969 43.167969v203.792968c.0234375 23.832032 19.335938 43.148438 43.167969 43.167969h77.09375l50.6875 50.679687c8.378906 8.4375 19.789062 13.167969 31.683593 13.132813 11.894532.035156 23.304688-4.691406 31.691407-13.121094l50.6875-50.6875h183.816406c23.832031-.023437 43.148437-19.339843 43.171875-43.171875v-203.792968h-.179688c-.316406-11.34375-4.957031-22.136719-12.980468-30.164063zm-179.199219-115.816406c10.847656-10.824219 28.40625-10.824219 39.253906 0l10.980469 10.992187-303.707031 303.71875-11.035157-11.027344c-10.835937-10.839843-10.835937-28.410156 0-39.253906zm-302.574219 145.980469c.015625-14.410157 11.691406-26.089844 26.101563-26.101563h132.421875l-34.132813 34.132813h-124.390625zm0 25.097656h107.308594l-34.136719 34.132812h-73.171875zm26.101563 204.796875c-14.410157-.011719-26.085938-11.691407-26.101563-26.101563v-127.496094h56.089844l-30.089844 30.070313c-17.507812 17.503906-17.511718 45.886719-.007812 63.394531.003906.003906.003906.003906.007812.007813l60.128906 60.128906h-60.027343zm35.066406-49.097657 303.71875-303.71875 26.332031 26.332032-303.71875 303.71875zm144.023437 104.789063c-10.84375 10.828125-28.40625 10.828125-39.253906 0l-66.378906-66.382813 303.726562-303.726562 66.421876 66.425781c10.839843 10.832031 10.84375 28.402344.011718 39.242188-.003906.003906-.007812.007812-.011718.007812zm170.273438-123.957031c9.425781 0 17.066406 7.640625 17.066406 17.066406s-7.640625 17.066406-17.066406 17.066406c-9.421875 0-17.066406-7.640625-17.066406-17.066406s7.644531-17.066406 17.066406-17.066406zm102.402344 42.164062c-.015625 14.410156-11.691406 26.089844-26.105469 26.101563h-166.746094l56.863281-56.847657c-3.242187 18.464844 9.09375 36.0625 27.558594 39.308594 11.800782 2.074219 23.824219-2.226562 31.628906-11.320312 12.339844 14.253906 33.894532 15.804687 48.148438 3.46875 14.25-12.339844 15.804688-33.894532 3.464844-48.148438-12.335938-14.253906-33.894532-15.804687-48.144532-3.464844-1.238281 1.070313-2.398437 2.226563-3.46875 3.464844-7.597656-9.144531-19.5625-13.441406-31.238281-11.21875l68.863281-68.839844h39.175782zm-68.265625-25.097656c0-9.425781 7.640625-17.066406 17.066406-17.066406s17.066406 7.640625 17.066406 17.066406-7.640625 17.066406-17.066406 17.066406-17.066406-7.640625-17.066406-17.066406zm68.265625-119.464844h-22.101563l22.101563-22.101562zm0 0"/><path d="m251.570312 342.382812c-11.699218-11.671874-30.640624-11.671874-42.339843 0l-20.925781 20.925782c-11.671876 11.699218-11.671876 30.640625 0 42.339844l3.859374 3.859374c11.699219 11.671876 30.640626 11.671876 42.339844 0l20.925782-20.925781c11.671874-11.699219 11.671874-30.640625 0-42.339843zm-8.207031 34.132813-20.925781 20.925781c-5.035156 5.007813-13.171875 5.007813-18.210938 0l-3.855468-3.859375c-5.019532-5.03125-5.019532-13.175781 0-18.207031l20.921875-20.925781c5.035156-5.019531 13.179687-5.019531 18.210937 0l3.859375 3.859375c5.902344 3.980468 8.535157 10.40625 4.554688 16.308594-.929688 1.375-2.113281 2.558593-4.554688 1.898437zm0 0"/></svg>