<svg width="19" height="21" viewBox="0 0 19 21" fill="none" xmlns="http://www.w3.org/2000/svg">
    <path d="M2.729 5.54822V17.9669C2.729 18.4374 2.91782 18.8887 3.25392 19.2214C3.59002 19.5541 4.04588 19.741 4.52119 19.741H13.4821C13.9575 19.741 14.4133 19.5541 14.7494 19.2214C15.0855 18.8887 15.2743 18.4374 15.2743 17.9669V5.54822M7.20948 8.98347V15.3058M10.7939 8.98347V15.3058" stroke="#999999" stroke-width="2" stroke-linecap="round" stroke-linejoin="round"/>
    <path d="M1 4.54822H17.1297M5.48047 4.5482V2.7741C5.48047 2.30358 5.66929 1.85233 6.00539 1.51962C6.34149 1.18691 6.79734 1 7.27266 1H10.857C11.3324 1 11.7882 1.18691 12.1243 1.51962C12.4604 1.85233 12.6492 2.30358 12.6492 2.7741V4.5482" stroke="#999999" stroke-width="2" stroke-linecap="round" stroke-linejoin="round"/>
</svg>
