<svg width="128" height="128" viewBox="0 0 128 128" fill="none" xmlns="http://www.w3.org/2000/svg">
    <g clip-path="url(#clip0)">
        <path d="M127.211 26.6697C126.439 25.6101 125.205 24.9831 123.893 24.9831H31.4871C31.308 24.9831 31.1293 24.9939 30.9571 25.0171L27.1542 14.0545C26.76 12.9208 25.8921 12.017 24.7766 11.5779L5.61054 4.0487C3.49823 3.22171 1.11464 4.25925 0.285072 6.36898C-0.543067 8.47986 0.494183 10.8649 2.60535 11.6944L20.0126 18.5327L41.3193 79.9482C40.3789 80.2759 39.582 80.9974 39.2191 82.0069L33.0586 99.1194C32.681 100.169 32.8366 101.335 33.4791 102.246C34.1207 103.158 35.1643 103.701 36.2786 103.701H39.4422C37.4817 105.883 36.2786 108.756 36.2786 111.915C36.2786 118.709 41.8066 124.236 48.5996 124.236C55.3925 124.236 60.9205 118.709 60.9205 111.915C60.9205 108.756 59.7174 105.883 57.7569 103.701H84.6195C82.6581 105.883 81.4547 108.756 81.4547 111.915C81.4547 118.709 86.9816 124.236 93.776 124.236C100.57 124.236 106.097 118.709 106.097 111.915C106.097 108.756 104.894 105.883 102.934 103.701H106.782C108.672 103.701 110.204 102.169 110.204 100.278C110.204 98.3881 108.672 96.8561 106.782 96.8561H41.1483L44.9636 86.2585C45.4563 86.4658 45.9885 86.5884 46.5457 86.5884H106.781C108.566 86.5884 110.147 85.4349 110.691 83.7356L127.803 30.3443C128.205 29.0942 127.984 27.7293 127.211 26.6697ZM48.5996 117.391C45.5795 117.391 43.1237 114.935 43.1237 111.915C43.1237 108.895 45.5795 106.439 48.5996 106.439C51.6196 106.439 54.0754 108.895 54.0754 111.915C54.0754 114.935 51.6196 117.391 48.5996 117.391ZM93.7757 117.391C90.7556 117.391 88.2995 114.935 88.2995 111.915C88.2995 108.895 90.7556 106.439 93.7757 106.439C96.7955 106.439 99.2515 108.895 99.2515 111.915C99.2515 114.935 96.7955 117.391 93.7757 117.391ZM115.304 42.4378H94.3463V33.1971H118.265L115.304 42.4378ZM109.269 61.2613H94.3463V50.6516H112.67L109.269 61.2613ZM67.1939 61.2613V50.6516H86.1322V61.2613H67.1939ZM86.1322 69.476V78.3744H67.1939V69.476H86.1322V69.476ZM39.8501 50.6516H58.9807V61.2613H43.5313L39.8501 50.6516ZM67.1939 42.4378V33.1971H86.1322V42.4378H67.1939ZM58.9804 33.1971V42.4378H36.9996L33.7939 33.1971H58.9804ZM46.3815 69.476H58.9804V78.3744H49.4684L46.3815 69.476ZM94.3463 78.3747V69.4762H106.638L103.786 78.3747H94.3463Z" fill="#F2F2F2"/>
    </g>
    <defs>
        <clipPath id="clip0">
            <rect width="128" height="128" fill="white"/>
        </clipPath>
    </defs>
</svg>