<svg width="20" height="20" viewBox="0 0 20 20" fill="none" xmlns="http://www.w3.org/2000/svg">
<g clip-path="url(#clip0)">
<path d="M15.625 10.3125C15.1074 10.3125 14.6875 10.732 14.6875 11.25C14.6875 11.7676 15.1074 12.1875 15.625 12.1875C16.1426 12.1875 16.5625 11.7676 16.5625 11.25C16.5625 10.732 16.1426 10.3125 15.625 10.3125ZM16.875 6.875V3.90156C16.875 3.4043 16.6773 2.92734 16.3258 2.57578L14.2992 0.549219C13.9477 0.197656 13.4707 0 12.9734 0H4.31563C3.65781 0 3.125 0.559766 3.125 1.25V6.875C1.39922 6.875 0 8.27422 0 10V15C0 15.3453 0.279687 15.625 0.625 15.625H3.125V19.375C3.125 19.7203 3.40469 20 3.75 20H16.25C16.5953 20 16.875 19.7203 16.875 19.375V15.625H19.375C19.7203 15.625 20 15.3453 20 15V10C20 8.27422 18.6008 6.875 16.875 6.875ZM5 1.875H12.5V3.75C12.5 4.09531 12.7797 4.375 13.125 4.375H15V6.875H5V1.875ZM15 18.125H5V15.625H15V18.125ZM18.125 13.75H1.875V10C1.875 9.31094 2.43594 8.75 3.125 8.75H16.875C17.5641 8.75 18.125 9.31094 18.125 10V13.75Z" fill="#B0B0B0"/>
</g>
<defs>
<clipPath id="clip0">
<rect width="20" height="20" fill="white"/>
</clipPath>
</defs>
</svg>
