<svg width="16" height="18" viewBox="0 0 16 18" fill="none" xmlns="http://www.w3.org/2000/svg">
<path d="M9.57143 14.625H10.4286C10.5422 14.625 10.6512 14.5806 10.7316 14.5014C10.812 14.4223 10.8571 14.315 10.8571 14.2031V6.60938C10.8571 6.49749 10.812 6.39018 10.7316 6.31106C10.6512 6.23195 10.5422 6.1875 10.4286 6.1875H9.57143C9.45776 6.1875 9.34876 6.23195 9.26838 6.31106C9.18801 6.39018 9.14286 6.49749 9.14286 6.60938V14.2031C9.14286 14.315 9.18801 14.4223 9.26838 14.5014C9.34876 14.5806 9.45776 14.625 9.57143 14.625ZM15.4286 2.8125H12.4854L11.2711 0.819141C11.1187 0.569185 10.9031 0.362352 10.6454 0.218797C10.3876 0.0752422 10.0965 -0.000138635 9.80036 1.91407e-07H6.19964C5.90362 -1.71833e-05 5.61264 0.0754214 5.35504 0.218971C5.09743 0.36252 4.88197 0.569287 4.72964 0.819141L3.51464 2.8125H0.571429C0.419876 2.8125 0.274531 2.87176 0.167368 2.97725C0.0602039 3.08274 0 3.22582 0 3.375L0 3.9375C0 4.08668 0.0602039 4.22976 0.167368 4.33525C0.274531 4.44074 0.419876 4.5 0.571429 4.5H1.14286V16.3125C1.14286 16.7601 1.32347 17.1893 1.64496 17.5057C1.96645 17.8222 2.40249 18 2.85714 18H13.1429C13.5975 18 14.0336 17.8222 14.355 17.5057C14.6765 17.1893 14.8571 16.7601 14.8571 16.3125V4.5H15.4286C15.5801 4.5 15.7255 4.44074 15.8326 4.33525C15.9398 4.22976 16 4.08668 16 3.9375V3.375C16 3.22582 15.9398 3.08274 15.8326 2.97725C15.7255 2.87176 15.5801 2.8125 15.4286 2.8125ZM6.13714 1.7898C6.15624 1.75851 6.18326 1.73264 6.21557 1.7147C6.24787 1.69677 6.28434 1.6874 6.32143 1.6875H9.67857C9.7156 1.68746 9.752 1.69686 9.78423 1.71479C9.81647 1.73272 9.84343 1.75856 9.8625 1.7898L10.4861 2.8125H5.51393L6.13714 1.7898ZM13.1429 16.3125H2.85714V4.5H13.1429V16.3125ZM5.57143 14.625H6.42857C6.54224 14.625 6.65124 14.5806 6.73162 14.5014C6.81199 14.4223 6.85714 14.315 6.85714 14.2031V6.60938C6.85714 6.49749 6.81199 6.39018 6.73162 6.31106C6.65124 6.23195 6.54224 6.1875 6.42857 6.1875H5.57143C5.45776 6.1875 5.34876 6.23195 5.26838 6.31106C5.18801 6.39018 5.14286 6.49749 5.14286 6.60938V14.2031C5.14286 14.315 5.18801 14.4223 5.26838 14.5014C5.34876 14.5806 5.45776 14.625 5.57143 14.625Z" />
</svg>