<svg width="70" height="70" viewBox="0 0 70 70" fill="none" xmlns="http://www.w3.org/2000/svg">
    <rect width="70" height="70" fill="white"/>
    <path d="M35.5001 26.7417C30.0962 26.7417 25.7001 31.1378 25.7001 36.5417C25.7001 41.9456 30.0962 46.3417 35.5001 46.3417C40.904 46.3417 45.3001 41.9456 45.3001 36.5417C45.3001 31.1378 40.904 26.7417 35.5001 26.7417Z" fill="#EDEDED"/>
    <path d="M56.0808 22.6584H49.1195L45.8529 14.4917H25.1471L21.8804 22.6584H20.8V18.575H15.9V22.6584H14.9192C12.7575 22.6584 11 24.4158 11 26.5775V50.5614C11 52.7378 12.7705 54.5084 14.947 54.5084H56.053C58.2295 54.5084 60 52.7378 60 50.5614V26.5775C60 24.4158 58.2425 22.6584 56.0808 22.6584ZM19.1667 22.6584H17.5333V20.2084H19.1667V22.6584ZM35.5 51.2417C27.3946 51.2417 20.8 44.6471 20.8 36.5417C20.8 28.4363 27.3946 21.8417 35.5 21.8417C43.6054 21.8417 50.2 28.4363 50.2 36.5417C50.2 44.6471 43.6054 51.2417 35.5 51.2417ZM53.4667 32.4584C51.6651 32.4584 50.2 30.9933 50.2 29.1917C50.2 27.3901 51.6651 25.925 53.4667 25.925C55.2682 25.925 56.7333 27.3901 56.7333 29.1917C56.7333 30.9933 55.2682 32.4584 53.4667 32.4584Z" fill="#EDEDED"/>
</svg>