<svg version="1.1" xmlns="http://www.w3.org/2000/svg" xmlns:xlink="http://www.w3.org/1999/xlink" x="0px" y="0px"
	 viewBox="0 0 200 200" style="enable-background:new 0 0 200 200;" xml:space="preserve">
<g>
	<path d="M103.1,155.5c-3.9-1.6-7.4-3.7-10.6-6.2l-0.1-0.1c-0.4-0.2-0.7-0.6-1.1-1c-0.8-0.8-2-0.8-2.8,0
		c-0.8,0.8-0.8,2,0,2.8c0.5,0.5,1,1,1.6,1.4c3.5,2.8,7.4,5,11.5,6.8c0.3,0.1,0.5,0.2,0.8,0.2c0.8,0,1.5-0.5,1.8-1.2
		C104.6,157.1,104.1,155.9,103.1,155.5z"/>
	<path d="M119.6,67.6c-5.9,0-11.7,1.1-17.2,3.3c-2.5,1-5.1,2.3-7.4,3.7c-14.3,8.7-22.8,23.9-22.8,40.6
		c0,3.4,0.3,6.5,0.9,9.4c0.6,3.4,1.6,6.6,3,9.6c0.5,1,1.6,1.5,2.6,1c1-0.5,1.5-1.6,1-2.6c-1.2-2.7-2.1-5.6-2.7-8.7
		c-0.6-2.7-0.8-5.5-0.8-8.6C76.1,99.9,83.9,86,97,78c2.1-1.3,4.5-2.5,6.8-3.4c5.1-2,10.4-3,15.8-3c24,0,43.5,19.5,43.5,43.5
		c0,18.5-11.8,35.1-29.2,41.1c-1,0.4-1.6,1.5-1.2,2.5c0.3,0.8,1.1,1.3,1.9,1.3c0.2,0,0.4,0,0.7-0.1c19.1-6.6,31.9-24.7,31.9-44.9
		C167,88.9,145.7,67.6,119.6,67.6z"/>
	<path d="M119.6,53.3c-10.7,0-20.9,2.7-30,7.7c0.6-2.6,0.9-5.2,0.9-8c0-19.8-16.1-36-36-36s-36,16.1-36,36
		c0,14.7,8.9,27.4,21.6,33l-5.8,2.8l-0.7-1.2c-0.5-1-1.8-1.3-2.7-0.8c-1,0.5-1.3,1.8-0.8,2.7l0.6,1l-1.6,0.8l-0.3-0.6
		c-0.5-1-1.7-1.4-2.7-0.9c-1,0.5-1.4,1.7-0.9,2.7l0.3,0.6l-4.9,2.4l17,33.4l1.1,0.1c0.1,0,12.7,1.7,16.3,12.6
		c3.9,11.5,13.6,34.7,22.8,40c0.8,0.4,2.4,1.4,4,1.4c0.8,0,1.5-0.2,2.2-0.8c2.5-2.1,0.9-6.8-2.1-14.7c-0.4-1.1-0.8-2.2-1.2-3.4
		c-0.1-0.2-0.2-0.5-0.3-0.8c10.7,8.7,24.3,13.9,39.1,13.9c34.2,0,62-27.8,62-62S153.7,53.3,119.6,53.3z M22.5,53
		c0-17.6,14.3-32,32-32s32,14.3,32,32c0,3.9-0.7,7.7-2,11.2l-0.1,0l-0.2,0.6c-2.4,6.1-6.8,11.4-12.4,15.1c-0.1,0.1-0.2,0.1-0.3,0.2
		c-0.3,0.2-0.5,0.3-0.8,0.5c-0.3,0.2-0.6,0.3-0.9,0.5c-0.1,0-0.2,0.1-0.2,0.1c-4.5,2.4-9.7,3.8-15.1,3.8c-2.8,0-5.4-0.4-8-1L45,83.6
		C32,79.5,22.5,67.4,22.5,53z M54.5,89c3.3,0,6.5-0.5,9.6-1.3c-2.9,5.7-4.8,11.9-5.8,18.3c-1.2-3.1-1.9-5.1-2-5.1l-7.2-12.3
		C50.9,88.9,52.7,89,54.5,89z M32.6,94.1l4.8,8.5c0.4,0.7,1,1,1.7,1c0.3,0,0.7-0.1,1-0.3c1-0.5,1.3-1.8,0.8-2.7l-4.7-8.3l8.1-4
		l6.8,11.6l-14.5,8.2c0.2-0.5,0.2-1.1-0.1-1.6l-5.7-11.5L32.6,94.1z M27.3,96.7l5.7,11.5c0.3,0.6,0.9,1,1.5,1.1l-1.8,1l-6.6-13
		L27.3,96.7z M81.3,178.8c-0.3-0.1-0.8-0.3-1.5-0.7c-7.5-4.3-16.9-25.4-21-37.7c-3.8-11.3-15-14.4-18.6-15.1l-5.8-11.4L53,103.5
		c0.7,1.9,2.4,6.3,4.6,11.8v0.1c0,1,0,2,0.1,3c0,0.4,0.1,0.8,0.1,1.2c0,0.6,0.1,1.2,0.1,1.7c0.1,0.5,0.1,1.1,0.2,1.6
		c0.1,0.4,0.1,0.9,0.2,1.3c0.1,0.6,0.2,1.2,0.3,1.8c0.1,0.4,0.1,0.7,0.2,1.1c0.1,0.6,0.3,1.3,0.4,1.9c0.1,0.3,0.1,0.6,0.2,0.9
		c0.2,0.7,0.3,1.4,0.5,2.1c0.1,0.2,0.1,0.4,0.2,0.7c0.2,0.7,0.4,1.5,0.7,2.2c0.1,0.2,0.1,0.3,0.2,0.5c0.3,0.8,0.6,1.6,0.9,2.3
		c0,0.1,0.1,0.1,0.1,0.2c2.8,7.2,6.9,13.7,12,19.3c0.8,2.2,1.5,4.1,2.1,5.6c0.4,1.2,0.8,2.2,1,2.8c0.4,1.1,0.8,2.2,1.3,3.4
		C79.4,171.9,81.3,176.8,81.3,178.8z M119.6,173.2c-16.6,0-31.6-7.1-42.2-18.3l0-0.1l-0.3-0.3c-5-5.4-8.8-11.5-11.4-18.2
		c0,0,0-0.1,0-0.1c-0.3-0.8-0.6-1.5-0.9-2.3c0-0.1-0.1-0.2-0.1-0.3c-0.2-0.7-0.5-1.5-0.7-2.2c0-0.2-0.1-0.3-0.1-0.5
		c-0.2-0.7-0.4-1.4-0.5-2.1c-0.1-0.2-0.1-0.5-0.2-0.7c-0.1-0.6-0.3-1.3-0.4-1.9c-0.1-0.3-0.1-0.6-0.2-0.9c-0.1-0.6-0.2-1.2-0.3-1.8
		c-0.1-0.4-0.1-0.8-0.2-1.2c-0.1-0.5-0.1-1-0.2-1.6c-0.1-0.5-0.1-1.1-0.1-1.6c0-0.4-0.1-0.8-0.1-1.2c0-0.9-0.1-1.9-0.1-2.8
		c0-10.5,2.8-20.7,8.2-29.6c0.6-0.3,1.2-0.6,1.8-0.9c0,0,0.1,0,0.1-0.1c0.4-0.2,0.8-0.5,1.2-0.7c0.3-0.2,0.6-0.4,1-0.6
		c0.1-0.1,0.2-0.1,0.3-0.2c6-3.9,10.7-9.6,13.5-16.3c9.4-6.2,20.4-9.5,31.9-9.5c32,0,58,26,58,58S151.5,173.2,119.6,173.2z"/>
	<path d="M72.5,71c0.8-0.8,0.8-2,0-2.8c-0.8-0.8-2-0.8-2.8,0c-4.1,4-9.4,6.3-15.2,6.3
		c-11.8,0-21.4-9.6-21.4-21.4s9.6-21.4,21.4-21.4c8.6,0,16.3,5.1,19.7,13.1c1.1,2.5,1.7,5.4,1.7,8.3c0,1.1,0.9,2,2,2s2-0.9,2-2
		c0-3.5-0.7-6.9-2-9.9c-4-9.4-13.2-15.5-23.4-15.5c-14,0-25.4,11.4-25.4,25.4c0,14,11.4,25.4,25.4,25.4C61.3,78.4,67.7,75.8,72.5,71
		z"/>
</g>
<g>
	<path style="opacity:0.15;enable-background:new    ;" d="M149.8,81.3c3,6.1,4.8,13,4.8,20.3
		c0,25.1-20.3,45.5-45.5,45.5c-11.6,0-22.2-4.3-30.2-11.6c7.5,14.9,22.9,25.2,40.7,25.2c25.1,0,45.5-20.3,45.5-45.5
		C165,101.7,159.2,89.6,149.8,81.3z"/>
	<path style="opacity:0.15;enable-background:new    ;" d="M70.4,36.4c1.6,3,2.4,6.5,2.4,10.3
		c0,12.6-10.3,22.9-22.9,22.9c-5.8,0-11.2-2.2-15.2-5.8c3.7,7.6,11.4,12.7,20.4,12.7C67.8,76.4,78,66.2,78,53.6
		C78,46.8,75.1,40.6,70.4,36.4z"/>
</g>
</svg>
