<svg width="17" height="8" viewBox="0 0 17 8" class="" xmlns="http://www.w3.org/2000/svg">
    <path d="M8.29195 7.99635C8.49405 7.97525 8.68476 7.89234 8.83818 7.75888L15.7637 1.81242C15.8792 1.73425 15.9769 1.63253 16.0504 1.51392C16.1239 1.3953 16.1716 1.26245 16.1903 1.1241C16.209 0.985743 16.1983 0.845011 16.1589 0.711087C16.1195 0.577163 16.0523 0.453081 15.9617 0.346975C15.8712 0.24087 15.7592 0.155132 15.6333 0.0953758C15.5073 0.0356194 15.3702 0.00319535 15.2308 0.000224465C15.0915 -0.00274642 14.9531 0.0238026 14.8247 0.0781361C14.6963 0.13247 14.5808 0.213352 14.4858 0.3155L8.19922 5.71479L1.91263 0.3155C1.81762 0.213352 1.70214 0.13247 1.57375 0.0781361C1.44537 0.0238026 1.30697 -0.00274642 1.16763 0.000224465C1.02829 0.00319535 0.891143 0.0356194 0.765181 0.0953758C0.639219 0.155132 0.527281 0.24087 0.436698 0.346975C0.346115 0.453081 0.27893 0.577163 0.239546 0.711087C0.200162 0.845011 0.189466 0.985743 0.208159 1.1241C0.226851 1.26245 0.274512 1.3953 0.348017 1.51392C0.421522 1.63253 0.519215 1.73425 0.634695 1.81242L7.56025 7.75888C7.66022 7.84538 7.77646 7.91096 7.90213 7.95174C8.02779 7.99253 8.16034 8.0077 8.29195 7.99635V7.99635Z"></path>
</svg>