<svg width="20" height="16" viewBox="0 0 20 16" fill="none" xmlns="http://www.w3.org/2000/svg">
<path d="M12.9615 12.9C12.9615 13.1761 13.1854 13.4 13.4615 13.4C13.7377 13.4 13.9615 13.1761 13.9615 12.9H12.9615ZM13.9615 9.4C13.9615 9.12386 13.7377 8.9 13.4615 8.9C13.1854 8.9 12.9615 9.12386 12.9615 9.4H13.9615ZM9.5 12.9C9.5 13.1761 9.72386 13.4 10 13.4C10.2761 13.4 10.5 13.1761 10.5 12.9H9.5ZM10.5 9.4C10.5 9.12386 10.2761 8.9 10 8.9C9.72386 8.9 9.5 9.12386 9.5 9.4H10.5ZM6.03846 12.9C6.03846 13.1761 6.26232 13.4 6.53846 13.4C6.8146 13.4 7.03846 13.1761 7.03846 12.9H6.03846ZM7.03846 9.4C7.03846 9.12386 6.8146 8.9 6.53846 8.9C6.26232 8.9 6.03846 9.12386 6.03846 9.4H7.03846ZM3.76923 15L3.27712 15.0885C3.31995 15.3267 3.52722 15.5 3.76923 15.5V15ZM16.2308 15V15.5C16.4728 15.5 16.68 15.3267 16.7229 15.0885L16.2308 15ZM1 7.3H0.5C0.5 7.57614 0.723858 7.8 1 7.8V7.3ZM1 4.5V4C0.723858 4 0.5 4.22386 0.5 4.5H1ZM19 4.5H19.5C19.5 4.22386 19.2761 4 19 4V4.5ZM19 7.3V7.8C19.2761 7.8 19.5 7.57614 19.5 7.3H19ZM8.27858 1.35159C8.47276 1.15526 8.47101 0.838679 8.27467 0.644499C8.07833 0.450318 7.76176 0.452067 7.56758 0.648405L8.27858 1.35159ZM12.4324 0.648405C12.2382 0.452067 11.9217 0.450318 11.7253 0.644499C11.529 0.838679 11.5272 1.15526 11.7214 1.35159L12.4324 0.648405ZM13.9615 12.9V9.4H12.9615V12.9H13.9615ZM10.5 12.9V9.4H9.5V12.9H10.5ZM7.03846 12.9V9.4H6.03846V12.9H7.03846ZM4.26134 14.9115L2.87672 7.21151L1.89251 7.38849L3.27712 15.0885L4.26134 14.9115ZM3.76923 15.5H16.2308V14.5H3.76923V15.5ZM16.7229 15.0885L18.1075 7.38849L17.1233 7.21151L15.7387 14.9115L16.7229 15.0885ZM2.38462 6.8H1V7.8H2.38462V6.8ZM1.5 7.3V4.5H0.5V7.3H1.5ZM18.5 4.5V7.3H19.5V4.5H18.5ZM19 6.8H17.6154V7.8H19V6.8ZM17.6154 6.8H2.38462V7.8H17.6154V6.8ZM1 5H4.46154V4H1V5ZM4.81704 4.85159L8.27858 1.35159L7.56758 0.648405L4.10604 4.14841L4.81704 4.85159ZM4.46154 5H15.5385V4H4.46154V5ZM15.5385 5H19V4H15.5385V5ZM15.894 4.14841L12.4324 0.648405L11.7214 1.35159L15.183 4.85159L15.894 4.14841Z" fill="black"/>
</svg>
