<svg width="42" height="36" viewBox="0 0 42 36" fill="none" xmlns="http://www.w3.org/2000/svg">
<path d="M17.7267 2.8082L16.8761 2.28233L16.8731 2.28712L17.7267 2.8082ZM1.51305 29.3655L0.659544 28.8444C0.656735 28.849 0.653964 28.8536 0.65123 28.8583L1.51305 29.3655ZM4.7864 35L4.77562 36H4.7864V35ZM37.2136 35L37.2136 36.0001L37.2244 35.9999L37.2136 35ZM40.4869 29.3655L41.3488 28.8583C41.346 28.8536 41.3433 28.849 41.3405 28.8444L40.4869 29.3655ZM24.2733 2.8082L25.1269 2.28711L25.1239 2.28234L24.2733 2.8082ZM21 1V0V1ZM22 12.462C22 11.9097 21.5523 11.462 21 11.462C20.4477 11.462 20 11.9097 20 12.462H22ZM20 19.9747C20 20.5269 20.4477 20.9747 21 20.9747C21.5523 20.9747 22 20.5269 22 19.9747H20ZM22 25.6092C22 25.0569 21.5523 24.6092 21 24.6092C20.4477 24.6092 20 25.0569 20 25.6092H22ZM20 27.4873C20 28.0396 20.4477 28.4873 21 28.4873C21.5523 28.4873 22 28.0396 22 27.4873H20ZM16.8731 2.28712L0.659544 28.8444L2.36656 29.8866L18.5802 3.32927L16.8731 2.28712ZM0.65123 28.8583C0.227423 29.5784 0.00239969 30.3963 1.90837e-05 31.2305L2.00001 31.2362C2.00137 30.7586 2.13011 30.2886 2.37487 29.8727L0.65123 28.8583ZM1.90837e-05 31.2305C-0.00236153 32.0647 0.21799 32.8839 0.637707 33.6064L2.36706 32.6017C2.1247 32.1845 1.99865 31.7138 2.00001 31.2362L1.90837e-05 31.2305ZM0.637707 33.6064C1.05734 34.3287 1.66105 34.9283 2.38693 35.3474L3.3869 33.6153C2.96048 33.3691 2.60951 33.019 2.36706 32.6017L0.637707 33.6064ZM2.38693 35.3474C3.11268 35.7664 3.93617 35.9909 4.77562 35.9999L4.79718 34.0001C4.29973 33.9947 3.81345 33.8616 3.3869 33.6153L2.38693 35.3474ZM4.7864 36H37.2136V34H4.7864V36ZM37.2244 35.9999C38.0638 35.9909 38.8873 35.7664 39.6131 35.3474L38.6131 33.6153C38.1865 33.8616 37.7003 33.9947 37.2028 34.0001L37.2244 35.9999ZM39.6131 35.3474C40.3389 34.9283 40.9427 34.3287 41.3623 33.6064L39.6329 32.6017C39.3905 33.019 39.0395 33.3691 38.6131 33.6153L39.6131 35.3474ZM41.3623 33.6064C41.782 32.8839 42.0024 32.0647 42 31.2305L40 31.2362C40.0014 31.7138 39.8753 32.1845 39.6329 32.6017L41.3623 33.6064ZM42 31.2305C41.9976 30.3963 41.7726 29.5784 41.3488 28.8583L39.6251 29.8727C39.8699 30.2886 39.9986 30.7586 40 31.2362L42 31.2305ZM41.3405 28.8444L25.1269 2.28712L23.4198 3.32927L39.6334 29.8866L41.3405 28.8444ZM25.1239 2.28234C24.6915 1.58286 24.084 1.00674 23.3618 0.607789L22.3947 2.35844C22.8192 2.59295 23.1727 2.92957 23.4228 3.33405L25.1239 2.28234ZM23.3618 0.607789C22.6397 0.208898 21.8263 0 21 0V2C21.4897 2 21.9701 2.12388 22.3947 2.35844L23.3618 0.607789ZM21 0C20.1737 0 19.3603 0.208898 18.6382 0.607789L19.6053 2.35844C20.0299 2.12388 20.5103 2 21 2V0ZM18.6382 0.607789C17.916 1.00674 17.3085 1.58286 16.8761 2.28234L18.5772 3.33405C18.8273 2.92957 19.1808 2.59295 19.6053 2.35844L18.6382 0.607789ZM20 12.462V19.9747H22V12.462H20ZM20 25.6092V27.4873H22V25.6092H20Z" fill="#FF0000"/>
</svg>
