<svg width="13" height="18" viewBox="0 0 13 18" fill="none" xmlns="http://www.w3.org/2000/svg">
<path fill-rule="evenodd" clip-rule="evenodd" d="M4.69314 4.53369C4.31908 4.94204 4.05377 5.46342 3.94528 5.69667C3.91108 5.7702 3.83789 5.81903 3.75679 5.81903H1.23116C1.10926 5.81903 1.01542 5.71079 1.03852 5.59109C1.24925 4.49958 1.80402 3.60641 2.53224 2.81142C3.56195 1.6873 4.79651 1 7.06078 1C10.274 1 12.495 4.09095 12.495 5.9814C12.495 6.75428 12.4535 7.51128 12.0422 8.24567C11.6378 8.96763 10.6502 9.92589 9.77791 10.5099C9.08694 10.9726 9.09074 11.0661 8.8722 11.4156C8.78156 11.5606 8.73817 11.6985 8.71792 11.8069C8.6959 11.9247 8.5979 12.031 8.47803 12.031H7.59649H5.80006C5.6896 12.031 5.59934 11.9416 5.61059 11.8317C5.70129 10.9455 6.38774 9.63031 8.041 8.52334C8.76587 8.03799 9.12725 7.64276 9.32184 7.29532C9.50946 6.96031 9.59293 6.57951 9.59293 6.01565C9.59293 5.2326 8.70889 3.67633 6.59828 3.67633C5.58028 3.67633 5.16602 4.01745 4.69314 4.53369ZM5.8011 17C5.69064 17 5.6011 16.9105 5.6011 16.8V14.3574C5.6011 14.247 5.69064 14.1574 5.8011 14.1574H8.50335C8.61381 14.1574 8.70335 14.247 8.70335 14.3574V16.8C8.70335 16.9105 8.61381 17 8.50335 17H5.8011Z" stroke="black"/>
</svg>
