<svg width="16" height="16" viewBox="0 0 16 16" fill="none" xmlns="http://www.w3.org/2000/svg">
<path d="M9.17717 15.1568L9.17697 15.157C9.06839 15.2658 8.93944 15.352 8.79753 15.4109C8.65561 15.4697 8.50348 15.5 8.34986 15.5C8.19623 15.5 8.04411 15.4697 7.90219 15.4109C7.76027 15.352 7.63133 15.2658 7.52274 15.157L7.52234 15.1566L0.5 8.14063V0.5H8.13854L15.16 7.52327C15.1601 7.52341 15.1602 7.52354 15.1604 7.52368C15.3779 7.74276 15.5 8.03903 15.5 8.34787C15.5 8.6567 15.3779 8.95298 15.1604 9.17206C15.1602 9.17219 15.1601 9.17233 15.16 9.17246L9.17717 15.1568ZM5 6.5C5.82843 6.5 6.5 5.82843 6.5 5C6.5 4.17157 5.82843 3.5 5 3.5C4.17157 3.5 3.5 4.17157 3.5 5C3.5 5.82843 4.17157 6.5 5 6.5Z" stroke="black" stroke-linecap="round" stroke-linejoin="round"/>
</svg>
