<svg width="26" height="22" viewBox="0 0 26 22" fill="none" xmlns="http://www.w3.org/2000/svg">
<path d="M15 17C15 17.5523 15.4477 18 16 18C16.5523 18 17 17.5523 17 17H15ZM17 10C17 9.44771 16.5523 9 16 9C15.4477 9 15 9.44771 15 10H17ZM10 17C10 17.5523 10.4477 18 11 18C11.5523 18 12 17.5523 12 17H10ZM12 6C12 5.44772 11.5523 5 11 5C10.4477 5 10 5.44772 10 6H12ZM5 17C5 17.5523 5.44772 18 6 18C6.55228 18 7 17.5523 7 17H5ZM7 6C7 5.44772 6.55228 5 6 5C5.44772 5 5 5.44772 5 6H7ZM20 17C20 17.5523 20.4477 18 21 18C21.5523 18 22 17.5523 22 17H20ZM22 6C22 5.44772 21.5523 5 21 5C20.4477 5 20 5.44772 20 6H22ZM1 21H0C0 21.5523 0.447715 22 1 22L1 21ZM2 1C2 0.447715 1.55228 0 1 0C0.447715 0 0 0.447715 0 1H2ZM25 22C25.5523 22 26 21.5523 26 21C26 20.4477 25.5523 20 25 20V22ZM17 17V10H15V17H17ZM12 17V6H10V17H12ZM7 17V6H5V17H7ZM22 17V6H20V17H22ZM2 21V1H0V21H2ZM1 22H25V20H1V22Z" fill="black"/>
</svg>
