<svg width="22" height="22" viewBox="0 0 22 22" fill="none" xmlns="http://www.w3.org/2000/svg">
<path d="M12 5C12 4.44772 11.5523 4 11 4C10.4477 4 10 4.44772 10 5H12ZM11 11H10C10 11.3788 10.214 11.725 10.5528 11.8944L11 11ZM14.5528 13.8944C15.0468 14.1414 15.6474 13.9412 15.8944 13.4472C16.1414 12.9532 15.9412 12.3526 15.4472 12.1056L14.5528 13.8944ZM20 11C20 15.9706 15.9706 20 11 20V22C17.0751 22 22 17.0751 22 11H20ZM11 20C6.02944 20 2 15.9706 2 11H0C0 17.0751 4.92487 22 11 22V20ZM2 11C2 6.02944 6.02944 2 11 2V0C4.92487 0 0 4.92487 0 11H2ZM11 2C15.9706 2 20 6.02944 20 11H22C22 4.92487 17.0751 0 11 0V2ZM10 5V11H12V5H10ZM10.5528 11.8944L14.5528 13.8944L15.4472 12.1056L11.4472 10.1056L10.5528 11.8944Z" fill="black"/>
</svg>
