<svg width="24" height="16" viewBox="0 0 24 16" fill="none" xmlns="http://www.w3.org/2000/svg">
<path d="M8.02417 2.90909C9.69996 2.90909 11.2158 3.77159 12.0846 4.96004L14.1437 2.87992C12.9122 1.27367 10.5419 0 8.02417 0C3.61575 0 0 3.57822 0 8C0 12.4218 3.61575 16 8.02417 16C11.6786 16 14.7528 13.5419 15.6954 10.1818C15.8984 9.48352 16 8.75625 16 8V7.27273H8.74924V10.1813H12.5921C11.7946 11.8977 10.0398 13.0909 8.02417 13.0909C5.22545 13.0909 2.9003 10.8072 2.9003 8C2.9003 5.1928 5.22545 2.90909 8.02417 2.90909Z" fill="black"/>
<path d="M18 7H24V9H18V7Z" fill="black"/>
<path d="M22 5V11H20V5H22Z" fill="black"/>
</svg>
