<svg width="18" height="16" viewBox="0 0 18 16" fill="none" xmlns="http://www.w3.org/2000/svg">
<path fill-rule="evenodd" clip-rule="evenodd" d="M0 0.941176C0 0.421379 0.402944 0 0.900001 0H17.1C17.5971 0 18 0.421379 18 0.941176C18 1.46097 17.5971 1.88235 17.1 1.88235H0.900001C0.402944 1.88235 0 1.46097 0 0.941176ZM0 5.64706C0 5.12726 0.402944 4.70588 0.900001 4.70588H10.8C11.2971 4.70588 11.7 5.12726 11.7 5.64706C11.7 6.16686 11.2971 6.58824 10.8 6.58824H0.900001C0.402944 6.58824 0 6.16686 0 5.64706ZM14.4 4.70587C13.903 4.70587 13.5 5.12725 13.5 5.64705C13.5 6.16685 13.903 6.58822 14.4 6.58822H17.1C17.5971 6.58822 18 6.16685 18 5.64705C18 5.12725 17.5971 4.70587 17.1 4.70587H14.4ZM0 10.3529C0 9.83314 0.402944 9.41177 0.900001 9.41177H17.1C17.5971 9.41177 18 9.83314 18 10.3529C18 10.8727 17.5971 11.2941 17.1 11.2941H0.900001C0.402944 11.2941 0 10.8727 0 10.3529ZM0.900001 14.1176C0.402944 14.1176 0 14.539 0 15.0588C0 15.5786 0.402944 16 0.900001 16H12.6C13.0971 16 13.5 15.5786 13.5 15.0588C13.5 14.539 13.0971 14.1176 12.6 14.1176H0.900001Z" fill="white"/>
</svg>
