<svg width="16" height="16" viewBox="0 0 16 16" fill="none" xmlns="http://www.w3.org/2000/svg">
<path d="M10.3333 0.5C10.0572 0.5 9.83333 0.723858 9.83333 1C9.83333 1.27614 10.0572 1.5 10.3333 1.5V0.5ZM13.4444 1V0.5V1ZM10.3333 14.5C10.0572 14.5 9.83333 14.7239 9.83333 15C9.83333 15.2761 10.0572 15.5 10.3333 15.5V14.5ZM6.09089 11.5353C5.89563 11.7306 5.89563 12.0472 6.09089 12.2424C6.28615 12.4377 6.60274 12.4377 6.798 12.2424L6.09089 11.5353ZM10.3333 8L10.6869 8.35355C10.8821 8.15829 10.8821 7.84171 10.6869 7.64645L10.3333 8ZM6.798 3.75756C6.60274 3.5623 6.28615 3.5623 6.09089 3.75756C5.89563 3.95282 5.89563 4.2694 6.09089 4.46466L6.798 3.75756ZM1 7.5C0.723858 7.5 0.5 7.72386 0.5 8C0.5 8.27614 0.723858 8.5 1 8.5V7.5ZM10.3333 1.5H13.4444V0.5H10.3333V1.5ZM13.4444 1.5C13.7244 1.5 13.9929 1.61121 14.1908 1.80917L14.8979 1.10206C14.5125 0.716567 13.9896 0.5 13.4444 0.5V1.5ZM14.1908 1.80917C14.3888 2.00712 14.5 2.27561 14.5 2.55556H15.5C15.5 2.01039 15.2834 1.48755 14.8979 1.10206L14.1908 1.80917ZM14.5 2.55556V13.4444H15.5V2.55556H14.5ZM14.5 13.4444C14.5 13.7244 14.3888 13.9929 14.1908 14.1908L14.8979 14.8979C15.2834 14.5125 15.5 13.9896 15.5 13.4444H14.5ZM14.1908 14.1908C13.9929 14.3888 13.7244 14.5 13.4444 14.5V15.5C13.9896 15.5 14.5125 15.2834 14.8979 14.8979L14.1908 14.1908ZM13.4444 14.5H10.3333V15.5H13.4444V14.5ZM6.798 12.2424L10.6869 8.35355L9.97978 7.64645L6.09089 11.5353L6.798 12.2424ZM10.6869 7.64645L6.798 3.75756L6.09089 4.46466L9.97978 8.35355L10.6869 7.64645ZM10.3333 7.5H1V8.5H10.3333V7.5Z" fill="black"/>
</svg>
