<svg width="18" height="18" viewBox="0 0 18 18" fill="none" xmlns="http://www.w3.org/2000/svg">
<path fill-rule="evenodd" clip-rule="evenodd" d="M3.69903 0C2.45451 0 1.24475 0 0 0C0 6.02809 0 12.02 0 17.9984C3.65631 17.9984 7.27819 17.9984 10.8841 17.9984C10.8841 16.8129 10.8841 15.6668 10.8841 14.4663C8.47936 14.4663 6.10573 14.4663 3.69903 14.4663C3.69903 9.61483 3.69903 4.81879 3.69903 0Z" fill="white"/>
<path fill-rule="evenodd" clip-rule="evenodd" d="M14.502 7.21391C14.502 10.8341 14.502 14.4217 14.502 18C15.6923 18 16.849 18 18 18C18 14.3843 18 10.8072 18 7.21391C16.8209 7.21391 15.6653 7.21391 14.502 7.21391Z" fill="white"/>
<path fill-rule="evenodd" clip-rule="evenodd" d="M17.9948 0.00182856C16.823 0.00182856 15.6791 0.00182856 14.5025 0.00182856C14.5025 1.19378 14.5025 2.34977 14.5025 3.49398C15.6929 3.49398 16.8486 3.49398 17.9948 3.49398C17.9948 2.31269 17.9948 1.16919 17.9948 0.00182856Z" fill="white"/>
</svg>
